<svg xmlns="http://www.w3.org/2000/svg" width="149.966" height="151.089" viewBox="0 0 668 673">
  <defs>
    <style>
      .cls-1 {
        fill: #22211f;
        fill-rule: evenodd;
      }
    </style>
  </defs>
  <path class="cls-1" d="M125.883,401.924c6.551,4.094,10.771,8.13,17.111,13.239l51.334,47.617c10.713,10.2,38.13,37.886,48.671,50.159,7.19,8.372,10.313,9.269,15.6,17.523-1.941.721-25.925,6.231-39.873,11.029-29.044,9.993-55.495,26-80.787,17.428-3.783-1.283-21-17.73-28.9-23.293-4.672-3.291-9.12-6.4-14.5-10.155-15.392-10.759-19.805-3.351.643-51,5.347-12.46,9.875-23.682,14.965-35.9,4.446-10.67,10.57-27.918,15.725-36.649h0ZM494.745,114.241c10.56,3.672,36.162,18.3,42.438,26.174,5.283,6.626,3.753,7.236,1.8,16.782l-10.412,81.49c-14.421.529-10.255-1.191-19.2-7.19-15-10.063-66.441-48.072-82.959-61.392L394.646,144.57c2.344-2.189-.807-1.042,4.484-2.424l47.025-10.595c24.494-6.142,28.291-7.753,48.59-17.31h0Zm-421.589,16.4c10.774-6.049,16.514-1.455,34.688-14.619,4.871-3.529,16.077-3.18,22.88-2.246,7.051,0.968,23.288,14.508,30.734,19.081,4.306,2.645,23.685,17.447,26.845,22.566l9.571,15.453c13.188,0.65,10.871-.116,27.512,12.062L384.645,288.059c34.247,23.8,74.207,48.117,108.648,72.1l98.162,64.26c-2.831,6.093-6.148,27.113-8,35.516-8.5,38.6-19.2,54.947-36.509,92.064-24.872.979-44.5,0.791-68.81,0.4-7.867-.126-5.93,1.525-10.233-2.645-14.229-13.792-40.109-44.062-54.5-58.019-4.971-4.821-9.443-9.346-14.367-14.594-39.787-42.4-20.953-29.627-28.738-40.183l-80.06-75.688C271.862,343.4,255.3,324.15,236.3,304.016c-4.879-5.17-7.329-10.047-12.417-14.743L222.476,288a20.812,20.812,0,0,1-2.1-2.231l-23.258-26.439a59.425,59.425,0,0,1-6.709-7.073l-20.917-21.58c-4.6-4.826-8.185-9.82-12.562-15.025L136.936,194.45c-2.974-3.022-5.13-3.926-8.061-6.979-9.5-9.9-17.5-19.376-27.105-29.265-7.687-7.914-26.4-23.127-28.614-27.56h0ZM169.169,12.389L4.861,15.769C-4,48.478,4.807,31.922,4.829,66.07L4.8,127.9c-1.342,17.858-6.044,26.956-6.035,50.836,0,8.041-1.774,26.479,2.092,32.776,6.844,11.149,6.673,20.591,9.555,36.7,2.56,14.31,5.35,12.805-1.1,23.6L6.3,299.149l14.041,13.736,0.1,24.013c-8.359,7.662.993,2.208-16.68,14.958l1.58,72.535,17.4,12.637L19.11,498.861C0.756,512.021,4.7,527.977,5.288,544.365l2.244,61.664L3.5,637.63c41.127,10.349,32.112,7.14,79.12,7.137,41.544,0,36.181.425,77.243-4.564l1.06,7c6.363-.412,12.935-0.76,19.206-1.37,17.477-1.7,10.494-3.719,16.511-5.9,4.35-1.576,51.175,9.3,58.782,10.937,4.2-4.7,2.06-2.8,7.919-6.591,3.165,6.691,16.71,22.042,22.226,28.719l16.958-15.92L332.2,668.6l8.691-7.311c3.386,4.008,5.453,9.041,11.5,9.834,8.809,1.154,10.245-13.439,29.678-13.809l112.68-3.759c1.446-1.4,2.306-2.221,3.858-3.741l5.758-4.687c7.4,4.463,10.56,8.754,20.714,8.082,31.077-2.061,14.813,7.525,54.922,5.368,6.913-.372,5.2-2.072,11.3-4.22l13.02-2.011c-2.829-7.588-4.642-6.519-10.27-12.189l71.379,14.436c-0.958-84.027-.777-186.552.289-273l-19.189,1.433c0.693-5.61,9.058-3.5,9.717-14.783,0.829-14.221.678-62.9-1.392-73.309-1.057-5.317-14.6-20.822-18.215-25.646,4.3-11.71,4.732-10.932,12.707-20.476-0.673-6.282-2.144-7.962-4.84-15.114l20.918-6.855c0.231-12.035,1.584-60.319.8-75.581L657.74,68.819l6.474-20.609,0.28-21.181c-18.069-10.417-15.706-11.567-28.254-11.48-11.254.077-26.423-.523-37.217-3C585.167,9.38,588.887,7.13,573.7,22.726L566.8,7.712C545.115,6.1,475.571.028,459.028,0.028c-21.144,0-18.08,1.587-25.223,25.6l-30.349,3.122L399.42,15.619l-27.5-.315,2.915-3.21c5.376-5.123,3.491-3.059,7.7-12.094l-110.6.012c-3.656,6.76-10.339,11.9-18.218,14.52-11.014,3.657-5.561-2.238-12.519,4-5.209,4.673-6.113,4.381-14.327,4.216-10.9-.219-22.079-0.57-32.974-1.02-5.025-.208-10.551.3-15.382-0.843-7.442-1.757-5.275-3.689-9.345-8.5h0Z"/>
</svg>
