<?xml version="1.0" standalone="no"?>
<!DOCTYPE svg PUBLIC "-//W3C//DTD SVG 1.1//EN" "http://www.w3.org/Graphics/SVG/1.1/DTD/svg11.dtd" >
<svg xmlns="http://www.w3.org/2000/svg" xmlns:xlink="http://www.w3.org/1999/xlink" version="1.1">
<metadata></metadata>
<defs>
<font id="simplon_normalmedium" horiz-adv-x="292" >
<font-face units-per-em="1000" ascent="800" descent="-200" />
<missing-glyph horiz-adv-x="219" />
<glyph horiz-adv-x="0" />
<glyph horiz-adv-x="0" />
<glyph unicode="&#xd;" horiz-adv-x="0" />
<glyph unicode=" "  horiz-adv-x="219" />
<glyph unicode="&#x09;" horiz-adv-x="219" />
<glyph unicode="&#xa0;" horiz-adv-x="219" />
<glyph unicode="!" d="M93 210v490h105v-490h-105zM213 134v-134h-134v134h134z" />
<glyph unicode="&#x22;" horiz-adv-x="463" d="M74 700h105v-224h-105v224zM284 700h105v-224h-105v224z" />
<glyph unicode="#" horiz-adv-x="700" d="M259 700h100l-48 -193h156l48 193h100l-48 -193h66v-91h-89l-33 -132h90v-91h-112l-48 -193h-100l48 193h-156l-48 -193h-100l48 193h-66v91h88l33 132h-89v91h112zM411 284l33 132h-156l-33 -132h156z" />
<glyph unicode="$" horiz-adv-x="517" d="M239 -9q-48 3 -85 22q-37 18 -63 48t-40 70q-15 40 -16 86h105q3 -53 29 -85q25 -33 70 -40v213l-49 19q-66 26 -105 73q-39 46 -39 121q0 44 15 79q14 34 40 58q25 24 61 38q35 13 77 16v91h43v-91q81 -7 129 -60t54 -136h-105q-5 37 -24 62q-20 25 -54 32v-204l52 -20 q79 -31 111 -81q31 -50 31 -120q0 -81 -48 -133q-48 -53 -146 -58v-91h-43v91zM282 92q44 5 67 29q22 24 22 61q0 31 -18 58t-68 47l-3 1v-196zM151 518q0 -41 24 -61q23 -21 56 -34l8 -3v188q-45 -5 -66 -30q-22 -25 -22 -60z" />
<glyph unicode="%" horiz-adv-x="875" d="M245 0h-95l481 700h95zM200 363q27 0 40 16q13 15 13 38v160q0 23 -13 39q-13 15 -40 15t-40 -15q-13 -16 -13 -39v-160q0 -23 13 -38q13 -16 40 -16zM200 288q-39 0 -65 12q-27 12 -43 33q-16 20 -23 46t-7 54v128q0 28 7 54t23 47q16 20 43 32q26 12 65 12t66 -12 q26 -12 42 -32q16 -21 23 -47t7 -54v-128q0 -28 -7 -54t-23 -46q-16 -21 -42 -33q-27 -12 -66 -12zM675 69q27 0 40 16q13 15 13 38v160q0 23 -13 39q-13 15 -40 15t-40 -15q-13 -16 -13 -39v-160q0 -23 13 -38q13 -16 40 -16zM675 -6q-39 0 -65 12q-27 12 -43 33 q-16 20 -23 46t-7 54v128q0 28 7 54t23 47q16 20 43 32q26 12 65 12t66 -12q26 -12 42 -32q16 -21 23 -47t7 -54v-128q0 -28 -7 -54t-23 -46q-16 -21 -42 -33q-27 -12 -66 -12z" />
<glyph unicode="&#x26;" horiz-adv-x="603" d="M478 0h-219q-36 0 -73 11q-37 10 -68 34q-31 23 -50 61q-20 38 -20 94q0 50 23 90q22 40 60 60q-37 20 -60 60q-23 39 -23 89q0 58 21 97t53 62t70 33q37 9 71 9h110v-101h-110q-49 0 -79 -26q-31 -26 -31 -74q0 -46 29 -72q29 -27 81 -27h110v80h105v-80h123v-101h-123 v-299zM373 299h-114q-49 0 -77 -25q-29 -26 -29 -74t29 -73q28 -26 77 -26h114v198z" />
<glyph unicode="'" horiz-adv-x="253" d="M74 700h105v-224h-105v224z" />
<glyph unicode="(" d="M90 577q0 61 29 92t94 31h46v-94h-24q-30 0 -40 -11q-10 -12 -10 -40v-554q0 -28 10 -40q10 -11 40 -11h24v-94h-46q-65 0 -94 31t-29 92v598z" />
<glyph unicode=")" d="M202 -21q0 -61 -29 -92t-94 -31h-46v94h24q30 0 40 11q10 12 10 40v554q0 28 -10 40q-10 11 -40 11h-24v94h46q65 0 94 -31t29 -92v-598z" />
<glyph unicode="*" horiz-adv-x="505" d="M207 700h91v-124l118 38l28 -86l-118 -38l73 -101l-73 -53l-73 100l-74 -100l-73 53l73 101l-118 38l28 86l118 -38v124z" />
<glyph unicode="+" horiz-adv-x="558" d="M494 326v-91h-169v-170h-91v170h-170v91h170v169h91v-169h169z" />
<glyph unicode="," d="M213 134v-134l-39 -104h-79l39 104h-55v134h134z" />
<glyph unicode="-" horiz-adv-x="388" d="M339 235h-290v91h290v-91z" />
<glyph unicode="." d="M213 134v-134h-134v134h134z" />
<glyph unicode="/" horiz-adv-x="365" d="M376 700l-283 -700h-104l283 700h104z" />
<glyph unicode="0" horiz-adv-x="546" d="M383 494q0 59 -30 87q-31 28 -80 28t-79 -28q-31 -28 -31 -87v-288q0 -59 31 -87q30 -28 79 -28t80 28q30 28 30 87v288zM58 496q0 64 21 106q21 41 53 65t70 34q37 9 71 9t72 -9q37 -10 69 -34t53 -65q21 -42 21 -106v-292q0 -64 -21 -105q-21 -42 -53 -66t-69 -34 q-38 -9 -72 -9t-71 9q-38 10 -70 34t-53 66q-21 41 -21 105v292z" />
<glyph unicode="1" horiz-adv-x="359" d="M280 0h-105v569l-134 -115v131l134 115h105v-700z" />
<glyph unicode="2" horiz-adv-x="519" d="M42 496q0 64 21 106q21 41 53 65t70 34q37 9 71 9t72 -9q37 -10 69 -33t53 -63t21 -101q0 -32 -6 -58q-6 -27 -18 -52q-13 -25 -32 -49t-44 -50l-187 -194h287v-101h-430v101l251 260q35 37 55 70q19 32 19 71q0 54 -30 81q-31 26 -80 26t-79 -28q-31 -28 -31 -87v-9 h-105v11v0z" />
<glyph unicode="3" horiz-adv-x="525" d="M260 91q48 0 77 26q29 25 29 76q0 50 -31 79t-79 29h-58v97h58q52 0 81 28t29 74q0 48 -30 79q-31 30 -80 30q-48 0 -78 -26q-30 -27 -32 -82v-1h-105v1q1 61 23 102q21 40 53 64q31 24 69 34q37 9 70 9q34 0 72 -11q37 -11 69 -35q32 -25 53 -65q21 -41 21 -99 q0 -50 -23 -90t-60 -60q19 -10 35 -26q15 -17 26 -38q10 -21 16 -44q6 -24 6 -49q0 -56 -18 -94q-19 -39 -48 -63q-30 -24 -67 -35q-38 -11 -75 -11q-35 0 -74 9q-39 10 -71 34q-33 23 -54 64q-22 40 -23 102v1h105v-1q2 -55 34 -81q32 -27 80 -27z" />
<glyph unicode="4" horiz-adv-x="520" d="M425 0h-105v173h-311v97l311 430h105v-430h73v-97h-73v-173zM320 531l-189 -261h189v261z" />
<glyph unicode="5" horiz-adv-x="526" d="M383 235q0 59 -30 87q-31 28 -80 28q-36 0 -62 -15q-27 -16 -39 -47h-105v412h394v-101h-289v-184q17 16 49 26q31 10 63 10q31 0 67 -9q35 -10 66 -34q30 -24 51 -65q20 -42 20 -106v-44q0 -56 -18 -94q-19 -39 -48 -63q-30 -24 -67 -35q-38 -11 -75 -11q-35 0 -74 9 q-39 10 -71 34q-33 23 -54 64q-22 40 -23 102v1h105v-1q2 -55 34 -81q32 -27 80 -27t77 26q29 25 29 76v42z" />
<glyph unicode="6" horiz-adv-x="540" d="M383 501q-2 55 -32 82q-30 26 -78 26q-49 0 -79 -28q-31 -28 -31 -87v-86q19 16 51 26q31 10 66 10q30 0 66 -9q36 -10 68 -34q31 -24 53 -65q21 -42 21 -106v-26q0 -64 -21 -105q-21 -42 -53 -66t-69 -34q-38 -9 -72 -9t-71 9q-38 10 -70 34t-53 66q-21 41 -21 105v292 q0 64 21 106q21 41 53 65t70 34q37 9 71 9q33 0 71 -9q37 -10 69 -33q32 -24 53 -64q21 -41 22 -103v-1h-105v1zM383 228q0 59 -30 87q-31 28 -80 28t-79 -28q-31 -28 -31 -87v-22q0 -59 31 -87q30 -28 79 -28t80 28q30 28 30 87v22z" />
<glyph unicode="7" horiz-adv-x="454" d="M109 0l216 599h-313v101h424v-101l-216 -599h-111z" />
<glyph unicode="8" horiz-adv-x="538" d="M269 -10q-33 0 -71 10t-70 34t-53 64q-21 39 -21 98q0 54 20 91q19 37 54 65q-35 30 -51 67q-16 36 -16 87q0 58 20 97t51 63q30 24 67 34t70 10t70 -10t68 -34q30 -24 50 -63t20 -97q0 -51 -16 -87q-16 -37 -51 -67q35 -28 55 -65q19 -37 19 -91q0 -59 -21 -98 q-21 -40 -53 -64t-70 -34t-71 -10zM159 199q0 -55 31 -81t79 -26t79 27q31 26 31 80q0 51 -31 79t-79 28t-79 -28t-31 -79zM372 504q0 51 -30 78t-75 27q-44 0 -72 -27q-29 -27 -29 -78t29 -78q28 -27 72 -27q45 0 75 27t30 78z" />
<glyph unicode="9" horiz-adv-x="540" d="M157 199q2 -55 32 -81q30 -27 78 -27q49 0 80 28q30 28 30 87v86q-19 -16 -50 -26q-32 -10 -67 -10q-30 0 -66 10q-37 9 -68 33q-32 24 -53 66q-21 41 -21 105v26q0 64 21 106q21 41 53 65t70 34q37 9 71 9t72 -9q37 -10 69 -34t53 -65q21 -42 21 -106v-292 q0 -64 -21 -105q-21 -42 -53 -66t-69 -34q-38 -9 -72 -9q-33 0 -70 9q-38 10 -70 34q-32 23 -53 64q-21 40 -22 102v1h105v-1zM157 472q0 -59 31 -87q30 -28 79 -28t80 28q30 28 30 87v22q0 59 -30 87q-31 28 -80 28t-79 -28q-31 -28 -31 -87v-22z" />
<glyph unicode=":" d="M213 516v-134h-134v134h134zM213 134v-134h-134v134h134z" />
<glyph unicode=";" d="M213 516v-134h-134v134h134zM213 134v-134l-39 -104h-79l39 104h-55v134h134z" />
<glyph unicode="&#x3c;" horiz-adv-x="558" d="M494 -5l-430 210v108l430 210v-102l-332 -162l332 -162v-102z" />
<glyph unicode="=" horiz-adv-x="558" d="M64 431h430v-91h-430v91zM494 119h-430v91h430v-91z" />
<glyph unicode="&#x3e;" horiz-adv-x="558" d="M64 421v102l430 -210v-108l-430 -210v102l332 162z" />
<glyph unicode="?" horiz-adv-x="516" d="M36 501q1 62 22 103q21 40 53 64q32 23 70 33q37 9 70 9q34 0 72 -9q37 -10 69 -34t53 -65q21 -42 21 -106q0 -52 -24 -95q-25 -44 -60 -76l-52 -48q-18 -17 -24 -27q-7 -11 -7 -28v-12h-105v22q0 17 3 31q2 13 9 26t19 26t30 30l52 48q20 18 37 44q17 25 17 57 q0 59 -30 87q-31 28 -80 28q-48 0 -78 -26q-30 -27 -32 -82v-1h-105v1zM314 134v-134h-134v134h134z" />
<glyph unicode="@" horiz-adv-x="916" d="M567 328q-4 51 -33 76q-30 25 -76 25q-39 0 -66 -18q-28 -18 -39 -55h-107q7 51 29 85t53 54q30 19 65 27q34 8 65 8q34 0 72 -9q37 -10 69 -34t53 -65q21 -42 21 -106v-187q0 -23 13 -34q12 -11 29 -11t30 11q12 11 12 34v189q0 89 -29 147t-73 92q-45 33 -97 46 q-53 13 -100 13t-100 -13t-97 -46q-44 -34 -73 -92t-29 -147v-120q0 -89 29 -147t73 -92q44 -33 97 -46t100 -13q46 0 96 12t94 43l50 -83q-56 -37 -119 -52q-64 -14 -121 -14q-42 0 -87 7q-45 8 -89 26t-83 47q-40 30 -70 73q-30 44 -47 104q-18 60 -18 138v114 q0 78 18 138q17 60 47 104q30 43 70 73q39 29 83 47t89 26q45 7 87 7q41 0 87 -7q45 -8 89 -26t84 -47q39 -30 69 -73q30 -44 48 -104q17 -60 17 -138v-189q0 -59 -32 -97q-33 -39 -103 -39q-55 0 -91 17q-37 16 -58 42q-25 -30 -64 -44q-39 -15 -90 -15q-35 0 -67 9t-56 28 q-24 18 -38 47q-15 29 -15 69q0 22 6 45q5 23 18 44t35 39q21 17 53 27q47 14 99 20q52 5 118 10zM431 91q22 0 47 5q24 4 44 17q20 12 33 35q13 22 13 58v29q-69 -5 -120 -11q-51 -7 -80 -24q-10 -6 -17 -17q-8 -11 -8 -31q0 -32 23 -46q23 -15 65 -15z" />
<glyph unicode="A" horiz-adv-x="616" d="M177 169l-59 -169h-110l245 700h110l245 -700h-110l-59 169h-262zM308 546l-97 -278h194z" />
<glyph unicode="B" horiz-adv-x="617" d="M344 700q105 0 160 -54q55 -55 55 -146q0 -45 -17 -81q-18 -37 -52 -61q45 -27 66 -68q20 -41 20 -88q0 -94 -54 -148q-55 -54 -161 -54h-287v700h270zM181 406h163q49 0 78 24q28 24 28 70t-28 70q-29 24 -78 24h-163v-188zM181 106h180q50 0 78 25q28 24 28 72t-28 73 q-28 24 -78 24h-180v-194z" />
<glyph unicode="C" horiz-adv-x="597" d="M554 217q-3 -52 -22 -94q-20 -42 -52 -71q-33 -30 -77 -46q-45 -16 -99 -16q-56 0 -102 18q-47 17 -80 49t-51 78q-18 45 -18 102v226q0 57 18 103q18 45 51 77t80 50q46 17 102 17q54 0 99 -16q44 -16 77 -45q32 -29 52 -71q19 -43 22 -95h-107q-3 31 -17 54t-33 38 q-20 15 -44 22q-25 7 -49 7q-26 0 -52 -8q-26 -9 -46 -26q-21 -17 -33 -43q-13 -27 -13 -64v-226q0 -37 13 -63q12 -27 33 -44q20 -18 46 -26t52 -8q24 0 49 7q24 7 44 22q19 15 33 38q14 22 17 54h107v0z" />
<glyph unicode="D" horiz-adv-x="629" d="M74 700h251q56 0 103 -17q46 -18 79 -50t51 -77q18 -46 18 -103v-206q0 -57 -18 -102q-18 -46 -51 -78t-79 -49q-47 -18 -103 -18h-251v700zM325 106q26 0 52 9q26 8 47 26q20 17 33 44q12 27 12 64v202q0 37 -12 64q-13 27 -33 45q-21 17 -47 26q-26 8 -52 8h-144v-488 h144z" />
<glyph unicode="E" horiz-adv-x="545" d="M487 406v-106h-306v-194h306v-106h-413v700h413v-106h-306v-188h306z" />
<glyph unicode="F" horiz-adv-x="535" d="M487 406v-106h-306v-300h-107v700h413v-106h-306v-188h306z" />
<glyph unicode="G" horiz-adv-x="604" d="M304 710q53 0 98 -15q44 -16 77 -45q32 -29 52 -70q19 -42 23 -94h-107q-4 31 -18 53t-33 37q-20 14 -44 21t-48 7q-26 0 -52 -8q-26 -9 -46 -26q-21 -17 -33 -43q-13 -27 -13 -64v-226q0 -37 13 -63q12 -27 33 -44q20 -18 46 -26t52 -8t52 8t47 26q20 17 33 44 q12 26 12 63v45h-144v103h251v-148q0 -57 -18 -102q-18 -46 -51 -78t-79 -49q-47 -18 -103 -18t-102 18q-47 17 -80 49t-51 78q-18 45 -18 102v226q0 57 18 103q18 45 51 77t80 50q46 17 102 17z" />
<glyph unicode="H" horiz-adv-x="650" d="M576 700v-700h-107v300h-288v-300h-107v700h107v-294h288v294h107z" />
<glyph unicode="I" horiz-adv-x="255" d="M74 0v700h107v-700h-107z" />
<glyph unicode="J" horiz-adv-x="475" d="M115 200q2 -46 25 -75q22 -29 69 -29q48 0 71 31q23 30 23 78v495h107v-495q0 -108 -53 -161q-54 -54 -148 -54t-146 52q-53 52 -55 158h107z" />
<glyph unicode="K" horiz-adv-x="631" d="M74 0v700h107v-342l291 342h132l-245 -288l272 -412h-126l-217 329l-107 -126v-203h-107z" />
<glyph unicode="L" horiz-adv-x="496" d="M181 700v-594h306v-106h-413v700h107z" />
<glyph unicode="M" horiz-adv-x="736" d="M662 700v-700h-106v486l-144 -298h-88l-144 298v-486h-106v700h107l187 -387l187 387h107z" />
<glyph unicode="N" horiz-adv-x="650" d="M469 0l-288 502v-502h-107v700h107l288 -502v502h107v-700h-107z" />
<glyph unicode="O" horiz-adv-x="608" d="M448 463q0 37 -12 64q-13 26 -33 43q-21 17 -47 26q-26 8 -52 8t-52 -8q-26 -9 -46 -26q-21 -17 -33 -43q-13 -27 -13 -64v-226q0 -37 13 -63q12 -27 33 -44q20 -18 46 -26t52 -8t52 8t47 26q20 17 33 44q12 26 12 63v226zM53 463q0 57 18 103q18 45 51 77t80 50 q46 17 102 17t103 -17q46 -18 79 -50t51 -77q18 -46 18 -103v-226q0 -57 -18 -102q-18 -46 -51 -78t-79 -49q-47 -18 -103 -18t-102 18q-47 17 -80 49t-51 78q-18 45 -18 102v226z" />
<glyph unicode="P" horiz-adv-x="599" d="M181 348h159q34 0 58 10t40 27q15 17 22 40q7 22 7 47t-7 48q-7 22 -22 39q-16 17 -40 27t-58 10h-159v-248zM74 0v700h266q61 0 106 -18q44 -19 73 -50t43 -73t14 -88q0 -47 -14 -88q-14 -42 -43 -73t-73 -49q-45 -19 -106 -19h-159v-242h-107z" />
<glyph unicode="Q" horiz-adv-x="619" d="M53 463q0 57 18 103q18 45 51 77t80 50q46 17 102 17t103 -17q46 -18 79 -50t51 -77q18 -46 18 -103v-226q0 -86 -42 -148l62 -63l-73 -71l-65 66q-57 -31 -133 -31q-56 0 -102 18q-47 17 -80 49t-51 78q-18 45 -18 102v226zM434 171q14 28 14 66v226q0 37 -12 64 q-13 26 -33 43q-21 17 -47 26q-26 8 -52 8t-52 -8q-26 -9 -46 -26q-21 -17 -33 -43q-13 -27 -13 -64v-226q0 -37 13 -63q12 -27 33 -44q20 -18 46 -26t52 -8t53 8l-64 65l73 71z" />
<glyph unicode="R" horiz-adv-x="610" d="M181 0h-107v700h275q105 0 160 -54q55 -55 55 -146q0 -78 -40 -129t-117 -65l180 -306h-120l-177 301h-109v-301zM455 499q0 46 -28 71q-29 24 -78 24h-168v-190h168q49 0 78 25q28 24 28 70z" />
<glyph unicode="S" horiz-adv-x="555" d="M288 -10q-60 0 -106 17q-47 17 -79 48q-33 30 -51 72q-18 41 -22 90h109q11 -59 50 -90t101 -31q54 0 86 24t32 65q0 39 -23 64q-23 24 -76 37l-124 30q-69 17 -106 69q-38 52 -38 127q0 51 18 88t49 62q30 24 71 36t88 12q106 0 166 -54q60 -55 73 -143h-109 q-11 43 -44 67q-34 24 -85 24q-63 0 -90 -26q-28 -26 -28 -66q0 -41 22 -63t57 -30l120 -29q84 -20 126 -71t42 -136q0 -42 -15 -77q-16 -36 -45 -61q-29 -26 -71 -40q-43 -15 -98 -15z" />
<glyph unicode="T" horiz-adv-x="517" d="M312 0h-107v594h-197v106h501v-106h-197v-594z" />
<glyph unicode="U" horiz-adv-x="632" d="M567 700v-463q0 -57 -18 -102q-18 -46 -51 -78t-79 -49q-47 -18 -103 -18t-102 18q-47 17 -80 49t-51 78q-18 45 -18 102v463h107v-463q0 -37 13 -63q12 -27 33 -44q20 -18 46 -26t52 -8t52 8t47 26q20 17 33 44q12 26 12 63v463h107z" />
<glyph unicode="V" horiz-adv-x="616" d="M253 0l-245 700h110l190 -546l190 546h110l-245 -700h-110z" />
<glyph unicode="W" horiz-adv-x="744" d="M251 0h-101l-129 700h105l89 -490l107 390h100l107 -390l89 490h105l-129 -700h-101l-121 441z" />
<glyph unicode="X" horiz-adv-x="612" d="M132 0h-120l222 362l-207 338h120l159 -261l159 261h120l-207 -338l222 -362h-120l-174 286z" />
<glyph unicode="Y" horiz-adv-x="594" d="M350 0h-107v267l-246 433h118l182 -322l182 322h118l-247 -433v-267z" />
<glyph unicode="Z" horiz-adv-x="585" d="M33 106l372 488h-367v106h497v-106l-372 -488h377v-106h-507v106z" />
<glyph unicode="[" d="M259 700v-94h-74v-656h74v-94h-169v844h169z" />
<glyph unicode="\" horiz-adv-x="365" d="M272 0l-283 700h104l283 -700h-104z" />
<glyph unicode="]" d="M33 -144v94h74v656h-74v94h169v-844h-169z" />
<glyph unicode="^" horiz-adv-x="624" d="M166 300h-107l203 400h100l203 -400h-107l-146 288z" />
<glyph unicode="_" horiz-adv-x="418" d="M424 -138h-430v91h430v-91z" />
<glyph unicode="`" horiz-adv-x="309" d="M249 571h-84l-118 129h135z" />
<glyph unicode="a" horiz-adv-x="543" d="M266 429q-39 0 -66 -18q-28 -18 -39 -55h-107q7 51 29 85t53 54q30 19 65 27q34 8 65 8q34 0 72 -9q37 -10 69 -34t53 -65q21 -42 21 -106v-316h-105v49q-25 -30 -64 -44q-39 -15 -90 -15q-35 0 -67 9t-56 28q-24 18 -38 47q-15 29 -15 69q0 22 6 45q5 23 18 44t35 39 q21 17 53 27q47 14 99 20q52 5 118 10v1q-4 51 -33 76q-30 24 -76 24zM239 91q22 0 47 5q24 4 44 17q20 12 33 35q13 22 13 58v29q-69 -5 -120 -11q-51 -7 -80 -24q-10 -6 -17 -17q-8 -11 -8 -31q0 -32 23 -46q23 -15 65 -15z" />
<glyph unicode="b" horiz-adv-x="554" d="M394 314q0 59 -30 87q-31 27 -80 27t-79 -27q-31 -28 -31 -87v-108q0 -59 31 -86q30 -28 79 -28t80 28q30 27 30 86v108zM499 204q0 -60 -19 -100q-20 -41 -50 -66q-30 -26 -66 -37q-37 -11 -70 -11q-20 0 -39 5q-20 5 -36 13t-27 19q-12 11 -18 22v-49h-105v700h105 v-229q6 11 18 22q11 10 27 19q16 8 36 13q19 5 39 5q33 0 70 -11q36 -11 66 -36q30 -26 50 -66q19 -41 19 -101v-112z" />
<glyph unicode="c" horiz-adv-x="529" d="M484 176q-5 -55 -27 -91t-53 -57t-66 -30q-36 -8 -68 -8q-34 0 -71 9q-38 10 -70 34t-53 66q-21 41 -21 105v112q0 64 21 106q21 41 53 65t70 34q37 9 71 9q32 0 68 -8q35 -9 66 -30t53 -57t27 -91h-107q-8 43 -36 64q-29 21 -71 21q-49 0 -79 -28q-31 -28 -31 -87v-108 q0 -59 31 -87q30 -28 79 -28q42 0 71 21t37 64h106v0z" />
<glyph unicode="d" horiz-adv-x="554" d="M160 206q0 -59 30 -86q29 -28 73 -28q49 0 83 28q34 27 34 86v108q0 59 -30 87q-31 27 -80 27t-79 -27q-31 -28 -31 -87v-108zM55 316q0 60 20 101q19 40 49 66q30 25 67 36q36 11 69 11q20 0 40 -5q19 -5 35 -13q16 -9 28 -19q11 -11 17 -22v229h105v-700h-105v49 q-6 -11 -17 -22q-12 -11 -28 -19t-35 -13q-20 -5 -40 -5q-33 0 -69 11q-37 11 -67 37q-30 25 -49 66q-20 40 -20 100v112z" />
<glyph unicode="e" horiz-adv-x="535" d="M270 91q39 0 67 18q27 18 38 55h107q-7 -51 -29 -85t-52 -53q-31 -20 -65 -28q-35 -8 -66 -8q-34 0 -71 9q-38 10 -70 34t-53 66q-21 41 -21 105v112q0 64 21 106q21 41 53 65t70 34q37 9 71 9t72 -9q37 -10 69 -34t53 -65q21 -42 21 -106v-93h-325v-17q0 -59 31 -87 q30 -28 79 -28zM270 429q-49 0 -79 -27q-31 -28 -31 -85v-1h220v1q-1 57 -31 85q-31 27 -79 27z" />
<glyph unicode="f" horiz-adv-x="335" d="M248 599q-31 0 -39 -10q-9 -10 -9 -39v-34h127v-99h-127v-417h-105v417h-73v99h73v61q0 61 29 92t94 31h109v-101h-79z" />
<glyph unicode="g" horiz-adv-x="552" d="M268 -93q49 0 80 28q30 28 30 87v57q-6 -11 -17 -22q-12 -11 -28 -19t-35 -13q-20 -5 -40 -5q-33 0 -69 11q-37 11 -67 37q-30 25 -49 66q-20 40 -20 100v82q0 60 20 101q19 40 49 66q30 25 67 36q36 11 69 11q20 0 40 -5q19 -5 35 -13q16 -9 28 -19q11 -11 17 -22v45 h105v-496q0 -64 -21 -106q-21 -41 -53 -65t-69 -34q-38 -9 -72 -9q-32 0 -67 8q-35 9 -66 30t-53 56q-22 36 -27 90h106q8 -42 37 -63q28 -20 70 -20zM158 236q0 -59 31 -86q30 -28 79 -28t80 28q30 27 30 86v78q0 59 -30 87q-31 27 -80 27t-79 -27q-31 -28 -31 -87v-78z " />
<glyph unicode="h" horiz-adv-x="561" d="M69 0v700h105v-229q6 11 18 22q11 10 27 19q16 8 36 13q19 5 39 5q33 0 70 -11q36 -11 66 -36q30 -26 50 -66q19 -41 19 -101v-316h-105v314q0 59 -30 87q-31 27 -80 27t-79 -27q-31 -28 -31 -87v-314h-105z" />
<glyph unicode="i" horiz-adv-x="243" d="M69 593v107h105v-107h-105zM69 0v516h105v-516h-105z" />
<glyph unicode="j" horiz-adv-x="243" d="M69 593v107h105v-107h-105zM174 516v-577q0 -61 -29 -92t-94 -31h-46v101h16q31 0 40 10q8 10 8 39v550h105z" />
<glyph unicode="k" horiz-adv-x="526" d="M367 516h127l-186 -202l214 -314h-122l-162 238l-64 -70v-168h-105v700h105v-394z" />
<glyph unicode="l" horiz-adv-x="272" d="M172 150q0 -29 9 -39q8 -10 39 -10h16v-101h-46q-65 0 -94 31t-29 92v577h105v-550z" />
<glyph unicode="m" horiz-adv-x="866" d="M384 0v314q0 59 -30 87q-31 27 -75 27t-74 -27q-31 -28 -31 -87v-314h-105v516h105v-45q5 10 17 21q11 11 27 19t35 14q18 5 36 5t39 -4q20 -5 40 -14t38 -22q18 -14 31 -33q26 38 71 56q45 17 86 17q36 0 73 -11t68 -36q30 -26 50 -66q19 -41 19 -101v-316h-105v314 q0 59 -30 87q-31 27 -75 27t-74 -27q-31 -28 -31 -87v-314h-105z" />
<glyph unicode="n" horiz-adv-x="561" d="M69 0v516h105v-45q6 11 18 22q11 10 27 19q16 8 36 13q19 5 39 5q33 0 70 -11q36 -11 66 -36q30 -26 50 -66q19 -41 19 -101v-316h-105v314q0 59 -30 87q-31 27 -80 27t-79 -27q-31 -28 -31 -87v-314h-105z" />
<glyph unicode="o" horiz-adv-x="540" d="M380 314q0 59 -30 87q-31 28 -80 28t-79 -28q-31 -28 -31 -87v-108q0 -59 31 -87q30 -28 79 -28t80 28q30 28 30 87v108zM55 316q0 64 21 106q21 41 53 65t70 34q37 9 71 9t72 -9q37 -10 69 -34t53 -65q21 -42 21 -106v-112q0 -64 -21 -105q-21 -42 -53 -66t-69 -34 q-38 -9 -72 -9t-71 9q-38 10 -70 34t-53 66q-21 41 -21 105v112z" />
<glyph unicode="p" horiz-adv-x="554" d="M394 314q0 59 -30 87q-31 27 -80 27t-79 -27q-31 -28 -31 -87v-108q0 -59 31 -86q30 -28 79 -28t80 28q30 27 30 86v108zM499 204q0 -60 -19 -100q-20 -41 -50 -66q-30 -26 -66 -37q-37 -11 -70 -11q-20 0 -39 5q-20 5 -36 13t-27 19q-12 11 -18 22v-233h-105v700h105 v-45q6 11 18 22q11 10 27 19q16 8 36 13q19 5 39 5q33 0 70 -11q36 -11 66 -36q30 -26 50 -66q19 -41 19 -101v-112z" />
<glyph unicode="q" horiz-adv-x="554" d="M160 206q0 -59 30 -86q29 -28 73 -28q49 0 83 28q34 27 34 86v108q0 59 -30 87q-31 27 -80 27t-79 -27q-31 -28 -31 -87v-108zM55 316q0 60 20 101q19 40 49 66q30 25 67 36q36 11 69 11q20 0 40 -5q19 -5 35 -13q16 -9 28 -19q11 -11 17 -22v45h105v-700h-105v233 q-6 -11 -17 -22q-12 -11 -28 -19t-35 -13q-20 -5 -40 -5q-33 0 -69 11q-37 11 -67 37q-30 25 -49 66q-20 40 -20 100v112z" />
<glyph unicode="r" horiz-adv-x="345" d="M284 423q-49 0 -79 -27q-31 -28 -31 -87v-309h-105v516h105v-50q6 11 18 22q11 10 27 19q16 8 36 13q19 5 39 5h40v-102h-50z" />
<glyph unicode="s" horiz-adv-x="482" d="M253 -10q-45 0 -84 11q-39 10 -68 32q-30 22 -48 55t-20 77h108q6 -38 39 -56q32 -18 74 -18q17 0 33 3q15 2 27 8q11 6 18 17q7 10 7 26q0 26 -19 37q-20 11 -46 17l-98 25q-26 6 -49 17q-24 11 -42 29t-29 45q-11 26 -11 63q0 38 15 67q14 28 39 47t60 29q34 9 73 9 q84 0 137 -39t61 -126h-110q-6 34 -32 49q-27 15 -63 15q-12 0 -25 -2q-13 -3 -24 -9t-18 -16q-7 -11 -7 -26q0 -23 19 -33q18 -10 39 -15l95 -24q35 -9 62 -21q26 -13 44 -32q17 -19 26 -45q9 -27 9 -64q0 -38 -14 -66q-15 -29 -40 -48q-26 -19 -61 -29q-35 -9 -77 -9z" />
<glyph unicode="t" horiz-adv-x="359" d="M198 150q0 -29 9 -39q8 -10 39 -10h79v-101h-109q-65 0 -94 31t-29 92v294h-73v99h73v117h105v-117h127v-99h-127v-267z" />
<glyph unicode="u" horiz-adv-x="555" d="M167 206q0 -59 30 -86q30 -28 77 -28t77 28q30 27 30 86v310h105v-516h-105v49q-6 -11 -17 -22q-12 -11 -28 -19t-35 -13q-20 -5 -40 -5q-33 0 -68 12q-36 12 -65 38t-47 67q-19 40 -19 97v312h105v-310z" />
<glyph unicode="v" horiz-adv-x="476" d="M476 516l-186 -516h-104l-186 516h109l129 -367l129 367h109z" />
<glyph unicode="w" horiz-adv-x="688" d="M574 516h107l-136 -516h-106l-95 379l-95 -379h-106l-136 516h107l86 -351l88 351h112l88 -351z" />
<glyph unicode="x" horiz-adv-x="492" d="M125 0h-116l175 265l-167 251h116l113 -172l113 172h116l-167 -251l175 -265h-116l-121 185z" />
<glyph unicode="y" horiz-adv-x="476" d="M247 -119q-23 -65 -114 -65h-54v101h21q19 0 30 2t18 8q6 6 11 16t11 26l14 38l-184 509h109l129 -367l129 367h109z" />
<glyph unicode="z" horiz-adv-x="450" d="M418 99v-99h-385v99l247 318h-240v99h371v-99l-247 -318h254z" />
<glyph unicode="{" horiz-adv-x="324" d="M122 180q0 26 -8 39q-9 12 -34 12h-32v94h32q25 0 34 13q8 12 8 38v201q0 61 29 92t94 31h46v-94h-24q-30 0 -40 -11q-10 -12 -10 -40v-201q0 -23 -6 -44t-26 -32q20 -11 26 -32t6 -44v-201q0 -28 10 -40q10 -11 40 -11h24v-94h-46q-65 0 -94 31t-29 92v201z" />
<glyph unicode="|" horiz-adv-x="243" d="M74 -100v800h95v-800h-95z" />
<glyph unicode="}" horiz-adv-x="324" d="M202 -21q0 -61 -29 -92t-94 -31h-46v94h24q30 0 40 11q10 12 10 40v201q0 23 6 44t26 32q-20 11 -26 32t-6 44v201q0 28 -10 40q-10 11 -40 11h-24v94h46q65 0 94 -31t29 -92v-201q0 -26 9 -38q8 -13 33 -13h32v-94h-32q-25 0 -33 -12q-9 -13 -9 -39v-201z" />
<glyph unicode="~" horiz-adv-x="538" d="M54 276q38 39 71 56t66 17q23 0 44 -7t40 -16t36 -16t32 -7q21 0 39 10q18 9 44 36l58 -64q-38 -39 -71 -56t-66 -17q-23 0 -44 7t-40 16t-36 16t-32 7q-21 0 -39 -9q-18 -10 -44 -37z" />
<glyph unicode="&#xa1;" horiz-adv-x="262" d="M79 -184v490h105v-490h-105zM198 516v-134h-134v134h134z" />
<glyph unicode="&#xa2;" horiz-adv-x="539" d="M489 176q-5 -51 -24 -85t-46 -55q-28 -22 -60 -32q-32 -11 -63 -13v-91h-43v91q-33 3 -67 15q-34 11 -62 36q-28 24 -46 64q-18 39 -18 98v112q0 58 18 98t46 65q28 24 62 36q34 11 67 14v91h43v-91q31 -2 63 -12q32 -11 60 -32q27 -22 46 -56t24 -85h-107q-7 37 -29 58 q-23 20 -57 25v-335q34 5 57 26q23 20 30 58h106zM165 206q0 -52 24 -80t64 -34v335q-40 -5 -64 -33t-24 -80v-108z" />
<glyph unicode="&#xa3;" horiz-adv-x="602" d="M83 101q26 1 33 12t7 37v168h-64v66h64v112q0 64 21 106q21 41 53 65t70 34q37 9 71 9t72 -9q37 -10 69 -34t53 -65q21 -42 21 -106v-2h-105q0 59 -30 87q-31 28 -80 28t-79 -28q-31 -28 -31 -87v-110h220v-66h-220v-179q0 -26 -9 -38h334v-101h-494v101h24z" />
<glyph unicode="&#xa4;" horiz-adv-x="713" d="M144 174q-27 35 -42 77q-15 41 -15 89q0 47 15 89t42 77l-85 85l46 47l85 -86q35 27 77 43q42 15 90 15q47 0 89 -15t77 -42l85 85l46 -47l-85 -85q27 -35 43 -76q15 -42 15 -90t-15 -90q-16 -42 -43 -77l85 -84l-46 -47l-85 85q-35 -27 -77 -42t-89 -15q-48 0 -90 15 t-77 42l-85 -85l-46 47zM188 340q0 -35 14 -65q13 -31 36 -54t54 -36q30 -14 65 -14t66 14q30 13 53 36t37 54q13 30 13 65t-13 66q-14 30 -37 53t-53 37q-31 13 -66 13t-65 -13q-31 -14 -54 -37t-36 -53q-14 -31 -14 -66z" />
<glyph unicode="&#xa5;" horiz-adv-x="636" d="M618 700l-210 -367h124v-66h-162v-67h162v-66h-162v-134h-105v134h-162v66h162v67h-162v66h124l-209 367h116l184 -324l184 324h116z" />
<glyph unicode="&#xa6;" horiz-adv-x="243" d="M169 239v-339h-95v339h95zM169 700v-339h-95v339h95z" />
<glyph unicode="&#xa7;" horiz-adv-x="538" d="M194 91q-24 9 -48 21q-25 11 -45 31t-32 51q-13 30 -13 75q0 48 21 85t60 59q-24 21 -39 53q-15 31 -15 76q0 36 13 67q12 30 36 53q24 22 58 35t77 13q172 0 192 -166h-97q-7 35 -30 54t-65 19q-35 0 -61 -20q-27 -20 -27 -57q0 -30 18 -50q17 -20 40 -28l107 -38 q24 -9 49 -20q24 -12 44 -32t33 -50q12 -31 12 -76q0 -103 -82 -146q26 -24 41 -56q14 -33 14 -76q0 -83 -50 -123q-51 -39 -135 -39q-87 0 -137 45t-60 130h98q5 -39 33 -61q27 -21 66 -21q38 0 64 16t26 54q0 29 -14 51q-15 22 -56 37zM250 356q-47 -3 -72 -26 q-26 -24 -27 -63q0 -32 17 -51q17 -20 52 -33l68 -25q47 3 73 27q26 23 26 62q0 32 -17 52t-52 33z" />
<glyph unicode="&#xa8;" horiz-adv-x="420" d="M61 582v107h105v-107h-105zM254 582v107h105v-107h-105z" />
<glyph unicode="&#xa9;" horiz-adv-x="798" d="M39 350q0 75 29 141q28 65 77 114q48 48 114 77q65 28 140 28t141 -28q65 -29 114 -77q48 -49 77 -114q28 -66 28 -141t-28 -140q-29 -66 -77 -114q-49 -49 -114 -77q-66 -29 -141 -29t-140 29q-66 28 -114 77q-49 48 -77 114q-29 65 -29 140zM134 350q0 -55 21 -103 q20 -49 56 -85t85 -57q48 -21 103 -21t104 21q48 21 84 57t57 85q20 48 20 103t-20 104q-21 48 -57 84t-84 57q-49 21 -104 21t-103 -21q-49 -21 -85 -57t-56 -84q-21 -49 -21 -104zM399 153q-75 0 -112 41q-38 40 -38 106v100q0 65 38 106q37 41 112 41q74 0 112 -39 q37 -39 39 -102h-86q-2 25 -19 41q-17 15 -46 15q-31 0 -48 -17t-17 -45v-100q0 -28 17 -45q17 -18 48 -18q29 0 46 15t19 41h86q-2 -63 -39 -101q-38 -39 -112 -39z" />
<glyph unicode="&#xaa;" horiz-adv-x="331" d="M134 395q-57 0 -84 25q-28 25 -28 64q0 18 3 31t9 23t16 19q10 8 24 16q10 6 27 10t37 7q19 3 39 5t36 3q-5 15 -17 26q-12 10 -34 10q-19 0 -31 -8t-18 -20h-85q5 20 14 39q9 18 25 32t39 23q23 8 56 8q39 0 66 -12q26 -12 42 -32t23 -46t7 -54v-163h-85v37 q-8 -17 -25 -30q-18 -13 -56 -13zM149 467q32 0 49 18q17 17 17 38v6q-29 -2 -56 -4q-27 -3 -35 -6q-12 -6 -14 -11q-3 -5 -3 -13t8 -18t34 -10z" />
<glyph unicode="&#xab;" horiz-adv-x="486" d="M51 320l172 151v-126l-82 -72l82 -72v-126l-172 151v94zM255 320l172 151v-126l-82 -72l82 -72v-126l-172 151v94z" />
<glyph unicode="&#xac;" horiz-adv-x="558" d="M494 65h-91v170h-339v91h430v-261z" />
<glyph unicode="&#xad;" horiz-adv-x="388" d="M339 235h-290v91h290v-91z" />
<glyph unicode="&#xae;" horiz-adv-x="798" d="M39 350q0 75 29 141q28 65 77 114q48 48 114 77q65 28 140 28t141 -28q65 -29 114 -77q48 -49 77 -114q28 -66 28 -141t-28 -140q-29 -66 -77 -114q-49 -49 -114 -77q-66 -29 -141 -29t-140 29q-66 28 -114 77q-49 48 -77 114q-29 65 -29 140zM134 350q0 -55 21 -103 q20 -49 56 -85t85 -57q48 -21 103 -21t104 21q48 21 84 57t57 85q20 48 20 103t-20 104q-21 48 -57 84t-84 57q-49 21 -104 21t-103 -21q-49 -21 -85 -57t-56 -84q-21 -49 -21 -104zM379 310h-33v-152h-85v383h170q60 0 92 -30q32 -31 32 -85q0 -43 -21 -71q-21 -29 -59 -40 l92 -157h-99zM434 393q17 0 27 8q9 8 9 23q0 17 -9 25q-10 8 -27 8h-88v-64h88z" />
<glyph unicode="&#xaf;" horiz-adv-x="438" d="M380 593h-322v85h322v-85z" />
<glyph unicode="&#xb0;" horiz-adv-x="402" d="M45 549q0 32 13 61q12 28 33 49t50 34q28 12 60 12t61 -12q28 -13 49 -34t34 -49q12 -29 12 -61t-12 -60q-13 -29 -34 -50t-49 -33q-29 -13 -61 -13t-60 13q-29 12 -50 33t-33 50q-13 28 -13 60zM127 549q0 -31 22 -53q21 -22 52 -22t53 22q21 22 21 53t-21 53 q-22 22 -53 22t-52 -22q-22 -22 -22 -53z" />
<glyph unicode="&#xb1;" horiz-adv-x="558" d="M64 385h170v131h91v-131h169v-91h-169v-131h-91v131h-170v91zM494 0h-430v91h430v-91z" />
<glyph unicode="&#xb2;" horiz-adv-x="318" d="M184 630q17 17 22 29q5 11 5 25q0 23 -13 39q-13 15 -40 15t-40 -15q-14 -16 -14 -39v-6h-85q1 25 9 50q8 24 24 43t42 31q26 11 64 11q37 0 63 -11t43 -29q16 -18 24 -41t8 -47q0 -41 -14 -67q-15 -27 -46 -55l-94 -87h154v-75h-277v75z" />
<glyph unicode="&#xb3;" horiz-adv-x="321" d="M157 395q-35 0 -60 11q-25 10 -41 27q-17 17 -25 39q-9 22 -12 45h84q2 -20 17 -33q14 -14 39 -14q23 0 37 13q14 12 14 33q0 23 -16 36t-42 13h-33v76h33q27 0 43 11q15 10 15 30q0 26 -13 41t-40 15q-25 0 -38 -13q-14 -14 -16 -34h-84q3 24 12 46q8 22 24 39t41 27 t61 10q37 0 64 -11q26 -12 43 -30q16 -18 24 -40q7 -23 7 -45q0 -20 -8 -44q-9 -24 -32 -42q19 -13 30 -41q10 -29 10 -51q0 -48 -33 -81t-105 -33z" />
<glyph unicode="&#xb4;" horiz-adv-x="309" d="M144 571h-84l67 129h135z" />
<glyph unicode="&#xb5;" horiz-adv-x="562" d="M281 -10q-35 0 -65 18q-31 18 -42 39v-231h-105v700h105v-310q0 -59 30 -86q30 -28 77 -28t77 28q30 27 30 86v310h105v-516h-105v47q-11 -21 -41 -39q-31 -18 -66 -18z" />
<glyph unicode="&#xb6;" horiz-adv-x="615" d="M441 -87v693h-110v-693h-95v387h-10q-41 0 -77 16q-37 16 -64 43t-42 64q-16 36 -16 77t16 78q15 36 42 63t64 43q36 16 77 16h310v-787h-95z" />
<glyph unicode="&#xb7;" horiz-adv-x="302" d="M218 357v-134h-134v134h134z" />
<glyph unicode="&#xb8;" horiz-adv-x="271" d="M200 0l-38 -158h-113l65 158h86z" />
<glyph unicode="&#xb9;" horiz-adv-x="222" d="M19 627v112l77 68h85v-406h-85v293z" />
<glyph unicode="&#xba;" horiz-adv-x="330" d="M165 470q27 0 40 16q13 15 13 38v56q0 23 -13 39q-13 15 -40 15t-40 -15q-13 -16 -13 -39v-56q0 -23 13 -38q13 -16 40 -16zM165 395q-39 0 -65 12q-27 12 -43 33q-16 20 -23 46t-7 54v24q0 28 7 54t23 46t43 32q26 12 65 12t66 -12q26 -12 42 -32t23 -46t7 -54v-24 q0 -28 -7 -54t-23 -46q-16 -21 -42 -33q-27 -12 -66 -12z" />
<glyph unicode="&#xbb;" horiz-adv-x="486" d="M219 226l-172 -151v126l82 72l-82 72v126l172 -151v-94zM423 226l-172 -151v126l82 72l-82 72v126l172 -151v-94z" />
<glyph unicode="&#xbc;" horiz-adv-x="734" d="M59 520v112l77 68h85v-406h-85v293zM166 0h-95l481 700h95zM406 88v74l173 244h85v-244h42v-74h-42v-88h-85v88h-173zM579 265l-73 -103h73v103z" />
<glyph unicode="&#xbd;" horiz-adv-x="780" d="M59 520v112l77 68h85v-406h-85v293zM166 0h-95l481 700h95zM620 229q17 17 22 29q5 11 5 25q0 23 -13 39q-13 15 -40 15t-40 -15q-14 -16 -14 -39v-6h-85q1 25 9 50q8 24 24 43t42 31q26 11 64 11q37 0 63 -11t43 -29q16 -18 24 -41t8 -47q0 -41 -14 -67q-15 -27 -46 -55 l-94 -87h154v-75h-277v75z" />
<glyph unicode="&#xbe;" horiz-adv-x="793" d="M177 288q-35 0 -60 11q-25 10 -41 27q-17 17 -25 39q-9 22 -12 45h84q2 -20 17 -33q14 -14 39 -14q23 0 37 13q14 12 14 33q0 23 -16 36t-42 13h-33v76h33q27 0 43 11q15 10 15 30q0 26 -13 41t-40 15q-25 0 -38 -13q-14 -14 -16 -34h-84q3 24 12 46q8 22 24 39t41 27 t61 10q37 0 64 -11q26 -12 43 -30q16 -18 24 -40q7 -23 7 -45q0 -20 -8 -44q-9 -24 -32 -42q19 -13 30 -41q10 -29 10 -51q0 -48 -33 -81t-105 -33zM225 0h-95l481 700h95zM465 88v74l173 244h85v-244h42v-74h-42v-88h-85v88h-173zM638 265l-73 -103h73v103z" />
<glyph unicode="&#xbf;" horiz-adv-x="498" d="M472 16q-1 -62 -22 -103q-21 -40 -53 -64t-69 -34q-38 -9 -71 -9q-34 0 -71 9q-38 10 -70 34t-53 65q-21 42 -21 106q0 52 25 96q24 43 59 75l52 48q18 17 25 28q6 10 6 27v12h105v-22q0 -17 -2 -31q-3 -14 -10 -26q-7 -13 -19 -26q-12 -14 -30 -30l-52 -48 q-20 -18 -37 -43q-17 -26 -17 -58q0 -59 31 -87q30 -28 79 -28q48 0 78 26q30 27 32 83h105zM324 516v-134h-134v134h134z" />
<glyph unicode="&#xc0;" horiz-adv-x="616" d="M177 169l-59 -169h-110l245 700h110l245 -700h-110l-59 169h-262zM308 546l-97 -278h194zM375 745h-91l-128 109h137z" />
<glyph unicode="&#xc1;" horiz-adv-x="616" d="M177 169l-59 -169h-110l245 700h110l245 -700h-110l-59 169h-262zM308 546l-97 -278h194zM326 745h-91l82 109h137z" />
<glyph unicode="&#xc2;" horiz-adv-x="616" d="M177 169l-59 -169h-110l245 700h110l245 -700h-110l-59 169h-262zM308 546l-97 -278h194zM264 745h-130l132 109h84l132 -109h-130l-44 36z" />
<glyph unicode="&#xc3;" horiz-adv-x="616" d="M177 169l-59 -169h-110l245 700h110l245 -700h-110l-59 169h-262zM308 546l-97 -278h194zM248 859q13 0 26 -1q12 -1 26 -7l38 -16l10 -4q5 -2 10 -2q20 0 30 28h91q-6 -38 -19 -60q-14 -23 -30 -35q-17 -13 -33 -17q-17 -4 -29 -4q-13 0 -25 1q-13 1 -27 7l-38 16l-10 4 q-5 2 -10 2q-20 0 -30 -28h-91q6 37 20 60q13 23 30 36q16 12 33 16q16 4 28 4z" />
<glyph unicode="&#xc4;" horiz-adv-x="616" d="M177 169l-59 -169h-110l245 700h110l245 -700h-110l-59 169h-262zM308 546l-97 -278h194zM159 746v107h107v-107h-107zM350 746v107h107v-107h-107z" />
<glyph unicode="&#xc5;" horiz-adv-x="616" d="M177 169l-59 -169h-110l245 700h110l245 -700h-110l-59 169h-262zM308 546l-97 -278h194zM234 799q0 31 22 53q21 22 52 22t53 -22t22 -53t-22 -52q-22 -22 -53 -22t-52 22q-22 21 -22 52zM287 799q0 -9 6 -15t15 -6t15 6t6 15t-6 15t-15 6t-15 -6t-6 -15z" />
<glyph unicode="&#xc6;" horiz-adv-x="860" d="M389 598l-152 -330h152v330zM389 169h-197l-78 -169h-113l322 700h479v-106h-306v-188h306v-106h-306v-194h306v-106h-413v169z" />
<glyph unicode="&#xc7;" horiz-adv-x="597" d="M554 217q-3 -52 -22 -94q-20 -42 -52 -71q-33 -30 -77 -46q-45 -16 -99 -16q-56 0 -102 18q-47 17 -80 49t-51 78q-18 45 -18 102v226q0 57 18 103q18 45 51 77t80 50q46 17 102 17q54 0 99 -16q44 -16 77 -45q32 -29 52 -71q19 -43 22 -95h-107q-3 31 -17 54t-33 38 q-20 15 -44 22q-25 7 -49 7q-26 0 -52 -8q-26 -9 -46 -26q-21 -17 -33 -43q-13 -27 -13 -64v-226q0 -37 13 -63q12 -27 33 -44q20 -18 46 -26t52 -8q24 0 49 7q24 7 44 22q19 15 33 38q14 22 17 54h107v0zM355 0l-38 -158h-115l60 158h93z" />
<glyph unicode="&#xc8;" horiz-adv-x="545" d="M487 406v-106h-306v-194h306v-106h-413v700h413v-106h-306v-188h306zM347 745h-91l-128 109h137z" />
<glyph unicode="&#xc9;" horiz-adv-x="545" d="M487 406v-106h-306v-194h306v-106h-413v700h413v-106h-306v-188h306zM298 745h-91l82 109h137z" />
<glyph unicode="&#xca;" horiz-adv-x="545" d="M487 406v-106h-306v-194h306v-106h-413v700h413v-106h-306v-188h306zM236 745h-130l132 109h84l132 -109h-130l-44 36z" />
<glyph unicode="&#xcb;" horiz-adv-x="545" d="M487 406v-106h-306v-194h306v-106h-413v700h413v-106h-306v-188h306zM131 746v107h107v-107h-107zM322 746v107h107v-107h-107z" />
<glyph unicode="&#xcc;" horiz-adv-x="255" d="M74 0v700h107v-700h-107zM195 745h-91l-128 109h137z" />
<glyph unicode="&#xcd;" horiz-adv-x="255" d="M74 0v700h107v-700h-107zM146 745h-91l82 109h137z" />
<glyph unicode="&#xce;" horiz-adv-x="255" d="M74 0v700h107v-700h-107zM84 745h-130l132 109h84l132 -109h-130l-44 36z" />
<glyph unicode="&#xcf;" horiz-adv-x="255" d="M74 0v700h107v-700h-107zM-21 746v107h107v-107h-107zM170 746v107h107v-107h-107z" />
<glyph unicode="&#xd0;" horiz-adv-x="640" d="M85 315h-70v71h70v314h251q56 0 103 -17q46 -18 79 -50t51 -77q18 -46 18 -103v-206q0 -57 -18 -102q-18 -46 -51 -78t-79 -49q-47 -18 -103 -18h-251v315zM336 106q26 0 52 9q26 8 47 26q20 17 33 44q12 27 12 64v202q0 37 -12 64q-13 27 -33 45q-21 17 -47 26 q-26 8 -52 8h-144v-208h144v-71h-144v-209h144z" />
<glyph unicode="&#xd1;" horiz-adv-x="650" d="M469 0l-288 502v-502h-107v700h107l288 -502v502h107v-700h-107zM265 859q13 0 26 -1q12 -1 26 -7l38 -16l10 -4q5 -2 10 -2q20 0 30 28h91q-6 -38 -19 -60q-14 -23 -30 -35q-17 -13 -33 -17q-17 -4 -29 -4q-13 0 -25 1q-13 1 -27 7l-38 16l-10 4q-5 2 -10 2 q-20 0 -30 -28h-91q6 37 20 60q13 23 30 36q16 12 33 16q16 4 28 4z" />
<glyph unicode="&#xd2;" horiz-adv-x="608" d="M448 463q0 37 -12 64q-13 26 -33 43q-21 17 -47 26q-26 8 -52 8t-52 -8q-26 -9 -46 -26q-21 -17 -33 -43q-13 -27 -13 -64v-226q0 -37 13 -63q12 -27 33 -44q20 -18 46 -26t52 -8t52 8t47 26q20 17 33 44q12 26 12 63v226zM53 463q0 57 18 103q18 45 51 77t80 50 q46 17 102 17t103 -17q46 -18 79 -50t51 -77q18 -46 18 -103v-226q0 -57 -18 -102q-18 -46 -51 -78t-79 -49q-47 -18 -103 -18t-102 18q-47 17 -80 49t-51 78q-18 45 -18 102v226zM371 745h-91l-128 109h137z" />
<glyph unicode="&#xd3;" horiz-adv-x="608" d="M448 463q0 37 -12 64q-13 26 -33 43q-21 17 -47 26q-26 8 -52 8t-52 -8q-26 -9 -46 -26q-21 -17 -33 -43q-13 -27 -13 -64v-226q0 -37 13 -63q12 -27 33 -44q20 -18 46 -26t52 -8t52 8t47 26q20 17 33 44q12 26 12 63v226zM53 463q0 57 18 103q18 45 51 77t80 50 q46 17 102 17t103 -17q46 -18 79 -50t51 -77q18 -46 18 -103v-226q0 -57 -18 -102q-18 -46 -51 -78t-79 -49q-47 -18 -103 -18t-102 18q-47 17 -80 49t-51 78q-18 45 -18 102v226zM322 745h-91l82 109h137z" />
<glyph unicode="&#xd4;" horiz-adv-x="608" d="M448 463q0 37 -12 64q-13 26 -33 43q-21 17 -47 26q-26 8 -52 8t-52 -8q-26 -9 -46 -26q-21 -17 -33 -43q-13 -27 -13 -64v-226q0 -37 13 -63q12 -27 33 -44q20 -18 46 -26t52 -8t52 8t47 26q20 17 33 44q12 26 12 63v226zM53 463q0 57 18 103q18 45 51 77t80 50 q46 17 102 17t103 -17q46 -18 79 -50t51 -77q18 -46 18 -103v-226q0 -57 -18 -102q-18 -46 -51 -78t-79 -49q-47 -18 -103 -18t-102 18q-47 17 -80 49t-51 78q-18 45 -18 102v226zM260 745h-130l132 109h84l132 -109h-130l-44 36z" />
<glyph unicode="&#xd5;" horiz-adv-x="608" d="M448 463q0 37 -12 64q-13 26 -33 43q-21 17 -47 26q-26 8 -52 8t-52 -8q-26 -9 -46 -26q-21 -17 -33 -43q-13 -27 -13 -64v-226q0 -37 13 -63q12 -27 33 -44q20 -18 46 -26t52 -8t52 8t47 26q20 17 33 44q12 26 12 63v226zM53 463q0 57 18 103q18 45 51 77t80 50 q46 17 102 17t103 -17q46 -18 79 -50t51 -77q18 -46 18 -103v-226q0 -57 -18 -102q-18 -46 -51 -78t-79 -49q-47 -18 -103 -18t-102 18q-47 17 -80 49t-51 78q-18 45 -18 102v226zM244 859q13 0 26 -1q12 -1 26 -7l38 -16l10 -4q5 -2 10 -2q20 0 30 28h91q-6 -38 -19 -60 q-14 -23 -30 -35q-17 -13 -33 -17q-17 -4 -29 -4q-13 0 -25 1q-13 1 -27 7l-38 16l-10 4q-5 2 -10 2q-20 0 -30 -28h-91q6 37 20 60q13 23 30 36q16 12 33 16q16 4 28 4z" />
<glyph unicode="&#xd6;" horiz-adv-x="608" d="M448 463q0 37 -12 64q-13 26 -33 43q-21 17 -47 26q-26 8 -52 8t-52 -8q-26 -9 -46 -26q-21 -17 -33 -43q-13 -27 -13 -64v-226q0 -37 13 -63q12 -27 33 -44q20 -18 46 -26t52 -8t52 8t47 26q20 17 33 44q12 26 12 63v226zM53 463q0 57 18 103q18 45 51 77t80 50 q46 17 102 17t103 -17q46 -18 79 -50t51 -77q18 -46 18 -103v-226q0 -57 -18 -102q-18 -46 -51 -78t-79 -49q-47 -18 -103 -18t-102 18q-47 17 -80 49t-51 78q-18 45 -18 102v226zM155 746v107h107v-107h-107zM346 746v107h107v-107h-107z" />
<glyph unicode="&#xd7;" horiz-adv-x="558" d="M61 435l64 65l154 -155l154 155l64 -65l-154 -154l154 -154l-64 -65l-154 154l-154 -154l-64 65l153 154z" />
<glyph unicode="&#xd8;" horiz-adv-x="614" d="M56 463q0 57 18 103q18 45 51 77t80 50q46 17 102 17q45 0 83 -11q38 -12 69 -33l39 63l60 -39l-46 -74q46 -63 46 -153v-226q0 -57 -18 -102q-18 -46 -51 -78t-79 -49q-47 -18 -103 -18q-90 0 -153 43l-37 -61l-61 38l45 74q-45 62 -45 153v226zM163 237q0 -22 5 -44 l234 380q-20 16 -45 24q-25 7 -50 7q-26 0 -52 -8q-26 -9 -46 -26q-21 -17 -33 -43q-13 -27 -13 -64v-226zM451 463q0 24 -6 44l-233 -380q20 -16 45 -23q24 -8 50 -8t52 8t47 26q20 17 33 44q12 26 12 63v226z" />
<glyph unicode="&#xd9;" horiz-adv-x="632" d="M567 700v-463q0 -57 -18 -102q-18 -46 -51 -78t-79 -49q-47 -18 -103 -18t-102 18q-47 17 -80 49t-51 78q-18 45 -18 102v463h107v-463q0 -37 13 -63q12 -27 33 -44q20 -18 46 -26t52 -8t52 8t47 26q20 17 33 44q12 26 12 63v463h107zM383 745h-91l-128 109h137z" />
<glyph unicode="&#xda;" horiz-adv-x="632" d="M567 700v-463q0 -57 -18 -102q-18 -46 -51 -78t-79 -49q-47 -18 -103 -18t-102 18q-47 17 -80 49t-51 78q-18 45 -18 102v463h107v-463q0 -37 13 -63q12 -27 33 -44q20 -18 46 -26t52 -8t52 8t47 26q20 17 33 44q12 26 12 63v463h107zM334 745h-91l82 109h137z" />
<glyph unicode="&#xdb;" horiz-adv-x="632" d="M567 700v-463q0 -57 -18 -102q-18 -46 -51 -78t-79 -49q-47 -18 -103 -18t-102 18q-47 17 -80 49t-51 78q-18 45 -18 102v463h107v-463q0 -37 13 -63q12 -27 33 -44q20 -18 46 -26t52 -8t52 8t47 26q20 17 33 44q12 26 12 63v463h107zM272 745h-130l132 109h84l132 -109 h-130l-44 36z" />
<glyph unicode="&#xdc;" horiz-adv-x="632" d="M567 700v-463q0 -57 -18 -102q-18 -46 -51 -78t-79 -49q-47 -18 -103 -18t-102 18q-47 17 -80 49t-51 78q-18 45 -18 102v463h107v-463q0 -37 13 -63q12 -27 33 -44q20 -18 46 -26t52 -8t52 8t47 26q20 17 33 44q12 26 12 63v463h107zM167 746v107h107v-107h-107z M358 746v107h107v-107h-107z" />
<glyph unicode="&#xdd;" horiz-adv-x="594" d="M350 0h-107v267l-246 433h118l182 -322l182 322h118l-247 -433v-267zM315 745h-91l82 109h137z" />
<glyph unicode="&#xde;" horiz-adv-x="589" d="M181 227h159q34 0 58 10t40 27q15 17 22 40q7 22 7 47t-7 48q-7 22 -22 39q-16 17 -40 27t-58 10h-159v-248zM74 0v700h107v-121h159q61 0 106 -18q44 -19 73 -50t43 -73t14 -88q0 -47 -14 -88q-14 -42 -43 -73t-73 -49q-45 -19 -106 -19h-159v-121h-107z" />
<glyph unicode="&#xdf;" horiz-adv-x="541" d="M69 515q0 52 14 90q13 37 38 60t60 34t78 11t78 -11t60 -34t39 -60q13 -38 13 -90q0 -85 -37 -131q39 -26 63 -69t24 -106q0 -56 -17 -97t-45 -68q-29 -27 -67 -40q-39 -14 -82 -14q-14 0 -26 1q-13 2 -25 4v106q11 -5 23 -7q12 -3 28 -3q31 0 52 10q20 9 32 25t17 38 q5 21 5 45q0 49 -29 83q-30 34 -92 34h-36v97h22q45 0 65 24t20 68t-20 69t-65 25t-65 -25t-20 -69v-515h-105v515z" />
<glyph unicode="&#xe0;" horiz-adv-x="543" d="M266 429q-39 0 -66 -18q-28 -18 -39 -55h-107q7 51 29 85t53 54q30 19 65 27q34 8 65 8q34 0 72 -9q37 -10 69 -34t53 -65q21 -42 21 -106v-316h-105v49q-25 -30 -64 -44q-39 -15 -90 -15q-35 0 -67 9t-56 28q-24 18 -38 47q-15 29 -15 69q0 22 6 45q5 23 18 44t35 39 q21 17 53 27q47 14 99 20q52 5 118 10v1q-4 51 -33 76q-30 24 -76 24zM239 91q22 0 47 5q24 4 44 17q20 12 33 35q13 22 13 58v29q-69 -5 -120 -11q-51 -7 -80 -24q-10 -6 -17 -17q-8 -11 -8 -31q0 -32 23 -46q23 -15 65 -15zM248 571h84l-67 129h-135z" />
<glyph unicode="&#xe1;" horiz-adv-x="543" d="M266 429q-39 0 -66 -18q-28 -18 -39 -55h-107q7 51 29 85t53 54q30 19 65 27q34 8 65 8q34 0 72 -9q37 -10 69 -34t53 -65q21 -42 21 -106v-316h-105v49q-25 -30 -64 -44q-39 -15 -90 -15q-35 0 -67 9t-56 28q-24 18 -38 47q-15 29 -15 69q0 22 6 45q5 23 18 44t35 39 q21 17 53 27q47 14 99 20q52 5 118 10v1q-4 51 -33 76q-30 24 -76 24zM239 91q22 0 47 5q24 4 44 17q20 12 33 35q13 22 13 58v29q-69 -5 -120 -11q-51 -7 -80 -24q-10 -6 -17 -17q-8 -11 -8 -31q0 -32 23 -46q23 -15 65 -15zM280 571h-84l67 129h135z" />
<glyph unicode="&#xe2;" horiz-adv-x="543" d="M266 429q-39 0 -66 -18q-28 -18 -39 -55h-107q7 51 29 85t53 54q30 19 65 27q34 8 65 8q34 0 72 -9q37 -10 69 -34t53 -65q21 -42 21 -106v-316h-105v49q-25 -30 -64 -44q-39 -15 -90 -15q-35 0 -67 9t-56 28q-24 18 -38 47q-15 29 -15 69q0 22 6 45q5 23 18 44t35 39 q21 17 53 27q47 14 99 20q52 5 118 10v1q-4 51 -33 76q-30 24 -76 24zM239 91q22 0 47 5q24 4 44 17q20 12 33 35q13 22 13 58v29q-69 -5 -120 -11q-51 -7 -80 -24q-10 -6 -17 -17q-8 -11 -8 -31q0 -32 23 -46q23 -15 65 -15zM330 571l-57 56l-57 -56h-117l132 129h84 l132 -129h-117z" />
<glyph unicode="&#xe3;" horiz-adv-x="543" d="M266 429q-39 0 -66 -18q-28 -18 -39 -55h-107q7 51 29 85t53 54q30 19 65 27q34 8 65 8q34 0 72 -9q37 -10 69 -34t53 -65q21 -42 21 -106v-316h-105v49q-25 -30 -64 -44q-39 -15 -90 -15q-35 0 -67 9t-56 28q-24 18 -38 47q-15 29 -15 69q0 22 6 45q5 23 18 44t35 39 q21 17 53 27q47 14 99 20q52 5 118 10v1q-4 51 -33 76q-30 24 -76 24zM239 91q22 0 47 5q24 4 44 17q20 12 33 35q13 22 13 58v29q-69 -5 -120 -11q-51 -7 -80 -24q-10 -6 -17 -17q-8 -11 -8 -31q0 -32 23 -46q23 -15 65 -15zM102 579q6 37 20 60q13 23 30 36q16 12 33 16 q16 4 28 4q13 0 26 -1q12 -2 26 -8l38 -16q5 -2 12 -4q7 -3 15 -3q9 0 17 7q7 6 13 23h84q-6 -38 -19 -60q-14 -23 -30 -35q-17 -13 -33 -17q-17 -4 -29 -4q-13 0 -25 2q-13 1 -27 7l-38 16q-5 2 -12 5q-7 2 -15 2q-9 0 -16 -6q-8 -7 -14 -24h-84z" />
<glyph unicode="&#xe4;" horiz-adv-x="543" d="M266 429q-39 0 -66 -18q-28 -18 -39 -55h-107q7 51 29 85t53 54q30 19 65 27q34 8 65 8q34 0 72 -9q37 -10 69 -34t53 -65q21 -42 21 -106v-316h-105v49q-25 -30 -64 -44q-39 -15 -90 -15q-35 0 -67 9t-56 28q-24 18 -38 47q-15 29 -15 69q0 22 6 45q5 23 18 44t35 39 q21 17 53 27q47 14 99 20q52 5 118 10v1q-4 51 -33 76q-30 24 -76 24zM239 91q22 0 47 5q24 4 44 17q20 12 33 35q13 22 13 58v29q-69 -5 -120 -11q-51 -7 -80 -24q-10 -6 -17 -17q-8 -11 -8 -31q0 -32 23 -46q23 -15 65 -15zM124 582v107h105v-107h-105zM317 582v107h105 v-107h-105z" />
<glyph unicode="&#xe5;" horiz-adv-x="543" d="M266 429q-39 0 -66 -18q-28 -18 -39 -55h-107q7 51 29 85t53 54q30 19 65 27q34 8 65 8q34 0 72 -9q37 -10 69 -34t53 -65q21 -42 21 -106v-316h-105v49q-25 -30 -64 -44q-39 -15 -90 -15q-35 0 -67 9t-56 28q-24 18 -38 47q-15 29 -15 69q0 22 6 45q5 23 18 44t35 39 q21 17 53 27q47 14 99 20q52 5 118 10v1q-4 51 -33 76q-30 24 -76 24zM239 91q22 0 47 5q24 4 44 17q20 12 33 35q13 22 13 58v29q-69 -5 -120 -11q-51 -7 -80 -24q-10 -6 -17 -17q-8 -11 -8 -31q0 -32 23 -46q23 -15 65 -15zM199 635q0 31 22 53q21 22 52 22t53 -22t22 -53 t-22 -52q-22 -22 -53 -22t-52 22q-22 21 -22 52zM250 635q0 -10 7 -16q6 -7 16 -7t17 7q6 6 6 16t-6 17q-7 6 -17 6t-16 -6q-7 -7 -7 -17z" />
<glyph unicode="&#xe6;" horiz-adv-x="856" d="M481 206q0 -59 31 -87q30 -28 79 -28q39 0 67 18q27 18 38 55h107q-7 -51 -29 -85t-52 -53q-31 -20 -65 -28q-35 -8 -66 -8q-24 0 -50 4q-27 5 -52 16t-47 30q-22 18 -38 45q-34 -56 -79 -75q-46 -20 -103 -20q-35 0 -67 9t-56 28q-24 18 -38 47q-15 29 -15 69q0 22 6 45 q5 23 18 44t35 39q21 17 53 27q47 14 99 20q52 5 118 10q-4 51 -33 76q-30 25 -76 25q-39 0 -66 -18q-28 -18 -39 -55h-107q7 51 29 85t53 54q30 19 65 27q34 8 65 8q20 0 42 -3q22 -4 44 -12q21 -8 41 -22q19 -14 35 -36q35 45 79 59t84 14q34 0 72 -9q37 -10 69 -34 t53 -65q21 -42 21 -106v-93h-325v-17zM239 91q22 0 47 5q24 4 44 17q20 12 33 35q13 22 13 58v29q-69 -5 -120 -11q-51 -7 -80 -24q-10 -6 -17 -17q-8 -11 -8 -31q0 -32 23 -46q23 -15 65 -15zM591 429q-49 0 -79 -28q-31 -28 -31 -85h220q-1 57 -31 85q-31 28 -79 28z" />
<glyph unicode="&#xe7;" horiz-adv-x="529" d="M484 176q-5 -55 -27 -91t-53 -57t-66 -30q-36 -8 -68 -8q-34 0 -71 9q-38 10 -70 34t-53 66q-21 41 -21 105v112q0 64 21 106q21 41 53 65t70 34q37 9 71 9q32 0 68 -8q35 -9 66 -30t53 -57t27 -91h-107q-8 43 -36 64q-29 21 -71 21q-49 0 -79 -28q-31 -28 -31 -87v-108 q0 -59 31 -87q30 -28 79 -28q42 0 71 21t37 64h106v0zM320 0l-38 -158h-113l65 158h86z" />
<glyph unicode="&#xe8;" horiz-adv-x="535" d="M270 91q39 0 67 18q27 18 38 55h107q-7 -51 -29 -85t-52 -53q-31 -20 -65 -28q-35 -8 -66 -8q-34 0 -71 9q-38 10 -70 34t-53 66q-21 41 -21 105v112q0 64 21 106q21 41 53 65t70 34q37 9 71 9t72 -9q37 -10 69 -34t53 -65q21 -42 21 -106v-93h-325v-17q0 -59 31 -87 q30 -28 79 -28zM270 429q-49 0 -79 -27q-31 -28 -31 -85v-1h220v1q-1 57 -31 85q-31 27 -79 27zM255 571h84l-67 129h-135z" />
<glyph unicode="&#xe9;" horiz-adv-x="535" d="M270 91q39 0 67 18q27 18 38 55h107q-7 -51 -29 -85t-52 -53q-31 -20 -65 -28q-35 -8 -66 -8q-34 0 -71 9q-38 10 -70 34t-53 66q-21 41 -21 105v112q0 64 21 106q21 41 53 65t70 34q37 9 71 9t72 -9q37 -10 69 -34t53 -65q21 -42 21 -106v-93h-325v-17q0 -59 31 -87 q30 -28 79 -28zM270 429q-49 0 -79 -27q-31 -28 -31 -85v-1h220v1q-1 57 -31 85q-31 27 -79 27zM287 571h-84l67 129h135z" />
<glyph unicode="&#xea;" horiz-adv-x="535" d="M270 91q39 0 67 18q27 18 38 55h107q-7 -51 -29 -85t-52 -53q-31 -20 -65 -28q-35 -8 -66 -8q-34 0 -71 9q-38 10 -70 34t-53 66q-21 41 -21 105v112q0 64 21 106q21 41 53 65t70 34q37 9 71 9t72 -9q37 -10 69 -34t53 -65q21 -42 21 -106v-93h-325v-17q0 -59 31 -87 q30 -28 79 -28zM270 429q-49 0 -79 -27q-31 -28 -31 -85v-1h220v1q-1 57 -31 85q-31 27 -79 27zM327 571l-57 56l-57 -56h-117l132 129h84l132 -129h-117z" />
<glyph unicode="&#xeb;" horiz-adv-x="535" d="M270 91q39 0 67 18q27 18 38 55h107q-7 -51 -29 -85t-52 -53q-31 -20 -65 -28q-35 -8 -66 -8q-34 0 -71 9q-38 10 -70 34t-53 66q-21 41 -21 105v112q0 64 21 106q21 41 53 65t70 34q37 9 71 9t72 -9q37 -10 69 -34t53 -65q21 -42 21 -106v-93h-325v-17q0 -59 31 -87 q30 -28 79 -28zM270 429q-49 0 -79 -27q-31 -28 -31 -85v-1h220v1q-1 57 -31 85q-31 27 -79 27zM121 582v107h105v-107h-105zM314 582v107h105v-107h-105z" />
<glyph unicode="&#xec;" horiz-adv-x="243" d="M69 0v516h105v-516h-105zM106 571h84l-67 129h-135z" />
<glyph unicode="&#xed;" horiz-adv-x="243" d="M69 0v516h105v-516h-105zM139 571h-84l67 129h135z" />
<glyph unicode="&#xee;" horiz-adv-x="243" d="M69 0v516h105v-516h-105zM179 571l-57 56l-57 -56h-117l132 129h84l132 -129h-117z" />
<glyph unicode="&#xef;" horiz-adv-x="243" d="M69 0v516h105v-516h-105zM-27 582v107h105v-107h-105zM166 582v107h105v-107h-105z" />
<glyph unicode="&#xf0;" horiz-adv-x="540" d="M55 316q0 62 20 103q20 40 51 65q30 24 67 35q36 10 69 11l-33 45h-125v66h77l-43 59h126l43 -59h99v-66h-51l85 -117q19 -26 32 -60t13 -82v-112q0 -64 -21 -105q-21 -42 -53 -66t-69 -34q-38 -9 -72 -9t-71 9q-38 10 -70 34t-53 66q-21 41 -21 105v112zM380 314 q0 59 -30 87q-31 28 -80 28t-79 -28q-31 -28 -31 -87v-108q0 -59 31 -87q30 -28 79 -28t80 28q30 28 30 87v108z" />
<glyph unicode="&#xf1;" horiz-adv-x="561" d="M69 0v516h105v-45q6 11 18 22q11 10 27 19q16 8 36 13q19 5 39 5q33 0 70 -11q36 -11 66 -36q30 -26 50 -66q19 -41 19 -101v-316h-105v314q0 59 -30 87q-31 27 -80 27t-79 -27q-31 -28 -31 -87v-314h-105zM113 579q6 37 20 60q13 23 30 36q16 12 33 16q16 4 28 4 q13 0 26 -1q12 -2 26 -8l38 -16q5 -2 12 -4q7 -3 15 -3q9 0 17 7q7 6 13 23h84q-6 -38 -19 -60q-14 -23 -30 -35q-17 -13 -33 -17q-17 -4 -29 -4q-13 0 -25 2q-13 1 -27 7l-38 16q-5 2 -12 5q-7 2 -15 2q-9 0 -16 -6q-8 -7 -14 -24h-84z" />
<glyph unicode="&#xf2;" horiz-adv-x="540" d="M380 314q0 59 -30 87q-31 28 -80 28t-79 -28q-31 -28 -31 -87v-108q0 -59 31 -87q30 -28 79 -28t80 28q30 28 30 87v108zM55 316q0 64 21 106q21 41 53 65t70 34q37 9 71 9t72 -9q37 -10 69 -34t53 -65q21 -42 21 -106v-112q0 -64 -21 -105q-21 -42 -53 -66t-69 -34 q-38 -9 -72 -9t-71 9q-38 10 -70 34t-53 66q-21 41 -21 105v112zM255 571h84l-67 129h-135z" />
<glyph unicode="&#xf3;" horiz-adv-x="540" d="M380 314q0 59 -30 87q-31 28 -80 28t-79 -28q-31 -28 -31 -87v-108q0 -59 31 -87q30 -28 79 -28t80 28q30 28 30 87v108zM55 316q0 64 21 106q21 41 53 65t70 34q37 9 71 9t72 -9q37 -10 69 -34t53 -65q21 -42 21 -106v-112q0 -64 -21 -105q-21 -42 -53 -66t-69 -34 q-38 -9 -72 -9t-71 9q-38 10 -70 34t-53 66q-21 41 -21 105v112zM287 571h-84l67 129h135z" />
<glyph unicode="&#xf4;" horiz-adv-x="540" d="M380 314q0 59 -30 87q-31 28 -80 28t-79 -28q-31 -28 -31 -87v-108q0 -59 31 -87q30 -28 79 -28t80 28q30 28 30 87v108zM55 316q0 64 21 106q21 41 53 65t70 34q37 9 71 9t72 -9q37 -10 69 -34t53 -65q21 -42 21 -106v-112q0 -64 -21 -105q-21 -42 -53 -66t-69 -34 q-38 -9 -72 -9t-71 9q-38 10 -70 34t-53 66q-21 41 -21 105v112zM327 571l-57 56l-57 -56h-117l132 129h84l132 -129h-117z" />
<glyph unicode="&#xf5;" horiz-adv-x="540" d="M380 314q0 59 -30 87q-31 28 -80 28t-79 -28q-31 -28 -31 -87v-108q0 -59 31 -87q30 -28 79 -28t80 28q30 28 30 87v108zM55 316q0 64 21 106q21 41 53 65t70 34q37 9 71 9t72 -9q37 -10 69 -34t53 -65q21 -42 21 -106v-112q0 -64 -21 -105q-21 -42 -53 -66t-69 -34 q-38 -9 -72 -9t-71 9q-38 10 -70 34t-53 66q-21 41 -21 105v112zM99 579q6 37 20 60q13 23 30 36q16 12 33 16q16 4 28 4q13 0 26 -1q12 -2 26 -8l38 -16q5 -2 12 -4q7 -3 15 -3q9 0 17 7q7 6 13 23h84q-6 -38 -19 -60q-14 -23 -30 -35q-17 -13 -33 -17q-17 -4 -29 -4 q-13 0 -25 2q-13 1 -27 7l-38 16q-5 2 -12 5q-7 2 -15 2q-9 0 -16 -6q-8 -7 -14 -24h-84z" />
<glyph unicode="&#xf6;" horiz-adv-x="540" d="M380 314q0 59 -30 87q-31 28 -80 28t-79 -28q-31 -28 -31 -87v-108q0 -59 31 -87q30 -28 79 -28t80 28q30 28 30 87v108zM55 316q0 64 21 106q21 41 53 65t70 34q37 9 71 9t72 -9q37 -10 69 -34t53 -65q21 -42 21 -106v-112q0 -64 -21 -105q-21 -42 -53 -66t-69 -34 q-38 -9 -72 -9t-71 9q-38 10 -70 34t-53 66q-21 41 -21 105v112zM121 582v107h105v-107h-105zM314 582v107h105v-107h-105z" />
<glyph unicode="&#xf7;" horiz-adv-x="558" d="M212 454q0 28 20 48q19 19 47 19t48 -19q19 -20 19 -48t-19 -47q-20 -20 -48 -20t-47 20q-20 19 -20 47zM212 107q0 28 20 48q19 19 47 19t48 -19q19 -20 19 -48t-19 -47q-20 -20 -48 -20t-47 20q-20 19 -20 47zM494 235h-430v91h430v-91z" />
<glyph unicode="&#xf8;" horiz-adv-x="546" d="M58 316q0 64 21 106q21 41 53 65t70 34q37 9 71 9q30 0 64 -7q33 -8 63 -27l34 48l54 -38l-39 -55q18 -24 29 -57q10 -33 10 -78v-112q0 -64 -21 -105q-21 -42 -53 -66t-69 -34q-38 -9 -72 -9q-31 0 -64 7q-34 8 -64 26l-33 -47l-54 38l39 54q-18 24 -28 58 q-11 33 -11 78v112zM163 206q0 -23 4 -39l173 244q-27 18 -67 18q-49 0 -79 -28q-31 -28 -31 -87v-108zM383 314q0 23 -4 38l-173 -243q27 -18 67 -18q49 0 80 28q30 28 30 87v108z" />
<glyph unicode="&#xf9;" horiz-adv-x="555" d="M167 206q0 -59 30 -86q30 -28 77 -28t77 28q30 27 30 86v310h105v-516h-105v49q-6 -11 -17 -22q-12 -11 -28 -19t-35 -13q-20 -5 -40 -5q-33 0 -68 12q-36 12 -65 38t-47 67q-19 40 -19 97v312h105v-310zM259 571h84l-67 129h-135z" />
<glyph unicode="&#xfa;" horiz-adv-x="555" d="M167 206q0 -59 30 -86q30 -28 77 -28t77 28q30 27 30 86v310h105v-516h-105v49q-6 -11 -17 -22q-12 -11 -28 -19t-35 -13q-20 -5 -40 -5q-33 0 -68 12q-36 12 -65 38t-47 67q-19 40 -19 97v312h105v-310zM291 571h-84l67 129h135z" />
<glyph unicode="&#xfb;" horiz-adv-x="555" d="M167 206q0 -59 30 -86q30 -28 77 -28t77 28q30 27 30 86v310h105v-516h-105v49q-6 -11 -17 -22q-12 -11 -28 -19t-35 -13q-20 -5 -40 -5q-33 0 -68 12q-36 12 -65 38t-47 67q-19 40 -19 97v312h105v-310zM331 571l-57 56l-57 -56h-117l132 129h84l132 -129h-117z" />
<glyph unicode="&#xfc;" horiz-adv-x="555" d="M167 206q0 -59 30 -86q30 -28 77 -28t77 28q30 27 30 86v310h105v-516h-105v49q-6 -11 -17 -22q-12 -11 -28 -19t-35 -13q-20 -5 -40 -5q-33 0 -68 12q-36 12 -65 38t-47 67q-19 40 -19 97v312h105v-310zM125 582v107h105v-107h-105zM318 582v107h105v-107h-105z" />
<glyph unicode="&#xfd;" horiz-adv-x="476" d="M247 -119q-23 -65 -114 -65h-54v101h21q19 0 30 2t18 8q6 6 11 16t11 26l14 38l-184 509h109l129 -367l129 367h109zM255 571h-84l67 129h135z" />
<glyph unicode="&#xfe;" horiz-adv-x="554" d="M394 314q0 59 -30 87q-31 27 -80 27t-79 -27q-31 -28 -31 -87v-108q0 -59 31 -86q30 -28 79 -28t80 28q30 27 30 86v108zM499 204q0 -60 -19 -100q-20 -41 -50 -66q-30 -26 -66 -37q-37 -11 -70 -11q-20 0 -39 5q-20 5 -36 13t-27 19q-12 11 -18 22v-233h-105v884h105 v-229q6 11 18 22q11 10 27 19q16 8 36 13q19 5 39 5q33 0 70 -11q36 -11 66 -36q30 -26 50 -66q19 -41 19 -101v-112z" />
<glyph unicode="&#xff;" horiz-adv-x="476" d="M247 -119q-23 -65 -114 -65h-54v101h21q19 0 30 2t18 8q6 6 11 16t11 26l14 38l-184 509h109l129 -367l129 367h109zM89 582v107h105v-107h-105zM282 582v107h105v-107h-105z" />
<glyph unicode="&#x152;" horiz-adv-x="919" d="M448 463q0 37 -12 64q-13 26 -33 43q-21 17 -47 26q-26 8 -52 8t-52 -8q-26 -9 -46 -26q-21 -17 -33 -43q-13 -27 -13 -64v-226q0 -37 13 -63q12 -27 33 -44q20 -18 46 -26t52 -8t52 8t47 26q20 17 33 44q12 26 12 63v226zM448 40q-52 -50 -144 -50q-56 0 -102 18 q-47 17 -80 49t-51 78q-18 45 -18 102v226q0 57 18 103q18 45 51 77t80 50q46 17 102 17q92 0 144 -50v40h413v-106h-306v-188h306v-106h-306v-194h306v-106h-413v40z" />
<glyph unicode="&#x153;" horiz-adv-x="860" d="M485 206q0 -59 31 -87q30 -28 79 -28q39 0 67 18q27 18 38 55h107q-7 -51 -29 -85t-52 -53q-31 -20 -65 -28q-35 -8 -66 -8q-40 0 -84 14t-79 59q-16 -22 -35 -36q-20 -14 -41 -22q-22 -9 -44 -12t-42 -3q-34 0 -71 9q-38 10 -70 34t-53 66q-21 41 -21 105v112 q0 64 21 106q21 41 53 65t70 34q37 9 71 9q20 0 42 -3q22 -4 44 -12q21 -8 41 -22q19 -14 35 -36q35 45 79 59t84 14q34 0 72 -9q37 -10 69 -34t53 -65q21 -42 21 -106v-93h-325v-17zM380 314q0 59 -30 87q-31 28 -80 28t-79 -28q-31 -28 -31 -87v-108q0 -59 31 -87 q30 -28 79 -28t80 28q30 28 30 87v108zM595 429q-49 0 -79 -28q-31 -28 -31 -85h220q-1 57 -31 85q-31 28 -79 28z" />
<glyph unicode="&#x178;" horiz-adv-x="594" d="M350 0h-107v267l-246 433h118l182 -322l182 322h118l-247 -433v-267zM148 746v107h107v-107h-107zM339 746v107h107v-107h-107z" />
<glyph unicode="&#x2c6;" horiz-adv-x="452" d="M283 571l-57 56l-57 -56h-117l132 129h84l132 -129h-117z" />
<glyph unicode="&#x2dc;" horiz-adv-x="452" d="M55 579q6 37 20 60q13 23 30 36q16 12 33 16q16 4 28 4q13 0 26 -1q12 -2 26 -8l38 -16q5 -2 12 -4q7 -3 15 -3q9 0 17 7q7 6 13 23h84q-6 -38 -19 -60q-14 -23 -30 -35q-17 -13 -33 -17q-17 -4 -29 -4q-13 0 -25 2q-13 1 -27 7l-38 16q-5 2 -12 5q-7 2 -15 2 q-9 0 -16 -6q-8 -7 -14 -24h-84z" />
<glyph unicode="&#x2000;" horiz-adv-x="437" />
<glyph unicode="&#x2001;" horiz-adv-x="874" />
<glyph unicode="&#x2002;" horiz-adv-x="437" />
<glyph unicode="&#x2003;" horiz-adv-x="874" />
<glyph unicode="&#x2004;" horiz-adv-x="291" />
<glyph unicode="&#x2005;" horiz-adv-x="218" />
<glyph unicode="&#x2006;" horiz-adv-x="145" />
<glyph unicode="&#x2007;" horiz-adv-x="145" />
<glyph unicode="&#x2008;" horiz-adv-x="109" />
<glyph unicode="&#x2009;" horiz-adv-x="174" />
<glyph unicode="&#x200a;" horiz-adv-x="48" />
<glyph unicode="&#x2010;" horiz-adv-x="388" d="M339 235h-290v91h290v-91z" />
<glyph unicode="&#x2011;" horiz-adv-x="388" d="M339 235h-290v91h290v-91z" />
<glyph unicode="&#x2012;" horiz-adv-x="388" d="M339 235h-290v91h290v-91z" />
<glyph unicode="&#x2013;" horiz-adv-x="528" d="M479 235h-430v91h430v-91z" />
<glyph unicode="&#x2014;" horiz-adv-x="833" d="M784 235h-735v91h735v-91z" />
<glyph unicode="&#x2018;" horiz-adv-x="258" d="M62 462v134l39 104h79l-39 -104h55v-134h-134z" />
<glyph unicode="&#x2019;" horiz-adv-x="258" d="M196 700v-134l-39 -104h-79l39 104h-55v134h134z" />
<glyph unicode="&#x201a;" horiz-adv-x="258" d="M196 134v-134l-39 -104h-79l39 104h-55v134h134z" />
<glyph unicode="&#x201c;" horiz-adv-x="459" d="M62 462v134l39 104h79l-39 -104h55v-134h-134zM263 462v134l39 104h79l-39 -104h55v-134h-134z" />
<glyph unicode="&#x201d;" horiz-adv-x="459" d="M397 700v-134l-39 -104h-79l39 104h-55v134h134zM196 700v-134l-39 -104h-79l39 104h-55v134h134z" />
<glyph unicode="&#x201e;" horiz-adv-x="459" d="M196 134v-134l-39 -104h-79l39 104h-55v134h134zM397 134v-134l-39 -104h-79l39 104h-55v134h134z" />
<glyph unicode="&#x2022;" horiz-adv-x="800" d="M232 298q0 35 13 66q13 30 36 53t54 36q30 13 65 13t66 -13q30 -13 53 -36t36 -53q13 -31 13 -66t-13 -65q-13 -31 -36 -54t-53 -36q-31 -13 -66 -13t-65 13q-31 13 -54 36t-36 54q-13 30 -13 65z" />
<glyph unicode="&#x2026;" horiz-adv-x="834" d="M484 134v-134h-134v134h134zM762 134v-134h-134v134h134zM207 134v-134h-134v134h134z" />
<glyph unicode="&#x202f;" horiz-adv-x="174" />
<glyph unicode="&#x2039;" horiz-adv-x="282" d="M51 320l172 151v-126l-82 -72l82 -72v-126l-172 151v94z" />
<glyph unicode="&#x203a;" horiz-adv-x="282" d="M59 201l82 72l-82 72v126l172 -151v-94l-172 -151v126z" />
<glyph unicode="&#x205f;" horiz-adv-x="218" />
<glyph unicode="&#x20ac;" horiz-adv-x="599" d="M58 318h60v65h-80l17 66h63v14q0 57 18 103q18 45 51 77t80 50q46 17 102 17q112 0 180 -65l-73 -79q-21 22 -49 33q-29 10 -58 10q-27 0 -53 -9t-47 -27t-33 -45q-13 -28 -13 -65v-14h260l-17 -66h-243v-65h226l-17 -66h-209v-15q0 -37 13 -64q12 -28 33 -46t47 -27 t53 -9q29 0 58 11q28 10 49 32l73 -79q-33 -32 -78 -48q-46 -17 -102 -17t-102 18q-47 17 -80 49t-51 78q-18 45 -18 102v15h-77z" />
<glyph unicode="&#x2122;" horiz-adv-x="752" d="M1 619v81h311v-81h-113v-325h-85v325h-113zM434 700l98 -204l98 204h83v-406h-82v248l-66 -139h-65l-66 139v-248h-82v406h82z" />
<glyph unicode="&#x25fc;" horiz-adv-x="515" d="M0 515h515v-515h-515v515z" />
<glyph unicode="&#xfb01;" horiz-adv-x="578" d="M248 599q-31 0 -39 -10q-9 -10 -9 -39v-34h127v-99h-127v-417h-105v417h-73v99h73v61q0 61 29 92t94 31h109v-101h-79zM404 593v107h105v-107h-105zM404 0v516h105v-516h-105z" />
<glyph unicode="&#xfb02;" horiz-adv-x="607" d="M248 599q-31 0 -39 -10q-9 -10 -9 -39v-34h127v-99h-127v-417h-105v417h-73v99h73v61q0 61 29 92t94 31h109v-101h-79zM507 150q0 -29 9 -39q8 -10 39 -10h16v-101h-46q-65 0 -94 31t-29 92v577h105v-550z" />
<glyph unicode="&#xfb03;" horiz-adv-x="913" d="M248 599q-31 0 -39 -10q-9 -10 -9 -39v-34h127v-99h-127v-417h-105v417h-73v99h73v61q0 61 29 92t94 31h109v-101h-79zM583 599q-31 0 -39 -10q-9 -10 -9 -39v-34h127v-99h-127v-417h-105v417h-73v99h73v61q0 61 29 92t94 31h109v-101h-79zM739 593v107h105v-107h-105z M739 0v516h105v-516h-105z" />
<glyph unicode="&#xfb04;" horiz-adv-x="942" d="M248 599q-31 0 -39 -10q-9 -10 -9 -39v-34h127v-99h-127v-417h-105v417h-73v99h73v61q0 61 29 92t94 31h109v-101h-79zM583 599q-31 0 -39 -10q-9 -10 -9 -39v-34h127v-99h-127v-417h-105v417h-73v99h73v61q0 61 29 92t94 31h109v-101h-79zM842 150q0 -29 9 -39 q8 -10 39 -10h16v-101h-46q-65 0 -94 31t-29 92v577h105v-550z" />
</font>
</defs>
</svg>
