<?xml version="1.0" standalone="no"?>
<!DOCTYPE svg PUBLIC "-//W3C//DTD SVG 1.1//EN" "http://www.w3.org/Graphics/SVG/1.1/DTD/svg11.dtd" >
<svg xmlns="http://www.w3.org/2000/svg" xmlns:xlink="http://www.w3.org/1999/xlink" version="1.1">
<metadata></metadata>
<defs>
<font id="simplon_monomedium_2" horiz-adv-x="608" >
<font-face units-per-em="1000" ascent="800" descent="-200" />
<missing-glyph horiz-adv-x="500" />
<glyph horiz-adv-x="0" />
<glyph horiz-adv-x="333" />
<glyph horiz-adv-x="0" />
<glyph horiz-adv-x="0" />
<glyph unicode="&#xd;" horiz-adv-x="0" />
<glyph unicode=" " />
<glyph unicode="!" d="M357 230h-105v470h105v-470zM237 134h134v-134h-134v134z" />
<glyph unicode="&#x22;" d="M399 476v224h53v-224h-53zM157 476v224h53v-224h-53z" />
<glyph unicode="#" d="M423 216l-53 -216h-47l53 216h-211l-53 -216h-47l53 216h-71v45h82l44 178h-81v45h92l54 216h47l-54 -216h211l54 216h47l-54 -216h72v-45h-83l-44 -178h82v-45h-93zM176 261h211l44 178h-211z" />
<glyph unicode="$" d="M281 -9q-49 3 -85 22q-38 18 -63 48q-27 32 -40 70q-14 39 -16 86h105q5 -59 36 -92q31 -34 85 -34t82 25t28 66q0 31 -18 58t-68 47l-95 37q-65 25 -105 73q-39 47 -39 121q0 44 15 79q13 32 40 58q27 25 61 38q33 13 77 16v91h43v-91q81 -7 129 -60q48 -52 54 -136 h-105q-6 43 -30 70q-26 26 -69 26q-56 0 -82 -25q-28 -25 -28 -66q0 -42 24 -61q21 -20 56 -34l103 -40q80 -31 111 -81q31 -49 31 -120q0 -80 -48 -133q-49 -54 -146 -58v-91h-43v91z" />
<glyph unicode="%" d="M54 567q0 27 11 54q11 25 29 44q21 20 44 29q25 11 53 11q27 0 54 -11q23 -9 44 -29q20 -21 29 -44q11 -27 11 -54q0 -28 -11 -53q-9 -23 -29 -44q-19 -18 -44 -29q-27 -11 -54 -11q-28 0 -53 11t-44 29q-18 18 -29 44q-11 25 -11 53zM279 132q0 27 11 54q10 26 29 44 q21 20 44 29q25 11 53 11q27 0 54 -11q23 -9 44 -29q20 -21 29 -44q11 -27 11 -54q0 -28 -11 -53q-9 -23 -29 -44q-18 -19 -44 -29q-23 -11 -54 -11t-53 11q-25 10 -44 29q-19 18 -29 44q-11 25 -11 53zM132 567q0 -24 17 -43q17 -18 42 -18q27 0 43 18q17 19 17 43t-17 44 q-16 18 -43 18q-25 0 -42 -18q-17 -20 -17 -44zM357 132q0 -24 17 -43q16 -18 42 -18t43 18q17 19 17 43t-17 44q-16 18 -43 18q-26 0 -42 -18q-17 -20 -17 -44zM505 585l32 -32l-434 -435l-32 32z" />
<glyph unicode="&#x26;" d="M564 318l-84 -150l69 -121l-89 -52l-42 73q-22 -33 -64 -55q-44 -23 -98 -23q-47 0 -84 17q-40 17 -68 45t-45 68t-17 84q0 36 12 71q10 32 32 60q21 27 50 47q30 21 62 29q8 3 22 5l-105 185v99h356v-99h-237l188 -331l54 98zM147 204q0 -24 9 -44q7 -20 23 -36 q13 -14 34 -24q20 -9 43 -9q41 0 65 21q22 19 41 55l-85 149q-2 0 -5 1t-5 1h-11q-24 0 -43 -9q-21 -10 -34 -24q-16 -17 -23 -36q-9 -21 -9 -45z" />
<glyph unicode="'" d="M277 476v224h53v-224h-53z" />
<glyph unicode="(" d="M250 597q0 22 5 44q4 19 16 32q11 12 33 20q20 7 53 7h118v-42h-118q-40 0 -52 -15t-12 -46v-586q0 -31 12 -46t52 -15h118v-42h-118q-33 0 -53 7q-22 8 -33 20q-12 13 -16 32q-5 22 -5 44v586z" />
<glyph unicode=")" d="M358 11q0 -27 -4 -44t-17 -32q-11 -12 -33 -20q-20 -7 -53 -7h-118v42h118q40 0 52 15t12 46v586q0 31 -12 46t-52 15h-118v42h118q33 0 53 -7q22 -8 33 -20q13 -15 17 -32t4 -44v-586z" />
<glyph unicode="*" d="M209 339l-37 25l96 131l-154 50l13 43l154 -50v162h45v-162l154 50l13 -43l-154 -50l96 -131l-37 -25l-94 131z" />
<glyph unicode="+" d="M282 258h-176v45h176v175h45v-175h175v-45h-175v-176h-45v176z" />
<glyph unicode="," d="M125 -92l204 203l74 -74l-204 -203z" />
<glyph unicode="-" d="M159 258v45h290v-45h-290z" />
<glyph unicode="." d="M237 134h134v-134h-134v134z" />
<glyph unicode="/" d="M559 679l-472 -684l-37 26l472 684z" />
<glyph unicode="0" d="M519 205q0 -44 -17 -84q-16 -38 -46 -68t-68 -46q-40 -17 -84 -17t-84 17q-38 16 -68 46t-46 68q-17 40 -17 84v290q0 44 17 84q16 38 46 68t68 46q40 17 84 17t84 -17q38 -16 68 -46t46 -68q17 -40 17 -84v-290zM414 429l-220 -221v-3q0 -22 8 -44q7 -20 23 -36 q13 -15 35 -25q20 -9 44 -9t45 9q21 10 35 25q15 17 22 36q8 22 8 44v224zM194 272l220 221v2q0 22 -8 44q-6 18 -22 37q-15 15 -35 24q-21 9 -45 9t-44 -9q-22 -9 -35 -24q-16 -18 -23 -37q-8 -22 -8 -44v-223z" />
<glyph unicode="1" d="M268 101v457l-100 -100l-71 71l171 171h105v-599h182v-101h-469v101h182z" />
<glyph unicode="2" d="M160 337q-32 29 -50 70q-19 39 -19 88q0 44 17 84q16 38 46 68t68 46q40 17 84 17t84 -17q38 -16 68 -46t46 -68q17 -40 17 -84q0 -49 -21 -93q-24 -46 -72 -97l-194 -204h287v-101h-430v101l258 271q13 13 31 33q13 17 20 30t12 29q4 12 4 31q0 22 -8 44q-6 18 -22 37 q-15 15 -35 24q-21 9 -45 9t-44 -9q-22 -9 -35 -24q-16 -18 -23 -37q-8 -22 -8 -44q0 -51 36 -84z" />
<glyph unicode="3" d="M295 417h4q19 1 36 9q16 7 28 21q11 13 18 30q6 17 6 36q0 40 -25 68t-67 28q-41 0 -66 -28t-25 -68h-105q0 42 16 77q15 36 42 63q25 25 62 42q35 15 76 15t77 -15q36 -17 63 -42q25 -27 42 -63q15 -36 15 -77q0 -42 -17 -79q-16 -36 -46 -63q36 -27 59 -72 q22 -43 22 -94q0 -44 -17 -84q-16 -38 -46 -68t-68 -46q-40 -17 -84 -17t-84 17q-38 16 -68 46t-46 68q-17 40 -17 84h105q0 -22 8 -44q7 -20 23 -36q13 -15 35 -25q20 -9 44 -9t45 9q21 10 35 25q15 17 22 36q8 22 8 44q0 23 -7 43q-7 17 -22 36q-12 15 -33 26 q-18 8 -43 10h-5v97z" />
<glyph unicode="4" d="M173 274h185v145h105v-145h73v-101h-73v-173h-105v173h-311v101l315 431l82 -60z" />
<glyph unicode="5" d="M166 700h306v-101h-222l-39 -176q18 12 42 20q27 8 53 8q42 0 81 -17q37 -16 67 -46q28 -28 45 -68t17 -84v-31q0 -44 -17 -84q-16 -38 -46 -68t-68 -46q-40 -17 -84 -17t-84 17q-38 16 -68 46t-46 68q-17 40 -17 84h105q0 -22 8 -44q7 -20 23 -36q13 -15 35 -25 q20 -9 44 -9t45 9q21 10 35 25q15 17 22 36q8 22 8 44v31q0 22 -8 44q-6 18 -22 37q-15 15 -35 24q-21 9 -45 9q-32 0 -55 -16q-26 -17 -39 -40l-112 82z" />
<glyph unicode="6" d="M506 205q0 -44 -17 -84q-16 -38 -46 -68t-68 -46q-40 -17 -84 -17t-84 17q-38 16 -68 46t-46 68q-17 40 -17 84v31q0 36 12 69q10 31 31 60l249 340l82 -60l-143 -195q38 -3 67 -16q58 -24 96 -77q36 -54 36 -121v-31zM401 236q0 22 -8 44q-6 18 -22 37q-15 15 -35 24 q-21 9 -45 9q-25 0 -44 -9q-22 -9 -35 -24q-16 -18 -23 -37q-8 -22 -8 -44v-31q0 -22 8 -44q7 -20 23 -36q13 -15 35 -25q19 -9 44 -9q24 0 45 9q21 10 35 25q15 17 22 36q8 22 8 44v31z" />
<glyph unicode="7" d="M516 700v-101l-218 -604l-96 34l206 570h-211v-107h-105v208h424z" />
<glyph unicode="8" d="M108 513q0 42 16 77q15 36 42 63q25 25 62 42q35 15 76 15t77 -15q36 -17 63 -42q26 -27 42 -63q15 -36 15 -77q0 -44 -16 -79q-16 -36 -46 -63q36 -27 59 -72q21 -44 21 -94q0 -44 -17 -84q-16 -38 -46 -68t-68 -46q-40 -17 -84 -17t-84 17q-38 16 -68 46t-46 68 q-17 40 -17 84q0 51 22 94q21 44 58 72q-29 25 -45 63q-16 35 -16 79zM194 205q0 -22 8 -43q7 -20 23 -36q14 -15 35 -25q20 -9 44 -9t44 9q21 10 35 25q16 16 23 36q8 21 8 43t-8 44q-7 19 -23 36q-15 15 -35 24q-19 9 -44 9q-24 0 -44 -9t-35 -24q-16 -17 -23 -36 q-8 -22 -8 -44zM396 513q0 40 -25 68t-67 28q-41 0 -66 -28t-25 -68q0 -39 25 -67t66 -28q42 0 67 28t25 67z" />
<glyph unicode="9" d="M102 495q0 44 17 84q16 38 46 68t68 46q40 17 84 17t84 -17q38 -16 68 -46t46 -68q17 -40 17 -84v-31q0 -34 -11 -69q-11 -32 -32 -60l-249 -340l-82 60l143 195q-38 3 -67 16q-59 24 -95 78q-37 52 -37 120v31zM207 464q0 -22 8 -44q7 -20 23 -36q13 -15 35 -25 q19 -9 44 -9q24 0 45 9q21 10 35 25q15 17 22 36q8 22 8 44v31q0 22 -8 44q-6 18 -22 37q-15 15 -35 24q-21 9 -45 9q-25 0 -44 -9q-22 -9 -35 -24q-16 -18 -23 -37q-8 -22 -8 -44v-31z" />
<glyph unicode=":" d="M237 455h134v-134h-134v134zM237 134h134v-134h-134v134z" />
<glyph unicode=";" d="M93 -92l204 203l74 -74l-204 -203zM237 455h134v-134h-134v134z" />
<glyph unicode="&#x3c;" d="M210 260l239 -239l-32 -31l-270 270l270 270l32 -31z" />
<glyph unicode="=" d="M106 156v45h396v-45h-396zM106 350v45h396v-45h-396z" />
<glyph unicode="&#x3e;" d="M159 499l32 31l270 -270l-270 -270l-32 31l239 239z" />
<glyph unicode="?" d="M80 499q0 45 17 85q15 36 46 67q26 26 68 44q39 15 84 15q46 0 84 -16q42 -18 68 -44q29 -30 46 -67q17 -40 17 -84q0 -38 -12 -71q-14 -35 -34 -61q-22 -27 -52 -46t-65 -27v-64h-105v159h57q24 2 42 10q19 7 33 23t23 35q8 21 8 42q0 22 -8 43q-9 20 -24 35t-35 24 q-21 8 -43 8t-43 -8q-20 -9 -35 -24t-23 -35q-9 -20 -9 -43h-105zM228 134h134v-134h-134v134z" />
<glyph unicode="@" d="M416 42q-19 -28 -50 -40q-32 -12 -65 -12q-67 0 -109 39q-43 39 -43 106v41q0 67 43 106q42 39 109 39h48v62q0 23 -14 35q-14 11 -34 11q-19 0 -33 -11q-14 -12 -14 -35v-27h-105v30q0 67 43 106q43 38 110 38q66 0 110 -38q42 -39 42 -106v-317q0 -37 35 -37 q17 0 27 10q9 10 9 27v382q0 46 -14 88q-15 41 -43 69q-26 26 -70 44q-39 16 -94 16t-94 -16q-42 -17 -69 -44q-30 -30 -43 -69q-15 -41 -15 -88v-381q0 -47 15 -88q13 -39 43 -69q27 -27 69 -44q39 -16 94 -16v-42q-63 0 -112 18q-50 19 -83 53q-35 35 -51 82 q-18 48 -18 106v381q0 58 18 106q16 47 51 82q33 33 83 53q49 18 112 18q62 0 112 -18q50 -19 83 -53q34 -34 52 -82q17 -49 17 -106v-390q0 -31 -21 -51t-58 -20q-29 0 -47 15q-18 12 -26 37zM349 219h-48q-19 0 -33 -11q-14 -12 -14 -35v-36q0 -23 14 -34q14 -12 33 -12 q21 0 34 12q14 11 14 33v83z" />
<glyph unicode="A" d="M435 169h-262l-59 -169h-110l245 700h110l245 -700h-110zM401 268l-97 278l-97 -278h194z" />
<glyph unicode="B" d="M65 700h270q105 0 160 -54q55 -55 55 -146q0 -44 -17 -81q-18 -37 -52 -61q45 -27 66 -68q20 -42 20 -88q0 -94 -54 -148q-55 -54 -161 -54h-287v700zM172 594v-188h163q49 0 78 24q28 24 28 70t-28 70q-29 24 -78 24h-163zM172 300v-194h180q50 0 78 25q28 24 28 72 t-28 73q-28 24 -78 24h-180z" />
<glyph unicode="C" d="M558 217q-3 -53 -22 -94t-52 -71q-32 -29 -77 -46q-44 -16 -99 -16q-56 0 -102 18q-46 16 -80 49q-33 31 -51 78q-18 45 -18 102v226q0 57 18 103t51 77q34 32 80 50q48 17 102 17q55 0 99 -16q44 -17 77 -45q33 -30 52 -71q19 -42 22 -95h-107q-3 31 -17 54t-33 38 q-18 14 -44 22q-24 7 -49 7t-52 -8q-26 -9 -46 -26q-20 -16 -33 -43q-13 -26 -13 -64v-226q0 -38 13 -63q12 -28 33 -44q20 -18 46 -26q27 -8 52 -8t49 7q26 8 44 22q19 15 33 38t17 54h107z" />
<glyph unicode="D" d="M57 0v700h251q55 0 103 -17q45 -17 79 -50q33 -31 51 -77t18 -103v-206q0 -57 -18 -102q-18 -47 -51 -78q-35 -33 -79 -49q-47 -18 -103 -18h-251zM308 106q26 0 52 9q25 7 47 26q19 16 33 44q12 27 12 64v202q0 37 -12 64q-14 27 -33 45q-22 17 -47 26q-27 8 -52 8h-144 v-488h144z" />
<glyph unicode="E" d="M215 406h236v-106h-236v-194h306v-106h-413v700h413v-106h-306v-188z" />
<glyph unicode="F" d="M233 406h236v-106h-236v-300h-107v700h413v-106h-306v-188z" />
<glyph unicode="G" d="M306 710q53 0 98 -15q44 -17 77 -45q32 -29 52 -70q18 -39 23 -94h-107q-4 30 -18 53q-13 22 -33 37q-19 13 -44 21q-22 7 -48 7q-25 0 -52 -8q-26 -9 -46 -26q-20 -16 -33 -43q-13 -26 -13 -64v-226q0 -38 13 -63q12 -28 33 -44q20 -18 46 -26q27 -8 52 -8t52 8 q25 7 47 26q19 16 33 44q12 26 12 63v45h-144v103h251v-148q0 -57 -18 -102q-18 -47 -51 -78q-35 -33 -79 -49q-47 -18 -103 -18t-102 18q-46 16 -80 49q-33 31 -51 78q-18 45 -18 102v226q0 57 18 103t51 77q34 32 80 50q48 17 102 17z" />
<glyph unicode="H" d="M448 700h107v-700h-107v300h-288v-300h-107v700h107v-294h288v294z" />
<glyph unicode="I" d="M358 594v-488h153v-106h-413v106h153v488h-153v106h413v-106h-153z" />
<glyph unicode="J" d="M152 200q6 -25 20 -46q13 -18 34 -33q19 -13 41 -19q23 -6 45 -6q25 0 52 8q25 7 47 26q19 16 33 44q12 26 12 63v357h-306v106h413v-463q0 -57 -18 -102q-18 -47 -51 -78q-35 -33 -79 -49q-47 -18 -103 -18q-50 0 -94 15q-44 14 -76 41q-34 28 -53 66q-20 40 -26 88h109 z" />
<glyph unicode="K" d="M163 0h-107v700h107v-342l291 342h132l-245 -288l272 -412h-126l-217 329l-107 -126v-203z" />
<glyph unicode="L" d="M115 700h107v-594h306v-106h-413v700z" />
<glyph unicode="M" d="M442 700h113v-700h-104v481l-105 -293h-84l-105 293v-481h-104v700h113l138 -385z" />
<glyph unicode="N" d="M555 0h-107l-288 502v-502h-107v700h107l288 -502v502h107v-700z" />
<glyph unicode="O" d="M448 463q0 37 -12 64q-14 27 -33 43q-22 17 -47 26q-27 8 -52 8t-52 -8q-26 -9 -46 -26q-20 -16 -33 -43q-13 -26 -13 -64v-226q0 -38 13 -63q12 -28 33 -44q20 -18 46 -26q27 -8 52 -8t52 8q25 7 47 26q19 16 33 44q12 26 12 63v226zM53 463q0 57 18 103t51 77 q34 32 80 50q48 17 102 17q55 0 103 -17q45 -17 79 -50q33 -31 51 -77t18 -103v-226q0 -57 -18 -102q-18 -47 -51 -78q-35 -33 -79 -49q-47 -18 -103 -18t-102 18q-46 16 -80 49q-33 31 -51 78q-18 45 -18 102v226z" />
<glyph unicode="P" d="M184 596v-248h159q35 0 58 10t40 27q14 15 22 40q7 21 7 47q0 27 -7 48q-8 23 -22 39q-17 17 -40 27t-58 10h-159zM184 0h-107v700h266q61 0 106 -18q47 -21 73 -50q30 -33 43 -73q14 -44 14 -88q0 -46 -14 -88q-13 -40 -43 -73q-27 -30 -73 -49q-44 -19 -106 -19h-159 v-242z" />
<glyph unicode="Q" d="M53 463q0 57 18 103t51 77q34 32 80 50q48 17 102 17q55 0 103 -17q45 -17 79 -50q33 -31 51 -77t18 -103v-226q0 -87 -42 -148l62 -63l-73 -71l-65 66q-56 -31 -133 -31q-56 0 -102 18q-46 16 -80 49q-33 31 -51 78q-18 45 -18 102v226zM160 455l274 -284q14 30 14 66 v226q0 37 -12 64q-14 27 -33 43q-22 17 -47 26q-27 8 -52 8t-52 -8q-26 -9 -46 -26q-20 -16 -33 -43q-13 -26 -13 -64v-8zM160 308v-71q0 -38 13 -63q12 -28 33 -44q20 -18 46 -26q27 -8 52 -8q23 0 52 8z" />
<glyph unicode="R" d="M180 301v-301h-107v700h275q104 0 160 -54q55 -55 55 -146q0 -79 -40 -129q-41 -52 -117 -65l180 -306h-120l-177 301h-109zM454 499q0 46 -28 71q-28 24 -78 24h-168v-190h168q50 0 78 25q28 24 28 70z" />
<glyph unicode="S" d="M312 -10q-58 0 -106 17t-79 48q-33 30 -51 72q-17 39 -22 90h109q10 -58 50 -90q38 -31 101 -31q54 0 86 24t32 65q0 38 -23 64q-22 23 -76 37l-124 30q-68 16 -106 69t-38 127q0 50 18 88q18 37 49 62q30 24 71 36t88 12q106 0 166 -54q60 -55 73 -143h-114 q-10 43 -42 67q-31 24 -82 24q-62 0 -90 -26q-28 -25 -28 -66t22 -63q22 -23 57 -30l120 -29q83 -19 126 -71q42 -51 42 -136q0 -43 -15 -77q-16 -35 -45 -61q-30 -27 -71 -40q-44 -15 -98 -15z" />
<glyph unicode="T" d="M358 594v-594h-107v594h-197v106h501v-106h-197z" />
<glyph unicode="U" d="M448 700h107v-463q0 -57 -18 -102q-18 -47 -51 -78q-35 -33 -79 -49q-47 -18 -103 -18t-102 18q-46 16 -80 49q-33 31 -51 78q-18 45 -18 102v463h107v-463q0 -38 13 -63q12 -28 33 -44q20 -18 46 -26q27 -8 52 -8t52 8q25 7 47 26q19 16 33 44q12 26 12 63v463z" />
<glyph unicode="V" d="M359 0h-110l-245 700h110l190 -546l190 546h110z" />
<glyph unicode="W" d="M418 175l65 525h105l-100 -700h-106l-78 430l-78 -430h-106l-100 700h105l65 -525l71 425h86z" />
<glyph unicode="X" d="M304 286l-174 -286h-120l222 362l-207 338h120l159 -261l159 261h120l-207 -338l222 -362h-120z" />
<glyph unicode="Y" d="M357 267v-267h-107v267l-246 433h118l182 -322l182 322h118z" />
<glyph unicode="Z" d="M46 0v106l372 488h-367v106h497v-106l-372 -488h377v-106h-507z" />
<glyph unicode="[" d="M250 700h225v-42h-182v-708h182v-42h-225v792z" />
<glyph unicode="\" d="M86 705l472 -684l-37 -26l-472 684z" />
<glyph unicode="]" d="M358 -92h-225v42h182v708h-182v42h225v-792z" />
<glyph unicode="^" d="M304 642l-239 -239l-31 32l270 270l270 -270l-31 -32z" />
<glyph unicode="_" d="M106 -114v45h396v-45h-396z" />
<glyph unicode="`" d="M164 657l13 48l267 -73l-13 -48z" />
<glyph unicode="a" d="M300 429q-39 0 -66 -18q-29 -18 -39 -55h-107q8 52 29 85q23 36 53 54q30 19 65 27q37 8 65 8q34 0 72 -9q39 -11 69 -34q32 -24 53 -65q21 -42 21 -106v-316h-105v49q-26 -31 -64 -44q-39 -15 -90 -15q-36 0 -67 9q-33 9 -56 28q-24 18 -38 47q-15 28 -15 69q0 23 6 45 q5 23 18 44q15 23 35 39q21 16 53 27q49 14 99 20q111 10 118 10q-1 5 -1 13l-3 12q-11 38 -37 57q-28 19 -68 19zM273 91q19 0 47 5q27 5 44 17q19 12 33 35q13 22 13 58v29q-59 -4 -120 -11q-52 -8 -80 -24q-8 -5 -17 -17q-8 -11 -8 -31q0 -32 23 -46q22 -15 65 -15z" />
<glyph unicode="b" d="M418 314q0 58 -30 87q-32 27 -80 27q-49 0 -79 -27q-31 -28 -31 -87v-108q0 -59 31 -86q29 -28 79 -28q49 0 80 28q30 27 30 86v108zM523 204q0 -61 -19 -100q-19 -40 -50 -66q-32 -27 -66 -37q-39 -11 -70 -11q-17 0 -39 5q-15 3 -36 13q-15 7 -27 19q-11 10 -18 22v-49 h-105v700h105v-229q7 13 18 22q9 9 27 19q21 10 36 13q22 5 39 5q31 0 70 -11q36 -11 66 -36q31 -26 50 -66q19 -39 19 -101v-112z" />
<glyph unicode="c" d="M522 176q-4 -55 -27 -91q-23 -37 -53 -57q-32 -21 -66 -30q-38 -8 -68 -8q-34 0 -71 9q-40 11 -70 34q-32 25 -53 66t-21 105v112q0 64 21 106q21 41 53 65q30 23 70 34q37 9 71 9q30 0 68 -8q34 -9 66 -30q30 -20 53 -57q23 -36 27 -91h-107q-7 43 -36 64q-28 21 -71 21 q-50 0 -79 -28q-31 -28 -31 -87v-108q0 -59 31 -87q29 -28 79 -28q42 0 71 21q30 22 37 64h106z" />
<glyph unicode="d" d="M190 206q0 -59 30 -86q28 -28 73 -28q49 0 83 28q34 27 34 86v108q0 58 -30 87q-31 27 -80 27t-79 -27q-31 -28 -31 -87v-108zM85 316q0 59 20 101q20 41 49 66q30 26 67 36q38 11 69 11q18 0 40 -5q13 -3 35 -13q17 -9 28 -19q10 -10 17 -22v229h105v-700h-105v49 q-7 -12 -17 -22q-15 -13 -28 -19q-22 -10 -35 -13q-22 -5 -40 -5q-31 0 -69 11q-35 10 -67 37q-29 25 -49 66q-20 42 -20 100v112z" />
<glyph unicode="e" d="M305 91q39 0 67 18q28 19 38 55h107q-8 -52 -29 -85q-22 -33 -52 -53q-35 -21 -65 -28q-37 -8 -66 -8q-33 0 -71 9q-40 11 -70 34q-32 25 -53 66t-21 105v112q0 64 21 106q21 41 53 65q30 23 70 34q37 9 71 9q35 0 72 -9q39 -11 69 -34q32 -24 53 -65q21 -42 21 -106v-93 h-325v-17q0 -59 31 -87q29 -28 79 -28zM305 429q-49 0 -79 -27q-31 -28 -31 -85v-1h220v1q-1 57 -31 85q-32 27 -79 27z" />
<glyph unicode="f" d="M362 599q-32 0 -39 -10q-9 -11 -9 -39v-34h217v-99h-217v-417h-105v417h-147v99h147v61q0 60 29 92q28 31 94 31h199v-101h-169z" />
<glyph unicode="g" d="M300 -93q49 0 80 28q30 29 30 87v57q-7 -12 -17 -22q-15 -13 -28 -19q-22 -10 -35 -13q-22 -5 -40 -5q-31 0 -69 11q-35 10 -67 37q-29 25 -49 66q-20 42 -20 100v82q0 59 20 101q20 41 49 66q30 26 67 36q38 11 69 11q18 0 40 -5q13 -3 35 -13q17 -9 28 -19 q10 -10 17 -22v45h105v-496q0 -64 -21 -106q-21 -41 -53 -65q-30 -23 -69 -34q-38 -9 -72 -9q-30 0 -67 8q-35 9 -66 30q-29 19 -53 56q-22 36 -27 90h106q7 -41 37 -63q29 -20 70 -20zM190 236q0 -59 31 -86q29 -28 79 -28q49 0 80 28q30 27 30 86v78q0 58 -30 87 q-31 27 -80 27t-79 -27q-31 -28 -31 -87v-78z" />
<glyph unicode="h" d="M196 0h-105v700h105v-229q7 13 18 22q9 9 27 19q21 10 36 13q22 5 39 5q31 0 70 -11q36 -11 66 -36q31 -26 50 -66q19 -39 19 -101v-316h-105v314q0 58 -30 87q-31 27 -80 27t-79 -27q-31 -28 -31 -87v-314z" />
<glyph unicode="i" d="M123 516h237v-415h182v-101h-469v101h182v314h-132v101zM240 700h130v-130h-130v130z" />
<glyph unicode="j" d="M320 415h-217v101h322v-577q0 -60 -29 -92q-28 -31 -94 -31h-249v101h219q31 0 40 10q8 11 8 39v449zM305 700h130v-130h-130v130z" />
<glyph unicode="k" d="M211 306l193 210h127l-186 -202l214 -314h-122l-162 238l-64 -70v-168h-105v700h105v-394z" />
<glyph unicode="l" d="M120 700h237v-599h182v-101h-469v101h182v498h-132v101z" />
<glyph unicode="m" d="M161 0h-105v516h105v-23q11 18 30 25q18 7 39 7q24 0 44 -9q18 -10 32 -27q19 20 45 31q24 10 53 10q74 0 113 -41q38 -43 38 -107v-382h-105v382q0 22 -13 34t-33 12t-33 -12t-13 -34v-382h-105v382q0 22 -13 34q-14 12 -33 12t-33 -12q-13 -12 -13 -34v-382z" />
<glyph unicode="n" d="M196 0h-105v516h105v-45q7 13 18 22q9 9 27 19q21 10 36 13q22 5 39 5q31 0 70 -11q36 -11 66 -36q31 -26 50 -66q19 -39 19 -101v-316h-105v314q0 58 -30 87q-31 27 -80 27t-79 -27q-31 -28 -31 -87v-314z" />
<glyph unicode="o" d="M414 314q0 58 -30 87q-31 28 -80 28q-50 0 -79 -28q-31 -28 -31 -87v-108q0 -59 31 -87q29 -28 79 -28q49 0 80 28q30 29 30 87v108zM89 316q0 64 21 106q21 41 53 65q30 23 70 34q38 9 71 9q34 0 72 -9q39 -11 69 -34q32 -24 53 -65q21 -42 21 -106v-112q0 -64 -21 -105 t-53 -66q-30 -23 -69 -34q-38 -9 -72 -9t-71 9q-40 11 -70 34q-32 25 -53 66t-21 105v112z" />
<glyph unicode="p" d="M418 314q0 58 -30 87q-32 27 -80 27q-49 0 -79 -27q-31 -28 -31 -87v-108q0 -59 31 -86q29 -28 79 -28q49 0 80 28q30 27 30 86v108zM523 204q0 -61 -19 -100q-19 -40 -50 -66q-32 -27 -66 -37q-39 -11 -70 -11q-17 0 -39 5q-15 3 -36 13q-15 7 -27 19q-11 10 -18 22 v-233h-105v700h105v-45q7 13 18 22q9 9 27 19q21 10 36 13q22 5 39 5q31 0 70 -11q36 -11 66 -36q31 -26 50 -66q19 -39 19 -101v-112z" />
<glyph unicode="q" d="M190 206q0 -59 30 -86q28 -28 73 -28q49 0 83 28q34 27 34 86v108q0 58 -30 87q-31 27 -80 27t-79 -27q-31 -28 -31 -87v-108zM85 316q0 59 20 101q20 41 49 66q30 26 67 36q38 11 69 11q18 0 40 -5q13 -3 35 -13q17 -9 28 -19q10 -10 17 -22v45h105v-700h-105v233 q-7 -12 -17 -22q-15 -13 -28 -19q-22 -10 -35 -13q-22 -5 -40 -5q-31 0 -69 11q-35 10 -67 37q-29 25 -49 66q-20 42 -20 100v112z" />
<glyph unicode="r" d="M424 424q-49 0 -79 -27q-31 -28 -31 -87v-209h201v-101h-469v101h163v314h-113v101h218v-50q7 12 18 22q9 9 27 19q21 10 36 13q22 5 39 5h131v-101h-141z" />
<glyph unicode="s" d="M319 -10q-48 0 -84 11q-42 11 -68 32q-30 23 -48 55q-19 34 -20 77h108q6 -38 39 -56q32 -18 74 -18q16 0 33 3q14 1 27 8q10 6 18 17q7 10 7 26q0 27 -19 37q-20 11 -46 17l-98 25q-25 6 -49 17q-23 10 -42 29t-29 45q-11 27 -11 63q0 38 15 67q13 27 39 47q23 18 60 29 q35 9 73 9q84 0 137 -39q54 -40 61 -126h-110q-6 34 -32 49q-27 15 -63 15q-7 0 -25 -2q-14 -3 -24 -9q-11 -6 -18 -16t-7 -26q0 -23 19 -33q18 -11 39 -15l95 -24q36 -9 62 -21q28 -15 44 -32q17 -21 26 -45q9 -27 9 -64q0 -36 -14 -66q-15 -29 -40 -48q-23 -17 -61 -29 q-34 -9 -77 -9z" />
<glyph unicode="t" d="M308 150q0 -28 9 -39q7 -10 39 -10h169v-101h-199q-66 0 -94 31q-29 32 -29 92v294h-147v99h147v117h105v-117h217v-99h-217v-267z" />
<glyph unicode="u" d="M195 206q0 -59 30 -86q29 -28 77 -28t77 28q30 27 30 86v310h105v-516h-105v49q-7 -12 -17 -22q-15 -13 -28 -19q-22 -10 -35 -13q-22 -5 -40 -5q-33 0 -68 12q-36 12 -65 38t-47 67q-19 39 -19 97v312h105v-310z" />
<glyph unicode="v" d="M433 516h109l-186 -516h-104l-186 516h109l129 -367z" />
<glyph unicode="w" d="M304 311l-74 -311h-97l-83 516h104l47 -354l58 274h90l58 -274l47 354h104l-83 -516h-97z" />
<glyph unicode="x" d="M304 185l-121 -185h-116l175 265l-167 251h116l113 -172l113 172h116l-167 -251l175 -265h-116z" />
<glyph unicode="y" d="M313 -119q-23 -65 -114 -65h-70v101h37q16 0 30 2q10 1 18 8q7 7 11 16q10 24 11 26l14 38l-184 509h109l129 -367l129 367h109z" />
<glyph unicode="z" d="M240 99h254v-99h-385v99l247 318h-240v99h371v-99z" />
<glyph unicode="{" d="M176 283v42h10q40 0 52 15t12 46v211q0 22 5 44q4 19 16 32q11 12 33 20q20 7 53 7h118v-42h-118q-40 0 -52 -15t-12 -46v-211q0 -29 -7 -49q-8 -23 -27 -33q19 -12 27 -33q7 -21 7 -49v-211q0 -31 12 -46t52 -15h118v-42h-118q-33 0 -53 7q-22 8 -33 20q-12 13 -16 32 q-5 22 -5 44v211q0 31 -12 46t-52 15h-10z" />
<glyph unicode="|" d="M282 700h43v-800h-43v800z" />
<glyph unicode="}" d="M422 283q-40 0 -52 -15t-12 -46v-211q0 -27 -4 -44t-17 -32q-11 -12 -33 -20q-20 -7 -53 -7h-118v42h118q40 0 52 15t12 46v211q0 25 8 49q8 22 26 33q-18 10 -26 33q-8 22 -8 49v211q0 31 -12 46t-52 15h-118v42h118q33 0 53 -7q22 -8 33 -20q13 -15 17 -32t4 -44v-211 q0 -31 12 -46t52 -15h10v-42h-10z" />
<glyph unicode="~" d="M354 218l-102 73l-135 -73l-21 38l159 86l102 -73l135 73l21 -38z" />
<glyph unicode="&#xa0;" />
<glyph unicode="&#xa1;" d="M357 -184h-105v470h105v-470zM237 516h134v-134h-134v134z" />
<glyph unicode="&#xa2;" d="M288 -9q-31 1 -67 14q-35 11 -63 36q-30 25 -47 64q-18 41 -18 99v112q0 58 18 99q17 38 47 65q28 24 63 36q38 12 67 13v91h43v-91q33 -3 62 -13q33 -11 59 -31q27 -23 46 -56q19 -34 24 -85h-107q-7 43 -36 64q-28 21 -71 21q-50 0 -79 -28q-31 -28 -31 -87v-108 q0 -59 31 -87q29 -28 79 -28q42 0 71 21q30 22 37 64h106q-4 -50 -24 -84q-20 -36 -46 -56q-25 -21 -59 -32q-30 -11 -62 -13v-91h-43v91z" />
<glyph unicode="&#xa3;" d="M125 372v124q0 64 21 106q21 41 53 65q30 23 70 34q37 9 71 9t72 -9q39 -11 69 -34q32 -24 53 -65q21 -42 21 -106v-2h-105q0 58 -30 87q-31 28 -80 28q-50 0 -79 -28q-31 -28 -31 -87v-122h220v-43h-220v-228h325v-101h-494v101h64v228h-64v43h64z" />
<glyph unicode="&#xa4;" d="M479 134q-35 -30 -79 -47q-46 -17 -96 -17t-95 17q-45 16 -80 47l-84 -84l-31 30l84 85q-31 35 -47 80q-17 45 -17 95t17 96q17 44 47 79l-84 85l31 30l84 -85q34 31 80 48q45 17 95 17t96 -17q45 -17 79 -48l84 85l31 -30l-85 -85q31 -34 48 -79q17 -46 17 -96t-17 -95 q-17 -46 -48 -80l85 -85l-31 -30zM135 340q0 -34 14 -65q13 -31 36 -54t54 -36q31 -14 65 -14q33 0 66 14q31 14 53 36q24 24 37 54q13 29 13 65t-13 66q-13 29 -37 53t-53 37q-30 13 -66 13t-65 -13q-30 -13 -54 -37q-22 -22 -36 -53q-14 -33 -14 -66z" />
<glyph unicode="&#xa5;" d="M501 310v-43h-145v-88h145v-43h-145v-136h-105v136h-145v43h145v88h-145v43h120l-222 390h116l184 -324l184 324h116l-224 -390h121z" />
<glyph unicode="&#xa6;" d="M283 239h43v-339h-43v339zM283 700h43v-339h-43v339z" />
<glyph unicode="&#xa7;" d="M232 122q-25 10 -43 18q-23 10 -45 29t-35 45q-14 28 -14 67q0 53 27 87q26 33 74 50q-27 19 -48 52q-20 32 -20 81q0 34 14 65q14 30 37 50q22 20 55 33q33 11 69 11q73 0 122 -42q49 -44 60 -120h-45q-7 53 -44 87q-36 33 -93 33q-24 0 -48 -8q-22 -7 -41 -23t-29 -37 q-12 -22 -12 -49q0 -45 25 -73q24 -28 62 -42l116 -40q24 -9 44 -18q23 -10 45 -29q21 -18 36 -45q14 -30 14 -68q0 -54 -28 -88q-27 -33 -76 -50q30 -22 50 -55q20 -35 20 -85q0 -30 -9 -58q-9 -26 -29 -48q-18 -20 -53 -34q-34 -12 -82 -12q-43 0 -75 13q-34 14 -56 36 q-23 22 -37 54q-14 31 -18 69h45q6 -58 45 -94t96 -36q68 0 98 32q30 33 30 78t-24 78q-24 32 -63 46zM262 388q-12 -1 -43 -7q-23 -6 -39 -18q-19 -16 -28 -32q-12 -19 -12 -50q0 -24 8 -43q6 -16 22 -32q14 -14 33 -24q15 -8 40 -17l103 -36q23 2 43 7q23 6 40 19 q17 12 30 32q11 20 11 49q0 49 -30 76q-31 28 -73 41z" />
<glyph unicode="&#xa8;" d="M148 683h76v-76h-76v76zM384 683h76v-76h-76v76z" />
<glyph unicode="&#xa9;" d="M525 451q0 46 -14 88q-15 41 -43 69q-26 26 -70 44q-39 16 -94 16t-94 -16q-42 -17 -69 -44q-30 -30 -43 -69q-15 -41 -15 -88v-202q0 -48 15 -88q12 -37 43 -68q29 -29 69 -45q39 -16 94 -16t94 16q42 17 70 45t43 68q14 42 14 88v202zM568 249q0 -57 -17 -106 q-18 -48 -52 -82t-83 -52q-48 -19 -112 -19t-112 19q-49 18 -83 52q-35 35 -51 82q-18 48 -18 106v202q0 58 18 106q16 47 51 82q33 33 83 53q49 18 112 18q62 0 112 -18q50 -19 83 -53q34 -34 52 -82q17 -49 17 -106v-202zM304 153q-74 0 -112 41t-38 106v100q0 65 38 106 t112 41t112 -39t39 -102h-86q-1 23 -19 41q-16 15 -46 15q-31 0 -48 -17t-17 -45v-100q0 -28 17 -45q16 -18 48 -18q30 0 46 15q18 16 19 41h86q-2 -64 -39 -101q-38 -39 -112 -39z" />
<glyph unicode="&#xaa;" d="M267 294q-30 0 -54 7q-26 8 -43 22q-20 15 -30 37q-11 24 -11 52q0 36 18 70t67 50q39 12 78 16q53 6 91 8q-1 3 -1 10q0 1 -1 5t-2 5q-17 54 -78 54q-30 0 -50 -13q-21 -14 -29 -41h-86q4 37 22 64q17 26 40 42q21 14 50 22q25 7 53 7q27 0 59 -8q29 -9 54 -29 q22 -18 40 -52q15 -32 15 -80v-240h-85v39q-18 -23 -47 -35t-70 -12zM281 374q20 0 36 4q20 5 33 14q14 8 25 26q9 16 9 43v21q-88 -8 -90 -8q-38 -4 -60 -17q-7 -4 -14 -13q-6 -9 -6 -24q0 -46 67 -46zM129 207v45h340v-45h-340z" />
<glyph unicode="&#xab;" d="M55 257l210 210l32 -31l-179 -179l179 -179l-32 -31zM279 257l210 210l32 -31l-179 -179l179 -179l-32 -31z" />
<glyph unicode="&#xac;" d="M106 303h396v-221h-45v176h-351v45z" />
<glyph unicode="&#xad;" d="M159 258v45h290v-45h-290z" />
<glyph unicode="&#xae;" d="M568 249q0 -57 -17 -106q-18 -48 -52 -82t-83 -52q-48 -19 -112 -19t-112 19q-49 18 -83 52q-35 35 -51 82q-18 48 -18 106v202q0 58 18 106q16 47 51 82q33 33 83 53q49 18 112 18q62 0 112 -18q50 -19 83 -53q34 -34 52 -82q17 -49 17 -106v-202zM525 451q0 46 -14 88 q-15 41 -43 69q-26 26 -70 44q-39 16 -94 16t-94 -16q-42 -17 -69 -44q-30 -30 -43 -69q-15 -41 -15 -88v-202q0 -48 15 -88q12 -37 43 -68q29 -29 69 -45q39 -16 94 -16t94 16q42 17 70 45t43 68q14 42 14 88v202zM373 158l-89 152h-33v-152h-85v383h170q60 0 92 -30 q32 -32 32 -85q0 -42 -21 -71q-22 -30 -59 -40l92 -157h-99zM251 393h88q16 0 27 8q9 7 9 23q0 18 -9 25q-11 8 -27 8h-88v-64z" />
<glyph unicode="&#xaf;" d="M148 620v50h312v-50h-312z" />
<glyph unicode="&#xb0;" d="M148 549q0 34 13 61q12 28 33 49q20 20 50 34q28 12 60 12t61 -12q29 -13 49 -34t34 -49q12 -28 12 -61q0 -31 -12 -60q-14 -30 -34 -50q-21 -21 -49 -33q-27 -13 -61 -13q-33 0 -60 13q-29 12 -50 33t-33 50q-13 27 -13 60zM191 549q0 -25 9 -44q9 -21 24 -36 q14 -16 36 -25q20 -9 44 -9t45 9q21 10 35 25q15 15 24 36q9 19 9 44q0 24 -9 45q-9 20 -24 36q-15 15 -35 24q-21 9 -45 9t-44 -9q-21 -9 -36 -24q-15 -16 -24 -36q-9 -21 -9 -45z" />
<glyph unicode="&#xb1;" d="M282 350h-176v45h176v121h45v-121h175v-45h-175v-121h-45v121zM106 155v45h396v-45h-396z" />
<glyph unicode="&#xb2;" d="M204 587q-21 21 -28 41q-9 21 -9 47q0 27 11 54q10 24 30 44q19 19 43 29q27 11 54 11q28 0 55 -11q23 -9 44 -29q20 -21 29 -44q11 -27 11 -54q0 -22 -4 -35q-4 -15 -12 -27q-6 -11 -19 -24q-11 -12 -26 -26l-92 -87h153v-75h-277v75l165 154q17 18 22 28q5 12 5 21 q0 25 -14 42t-40 17q-25 0 -39 -17t-14 -42q0 -6 5 -18q3 -7 9 -17z" />
<glyph unicode="&#xb3;" d="M308 395q-34 0 -62 11q-27 10 -47 30q-19 18 -28 43q-10 24 -10 54h85q0 -24 13 -43q12 -20 40 -20q27 0 41 20q12 20 12 43q0 21 -14 41q-15 19 -39 19v76q14 0 21 10t7 21q0 13 -5 26q-6 12 -23 12t-22 -12q-6 -12 -6 -26h-85q0 24 9 45q10 21 25 35q15 15 36 24 q20 9 43 9t44 -9q19 -9 36 -24q15 -15 24 -35q9 -21 9 -45q0 -37 -22 -65q20 -19 34 -45q13 -25 13 -57q0 -27 -8 -54q-7 -25 -24 -43q-16 -19 -41 -30t-56 -11z" />
<glyph unicode="&#xb4;" d="M177 584l-13 48l267 73l13 -48z" />
<glyph unicode="&#xb5;" d="M304 41q28 0 55 11q25 10 45 30t30 47q11 30 11 63v324h53v-516h-53v63q-23 -36 -63 -54q-39 -19 -78 -19t-78 19q-40 18 -63 54v-247h-53v700h53v-324q0 -33 11 -63q10 -27 30 -47t45 -30q27 -11 55 -11z" />
<glyph unicode="&#xb6;" d="M515 -87h-43v745h-155v-745h-43v387h-10q-42 0 -77 16q-37 16 -64 43t-42 64q-16 35 -16 77t16 78q15 36 42 63q26 27 64 43q35 16 77 16h251v-787z" />
<glyph unicode="&#xb7;" d="M237 357h134v-134h-134v134z" />
<glyph unicode="&#xb8;" d="M299 -134v84h50v-134h-134v50h84z" />
<glyph unicode="&#xb9;" d="M163 698l109 109h85v-331h105v-75h-296v75h106v215l-52 -51z" />
<glyph unicode="&#xba;" d="M304 375q39 0 61 22q22 21 22 64v82q0 44 -22 66q-22 21 -61 21q-38 0 -60 -21q-23 -23 -23 -66v-82q0 -43 23 -64q22 -22 60 -22zM304 294q-29 0 -59 9q-28 7 -54 28q-23 19 -39 52q-16 31 -16 80v79q0 49 16 80q16 33 39 52q25 20 54 29q32 8 59 8q28 0 60 -8 q29 -9 54 -29q23 -19 39 -52q15 -32 15 -80v-79q0 -49 -15 -80q-16 -33 -39 -52q-26 -21 -54 -28q-30 -9 -60 -9zM136 207v45h336v-45h-336z" />
<glyph unicode="&#xbb;" d="M119 467l210 -210l-210 -210l-32 31l179 179l-179 179zM344 467l210 -210l-210 -210l-32 31l179 179l-179 179z" />
<glyph unicode="&#xbc;" d="M40 635l65 65h42v-221h67v-40h-177v40h68v164l-36 -37zM505 585l32 -32l-434 -435l-32 32zM477 0v63h-115v40l116 160l33 -24l-99 -136h65v53h42v-53h27v-40h-27v-63h-42z" />
<glyph unicode="&#xbd;" d="M40 635l65 65h42v-221h67v-40h-177v40h68v164l-36 -37zM505 585l32 -32l-434 -435l-32 32zM403 125q-10 10 -18 26q-7 14 -7 33q0 34 24 58q23 23 57 23q33 0 58 -23q23 -25 23 -58q0 -23 -7 -37t-28 -35l-70 -72h105v-40h-162v40l96 99q14 14 19 23q5 12 5 22 q0 18 -10 29q-11 11 -29 11q-17 0 -28 -11q-11 -13 -11 -29q0 -18 12 -30z" />
<glyph unicode="&#xbe;" d="M134 596h3q14 2 21 11q8 11 8 23q0 14 -9 24q-9 9 -23 9t-23 -9q-9 -10 -9 -24h-42q0 31 22 53q21 21 52 21q30 0 53 -21q21 -23 21 -53q0 -16 -6 -29t-16 -23q29 -24 29 -62q0 -34 -23 -57q-24 -24 -58 -24t-57 24q-24 23 -24 57h42q0 -17 11 -28q10 -12 28 -12t28 12 q11 11 11 28q0 18 -10 29q-12 12 -26 13h-3v38zM505 585l32 -32l-434 -435l-32 32zM477 0v63h-115v40l116 160l33 -24l-99 -136h65v53h42v-53h27v-40h-27v-63h-42z" />
<glyph unicode="&#xbf;" d="M308 135q-24 -2 -42 -10q-20 -11 -33 -25q-15 -19 -22 -36q-8 -22 -8 -43q0 -23 9 -44q7 -19 23 -37q13 -14 34 -24q19 -9 44 -9t44 9q20 9 35 24q15 18 23 37q8 22 8 44h105q0 -44 -17 -84q-16 -38 -46 -68t-68 -46q-40 -17 -84 -17t-84 17q-38 16 -68 46t-46 68 q-17 40 -17 84q0 37 12 72q12 34 34 62q24 29 52 47t65 28v56h105v-151h-58zM246 516h134v-134h-134v134z" />
<glyph unicode="&#xc0;" d="M435 169h-262l-59 -169h-110l245 700h110l245 -700h-110zM401 268l-97 278l-97 -278h194zM164 811l13 48l267 -73l-13 -48z" />
<glyph unicode="&#xc1;" d="M435 169h-262l-59 -169h-110l245 700h110l245 -700h-110zM401 268l-97 278l-97 -278h194zM177 738l-13 48l267 73l13 -48z" />
<glyph unicode="&#xc2;" d="M435 169h-262l-59 -169h-110l245 700h110l245 -700h-110zM401 268l-97 278l-97 -278h194zM304 805l-141 -67l-21 44l162 77l162 -77l-21 -44z" />
<glyph unicode="&#xc3;" d="M435 169h-262l-59 -169h-110l245 700h110l245 -700h-110zM401 268l-97 278l-97 -278h194zM342 742l-79 57l-107 -57l-23 43l133 71l79 -57l107 57l23 -43z" />
<glyph unicode="&#xc4;" d="M435 169h-262l-59 -169h-110l245 700h110l245 -700h-110zM401 268l-97 278l-97 -278h194zM148 837h76v-76h-76v76zM384 837h76v-76h-76v76z" />
<glyph unicode="&#xc5;" d="M190 765q0 24 9 45q9 20 25 36q14 16 36 25q20 9 44 9t45 -9q20 -9 36 -25t25 -36q9 -21 9 -45q0 -30 -13 -53q-12 -23 -37 -41l235 -671h-110l-59 169h-262l-59 -169h-110l235 671q-23 17 -36 41q-13 23 -13 53zM401 268l-97 278l-97 -278h194zM239 765q0 -27 19 -46 t46 -19q28 0 47 19t19 46q0 28 -19 47t-47 19q-27 0 -46 -19t-19 -47z" />
<glyph unicode="&#xc6;" d="M395 406h90v-106h-90v-194h160v-106h-267v169h-115l-59 -169h-110l245 700h306v-106h-160v-188zM288 268v230l-81 -230h81z" />
<glyph unicode="&#xc7;" d="M283 -134v84h50v-134h-134v50h84zM558 217q-3 -53 -22 -94t-52 -71q-32 -29 -77 -46q-44 -16 -99 -16q-56 0 -102 18q-46 16 -80 49q-33 31 -51 78q-18 45 -18 102v226q0 57 18 103t51 77q34 32 80 50q48 17 102 17q55 0 99 -16q44 -17 77 -45q33 -30 52 -71 q19 -42 22 -95h-107q-3 31 -17 54t-33 38q-18 14 -44 22q-24 7 -49 7t-52 -8q-26 -9 -46 -26q-20 -16 -33 -43q-13 -26 -13 -64v-226q0 -38 13 -63q12 -28 33 -44q20 -18 46 -26q27 -8 52 -8t49 7q26 8 44 22q19 15 33 38t17 54h107z" />
<glyph unicode="&#xc8;" d="M215 406h236v-106h-236v-194h306v-106h-413v700h413v-106h-306v-188zM174 811l13 48l267 -73l-13 -48z" />
<glyph unicode="&#xc9;" d="M215 406h236v-106h-236v-194h306v-106h-413v700h413v-106h-306v-188zM187 738l-13 48l267 73l13 -48z" />
<glyph unicode="&#xca;" d="M215 406h236v-106h-236v-194h306v-106h-413v700h413v-106h-306v-188zM314 805l-141 -67l-21 44l162 77l162 -77l-21 -44z" />
<glyph unicode="&#xcb;" d="M215 406h236v-106h-236v-194h306v-106h-413v700h413v-106h-306v-188zM158 837h76v-76h-76v76zM394 837h76v-76h-76v76z" />
<glyph unicode="&#xcc;" d="M358 594v-488h153v-106h-413v106h153v488h-153v106h413v-106h-153zM164 811l13 48l267 -73l-13 -48z" />
<glyph unicode="&#xcd;" d="M358 594v-488h153v-106h-413v106h153v488h-153v106h413v-106h-153zM177 738l-13 48l267 73l13 -48z" />
<glyph unicode="&#xce;" d="M358 594v-488h153v-106h-413v106h153v488h-153v106h413v-106h-153zM304 805l-141 -67l-21 44l162 77l162 -77l-21 -44z" />
<glyph unicode="&#xcf;" d="M358 594v-488h153v-106h-413v106h153v488h-153v106h413v-106h-153zM148 837h76v-76h-76v76zM384 837h76v-76h-76v76z" />
<glyph unicode="&#xd0;" d="M69 0v328h-70v45h70v327h251q55 0 103 -17q45 -17 79 -50q33 -31 51 -77t18 -103v-206q0 -57 -18 -102q-18 -47 -51 -78q-35 -33 -79 -49q-46 -18 -103 -18h-251zM320 106q26 0 52 9q25 7 47 26q19 16 33 44q12 27 12 64v202q0 37 -12 64q-14 27 -33 45q-22 17 -47 26 q-27 8 -52 8h-144v-221h144v-45h-144v-222h144z" />
<glyph unicode="&#xd1;" d="M555 0h-107l-288 502v-502h-107v700h107l288 -502v502h107v-700zM342 742l-79 57l-107 -57l-23 43l133 71l79 -57l107 57l23 -43z" />
<glyph unicode="&#xd2;" d="M448 463q0 37 -12 64q-14 27 -33 43q-22 17 -47 26q-27 8 -52 8t-52 -8q-26 -9 -46 -26q-20 -16 -33 -43q-13 -26 -13 -64v-226q0 -38 13 -63q12 -28 33 -44q20 -18 46 -26q27 -8 52 -8t52 8q25 7 47 26q19 16 33 44q12 26 12 63v226zM53 463q0 57 18 103t51 77 q34 32 80 50q48 17 102 17q55 0 103 -17q45 -17 79 -50q33 -31 51 -77t18 -103v-226q0 -57 -18 -102q-18 -47 -51 -78q-35 -33 -79 -49q-47 -18 -103 -18t-102 18q-46 16 -80 49q-33 31 -51 78q-18 45 -18 102v226zM164 811l13 48l267 -73l-13 -48z" />
<glyph unicode="&#xd3;" d="M448 463q0 37 -12 64q-14 27 -33 43q-22 17 -47 26q-27 8 -52 8t-52 -8q-26 -9 -46 -26q-20 -16 -33 -43q-13 -26 -13 -64v-226q0 -38 13 -63q12 -28 33 -44q20 -18 46 -26q27 -8 52 -8t52 8q25 7 47 26q19 16 33 44q12 26 12 63v226zM53 463q0 57 18 103t51 77 q34 32 80 50q48 17 102 17q55 0 103 -17q45 -17 79 -50q33 -31 51 -77t18 -103v-226q0 -57 -18 -102q-18 -47 -51 -78q-35 -33 -79 -49q-47 -18 -103 -18t-102 18q-46 16 -80 49q-33 31 -51 78q-18 45 -18 102v226zM177 738l-13 48l267 73l13 -48z" />
<glyph unicode="&#xd4;" d="M448 463q0 37 -12 64q-14 27 -33 43q-22 17 -47 26q-27 8 -52 8t-52 -8q-26 -9 -46 -26q-20 -16 -33 -43q-13 -26 -13 -64v-226q0 -38 13 -63q12 -28 33 -44q20 -18 46 -26q27 -8 52 -8t52 8q25 7 47 26q19 16 33 44q12 26 12 63v226zM53 463q0 57 18 103t51 77 q34 32 80 50q48 17 102 17q55 0 103 -17q45 -17 79 -50q33 -31 51 -77t18 -103v-226q0 -57 -18 -102q-18 -47 -51 -78q-35 -33 -79 -49q-47 -18 -103 -18t-102 18q-46 16 -80 49q-33 31 -51 78q-18 45 -18 102v226zM304 805l-141 -67l-21 44l162 77l162 -77l-21 -44z" />
<glyph unicode="&#xd5;" d="M448 463q0 37 -12 64q-14 27 -33 43q-22 17 -47 26q-27 8 -52 8t-52 -8q-26 -9 -46 -26q-20 -16 -33 -43q-13 -26 -13 -64v-226q0 -38 13 -63q12 -28 33 -44q20 -18 46 -26q27 -8 52 -8t52 8q25 7 47 26q19 16 33 44q12 26 12 63v226zM53 463q0 57 18 103t51 77 q34 32 80 50q48 17 102 17q55 0 103 -17q45 -17 79 -50q33 -31 51 -77t18 -103v-226q0 -57 -18 -102q-18 -47 -51 -78q-35 -33 -79 -49q-47 -18 -103 -18t-102 18q-46 16 -80 49q-33 31 -51 78q-18 45 -18 102v226zM342 742l-79 57l-107 -57l-23 43l133 71l79 -57l107 57 l23 -43z" />
<glyph unicode="&#xd6;" d="M448 463q0 37 -12 64q-14 27 -33 43q-22 17 -47 26q-27 8 -52 8t-52 -8q-26 -9 -46 -26q-20 -16 -33 -43q-13 -26 -13 -64v-226q0 -38 13 -63q12 -28 33 -44q20 -18 46 -26q27 -8 52 -8t52 8q25 7 47 26q19 16 33 44q12 26 12 63v226zM53 463q0 57 18 103t51 77 q34 32 80 50q48 17 102 17q55 0 103 -17q45 -17 79 -50q33 -31 51 -77t18 -103v-226q0 -57 -18 -102q-18 -47 -51 -78q-35 -33 -79 -49q-47 -18 -103 -18t-102 18q-46 16 -80 49q-33 31 -51 78q-18 45 -18 102v226zM148 837h76v-76h-76v76zM384 837h76v-76h-76v76z" />
<glyph unicode="&#xd7;" d="M336 280l140 -139l-32 -32l-140 139l-139 -139l-32 32l139 139l-139 139l32 32l139 -139l140 139l32 -32z" />
<glyph unicode="&#xd8;" d="M53 463q0 57 18 103t51 77q34 32 80 50q48 17 102 17q96 0 160 -49l43 72l37 -23l-47 -79q27 -30 43 -74q15 -42 15 -94v-226q0 -57 -18 -102q-18 -47 -51 -78q-35 -33 -79 -49q-47 -18 -103 -18q-97 0 -161 49l-43 -72l-37 23l47 79q-27 31 -42 74q-15 42 -15 94v226z M448 463q0 37 -13 64l-235 -392q22 -20 48 -29q26 -10 56 -10q25 0 52 8q25 7 47 26q19 16 33 44q12 26 12 63v226zM160 237q0 -37 12 -64l235 393q-22 20 -48 29q-27 9 -55 9q-25 0 -52 -8q-26 -9 -46 -26q-20 -16 -33 -43q-13 -26 -13 -64v-226z" />
<glyph unicode="&#xd9;" d="M448 700h107v-463q0 -57 -18 -102q-18 -47 -51 -78q-35 -33 -79 -49q-47 -18 -103 -18t-102 18q-46 16 -80 49q-33 31 -51 78q-18 45 -18 102v463h107v-463q0 -38 13 -63q12 -28 33 -44q20 -18 46 -26q27 -8 52 -8t52 8q25 7 47 26q19 16 33 44q12 26 12 63v463zM164 811 l13 48l267 -73l-13 -48z" />
<glyph unicode="&#xda;" d="M448 700h107v-463q0 -57 -18 -102q-18 -47 -51 -78q-35 -33 -79 -49q-47 -18 -103 -18t-102 18q-46 16 -80 49q-33 31 -51 78q-18 45 -18 102v463h107v-463q0 -38 13 -63q12 -28 33 -44q20 -18 46 -26q27 -8 52 -8t52 8q25 7 47 26q19 16 33 44q12 26 12 63v463zM177 738 l-13 48l267 73l13 -48z" />
<glyph unicode="&#xdb;" d="M448 700h107v-463q0 -57 -18 -102q-18 -47 -51 -78q-35 -33 -79 -49q-47 -18 -103 -18t-102 18q-46 16 -80 49q-33 31 -51 78q-18 45 -18 102v463h107v-463q0 -38 13 -63q12 -28 33 -44q20 -18 46 -26q27 -8 52 -8t52 8q25 7 47 26q19 16 33 44q12 26 12 63v463zM304 805 l-141 -67l-21 44l162 77l162 -77l-21 -44z" />
<glyph unicode="&#xdc;" d="M448 700h107v-463q0 -57 -18 -102q-18 -47 -51 -78q-35 -33 -79 -49q-47 -18 -103 -18t-102 18q-46 16 -80 49q-33 31 -51 78q-18 45 -18 102v463h107v-463q0 -38 13 -63q12 -28 33 -44q20 -18 46 -26q27 -8 52 -8t52 8q25 7 47 26q19 16 33 44q12 26 12 63v463zM148 837 h76v-76h-76v76zM384 837h76v-76h-76v76z" />
<glyph unicode="&#xdd;" d="M357 267v-267h-107v267l-246 433h118l182 -322l182 322h118zM177 738l-13 48l267 73l13 -48z" />
<glyph unicode="&#xde;" d="M184 475v-248h159q35 0 58 10t40 27q14 15 22 40q7 21 7 47q0 27 -7 48q-8 23 -22 39q-17 17 -40 27t-58 10h-159zM184 0h-107v700h107v-121h159q61 0 106 -18q47 -21 73 -50q30 -33 43 -73q14 -44 14 -88q0 -46 -14 -88q-13 -40 -43 -73q-27 -30 -73 -49 q-44 -19 -106 -19h-159v-121z" />
<glyph unicode="&#xdf;" d="M381 283q34 -16 59 -37q26 -23 46 -52q20 -30 30 -64q10 -33 10 -72q0 -52 -19 -96q-19 -43 -53 -79q-36 -34 -79 -53q-44 -19 -96 -19v101q29 0 56 11q25 12 45 32q19 19 30 47q11 27 11 56t-11 57q-11 27 -30 46t-45 31q-27 11 -56 11v102l85 110h-149v-415h-105v577 q0 60 29 92q28 31 94 31h46v-101h-16q-32 0 -39 -10q-9 -11 -9 -39v-34h274v-97z" />
<glyph unicode="&#xe0;" d="M300 429q-39 0 -66 -18q-29 -18 -39 -55h-107q8 52 29 85q23 36 53 54q30 19 65 27q37 8 65 8q34 0 72 -9q39 -11 69 -34q32 -24 53 -65q21 -42 21 -106v-316h-105v49q-26 -31 -64 -44q-39 -15 -90 -15q-36 0 -67 9q-33 9 -56 28q-24 18 -38 47q-15 28 -15 69q0 23 6 45 q5 23 18 44q15 23 35 39q21 16 53 27q49 14 99 20q111 10 118 10q-1 5 -1 13l-3 12q-11 38 -37 57q-28 19 -68 19zM273 91q19 0 47 5q27 5 44 17q19 12 33 35q13 22 13 58v29q-59 -4 -120 -11q-52 -8 -80 -24q-8 -5 -17 -17q-8 -11 -8 -31q0 -32 23 -46q22 -15 65 -15z M167 657l13 48l267 -73l-13 -48z" />
<glyph unicode="&#xe1;" d="M300 429q-39 0 -66 -18q-29 -18 -39 -55h-107q8 52 29 85q23 36 53 54q30 19 65 27q37 8 65 8q34 0 72 -9q39 -11 69 -34q32 -24 53 -65q21 -42 21 -106v-316h-105v49q-26 -31 -64 -44q-39 -15 -90 -15q-36 0 -67 9q-33 9 -56 28q-24 18 -38 47q-15 28 -15 69q0 23 6 45 q5 23 18 44q15 23 35 39q21 16 53 27q49 14 99 20q111 10 118 10q-1 5 -1 13l-3 12q-11 38 -37 57q-28 19 -68 19zM273 91q19 0 47 5q27 5 44 17q19 12 33 35q13 22 13 58v29q-59 -4 -120 -11q-52 -8 -80 -24q-8 -5 -17 -17q-8 -11 -8 -31q0 -32 23 -46q22 -15 65 -15z M180 584l-13 48l267 73l13 -48z" />
<glyph unicode="&#xe2;" d="M300 429q-39 0 -66 -18q-29 -18 -39 -55h-107q8 52 29 85q23 36 53 54q30 19 65 27q37 8 65 8q34 0 72 -9q39 -11 69 -34q32 -24 53 -65q21 -42 21 -106v-316h-105v49q-26 -31 -64 -44q-39 -15 -90 -15q-36 0 -67 9q-33 9 -56 28q-24 18 -38 47q-15 28 -15 69q0 23 6 45 q5 23 18 44q15 23 35 39q21 16 53 27q49 14 99 20q111 10 118 10q-1 5 -1 13l-3 12q-11 38 -37 57q-28 19 -68 19zM273 91q19 0 47 5q27 5 44 17q19 12 33 35q13 22 13 58v29q-59 -4 -120 -11q-52 -8 -80 -24q-8 -5 -17 -17q-8 -11 -8 -31q0 -32 23 -46q22 -15 65 -15z M307 651l-141 -67l-21 44l162 77l162 -77l-21 -44z" />
<glyph unicode="&#xe3;" d="M300 429q-39 0 -66 -18q-29 -18 -39 -55h-107q8 52 29 85q23 36 53 54q30 19 65 27q37 8 65 8q34 0 72 -9q39 -11 69 -34q32 -24 53 -65q21 -42 21 -106v-316h-105v49q-26 -31 -64 -44q-39 -15 -90 -15q-36 0 -67 9q-33 9 -56 28q-24 18 -38 47q-15 28 -15 69q0 23 6 45 q5 23 18 44q15 23 35 39q21 16 53 27q49 14 99 20q111 10 118 10q-1 5 -1 13l-3 12q-11 38 -37 57q-28 19 -68 19zM273 91q19 0 47 5q27 5 44 17q19 12 33 35q13 22 13 58v29q-59 -4 -120 -11q-52 -8 -80 -24q-8 -5 -17 -17q-8 -11 -8 -31q0 -32 23 -46q22 -15 65 -15z M345 588l-79 57l-107 -57l-23 43l133 71l79 -57l107 57l23 -43z" />
<glyph unicode="&#xe4;" d="M300 429q-39 0 -66 -18q-29 -18 -39 -55h-107q8 52 29 85q23 36 53 54q30 19 65 27q37 8 65 8q34 0 72 -9q39 -11 69 -34q32 -24 53 -65q21 -42 21 -106v-316h-105v49q-26 -31 -64 -44q-39 -15 -90 -15q-36 0 -67 9q-33 9 -56 28q-24 18 -38 47q-15 28 -15 69q0 23 6 45 q5 23 18 44q15 23 35 39q21 16 53 27q49 14 99 20q111 10 118 10q-1 5 -1 13l-3 12q-11 38 -37 57q-28 19 -68 19zM273 91q19 0 47 5q27 5 44 17q19 12 33 35q13 22 13 58v29q-59 -4 -120 -11q-52 -8 -80 -24q-8 -5 -17 -17q-8 -11 -8 -31q0 -32 23 -46q22 -15 65 -15z M151 683h76v-76h-76v76zM387 683h76v-76h-76v76z" />
<glyph unicode="&#xe5;" d="M186 595q0 24 9 45q9 20 25 36q14 16 36 25q20 9 44 9t45 -9q20 -9 36 -25t25 -36q9 -21 9 -45q0 -46 -32 -78q27 -9 50 -24q25 -17 42 -40q19 -25 29 -58q11 -36 11 -79v-316h-105v49q-26 -31 -64 -44q-39 -15 -90 -15q-36 0 -67 9q-33 9 -56 28q-24 18 -38 47 q-15 28 -15 69q0 23 6 45q5 23 18 44q15 23 35 39q21 16 53 27q49 14 99 20q111 10 118 10q-4 50 -33 76q-29 25 -76 25q-39 0 -66 -18q-29 -18 -39 -55h-107q9 71 46 108q39 39 83 53q-15 17 -22 35q-9 20 -9 43zM273 91q19 0 47 5q27 5 44 17q19 12 33 35q13 22 13 58v29 q-59 -4 -120 -11q-52 -8 -80 -24q-8 -5 -17 -17q-8 -11 -8 -31q0 -32 23 -46q22 -15 65 -15zM235 595q0 -27 19 -46t46 -19q28 0 47 19t19 46q0 28 -19 47t-47 19q-27 0 -46 -19t-19 -47z" />
<glyph unicode="&#xe6;" d="M203 -10q-67 0 -109 39q-43 39 -43 106v41q0 67 43 106q42 39 109 39h48v62q0 23 -14 35q-14 11 -34 11q-19 0 -33 -11q-14 -12 -14 -35v-27h-105v30q0 67 43 106q43 38 109 38q33 0 57 -10t44 -27q18 17 43 27q24 10 57 10q66 0 110 -38q42 -39 42 -106v-167h-200v-82 q0 -23 14 -34q14 -12 33 -12q21 0 34 12q14 11 14 33v28h105v-30q0 -68 -42 -105q-44 -39 -110 -39q-33 0 -57 10q-25 10 -43 27q-20 -17 -44 -27t-57 -10zM251 219h-48q-19 0 -33 -11q-14 -12 -14 -35v-36q0 -23 14 -34q14 -12 33 -12q21 0 34 12q14 11 14 33v83zM356 321 h95v62q0 23 -14 35q-14 11 -34 11q-19 0 -33 -11q-14 -12 -14 -35v-62z" />
<glyph unicode="&#xe7;" d="M522 176q-4 -55 -27 -91q-23 -37 -53 -57q-32 -21 -66 -30q-38 -8 -68 -8q-34 0 -71 9q-40 11 -70 34q-32 25 -53 66t-21 105v112q0 64 21 106q21 41 53 65q30 23 70 34q37 9 71 9q30 0 68 -8q34 -9 66 -30q30 -20 53 -57q23 -36 27 -91h-107q-7 43 -36 64q-28 21 -71 21 q-50 0 -79 -28q-31 -28 -31 -87v-108q0 -59 31 -87q29 -28 79 -28q42 0 71 21q30 22 37 64h106zM283 -134v84h50v-134h-134v50h84z" />
<glyph unicode="&#xe8;" d="M305 91q39 0 67 18q28 19 38 55h107q-8 -52 -29 -85q-22 -33 -52 -53q-35 -21 -65 -28q-37 -8 -66 -8q-33 0 -71 9q-40 11 -70 34q-32 25 -53 66t-21 105v112q0 64 21 106q21 41 53 65q30 23 70 34q37 9 71 9q35 0 72 -9q39 -11 69 -34q32 -24 53 -65q21 -42 21 -106v-93 h-325v-17q0 -59 31 -87q29 -28 79 -28zM305 429q-49 0 -79 -27q-31 -28 -31 -85v-1h220v1q-1 57 -31 85q-32 27 -79 27zM165 657l13 48l267 -73l-13 -48z" />
<glyph unicode="&#xe9;" d="M305 91q39 0 67 18q28 19 38 55h107q-8 -52 -29 -85q-22 -33 -52 -53q-35 -21 -65 -28q-37 -8 -66 -8q-33 0 -71 9q-40 11 -70 34q-32 25 -53 66t-21 105v112q0 64 21 106q21 41 53 65q30 23 70 34q37 9 71 9q35 0 72 -9q39 -11 69 -34q32 -24 53 -65q21 -42 21 -106v-93 h-325v-17q0 -59 31 -87q29 -28 79 -28zM305 429q-49 0 -79 -27q-31 -28 -31 -85v-1h220v1q-1 57 -31 85q-32 27 -79 27zM178 584l-13 48l267 73l13 -48z" />
<glyph unicode="&#xea;" d="M305 91q39 0 67 18q28 19 38 55h107q-8 -52 -29 -85q-22 -33 -52 -53q-35 -21 -65 -28q-37 -8 -66 -8q-33 0 -71 9q-40 11 -70 34q-32 25 -53 66t-21 105v112q0 64 21 106q21 41 53 65q30 23 70 34q37 9 71 9q35 0 72 -9q39 -11 69 -34q32 -24 53 -65q21 -42 21 -106v-93 h-325v-17q0 -59 31 -87q29 -28 79 -28zM305 429q-49 0 -79 -27q-31 -28 -31 -85v-1h220v1q-1 57 -31 85q-32 27 -79 27zM305 651l-141 -67l-21 44l162 77l162 -77l-21 -44z" />
<glyph unicode="&#xeb;" d="M305 91q39 0 67 18q28 19 38 55h107q-8 -52 -29 -85q-22 -33 -52 -53q-35 -21 -65 -28q-37 -8 -66 -8q-33 0 -71 9q-40 11 -70 34q-32 25 -53 66t-21 105v112q0 64 21 106q21 41 53 65q30 23 70 34q37 9 71 9q35 0 72 -9q39 -11 69 -34q32 -24 53 -65q21 -42 21 -106v-93 h-325v-17q0 -59 31 -87q29 -28 79 -28zM305 429q-49 0 -79 -27q-31 -28 -31 -85v-1h220v1q-1 57 -31 85q-32 27 -79 27zM149 683h76v-76h-76v76zM385 683h76v-76h-76v76z" />
<glyph unicode="&#xec;" d="M123 516h237v-415h182v-101h-469v101h182v314h-132v101zM167 657l13 48l267 -73l-13 -48z" />
<glyph unicode="&#xed;" d="M123 516h237v-415h182v-101h-469v101h182v314h-132v101zM180 584l-13 48l267 73l13 -48z" />
<glyph unicode="&#xee;" d="M123 516h237v-415h182v-101h-469v101h182v314h-132v101zM307 651l-141 -67l-21 44l162 77l162 -77l-21 -44z" />
<glyph unicode="&#xef;" d="M123 516h237v-415h182v-101h-469v101h182v314h-132v101zM151 683h76v-76h-76v76zM387 683h76v-76h-76v76z" />
<glyph unicode="&#xf0;" d="M89 316q0 61 20 103q19 39 51 65q31 25 67 35q32 9 69 11l-40 55h-118v43h86l-52 72h126l52 -72h90v-43h-58l92 -127q19 -24 33 -59q12 -35 12 -83v-112q0 -64 -21 -105t-53 -66q-30 -23 -69 -34q-38 -9 -72 -9t-71 9q-40 11 -70 34q-32 25 -53 66t-21 105v112zM414 314 q0 58 -30 87q-31 28 -80 28q-50 0 -79 -28q-31 -28 -31 -87v-108q0 -59 31 -87q29 -28 79 -28q49 0 80 28q30 29 30 87v108z" />
<glyph unicode="&#xf1;" d="M344 588l-79 57l-107 -57l-23 43l133 71l79 -57l107 57l23 -43zM196 0h-105v516h105v-45q7 13 18 22q9 9 27 19q21 10 36 13q22 5 39 5q31 0 70 -11q36 -11 66 -36q31 -26 50 -66q19 -39 19 -101v-316h-105v314q0 58 -30 87q-31 27 -80 27t-79 -27q-31 -28 -31 -87v-314z " />
<glyph unicode="&#xf2;" d="M414 314q0 58 -30 87q-31 28 -80 28q-50 0 -79 -28q-31 -28 -31 -87v-108q0 -59 31 -87q29 -28 79 -28q49 0 80 28q30 29 30 87v108zM89 316q0 64 21 106q21 41 53 65q30 23 70 34q38 9 71 9q34 0 72 -9q39 -11 69 -34q32 -24 53 -65q21 -42 21 -106v-112q0 -64 -21 -105 t-53 -66q-30 -23 -69 -34q-38 -9 -72 -9t-71 9q-40 11 -70 34q-32 25 -53 66t-21 105v112zM164 657l13 48l267 -73l-13 -48z" />
<glyph unicode="&#xf3;" d="M414 314q0 58 -30 87q-31 28 -80 28q-50 0 -79 -28q-31 -28 -31 -87v-108q0 -59 31 -87q29 -28 79 -28q49 0 80 28q30 29 30 87v108zM89 316q0 64 21 106q21 41 53 65q30 23 70 34q38 9 71 9q34 0 72 -9q39 -11 69 -34q32 -24 53 -65q21 -42 21 -106v-112q0 -64 -21 -105 t-53 -66q-30 -23 -69 -34q-38 -9 -72 -9t-71 9q-40 11 -70 34q-32 25 -53 66t-21 105v112zM177 584l-13 48l267 73l13 -48z" />
<glyph unicode="&#xf4;" d="M414 314q0 58 -30 87q-31 28 -80 28q-50 0 -79 -28q-31 -28 -31 -87v-108q0 -59 31 -87q29 -28 79 -28q49 0 80 28q30 29 30 87v108zM89 316q0 64 21 106q21 41 53 65q30 23 70 34q38 9 71 9q34 0 72 -9q39 -11 69 -34q32 -24 53 -65q21 -42 21 -106v-112q0 -64 -21 -105 t-53 -66q-30 -23 -69 -34q-38 -9 -72 -9t-71 9q-40 11 -70 34q-32 25 -53 66t-21 105v112zM304 651l-141 -67l-21 44l162 77l162 -77l-21 -44z" />
<glyph unicode="&#xf5;" d="M342 588l-79 57l-107 -57l-23 43l133 71l79 -57l107 57l23 -43zM414 314q0 58 -30 87q-31 28 -80 28q-50 0 -79 -28q-31 -28 -31 -87v-108q0 -59 31 -87q29 -28 79 -28q49 0 80 28q30 29 30 87v108zM89 316q0 64 21 106q21 41 53 65q30 23 70 34q38 9 71 9q34 0 72 -9 q39 -11 69 -34q32 -24 53 -65q21 -42 21 -106v-112q0 -64 -21 -105t-53 -66q-30 -23 -69 -34q-38 -9 -72 -9t-71 9q-40 11 -70 34q-32 25 -53 66t-21 105v112z" />
<glyph unicode="&#xf6;" d="M414 314q0 58 -30 87q-31 28 -80 28q-50 0 -79 -28q-31 -28 -31 -87v-108q0 -59 31 -87q29 -28 79 -28q49 0 80 28q30 29 30 87v108zM89 316q0 64 21 106q21 41 53 65q30 23 70 34q38 9 71 9q34 0 72 -9q39 -11 69 -34q32 -24 53 -65q21 -42 21 -106v-112q0 -64 -21 -105 t-53 -66q-30 -23 -69 -34q-38 -9 -72 -9t-71 9q-40 11 -70 34q-32 25 -53 66t-21 105v112zM148 683h76v-76h-76v76zM384 683h76v-76h-76v76z" />
<glyph unicode="&#xf7;" d="M262 479q0 17 13 30q12 12 29 12q16 0 30 -12q12 -13 12 -30t-12 -29q-13 -13 -30 -13t-29 13q-13 12 -13 29zM262 82q0 17 13 30q12 12 29 12q16 0 30 -12q12 -14 12 -30q0 -17 -12 -29q-13 -13 -30 -13t-29 13q-13 12 -13 29zM106 258v45h396v-45h-396z" />
<glyph unicode="&#xf8;" d="M89 316q0 64 21 106q21 41 53 65q30 23 70 34q38 9 71 9q28 0 59 -6q34 -8 59 -23l31 52l37 -23l-32 -54q28 -27 44 -64q17 -40 17 -96v-112q0 -64 -21 -105t-53 -66q-30 -23 -69 -34q-38 -9 -72 -9q-29 0 -59 6q-34 8 -60 23l-31 -52l-37 23l32 54q-28 28 -43 64 q-17 40 -17 96v112zM414 314q0 21 -4 36q-5 18 -11 28l-161 -270q29 -17 66 -17q49 0 80 28q30 29 30 87v108zM194 206q0 -38 14 -64l161 270q-29 17 -65 17q-50 0 -79 -28q-31 -28 -31 -87v-108z" />
<glyph unicode="&#xf9;" d="M195 206q0 -59 30 -86q29 -28 77 -28t77 28q30 27 30 86v310h105v-516h-105v49q-7 -12 -17 -22q-15 -13 -28 -19q-22 -10 -35 -13q-22 -5 -40 -5q-33 0 -68 12q-36 12 -65 38t-47 67q-19 39 -19 97v312h105v-310zM163 657l13 48l267 -73l-13 -48z" />
<glyph unicode="&#xfa;" d="M195 206q0 -59 30 -86q29 -28 77 -28t77 28q30 27 30 86v310h105v-516h-105v49q-7 -12 -17 -22q-15 -13 -28 -19q-22 -10 -35 -13q-22 -5 -40 -5q-33 0 -68 12q-36 12 -65 38t-47 67q-19 39 -19 97v312h105v-310zM176 584l-13 48l267 73l13 -48z" />
<glyph unicode="&#xfb;" d="M195 206q0 -59 30 -86q29 -28 77 -28t77 28q30 27 30 86v310h105v-516h-105v49q-7 -12 -17 -22q-15 -13 -28 -19q-22 -10 -35 -13q-22 -5 -40 -5q-33 0 -68 12q-36 12 -65 38t-47 67q-19 39 -19 97v312h105v-310zM303 651l-141 -67l-21 44l162 77l162 -77l-21 -44z" />
<glyph unicode="&#xfc;" d="M195 206q0 -59 30 -86q29 -28 77 -28t77 28q30 27 30 86v310h105v-516h-105v49q-7 -12 -17 -22q-15 -13 -28 -19q-22 -10 -35 -13q-22 -5 -40 -5q-33 0 -68 12q-36 12 -65 38t-47 67q-19 39 -19 97v312h105v-310zM147 683h76v-76h-76v76zM383 683h76v-76h-76v76z" />
<glyph unicode="&#xfd;" d="M313 -119q-23 -65 -114 -65h-70v101h37q16 0 30 2q10 1 18 8q7 7 11 16q10 24 11 26l14 38l-184 509h109l129 -367l129 367h109zM177 584l-13 48l267 73l13 -48z" />
<glyph unicode="&#xfe;" d="M418 314q0 58 -30 87q-32 27 -80 27q-49 0 -79 -27q-31 -28 -31 -87v-108q0 -59 31 -86q29 -28 79 -28q49 0 80 28q30 27 30 86v108zM523 204q0 -61 -19 -100q-19 -40 -50 -66q-32 -27 -66 -37q-39 -11 -70 -11q-17 0 -39 5q-15 3 -36 13q-15 7 -27 19q-11 10 -18 22 v-233h-105v884h105v-229q7 13 18 22q9 9 27 19q21 10 36 13q22 5 39 5q31 0 70 -11q36 -11 66 -36q31 -26 50 -66q19 -39 19 -101v-112z" />
<glyph unicode="&#xff;" d="M313 -119q-23 -65 -114 -65h-70v101h37q16 0 30 2q10 1 18 8q7 7 11 16q10 24 11 26l14 38l-184 509h109l129 -367l129 367h109zM148 683h76v-76h-76v76zM384 683h76v-76h-76v76z" />
<glyph unicode="&#x152;" d="M411 406h90v-106h-90v-194h160v-106h-267q-56 0 -102 18q-46 16 -80 49q-33 31 -51 78q-18 45 -18 102v206q0 57 18 103t51 77q34 32 80 50q48 17 102 17h267v-106h-160v-188zM160 247q0 -38 13 -63q12 -28 33 -44q20 -18 46 -26q27 -8 52 -8v488q-25 0 -52 -8 q-26 -9 -46 -26q-20 -16 -33 -43q-13 -26 -13 -64v-206z" />
<glyph unicode="&#x153;" d="M204 530q34 0 58 -10q25 -10 43 -27q18 17 43 27q24 10 57 10q66 0 110 -38q42 -39 42 -106v-167h-200v-82q0 -23 14 -34q13 -12 33 -12t34 12q14 11 14 33v28h105v-30q0 -68 -42 -105q-43 -39 -110 -39q-33 0 -57 10q-25 10 -43 27q-18 -17 -43 -27q-24 -10 -58 -10 q-67 0 -109 39q-43 39 -43 106v251q0 67 43 106q43 38 109 38zM252 383q0 23 -14 35q-14 11 -34 11q-19 0 -33 -11q-14 -12 -14 -35v-246q0 -23 14 -34q13 -12 33 -12t34 12q14 11 14 33v247zM357 321h95v62q0 23 -14 35q-14 11 -34 11q-19 0 -33 -11q-14 -12 -14 -35v-62z " />
<glyph unicode="&#x178;" d="M357 267v-267h-107v267l-246 433h118l182 -322l182 322h118zM148 837h76v-76h-76v76zM384 837h76v-76h-76v76z" />
<glyph unicode="&#x2c6;" d="M304 651l-141 -67l-21 44l162 77l162 -77l-21 -44z" />
<glyph unicode="&#x2dc;" d="M342 588l-79 57l-107 -57l-23 43l133 71l79 -57l107 57l23 -43z" />
<glyph unicode="&#x2000;" horiz-adv-x="440" />
<glyph unicode="&#x2001;" horiz-adv-x="880" />
<glyph unicode="&#x2002;" horiz-adv-x="440" />
<glyph unicode="&#x2003;" horiz-adv-x="880" />
<glyph unicode="&#x2004;" horiz-adv-x="293" />
<glyph unicode="&#x2005;" horiz-adv-x="220" />
<glyph unicode="&#x2006;" horiz-adv-x="146" />
<glyph unicode="&#x2007;" horiz-adv-x="146" />
<glyph unicode="&#x2008;" horiz-adv-x="110" />
<glyph unicode="&#x2009;" horiz-adv-x="176" />
<glyph unicode="&#x200a;" horiz-adv-x="48" />
<glyph unicode="&#x2010;" d="M159 258v45h290v-45h-290z" />
<glyph unicode="&#x2011;" d="M159 258v45h290v-45h-290z" />
<glyph unicode="&#x2012;" d="M159 258v45h290v-45h-290z" />
<glyph unicode="&#x2013;" d="M106 258v45h396v-45h-396z" />
<glyph unicode="&#x2014;" d="M74 258v45h459v-45h-459z" />
<glyph unicode="&#x2018;" d="M283 467l-46 19l87 219l46 -19z" />
<glyph unicode="&#x2019;" d="M283 467l-46 19l87 219l46 -19z" />
<glyph unicode="&#x201a;" d="M283 -119l-46 19l87 219l46 -19z" />
<glyph unicode="&#x201c;" d="M395 467l-46 19l87 219l46 -19zM173 467l-46 19l87 219l46 -19z" />
<glyph unicode="&#x201d;" d="M395 467l-46 19l87 219l46 -19zM173 467l-46 19l87 219l46 -19z" />
<glyph unicode="&#x201e;" d="M395 -119l-46 19l87 219l46 -19zM172 -119l-46 19l87 219l46 -19z" />
<glyph unicode="&#x2022;" d="M136 298q0 36 13 66q14 31 36 53q23 23 54 36q29 13 65 13t66 -13q31 -14 53 -36t36 -53q13 -30 13 -66t-13 -65q-13 -31 -36 -54q-22 -22 -53 -36q-30 -13 -66 -13t-65 13q-31 13 -54 36t-36 54q-13 29 -13 65z" />
<glyph unicode="&#x2026;" d="M48 105h105v-105h-105v105zM251 105h105v-105h-105v105zM454 105h105v-105h-105v105z" />
<glyph unicode="&#x202f;" horiz-adv-x="176" />
<glyph unicode="&#x2039;" d="M153 258l210 210l32 -31l-179 -179l179 -179l-32 -31z" />
<glyph unicode="&#x203a;" d="M245 48l-32 31l179 179l-179 179l32 31l210 -210z" />
<glyph unicode="&#x205f;" horiz-adv-x="220" />
<glyph unicode="&#x20ac;" d="M80 463q0 57 18 103t51 77q34 32 80 50q48 17 102 17q55 0 99 -16q44 -17 77 -45q33 -32 52 -72q19 -41 22 -94h-105q-3 31 -17 56q-12 21 -34 40q-20 16 -44 23t-50 7q-27 0 -53 -9t-47 -27t-33 -45q-13 -27 -13 -65v-37h241v-43h-241v-65h241v-43h-241v-38 q0 -38 13 -64q12 -28 33 -46t47 -27t53 -9q23 0 50 8t44 23q21 16 34 39q14 25 17 56h105q-3 -53 -22 -94t-52 -71q-32 -29 -77 -46q-44 -16 -99 -16t-102 18q-46 16 -80 49q-33 31 -51 78q-18 45 -18 102v38h-70v43h70v65h-70v43h70v37z" />
<glyph unicode="&#x2122;" d="M110 622h-94v78h272v-78h-95v-265h-83v265zM320 700h73l63 -163l63 163h73v-343h-78v190l-36 -98h-44l-36 98v-190h-78v343z" />
<glyph unicode="&#x25fc;" horiz-adv-x="515" d="M0 515h515v-515h-515v515z" />
<glyph unicode="&#xfb01;" d="M213 0h-105v415h-73v101h73v61q0 60 29 92q28 31 94 31h109v-101h-79q-32 0 -39 -10q-9 -11 -9 -39v-34h325v-516h-105v415h-220v-415zM418 700h130v-130h-130v130z" />
<glyph unicode="&#xfb02;" d="M538 700v-700h-105v599h-172q-32 0 -39 -10q-9 -11 -9 -39v-34h127v-101h-127v-415h-105v415h-73v101h73v61q0 60 29 92q28 31 94 31h307z" />
</font>
</defs>
</svg>
