<?xml version="1.0" standalone="no"?>
<!DOCTYPE svg PUBLIC "-//W3C//DTD SVG 1.1//EN" "http://www.w3.org/Graphics/SVG/1.1/DTD/svg11.dtd" >
<svg xmlns="http://www.w3.org/2000/svg" xmlns:xlink="http://www.w3.org/1999/xlink" version="1.1">
<metadata></metadata>
<defs>
<font id="simplon_mono_regularregular" horiz-adv-x="608" >
<font-face units-per-em="1000" ascent="800" descent="-200" />
<missing-glyph horiz-adv-x="500" />
<glyph horiz-adv-x="0" />
<glyph horiz-adv-x="333" />
<glyph horiz-adv-x="0" />
<glyph horiz-adv-x="0" />
<glyph unicode="&#xd;" horiz-adv-x="0" />
<glyph unicode=" " />
<glyph unicode="!" d="M342 230h-75v470h75v-470zM252 105h105v-105h-105v105z" />
<glyph unicode="&#x22;" d="M399 476v224h53v-224h-53zM157 476v224h53v-224h-53z" />
<glyph unicode="#" d="M423 216l-53 -216h-47l53 216h-211l-53 -216h-47l53 216h-71v45h82l44 178h-81v45h92l54 216h47l-54 -216h211l54 216h47l-54 -216h72v-45h-83l-44 -178h82v-45h-93zM176 261h211l44 178h-211z" />
<glyph unicode="$" d="M282 -9q-43 3 -75 20q-34 16 -59 44q-27 30 -41 67q-16 36 -19 85h75q9 -69 46 -106q36 -39 95 -39q61 0 93 28q32 27 32 83q0 38 -19 72q-20 35 -64 51l-107 40q-67 26 -102 71q-37 46 -37 118q0 33 11 66q10 30 34 57q23 26 56 42t81 19v91h43v-91q33 -3 64 -17 q30 -14 53 -38q24 -26 37 -57q15 -36 16 -74h-74q-8 57 -38 86q-32 29 -79 29q-35 0 -59 -9q-25 -9 -40 -24q-15 -13 -23 -35q-7 -20 -7 -44q0 -27 7 -45t18 -32t26 -23q16 -9 31 -15l111 -41q68 -26 102 -77q34 -52 34 -120q0 -38 -10 -68q-10 -31 -32 -56q-23 -25 -56 -39 q-33 -16 -81 -19v-91h-43v91z" />
<glyph unicode="%" d="M54 567q0 27 11 54q11 25 29 44q21 20 44 29q25 11 53 11q27 0 54 -11q23 -9 44 -29q20 -21 29 -44q11 -27 11 -54q0 -28 -11 -53q-9 -23 -29 -44q-19 -18 -44 -29q-27 -11 -54 -11q-28 0 -53 11t-44 29q-18 18 -29 44q-11 25 -11 53zM116 567q0 -32 22 -54 q21 -22 53 -22t54 22t22 54q0 33 -22 55t-54 22t-53 -22q-22 -22 -22 -55zM279 132q0 27 11 54q10 26 29 44q21 20 44 29q25 11 53 11q27 0 54 -11q23 -9 44 -29q20 -21 29 -44q11 -27 11 -54q0 -28 -11 -53q-9 -23 -29 -44q-18 -19 -44 -29q-23 -11 -54 -11t-53 11 q-25 10 -44 29q-19 18 -29 44q-11 25 -11 53zM341 132q0 -32 22 -54q21 -22 53 -22t54 22t22 54q0 33 -22 55t-54 22t-53 -22q-22 -22 -22 -55zM505 585l32 -32l-434 -435l-32 32z" />
<glyph unicode="&#x26;" d="M458 700v-72h-254l223 -396l77 136l63 -36l-98 -175l70 -125l-63 -37l-51 90q-29 -44 -73 -69q-45 -26 -101 -26q-45 0 -80 17q-39 17 -66 44t-44 66t-17 80q0 64 34 114q35 52 89 75q36 17 79 18l-126 224v72h338zM119 197q0 -29 10 -52q11 -25 28 -43q16 -18 42 -29 q25 -11 52 -11q50 0 84 29t50 66l-95 169q-18 6 -39 6q-29 0 -52 -10t-42 -29q-17 -19 -28 -43q-10 -24 -10 -53z" />
<glyph unicode="'" d="M277 476v224h53v-224h-53z" />
<glyph unicode="(" d="M250 597q0 22 5 44q4 19 16 32q11 12 33 20q20 7 53 7h118v-42h-118q-40 0 -52 -15t-12 -46v-586q0 -31 12 -46t52 -15h118v-42h-118q-33 0 -53 7q-22 8 -33 20q-12 13 -16 32q-5 22 -5 44v586z" />
<glyph unicode=")" d="M358 11q0 -27 -4 -44t-17 -32q-11 -12 -33 -20q-20 -7 -53 -7h-118v42h118q40 0 52 15t12 46v586q0 31 -12 46t-52 15h-118v42h118q33 0 53 -7q22 -8 33 -20q13 -15 17 -32t4 -44v-586z" />
<glyph unicode="*" d="M209 339l-37 25l96 131l-154 50l13 43l154 -50v162h45v-162l154 50l13 -43l-154 -50l96 -131l-37 -25l-94 131z" />
<glyph unicode="+" d="M282 258h-176v45h176v175h45v-175h175v-45h-175v-176h-45v176z" />
<glyph unicode="," d="M135 -111l204 203l55 -55l-204 -203z" />
<glyph unicode="-" d="M159 258v45h290v-45h-290z" />
<glyph unicode="." d="M252 105h105v-105h-105v105z" />
<glyph unicode="/" d="M559 679l-472 -684l-37 26l472 684z" />
<glyph unicode="0" d="M506 192q0 -43 -16 -78q-16 -38 -43 -64q-27 -27 -64 -44q-36 -16 -79 -16t-78 16q-38 17 -64 44q-27 26 -44 64q-16 35 -16 78v316q0 43 16 79q17 37 44 64q26 27 64 43q35 16 78 16t79 -16q36 -17 64 -43q26 -28 43 -64q16 -36 16 -79v-316zM431 446l-254 -255 q0 -28 10 -49q11 -25 27 -41q15 -16 40 -28q24 -11 50 -11t50 11q25 12 40 28q16 18 27 42q10 21 10 49v254zM177 255l254 255q0 28 -10 49q-11 24 -27 41q-20 18 -41 28t-49 10q-29 0 -50 -10q-23 -11 -40 -29q-16 -17 -27 -41q-10 -23 -10 -50v-253z" />
<glyph unicode="1" d="M283 72v525l-110 -110l-51 52l161 161h75v-628h182v-72h-439v72h182z" />
<glyph unicode="2" d="M180 350q-36 30 -55 69q-21 41 -21 89q0 43 16 79q17 37 44 64q26 27 64 43q35 16 78 16t79 -16q36 -17 64 -43q26 -28 43 -64q16 -36 16 -79q0 -27 -5 -52q-7 -26 -16 -44q-10 -21 -26 -41q-21 -26 -36 -44l-224 -255h307v-72h-404v72l268 305q27 30 44 60q17 32 17 71 q0 27 -10 50q-11 24 -27 41q-17 18 -40 29q-21 10 -50 10t-50 -10q-23 -11 -40 -29q-16 -17 -27 -41q-10 -23 -10 -50q0 -31 14 -57q13 -27 36 -45z" />
<glyph unicode="3" d="M295 393q26 0 47 10t38 27q16 16 26 38q9 22 9 47t-9 47q-11 24 -26 39q-17 17 -38 27t-47 10t-47 -10t-38 -27q-16 -16 -25 -39q-9 -22 -9 -47h-75q0 40 15 76q15 37 42 62q25 25 61 42q35 15 76 15q40 0 76 -15q37 -17 62 -42t42 -62q15 -36 15 -76q0 -51 -22 -91 q-24 -43 -59 -67q41 -29 64 -71q24 -44 24 -94q0 -43 -16 -78q-17 -38 -43 -64q-27 -27 -64 -44q-36 -16 -79 -16t-78 16q-38 17 -64 44q-27 26 -44 64q-16 35 -16 78h75q0 -28 10 -49q10 -24 27 -42q15 -16 40 -28q24 -11 50 -11t50 11q25 12 40 28q17 18 27 42 q10 21 10 49q0 26 -9 48q-12 26 -26 41q-18 18 -39 28q-22 11 -48 12h-5v72z" />
<glyph unicode="4" d="M146 261h232v158h75v-158h73v-72h-73v-189h-75v189h-321v72l325 444l58 -43z" />
<glyph unicode="5" d="M108 343l78 357h278v-72h-216l-48 -218q17 14 44 24q26 10 62 10q41 0 76 -16q36 -17 62 -43q26 -28 43 -64q16 -36 16 -79v-50q0 -43 -16 -78q-16 -38 -43 -64q-27 -27 -64 -44q-36 -16 -79 -16t-78 16q-38 17 -64 44q-27 26 -44 64q-16 35 -16 78h75q0 -28 10 -49 q10 -24 27 -42q15 -16 40 -28q24 -11 50 -11t50 11q25 12 40 28q17 18 27 42q10 21 10 49v50q0 27 -10 50q-11 24 -27 41q-17 18 -40 29q-21 10 -50 10q-37 0 -69 -21q-31 -22 -46 -54z" />
<glyph unicode="6" d="M493 192q0 -43 -16 -78q-16 -38 -43 -64q-27 -27 -64 -44q-36 -16 -79 -16t-78 16q-38 17 -64 44q-27 26 -44 64q-16 35 -16 78v50q0 32 11 65q12 33 29 56l251 342l58 -43l-160 -219q3 1 13 1q43 0 79 -16q36 -17 64 -43q26 -28 43 -64q16 -36 16 -79v-50zM418 242 q0 27 -10 50q-11 24 -27 41q-17 18 -40 29q-21 10 -50 10t-50 -10q-23 -11 -40 -29q-16 -17 -27 -41q-10 -23 -10 -50v-50q0 -28 10 -49q10 -24 27 -42q15 -16 40 -28q24 -11 50 -11t50 11q25 12 40 28q17 18 27 42q10 21 10 49v50z" />
<glyph unicode="7" d="M503 700v-72l-223 -633l-68 24l214 609h-246v-116h-75v188h398z" />
<glyph unicode="8" d="M110 515q0 40 15 76q15 37 42 62q25 25 61 42q35 15 76 15q40 0 76 -15q37 -17 62 -42t42 -62q15 -36 15 -76q0 -51 -22 -91q-23 -42 -60 -67q39 -26 65 -70q24 -44 24 -95q0 -43 -16 -78q-16 -38 -43 -64q-27 -27 -64 -44q-36 -16 -79 -16t-78 16q-38 17 -64 44 q-27 26 -44 64q-16 35 -16 78q0 52 24 96q24 43 64 70q-36 24 -58 67q-22 40 -22 90zM177 192q0 -28 10 -49q11 -24 27 -42q15 -16 40 -28q24 -11 50 -11t50 11q25 12 40 28q16 18 27 42q10 21 10 49q0 27 -10 50q-11 24 -27 41q-17 18 -40 29q-21 10 -50 10t-50 -10 q-23 -11 -40 -29q-16 -17 -27 -41q-10 -23 -10 -50zM424 515q0 25 -9 47q-11 24 -26 39q-17 17 -38 27t-47 10t-47 -10t-38 -27q-16 -16 -25 -39q-9 -22 -9 -47t9 -47t25 -38q17 -17 38 -27t47 -10t47 10t38 27q15 16 26 38q9 22 9 47z" />
<glyph unicode="9" d="M115 508q0 43 16 79q17 37 44 64t64 43q35 16 78 16t79 -16q36 -17 64 -43q26 -28 43 -64q16 -36 16 -79v-50q0 -35 -10 -64q-11 -32 -30 -57l-251 -342l-58 43l160 219q-3 -1 -13 -1q-43 0 -78 16q-38 17 -64 44q-27 26 -44 64q-16 35 -16 78v50zM190 458q0 -28 10 -49 q10 -24 27 -42q15 -16 40 -28q24 -11 50 -11t50 11q25 12 40 28q17 18 27 42q10 21 10 49v50q0 27 -10 50q-11 24 -27 41q-17 18 -40 29q-21 10 -50 10t-50 -10q-23 -11 -40 -29q-16 -17 -27 -41q-10 -23 -10 -50v-50z" />
<glyph unicode=":" d="M252 440h105v-105h-105v105zM252 105h105v-105h-105v105z" />
<glyph unicode=";" d="M98 -111l204 203l55 -55l-204 -203zM252 440h105v-105h-105v105z" />
<glyph unicode="&#x3c;" d="M210 260l239 -239l-32 -31l-270 270l270 270l32 -31z" />
<glyph unicode="=" d="M106 156v45h396v-45h-396zM106 350v45h396v-45h-396z" />
<glyph unicode="&#x3e;" d="M159 499l32 31l270 -270l-270 -270l-32 31l239 239z" />
<glyph unicode="?" d="M300 379q26 1 48 12q23 11 39 28q14 14 26 40q9 23 9 49q0 28 -10 51q-11 24 -27 41q-16 16 -40 27q-21 10 -50 10t-50 -10q-24 -11 -40 -27q-16 -17 -27 -41q-10 -23 -10 -51h-75q0 43 16 79q17 37 44 64q26 27 64 43q35 16 78 16t79 -16q36 -17 64 -43q26 -28 43 -64 q16 -36 16 -79q0 -37 -12 -70q-14 -37 -35 -60q-23 -26 -53 -44q-28 -17 -65 -25v-79h-75v149h43zM243 105h105v-105h-105v105z" />
<glyph unicode="@" d="M409 40q-21 -27 -47 -38q-28 -12 -60 -12q-68 0 -106 39q-39 37 -39 106v30q0 68 39 107q38 38 106 38h70v75q0 35 -18 54t-52 19t-52 -19t-18 -54v-27h-75v27q0 68 39 107q38 38 106 38q67 0 107 -38q38 -40 38 -107v-312q0 -18 11 -29q11 -12 28 -12q18 0 29 12 q10 10 10 29v378q0 46 -14 88q-15 41 -43 69q-26 26 -70 44q-39 16 -94 16t-94 -16q-42 -17 -69 -44q-30 -30 -43 -69q-15 -41 -15 -88v-381q0 -47 15 -88q13 -39 43 -69q27 -27 69 -44q39 -16 94 -16v-42q-63 0 -112 18q-50 19 -83 53q-35 35 -51 82q-18 48 -18 106v381 q0 58 18 106q16 47 51 82q33 33 83 53q49 18 112 18q62 0 112 -18q50 -19 83 -53q34 -34 52 -82q17 -49 17 -106v-378q0 -41 -23 -62q-24 -21 -59 -21q-34 0 -52 15q-19 14 -25 35zM232 135q0 -33 18 -53t52 -20t52 20q18 19 18 53v103h-70q-34 0 -52 -19t-18 -54v-30z" />
<glyph unicode="A" d="M431 197h-254l-64 -197h-78l225 700h88l225 -700h-78zM304 593l-104 -325h208z" />
<glyph unicode="B" d="M90 700h233q55 0 95 -17q38 -17 62 -44q25 -28 35 -61t10 -70q0 -51 -21 -90q-23 -40 -56 -60q49 -24 71 -69q23 -46 23 -93q0 -38 -10 -71q-10 -35 -35 -63q-24 -28 -62 -45q-40 -17 -95 -17h-250v700zM167 316v-240h173q56 0 91 32q33 32 33 88q0 58 -33 89 q-34 31 -91 31h-173zM447 508q0 50 -32 84q-32 32 -92 32h-156v-232h156q61 0 92 33q32 32 32 83z" />
<glyph unicode="C" d="M308 710q48 0 88 -15q41 -15 70 -43q30 -30 47 -68q17 -42 20 -91h-77q-6 69 -47 106q-43 35 -101 35q-32 0 -58 -10t-47 -31q-21 -20 -32 -50q-12 -30 -12 -70v-246q0 -40 12 -70q11 -30 32 -50q18 -20 47 -31q26 -10 58 -10q59 0 101 36q41 35 47 105h77 q-3 -49 -20 -91q-17 -38 -47 -68q-29 -28 -70 -43q-40 -15 -88 -15q-53 0 -91 17q-44 17 -72 47q-29 29 -46 74t-17 99v246q0 54 17 99q17 44 46 75q31 31 72 47q39 16 91 16z" />
<glyph unicode="D" d="M308 700q51 0 92 -16t71 -47q31 -32 47 -75q16 -42 16 -99v-226q0 -57 -16 -99q-17 -44 -47 -74q-28 -30 -71 -47t-92 -17h-226v700h226zM159 624v-548h149q32 0 58 10q28 11 48 31t32 50q11 31 11 70v226q0 39 -11 70q-12 30 -32 50q-23 21 -48 31q-26 10 -58 10h-149z " />
<glyph unicode="E" d="M192 76h321v-76h-398v700h398v-76h-321v-232h251v-76h-251v-240z" />
<glyph unicode="F" d="M210 0h-77v700h398v-76h-321v-232h251v-76h-251v-316z" />
<glyph unicode="G" d="M306 710q48 0 88 -15q41 -15 70 -43q30 -30 47 -68q17 -42 20 -91h-77q-6 69 -47 106q-43 35 -101 35q-32 0 -58 -10t-47 -31q-21 -20 -32 -50q-12 -30 -12 -70v-246q0 -40 12 -70q11 -30 32 -50q18 -20 47 -31q26 -10 58 -10t58 10q28 11 48 31t32 50q11 31 11 70v69 h-149v76h226v-145q0 -57 -16 -99q-16 -44 -47 -74q-28 -30 -71 -47q-40 -17 -92 -17q-53 0 -91 17q-44 17 -72 47q-29 29 -46 74t-17 99v246q0 54 17 99q17 44 46 75q31 31 72 47q39 16 91 16z" />
<glyph unicode="H" d="M453 700h77v-700h-77v316h-298v-316h-77v700h77v-308h298v308z" />
<glyph unicode="I" d="M343 624v-548h161v-76h-399v76h161v548h-161v76h399v-76h-161z" />
<glyph unicode="J" d="M146 200q7 -65 49 -100q40 -34 98 -34q32 0 58 10q28 11 48 31t32 50q11 31 11 70v397h-322v76h399v-473q0 -57 -16 -99q-17 -44 -47 -74q-28 -30 -71 -47q-40 -17 -92 -17q-47 0 -86 15q-40 13 -69 41q-30 27 -48 66q-17 38 -22 88h78z" />
<glyph unicode="K" d="M149 0h-77v700h77v-380l323 380h98l-246 -288l272 -412h-91l-232 352l-124 -146v-206z" />
<glyph unicode="L" d="M122 700h77v-624h321v-76h-398v700z" />
<glyph unicode="M" d="M451 700h79v-700h-74v521l-113 -333h-78l-113 333v-521h-74v700h79l147 -426z" />
<glyph unicode="N" d="M530 0h-77l-298 551v-551h-77v700h77l298 -551v551h77v-700z" />
<glyph unicode="O" d="M453 473q0 39 -11 70q-12 30 -32 50q-23 21 -48 31q-26 10 -58 10t-58 -10t-47 -31q-21 -20 -32 -50q-12 -30 -12 -70v-246q0 -40 12 -70q11 -30 32 -50q18 -20 47 -31q26 -10 58 -10t58 10q28 11 48 31t32 50q11 31 11 70v246zM530 227q0 -57 -16 -99q-16 -44 -47 -74 q-28 -30 -71 -47q-40 -17 -92 -17q-53 0 -91 17q-44 17 -72 47q-29 29 -46 74t-17 99v246q0 54 17 99q17 44 46 75q31 31 72 47q39 16 91 16q51 0 92 -16t71 -47q31 -32 47 -75q16 -42 16 -99v-246z" />
<glyph unicode="P" d="M554 486q0 -47 -12 -86q-14 -39 -40 -67q-27 -29 -70 -45q-42 -16 -104 -16h-149v-272h-77v700h226q62 0 104 -16q44 -17 70 -44t40 -68q12 -40 12 -86zM475 486q0 27 -8 54q-7 22 -25 44q-17 19 -45 29q-30 11 -69 11h-149v-276h149q39 0 69 11q29 11 45 30q18 20 25 43 q8 27 8 54z" />
<glyph unicode="Q" d="M530 227q0 -85 -39 -143l78 -79l-51 -50l-75 77q-55 -42 -139 -42q-53 0 -91 17q-44 17 -72 47q-29 29 -46 74t-17 99v246q0 54 17 99q17 44 46 75q31 31 72 47q39 16 91 16q51 0 92 -16t71 -47q31 -32 47 -75q16 -42 16 -99v-246zM155 428l280 -286q9 20 13 38 q5 23 5 47v246q0 39 -11 70q-12 30 -32 50q-23 21 -48 31q-26 10 -58 10t-58 -10t-47 -31q-21 -20 -32 -50q-12 -30 -12 -70v-45zM155 326v-99q0 -40 12 -70q11 -30 32 -50q18 -20 47 -31q26 -10 58 -10q48 0 83 23z" />
<glyph unicode="R" d="M175 317v-317h-77v700h238q55 0 95 -17q38 -17 62 -44q25 -28 35 -61t10 -70q0 -32 -9 -63q-9 -33 -28 -57q-20 -26 -51 -44q-31 -19 -76 -25l187 -319h-89l-186 317h-111zM460 508q0 50 -32 84q-32 32 -92 32h-161v-233h161q60 0 92 33q32 34 32 84z" />
<glyph unicode="S" d="M305 -10q-47 0 -88 15t-69 43q-30 28 -48 69q-17 39 -22 90h79q9 -68 50 -104q40 -37 98 -37q60 0 97 28q37 27 37 83q0 48 -26 77q-28 30 -87 46l-89 25q-37 10 -67 32q-28 19 -45 47q-19 27 -26 57q-9 31 -9 63q0 44 17 80q16 34 45 58q28 24 66 36q37 12 79 12 q91 0 146 -48q55 -50 65 -139h-79q-10 50 -43 81q-32 30 -89 30q-62 0 -96 -32q-33 -32 -33 -78q0 -49 25 -78q25 -31 79 -46l82 -23q74 -21 119 -69q44 -49 44 -131q0 -84 -53 -135q-53 -52 -159 -52z" />
<glyph unicode="T" d="M78 624v76h451v-76h-187v-624h-77v624h-187z" />
<glyph unicode="U" d="M78 700h77v-473q0 -40 12 -70q11 -30 32 -50q18 -20 47 -31q26 -10 58 -10t58 10q28 11 48 31t32 50q11 31 11 70v473h77v-473q0 -57 -16 -99q-16 -44 -47 -74q-28 -30 -71 -47q-40 -17 -92 -17q-53 0 -91 17q-44 17 -72 47q-29 29 -46 74t-17 99v473z" />
<glyph unicode="V" d="M495 700h78l-225 -700h-88l-225 700h78l191 -593z" />
<glyph unicode="W" d="M433 164l70 536h75l-100 -700h-69l-105 452l-105 -452h-69l-100 700h75l70 -536l98 436h62z" />
<glyph unicode="X" d="M468 700h85l-197 -338l212 -362h-88l-176 304l-176 -304h-88l212 362l-197 338h85l164 -283z" />
<glyph unicode="Y" d="M343 0h-77v279l-231 421h84l186 -339l185 339h84l-231 -422v-278z" />
<glyph unicode="Z" d="M71 0v76l362 548h-357v76h447v-76l-362 -548h367v-76h-457z" />
<glyph unicode="[" d="M250 700h225v-42h-182v-708h182v-42h-225v792z" />
<glyph unicode="\" d="M86 705l472 -684l-37 -26l-472 684z" />
<glyph unicode="]" d="M358 -92h-225v42h182v708h-182v42h225v-792z" />
<glyph unicode="^" d="M304 642l-239 -239l-31 32l270 270l270 -270l-31 -32z" />
<glyph unicode="_" d="M106 -114v45h396v-45h-396z" />
<glyph unicode="`" d="M164 657l13 48l267 -73l-13 -48z" />
<glyph unicode="a" d="M299 458q-45 0 -80 -24q-35 -26 -44 -76h-77q4 46 25 81q20 34 47 54q30 21 62 29q35 8 67 8q38 0 72 -10q38 -11 65 -34q29 -24 47 -62q18 -39 18 -96v-328h-75v53q-26 -32 -66 -47q-41 -16 -95 -16q-33 0 -64 9q-32 9 -54 28q-24 18 -38 47q-15 28 -15 69q0 16 5 41 q4 22 18 43q14 22 34 37q21 17 55 27q43 13 100 19q12 1 35.5 3t44 4t40.5 3v9q0 33 -10 57q-9 21 -28 40q-18 16 -41 24q-24 8 -48 8zM426 253q-92 -6 -135 -13q-52 -8 -77 -21q-30 -17 -37 -33q-8 -19 -8 -41q0 -35 28 -59q27 -24 84 -24q28 0 57 8q27 8 46 24 q19 14 31 39q11 24 11 53v67z" />
<glyph unicode="b" d="M308 -10q-36 0 -71 16q-36 15 -56 47v-53h-75v700h75v-233q19 31 56 48q36 15 71 15q38 0 72 -10q38 -11 65 -34q29 -24 47 -62q18 -39 18 -96v-136q0 -58 -18 -95q-18 -38 -47 -63q-27 -23 -65 -34q-34 -10 -72 -10zM435 329q0 33 -10 57q-9 21 -28 40q-18 16 -41 24 q-24 8 -48 8t-48 -8t-40 -24q-18 -16 -28 -40q-11 -27 -11 -57v-138q0 -31 11 -56q10 -25 28 -41q16 -16 40 -24t48 -8t48 8q23 8 41 24q19 19 28 41q10 23 10 56v138z" />
<glyph unicode="c" d="M307 530q33 0 68 -9q33 -9 63 -29q27 -20 47 -55q18 -32 23 -84h-76q-8 53 -44 79q-37 26 -81 26q-24 0 -48 -8t-40 -24q-18 -16 -28 -40q-11 -27 -11 -57v-138q0 -31 11 -56q10 -25 28 -41q16 -16 40 -24t48 -8q44 0 81 26q36 26 44 79h76q-5 -52 -23 -84 q-20 -36 -47 -54q-28 -21 -63 -30t-68 -9q-38 0 -72 10q-38 11 -65 34q-29 23 -47 62t-18 96v136q0 57 18 96q18 38 47 62q27 23 65 34q34 10 72 10z" />
<glyph unicode="d" d="M300 -10q-38 0 -72 10q-38 11 -65 34q-29 25 -47 63q-18 37 -18 95v136q0 57 18 96q18 38 47 62q27 23 65 34q34 10 72 10q35 0 71 -15q37 -17 56 -48v233h75v-700h-75v53q-20 -32 -56 -47q-35 -16 -71 -16zM173 191q0 -31 11 -56q10 -25 28 -41q16 -16 40 -24t48 -8 t48 8q23 8 41 24q19 19 28 41q10 23 10 56v138q0 33 -10 57q-9 21 -28 40q-18 16 -41 24q-24 8 -48 8t-48 -8t-40 -24q-18 -16 -28 -40q-11 -27 -11 -57v-138z" />
<glyph unicode="e" d="M305 62q46 0 80 25q35 24 44 75h77q-4 -48 -24 -81q-20 -34 -48 -53q-29 -21 -61 -30q-37 -8 -68 -8q-38 0 -72 10q-38 11 -65 34q-29 25 -47 63q-18 37 -18 95v136q0 57 18 96q18 38 47 62q27 23 65 34q34 10 72 10t72 -10q38 -11 65 -34q29 -24 47 -62q18 -39 18 -96 v-87h-329v-50q0 -31 11 -56q10 -25 28 -41q16 -16 40 -24t48 -8zM432 329q0 33 -10 57q-9 21 -28 40q-18 16 -41 24q-24 8 -48 8t-48 -8t-40 -24q-18 -16 -28 -40q-11 -27 -11 -57v-19h254v19z" />
<glyph unicode="f" d="M347 628q-27 0 -37 -10q-11 -11 -11 -35v-67h217v-72h-217v-444h-75v444h-147v72h147v61q0 33 6 57q4 22 20 38q13 13 38 21q21 7 59 7h169v-72h-169z" />
<glyph unicode="g" d="M300 -122q24 0 48 8q23 8 41 24q19 19 28 40q10 24 10 57v66q-20 -32 -56 -47q-35 -16 -71 -16q-38 0 -72 10q-38 11 -65 34q-29 25 -47 63q-18 37 -18 95v116q0 57 18 96q18 38 47 62q27 23 65 34q34 10 72 10q35 0 71 -15q37 -17 56 -48v49h75v-508q0 -57 -18 -96 q-18 -38 -47 -63q-28 -22 -65 -33q-34 -10 -72 -10q-34 0 -68 9q-32 8 -62 29q-29 21 -48 55q-18 32 -23 84h76q8 -53 44 -79q37 -26 81 -26zM173 211q0 -31 11 -56q10 -25 28 -41q16 -16 40 -24t48 -8t48 8q23 8 41 24q19 19 28 41q10 23 10 56v118q0 33 -10 57 q-9 21 -28 40q-18 16 -41 24q-24 8 -48 8t-48 -8t-40 -24q-18 -16 -28 -40q-11 -27 -11 -57v-118z" />
<glyph unicode="h" d="M306 530q38 0 72 -10q38 -11 65 -34q29 -24 47 -62q18 -39 18 -96v-328h-75v329q0 33 -10 57q-9 21 -28 40q-18 16 -41 24q-24 8 -48 8t-48 -8t-40 -24q-18 -16 -28 -40q-11 -27 -11 -57v-329h-75v700h75v-233q19 31 56 48q36 15 71 15z" />
<glyph unicode="i" d="M138 516h207v-444h182v-72h-439v72h182v372h-132v72zM245 700h110v-110h-110v110z" />
<glyph unicode="j" d="M335 444h-217v72h292v-577q0 -30 -5 -57q-6 -22 -20 -38q-15 -13 -38 -21q-22 -7 -60 -7h-219v72h219q28 0 38 10t10 35v511zM310 700h110v-110h-110v110z" />
<glyph unicode="k" d="M197 272l225 244h93l-186 -202l213 -314h-88l-176 259l-81 -88v-171h-75v700h75v-428z" />
<glyph unicode="l" d="M135 700h207v-628h182v-72h-439v72h182v556h-132v72z" />
<glyph unicode="m" d="M268 387q0 31 -15 51q-17 20 -48 20t-48 -20q-16 -19 -16 -51v-387h-75v516h75v-28q11 20 31 31t44 11q59 0 89 -47q16 20 44 35q25 12 57 12q33 0 60 -11q26 -11 44 -30q17 -21 26 -45q9 -26 9 -57v-387h-75v387q0 31 -15 51q-17 20 -48 20t-48 -20q-16 -19 -16 -51 v-387h-75v387z" />
<glyph unicode="n" d="M306 530q38 0 72 -10q38 -11 65 -34q29 -24 47 -62q18 -39 18 -96v-328h-75v329q0 33 -10 57q-9 21 -28 40q-18 16 -41 24q-24 8 -48 8t-48 -8t-40 -24q-18 -16 -28 -40q-11 -27 -11 -57v-329h-75v516h75v-49q19 31 56 48q36 15 71 15z" />
<glyph unicode="o" d="M431 329q0 33 -10 57q-9 21 -28 40q-18 16 -41 24q-24 8 -48 8t-48 -8t-40 -24q-18 -16 -28 -40q-11 -27 -11 -57v-138q0 -31 11 -56q10 -25 28 -41q16 -16 40 -24t48 -8t48 8q23 8 41 24q19 19 28 41q10 23 10 56v138zM506 192q0 -58 -18 -95q-18 -38 -47 -63 q-27 -23 -65 -34q-34 -10 -72 -10t-72 10q-38 11 -65 34q-29 25 -47 63q-18 37 -18 95v136q0 57 18 96q18 38 47 62q27 23 65 34q34 10 72 10t72 -10q38 -11 65 -34q29 -24 47 -62q18 -39 18 -96v-136z" />
<glyph unicode="p" d="M308 -10q-36 0 -71 16q-36 15 -56 47v-237h-75v700h75v-49q19 31 56 48q36 15 71 15q38 0 72 -10q38 -11 65 -34q29 -24 47 -62q18 -39 18 -96v-136q0 -58 -18 -95q-18 -38 -47 -63q-27 -23 -65 -34q-34 -10 -72 -10zM435 329q0 33 -10 57q-9 21 -28 40q-18 16 -41 24 q-24 8 -48 8t-48 -8t-40 -24q-18 -16 -28 -40q-11 -27 -11 -57v-138q0 -31 11 -56q10 -25 28 -41q16 -16 40 -24t48 -8t48 8q23 8 41 24q19 19 28 41q10 23 10 56v138z" />
<glyph unicode="q" d="M300 -10q-38 0 -72 10q-38 11 -65 34q-29 25 -47 63q-18 37 -18 95v136q0 57 18 96q18 38 47 62q27 23 65 34q34 10 72 10q35 0 71 -15q37 -17 56 -48v49h75v-700h-75v237q-20 -32 -56 -47q-35 -16 -71 -16zM173 191q0 -31 11 -56q10 -25 28 -41q16 -16 40 -24t48 -8 t48 8q23 8 41 24q19 19 28 41q10 23 10 56v138q0 33 -10 57q-9 21 -28 40q-18 16 -41 24q-24 8 -48 8t-48 -8t-40 -24q-18 -16 -28 -40q-11 -27 -11 -57v-138z" />
<glyph unicode="r" d="M111 516h188v-54q19 31 56 48q36 15 71 15h124v-72h-124q-24 0 -48 -8t-40 -24q-18 -16 -28 -40q-11 -27 -11 -57v-252h201v-72h-439v72h163v372h-113v72z" />
<glyph unicode="s" d="M410 365q-8 45 -36 69t-77 24q-41 0 -69 -20q-28 -19 -28 -55q0 -31 20 -48t51 -24l97 -24q28 -7 54 -18q24 -12 42 -30q17 -18 27 -43q9 -25 9 -62q0 -39 -13 -65q-13 -28 -38 -45q-27 -19 -58 -26q-37 -8 -73 -8q-43 0 -77 10q-36 11 -64 31q-29 21 -45 54 q-18 33 -21 80h77q4 -55 42 -79q36 -24 88 -24q54 0 80 20q24 19 26 54q0 25 -14 45q-16 21 -58 31l-101 25q-20 4 -43 15q-24 11 -41 27q-19 16 -31 42q-12 24 -12 59q0 34 14 64q14 27 38 47q20 17 55 29q30 10 67 10q38 0 73 -9q32 -10 58 -30q24 -21 40 -52 q15 -32 18 -74h-77z" />
<glyph unicode="t" d="M293 117q0 -24 11 -35q10 -10 37 -10h169v-72h-169q-38 0 -59 7q-25 8 -38 22q-15 14 -20 38q-6 23 -6 56v321h-147v72h147v117h75v-117h217v-72h-217v-327z" />
<glyph unicode="u" d="M302 -10q-32 0 -67 9q-36 11 -64 33q-29 22 -49 62q-19 37 -19 95v327h75v-322q0 -34 11 -59q10 -23 29 -41q16 -16 39 -24q24 -8 45 -8q22 0 46 8q20 7 40 25q19 19 28 40q10 23 10 56v325h75v-516h-75v53q-18 -29 -55 -47q-35 -16 -69 -16z" />
<glyph unicode="v" d="M346 0h-84l-186 516h80l148 -419l148 419h80z" />
<glyph unicode="w" d="M428 142l56 374h74l-83 -516h-67l-104 338l-104 -338h-67l-83 516h74l56 -374l88 294h72z" />
<glyph unicode="x" d="M304 209l-137 -209h-85l175 265l-167 251h87l127 -191l127 191h87l-167 -251l175 -265h-85z" />
<glyph unicode="y" d="M298 -131q-11 -30 -38 -41t-76 -12h-45v72h54q24 0 32 8q9 8 13 22l27 74l-189 524h80l148 -419l148 419h80z" />
<glyph unicode="z" d="M198 72h298v-72h-389v72l291 372h-284v72h375v-72z" />
<glyph unicode="{" d="M176 283v42h10q40 0 52 15t12 46v211q0 22 5 44q4 19 16 32q11 12 33 20q20 7 53 7h118v-42h-118q-40 0 -52 -15t-12 -46v-211q0 -29 -7 -49q-8 -23 -27 -33q19 -12 27 -33q7 -21 7 -49v-211q0 -31 12 -46t52 -15h118v-42h-118q-33 0 -53 7q-22 8 -33 20q-12 13 -16 32 q-5 22 -5 44v211q0 31 -12 46t-52 15h-10z" />
<glyph unicode="|" d="M282 700h43v-800h-43v800z" />
<glyph unicode="}" d="M422 283q-40 0 -52 -15t-12 -46v-211q0 -27 -4 -44t-17 -32q-11 -12 -33 -20q-20 -7 -53 -7h-118v42h118q40 0 52 15t12 46v211q0 25 8 49q8 22 26 33q-18 10 -26 33q-8 22 -8 49v211q0 31 -12 46t-52 15h-118v42h118q33 0 53 -7q22 -8 33 -20q13 -15 17 -32t4 -44v-211 q0 -31 12 -46t52 -15h10v-42h-10z" />
<glyph unicode="~" d="M354 218l-102 73l-135 -73l-21 38l159 86l102 -73l135 73l21 -38z" />
<glyph unicode="&#xa0;" />
<glyph unicode="&#xa1;" d="M342 -184h-75v470h75v-470zM252 516h105v-105h-105v105z" />
<glyph unicode="&#xa2;" d="M285 -9q-35 3 -66 15q-31 10 -57 35q-27 25 -41 61q-16 36 -16 90v136q0 53 16 89q14 36 41 61q26 24 57 36t66 15v91h43v-91q32 -3 62 -13q27 -9 56 -31q25 -21 42 -53q15 -31 20 -79h-76q-8 53 -44 79q-37 26 -81 26q-24 0 -48 -8t-40 -24q-18 -16 -28 -40 q-11 -27 -11 -57v-138q0 -31 11 -56q10 -25 28 -41q16 -16 40 -24t48 -8q44 0 81 26q36 26 44 79h76q-5 -49 -20 -78q-17 -34 -42 -53q-25 -21 -56 -31q-28 -11 -62 -14v-91h-43v91z" />
<glyph unicode="&#xa3;" d="M138 372v136q0 57 18 96q18 38 47 62q27 23 65 34q34 10 72 10t72 -10q38 -11 65 -34q29 -24 47 -62q18 -39 18 -96h-75v1q0 33 -10 57q-9 21 -28 40q-18 16 -41 24q-24 8 -48 8t-48 -8t-40 -24q-18 -16 -28 -40q-11 -27 -11 -57v-137h254v-43h-254v-257h329v-72h-468v72 h64v257h-64v43h64z" />
<glyph unicode="&#xa4;" d="M479 134q-35 -30 -79 -47q-46 -17 -96 -17t-95 17q-45 16 -80 47l-84 -84l-31 30l84 85q-31 35 -47 80q-17 45 -17 95t17 96q17 44 47 79l-84 85l31 30l84 -85q34 31 80 48q45 17 95 17t96 -17q45 -17 79 -48l84 85l31 -30l-85 -85q31 -34 48 -79q17 -46 17 -96t-17 -95 q-17 -46 -48 -80l85 -85l-31 -30zM106 340q0 -42 16 -77q15 -36 42 -63t63 -42q35 -16 77 -16t77 16q36 15 63 42q26 26 43 63q15 36 15 77t-15 77q-17 37 -43 63t-63 43q-36 15 -77 15t-77 -15q-37 -17 -63 -43q-27 -27 -42 -63q-16 -35 -16 -77z" />
<glyph unicode="&#xa5;" d="M502 322v-43h-160v-94h160v-43h-160v-142h-75v142h-160v43h160v94h-160v43h136l-208 378h83l187 -341l186 341h83l-209 -378h137z" />
<glyph unicode="&#xa6;" d="M283 239h43v-339h-43v339zM283 700h43v-339h-43v339z" />
<glyph unicode="&#xa7;" d="M232 122q-25 10 -43 18q-23 10 -45 29t-35 45q-14 28 -14 67q0 53 27 87q26 33 74 50q-27 19 -48 52q-20 32 -20 81q0 34 14 65q14 30 37 50q22 20 55 33q33 11 69 11q73 0 122 -42q49 -44 60 -120h-45q-7 53 -44 87q-36 33 -93 33q-24 0 -48 -8q-22 -7 -41 -23t-29 -37 q-12 -22 -12 -49q0 -45 25 -73q24 -28 62 -42l116 -40q24 -9 44 -18q23 -10 45 -29q21 -18 36 -45q14 -30 14 -68q0 -54 -28 -88q-27 -33 -76 -50q30 -22 50 -55q20 -35 20 -85q0 -30 -9 -58q-9 -26 -29 -48q-18 -20 -53 -34q-34 -12 -82 -12q-43 0 -75 13q-34 14 -56 36 q-23 22 -37 54q-14 31 -18 69h45q6 -58 45 -94t96 -36q68 0 98 32q30 33 30 78t-24 78q-24 32 -63 46zM262 388q-12 -1 -43 -7q-23 -6 -39 -18q-19 -16 -28 -32q-12 -19 -12 -50q0 -24 8 -43q6 -16 22 -32q14 -14 33 -24q15 -8 40 -17l103 -36q23 2 43 7q23 6 40 19 q17 12 30 32q11 20 11 49q0 49 -30 76q-31 28 -73 41z" />
<glyph unicode="&#xa8;" d="M148 683h76v-76h-76v76zM384 683h76v-76h-76v76z" />
<glyph unicode="&#xa9;" d="M525 451q0 46 -14 88q-15 41 -43 69q-26 26 -70 44q-39 16 -94 16t-94 -16q-42 -17 -69 -44q-30 -30 -43 -69q-15 -41 -15 -88v-202q0 -48 15 -88q12 -37 43 -68q29 -29 69 -45q39 -16 94 -16t94 16q42 17 70 45t43 68q14 42 14 88v202zM568 249q0 -57 -17 -106 q-18 -48 -52 -82t-83 -52q-48 -19 -112 -19t-112 19q-49 18 -83 52q-35 35 -51 82q-18 48 -18 106v202q0 58 18 106q16 47 51 82q33 33 83 53q49 18 112 18q62 0 112 -18q50 -19 83 -53q34 -34 52 -82q17 -49 17 -106v-202zM304 135q-70 0 -111 40q-42 41 -42 109v132 q0 69 42 109q41 40 111 40q67 0 108 -37q41 -38 45 -100h-68q-4 36 -31 53q-25 16 -54 16q-17 0 -30 -4q-15 -5 -27 -15t-20 -25q-8 -18 -8 -37v-132q0 -21 8 -37q7 -16 20 -26q10 -9 27 -14t30 -5q28 0 54 17q27 17 31 53h68q-4 -61 -46 -100q-40 -37 -107 -37z" />
<glyph unicode="&#xaa;" d="M272 294q-28 0 -50 7q-25 8 -42 22q-19 13 -30 37t-11 52q0 18 4 33q5 19 14 33q8 14 26 29q17 13 42 21q34 10 77 15q16 2 50.5 4.5t41.5 3.5v5q0 4 -1 5q-1 43 -29 66q-27 21 -63 21q-32 0 -58 -17q-25 -18 -33 -53h-67q5 41 20 64q14 23 38 41q21 14 48 22q26 6 52 6 q28 0 55 -7t52 -26q24 -21 38 -49q14 -33 14 -77v-250h-65v40q-19 -26 -51 -36q-32 -12 -72 -12zM285 357q19 0 41 5q18 4 36 17q15 10 24 29q9 16 9 42v43q-39 -3 -101 -10q-38 -4 -60 -17q-18 -11 -23 -22q-7 -11 -7 -29q0 -25 20 -42q19 -16 61 -16zM139 207v45h321v-45 h-321z" />
<glyph unicode="&#xab;" d="M55 257l210 210l32 -31l-179 -179l179 -179l-32 -31zM279 257l210 210l32 -31l-179 -179l179 -179l-32 -31z" />
<glyph unicode="&#xac;" d="M106 303h396v-221h-45v176h-351v45z" />
<glyph unicode="&#xad;" d="M159 258v45h290v-45h-290z" />
<glyph unicode="&#xae;" d="M568 249q0 -57 -17 -106q-18 -48 -52 -82t-83 -52q-48 -19 -112 -19t-112 19q-49 18 -83 52q-35 35 -51 82q-18 48 -18 106v202q0 58 18 106q16 47 51 82q33 33 83 53q49 18 112 18q62 0 112 -18q50 -19 83 -53q34 -34 52 -82q17 -49 17 -106v-202zM525 451q0 46 -14 88 q-15 41 -43 69q-26 26 -70 44q-39 16 -94 16t-94 -16q-42 -17 -69 -44q-30 -30 -43 -69q-15 -41 -15 -88v-202q0 -48 15 -88q12 -37 43 -68q29 -29 69 -45q39 -16 94 -16t94 16q42 17 70 45t43 68q14 42 14 88v202zM402 141l-104 177h-65v-177h-68v418h170q61 0 96 -32 q34 -31 34 -89q0 -48 -24 -78t-69 -39l106 -180h-76zM233 384h102q27 0 44 14q16 13 16 39q0 28 -16 41t-44 13h-102v-107z" />
<glyph unicode="&#xaf;" d="M148 620v50h312v-50h-312z" />
<glyph unicode="&#xb0;" d="M148 549q0 34 13 61q12 28 33 49q20 20 50 34q28 12 60 12t61 -12q29 -13 49 -34t34 -49q12 -28 12 -61q0 -31 -12 -60q-14 -30 -34 -50q-21 -21 -49 -33q-27 -13 -61 -13q-33 0 -60 13q-29 12 -50 33t-33 50q-13 27 -13 60zM191 549q0 -25 9 -44q9 -21 24 -36 q14 -16 36 -25q20 -9 44 -9t45 9q21 10 35 25q15 15 24 36q9 19 9 44q0 24 -9 45q-9 20 -24 36q-15 15 -35 24q-21 9 -45 9t-44 -9q-21 -9 -36 -24q-15 -16 -24 -36q-9 -21 -9 -45z" />
<glyph unicode="&#xb1;" d="M282 350h-176v45h176v121h45v-121h175v-45h-175v-121h-45v121zM106 155v45h396v-45h-396z" />
<glyph unicode="&#xb2;" d="M218 595q-17 15 -28 41q-11 24 -11 50q0 28 10 49q11 24 27 41q16 16 40 27q21 10 49 10q29 0 50 -10q24 -11 40 -27q16 -17 27 -41q10 -21 10 -49q0 -32 -12 -55q-15 -27 -43 -56l-109 -111h164v-63h-253v63l148 152q21 20 31 38q9 15 9 32q0 25 -17 45q-16 19 -45 19 q-28 0 -44 -19q-17 -20 -17 -45q0 -27 19 -46z" />
<glyph unicode="&#xb3;" d="M299 395q-28 0 -49 10q-24 11 -40 27t-27 41q-10 21 -10 49h65q0 -25 17 -45q16 -19 44 -19q29 0 45 19q17 20 17 45t-17 45q-16 19 -45 19v60h4q20 1 34 17q12 15 12 35q0 23 -13 37q-13 15 -37 15q-21 0 -35 -15q-14 -16 -14 -37h-65q0 24 9 45t25 37q15 15 36 24 q20 9 44 9t45 -9q20 -9 36 -24q16 -16 25 -37t9 -45t-9 -44q-11 -23 -26 -36q21 -15 35 -42q12 -26 12 -54t-10 -49q-11 -25 -27 -41q-17 -16 -41 -27q-21 -10 -49 -10z" />
<glyph unicode="&#xb4;" d="M177 584l-13 48l267 73l13 -48z" />
<glyph unicode="&#xb5;" d="M304 41q28 0 55 11q25 10 45 30t30 47q11 30 11 63v324h53v-516h-53v63q-23 -36 -63 -54q-39 -19 -78 -19t-78 19q-40 18 -63 54v-247h-53v700h53v-324q0 -33 11 -63q10 -27 30 -47t45 -30q27 -11 55 -11z" />
<glyph unicode="&#xb6;" d="M515 -87h-43v745h-155v-745h-43v387h-10q-42 0 -77 16q-37 16 -64 43t-42 64q-16 35 -16 77t16 78q15 36 42 63q26 27 64 43q35 16 77 16h251v-787z" />
<glyph unicode="&#xb7;" d="M252 343h105v-105h-105v105z" />
<glyph unicode="&#xb8;" d="M299 -134v84h50v-134h-134v50h84z" />
<glyph unicode="&#xb9;" d="M181 706l100 101h65v-343h106v-63h-276v63h105v253l-55 -55z" />
<glyph unicode="&#xba;" d="M304 357q38 0 67 24q27 23 27 72v99q0 48 -27 72q-28 24 -67 24q-38 0 -65 -24q-28 -24 -28 -72v-99q0 -50 28 -72q27 -24 65 -24zM304 294q-25 0 -55 8t-51 26q-24 19 -37 49q-15 30 -15 76v99q0 46 15 77q12 28 37 49q23 19 51 26q27 7 55 7q29 0 56 -7q28 -7 51 -26 q24 -21 38 -49q14 -33 14 -77v-99q0 -45 -14 -76q-14 -30 -38 -49q-21 -18 -51 -26t-56 -8zM146 207v45h317v-45h-317z" />
<glyph unicode="&#xbb;" d="M119 467l210 -210l-210 -210l-32 31l179 179l-179 179zM344 467l210 -210l-210 -210l-32 31l179 179l-179 179z" />
<glyph unicode="&#xbc;" d="M40 635l65 65h42v-221h67v-40h-177v40h68v164l-36 -37zM505 585l32 -32l-434 -435l-32 32zM477 0v63h-115v40l116 160l33 -24l-99 -136h65v53h42v-53h27v-40h-27v-63h-42z" />
<glyph unicode="&#xbd;" d="M40 635l65 65h42v-221h67v-40h-177v40h68v164l-36 -37zM505 585l32 -32l-434 -435l-32 32zM403 125q-10 10 -18 26q-7 14 -7 33q0 34 24 58q23 23 57 23q33 0 58 -23q23 -25 23 -58q0 -23 -7 -37t-28 -35l-70 -72h105v-40h-162v40l96 99q14 14 19 23q5 12 5 22 q0 18 -10 29q-11 11 -29 11q-17 0 -28 -11q-11 -13 -11 -29q0 -18 12 -30z" />
<glyph unicode="&#xbe;" d="M134 596h3q14 2 21 11q8 11 8 23q0 14 -9 24q-9 9 -23 9t-23 -9q-9 -10 -9 -24h-42q0 31 22 53q21 21 52 21q30 0 53 -21q21 -23 21 -53q0 -16 -6 -29t-16 -23q29 -24 29 -62q0 -34 -23 -57q-24 -24 -58 -24t-57 24q-24 23 -24 57h42q0 -17 11 -28q10 -12 28 -12t28 12 q11 11 11 28q0 18 -10 29q-12 12 -26 13h-3v38zM505 585l32 -32l-434 -435l-32 32zM477 0v63h-115v40l116 160l33 -24l-99 -136h65v53h42v-53h27v-40h-27v-63h-42z" />
<glyph unicode="&#xbf;" d="M313 137q-29 0 -50 -10q-24 -11 -40 -27q-16 -17 -27 -41q-10 -23 -10 -51t10 -51q11 -24 27 -41q16 -16 40 -27q21 -10 50 -10t50 10q24 11 40 27q16 17 27 41q10 23 10 51h75q0 -43 -16 -79q-17 -36 -43 -64q-28 -26 -64 -43q-36 -16 -79 -16t-78 16q-38 16 -64 43 q-27 27 -44 64q-16 36 -16 79q0 38 13 70q12 34 34 60q24 28 53 44q30 18 65 24v80h75v-149h-38zM261 516h105v-105h-105v105z" />
<glyph unicode="&#xc0;" d="M431 197h-254l-64 -197h-78l225 700h88l225 -700h-78zM304 593l-104 -325h208zM164 811l13 48l267 -73l-13 -48z" />
<glyph unicode="&#xc1;" d="M431 197h-254l-64 -197h-78l225 700h88l225 -700h-78zM304 593l-104 -325h208zM177 738l-13 48l267 73l13 -48z" />
<glyph unicode="&#xc2;" d="M431 197h-254l-64 -197h-78l225 700h88l225 -700h-78zM304 593l-104 -325h208zM304 805l-141 -67l-21 44l162 77l162 -77l-21 -44z" />
<glyph unicode="&#xc3;" d="M431 197h-254l-64 -197h-78l225 700h88l225 -700h-78zM304 593l-104 -325h208zM342 742l-79 57l-107 -57l-23 43l133 71l79 -57l107 57l23 -43z" />
<glyph unicode="&#xc4;" d="M431 197h-254l-64 -197h-78l225 700h88l225 -700h-78zM304 593l-104 -325h208zM148 837h76v-76h-76v76zM384 837h76v-76h-76v76z" />
<glyph unicode="&#xc5;" d="M190 765q0 24 9 45q9 20 25 36q14 16 36 25q20 9 44 9t45 -9q20 -9 36 -25t25 -36q9 -21 9 -45q0 -31 -17 -59q-16 -27 -43 -41l214 -665h-78l-64 197h-254l-64 -197h-78l214 665q-25 13 -42 41t-17 59zM304 593l-104 -325h208zM239 765q0 -27 19 -46t46 -19q28 0 47 19 t19 46q0 28 -19 47t-47 19q-27 0 -46 -19t-19 -47z" />
<glyph unicode="&#xc6;" d="M365 76h165v-76h-242v197h-111l-64 -197h-78l225 700h270v-76h-165v-232h95v-76h-95v-240zM288 268v275l-88 -275h88z" />
<glyph unicode="&#xc7;" d="M308 710q48 0 88 -15q41 -15 70 -43q30 -30 47 -68q17 -42 20 -91h-77q-6 69 -47 106q-43 35 -101 35q-32 0 -58 -10t-47 -31q-21 -20 -32 -50q-12 -30 -12 -70v-246q0 -40 12 -70q11 -30 32 -50q18 -20 47 -31q26 -10 58 -10q59 0 101 36q41 35 47 105h77 q-3 -49 -20 -91q-17 -38 -47 -68q-29 -28 -70 -43q-40 -15 -88 -15q-53 0 -91 17q-44 17 -72 47q-29 29 -46 74t-17 99v246q0 54 17 99q17 44 46 75q31 31 72 47q39 16 91 16zM283 -134v84h50v-134h-134v50h84z" />
<glyph unicode="&#xc8;" d="M192 76h321v-76h-398v700h398v-76h-321v-232h251v-76h-251v-240zM174 811l13 48l267 -73l-13 -48z" />
<glyph unicode="&#xc9;" d="M192 76h321v-76h-398v700h398v-76h-321v-232h251v-76h-251v-240zM187 738l-13 48l267 73l13 -48z" />
<glyph unicode="&#xca;" d="M192 76h321v-76h-398v700h398v-76h-321v-232h251v-76h-251v-240zM314 805l-141 -67l-21 44l162 77l162 -77l-21 -44z" />
<glyph unicode="&#xcb;" d="M192 76h321v-76h-398v700h398v-76h-321v-232h251v-76h-251v-240zM158 837h76v-76h-76v76zM394 837h76v-76h-76v76z" />
<glyph unicode="&#xcc;" d="M343 624v-548h161v-76h-399v76h161v548h-161v76h399v-76h-161zM164 811l13 48l267 -73l-13 -48z" />
<glyph unicode="&#xcd;" d="M343 624v-548h161v-76h-399v76h161v548h-161v76h399v-76h-161zM177 738l-13 48l267 73l13 -48z" />
<glyph unicode="&#xce;" d="M343 624v-548h161v-76h-399v76h161v548h-161v76h399v-76h-161zM304 805l-141 -67l-21 44l162 77l162 -77l-21 -44z" />
<glyph unicode="&#xcf;" d="M343 624v-548h161v-76h-399v76h161v548h-161v76h399v-76h-161zM148 837h76v-76h-76v76zM384 837h76v-76h-76v76z" />
<glyph unicode="&#xd0;" d="M319 700q51 0 92 -16t71 -47q31 -32 47 -75q16 -42 16 -99v-226q0 -57 -16 -99q-17 -44 -47 -74q-28 -30 -71 -47t-92 -17h-226v328h-70v45h70v327h226zM170 624v-251h149v-45h-149v-252h149q32 0 58 10q28 11 48 31t32 50q11 31 11 70v226q0 39 -11 70q-12 30 -32 50 q-23 21 -48 31q-26 10 -58 10h-149z" />
<glyph unicode="&#xd1;" d="M530 0h-77l-298 551v-551h-77v700h77l298 -551v551h77v-700zM342 742l-79 57l-107 -57l-23 43l133 71l79 -57l107 57l23 -43z" />
<glyph unicode="&#xd2;" d="M453 473q0 39 -11 70q-12 30 -32 50q-23 21 -48 31q-26 10 -58 10t-58 -10t-47 -31q-21 -20 -32 -50q-12 -30 -12 -70v-246q0 -40 12 -70q11 -30 32 -50q18 -20 47 -31q26 -10 58 -10t58 10q28 11 48 31t32 50q11 31 11 70v246zM530 227q0 -57 -16 -99q-16 -44 -47 -74 q-28 -30 -71 -47q-40 -17 -92 -17q-53 0 -91 17q-44 17 -72 47q-29 29 -46 74t-17 99v246q0 54 17 99q17 44 46 75q31 31 72 47q39 16 91 16q51 0 92 -16t71 -47q31 -32 47 -75q16 -42 16 -99v-246zM164 811l13 48l267 -73l-13 -48z" />
<glyph unicode="&#xd3;" d="M453 473q0 39 -11 70q-12 30 -32 50q-23 21 -48 31q-26 10 -58 10t-58 -10t-47 -31q-21 -20 -32 -50q-12 -30 -12 -70v-246q0 -40 12 -70q11 -30 32 -50q18 -20 47 -31q26 -10 58 -10t58 10q28 11 48 31t32 50q11 31 11 70v246zM530 227q0 -57 -16 -99q-16 -44 -47 -74 q-28 -30 -71 -47q-40 -17 -92 -17q-53 0 -91 17q-44 17 -72 47q-29 29 -46 74t-17 99v246q0 54 17 99q17 44 46 75q31 31 72 47q39 16 91 16q51 0 92 -16t71 -47q31 -32 47 -75q16 -42 16 -99v-246zM177 738l-13 48l267 73l13 -48z" />
<glyph unicode="&#xd4;" d="M453 473q0 39 -11 70q-12 30 -32 50q-23 21 -48 31q-26 10 -58 10t-58 -10t-47 -31q-21 -20 -32 -50q-12 -30 -12 -70v-246q0 -40 12 -70q11 -30 32 -50q18 -20 47 -31q26 -10 58 -10t58 10q28 11 48 31t32 50q11 31 11 70v246zM530 227q0 -57 -16 -99q-16 -44 -47 -74 q-28 -30 -71 -47q-40 -17 -92 -17q-53 0 -91 17q-44 17 -72 47q-29 29 -46 74t-17 99v246q0 54 17 99q17 44 46 75q31 31 72 47q39 16 91 16q51 0 92 -16t71 -47q31 -32 47 -75q16 -42 16 -99v-246zM304 805l-141 -67l-21 44l162 77l162 -77l-21 -44z" />
<glyph unicode="&#xd5;" d="M453 473q0 39 -11 70q-12 30 -32 50q-23 21 -48 31q-26 10 -58 10t-58 -10t-47 -31q-21 -20 -32 -50q-12 -30 -12 -70v-246q0 -40 12 -70q11 -30 32 -50q18 -20 47 -31q26 -10 58 -10t58 10q28 11 48 31t32 50q11 31 11 70v246zM530 227q0 -57 -16 -99q-16 -44 -47 -74 q-28 -30 -71 -47q-40 -17 -92 -17q-53 0 -91 17q-44 17 -72 47q-29 29 -46 74t-17 99v246q0 54 17 99q17 44 46 75q31 31 72 47q39 16 91 16q51 0 92 -16t71 -47q31 -32 47 -75q16 -42 16 -99v-246zM342 742l-79 57l-107 -57l-23 43l133 71l79 -57l107 57l23 -43z" />
<glyph unicode="&#xd6;" d="M453 473q0 39 -11 70q-12 30 -32 50q-23 21 -48 31q-26 10 -58 10t-58 -10t-47 -31q-21 -20 -32 -50q-12 -30 -12 -70v-246q0 -40 12 -70q11 -30 32 -50q18 -20 47 -31q26 -10 58 -10t58 10q28 11 48 31t32 50q11 31 11 70v246zM530 227q0 -57 -16 -99q-16 -44 -47 -74 q-28 -30 -71 -47q-40 -17 -92 -17q-53 0 -91 17q-44 17 -72 47q-29 29 -46 74t-17 99v246q0 54 17 99q17 44 46 75q31 31 72 47q39 16 91 16q51 0 92 -16t71 -47q31 -32 47 -75q16 -42 16 -99v-246zM148 837h76v-76h-76v76zM384 837h76v-76h-76v76z" />
<glyph unicode="&#xd7;" d="M336 280l140 -139l-32 -32l-140 139l-139 -139l-32 32l139 139l-139 139l32 32l139 -139l140 139l32 -32z" />
<glyph unicode="&#xd8;" d="M530 227q0 -57 -16 -99q-16 -44 -47 -74q-28 -30 -71 -47q-40 -17 -92 -17q-96 0 -157 57l-47 -80l-37 23l55 92q-40 58 -40 145v246q0 54 17 99q17 44 46 75q31 31 72 47q39 16 91 16q46 0 88 -14q40 -15 68 -42l47 79l37 -23l-55 -91q21 -31 31 -65q10 -36 10 -81v-246 zM453 473q0 34 -11 67l-253 -424q19 -24 50 -37q29 -13 65 -13q32 0 58 10q28 11 48 31t32 50q11 31 11 70v246zM155 227q0 -40 10 -66l253 423q-18 23 -49 38q-30 12 -65 12q-32 0 -58 -10t-47 -31q-21 -20 -32 -50q-12 -30 -12 -70v-246z" />
<glyph unicode="&#xd9;" d="M78 700h77v-473q0 -40 12 -70q11 -30 32 -50q18 -20 47 -31q26 -10 58 -10t58 10q28 11 48 31t32 50q11 31 11 70v473h77v-473q0 -57 -16 -99q-16 -44 -47 -74q-28 -30 -71 -47q-40 -17 -92 -17q-53 0 -91 17q-44 17 -72 47q-29 29 -46 74t-17 99v473zM164 811l13 48 l267 -73l-13 -48z" />
<glyph unicode="&#xda;" d="M78 700h77v-473q0 -40 12 -70q11 -30 32 -50q18 -20 47 -31q26 -10 58 -10t58 10q28 11 48 31t32 50q11 31 11 70v473h77v-473q0 -57 -16 -99q-16 -44 -47 -74q-28 -30 -71 -47q-40 -17 -92 -17q-53 0 -91 17q-44 17 -72 47q-29 29 -46 74t-17 99v473zM177 738l-13 48 l267 73l13 -48z" />
<glyph unicode="&#xdb;" d="M78 700h77v-473q0 -40 12 -70q11 -30 32 -50q18 -20 47 -31q26 -10 58 -10t58 10q28 11 48 31t32 50q11 31 11 70v473h77v-473q0 -57 -16 -99q-16 -44 -47 -74q-28 -30 -71 -47q-40 -17 -92 -17q-53 0 -91 17q-44 17 -72 47q-29 29 -46 74t-17 99v473zM304 805l-141 -67 l-21 44l162 77l162 -77l-21 -44z" />
<glyph unicode="&#xdc;" d="M78 700h77v-473q0 -40 12 -70q11 -30 32 -50q18 -20 47 -31q26 -10 58 -10t58 10q28 11 48 31t32 50q11 31 11 70v473h77v-473q0 -57 -16 -99q-16 -44 -47 -74q-28 -30 -71 -47q-40 -17 -92 -17q-53 0 -91 17q-44 17 -72 47q-29 29 -46 74t-17 99v473zM148 837h76v-76 h-76v76zM384 837h76v-76h-76v76z" />
<glyph unicode="&#xdd;" d="M343 0h-77v279l-231 421h84l186 -339l185 339h84l-231 -422v-278zM177 738l-13 48l267 73l13 -48z" />
<glyph unicode="&#xde;" d="M554 350q0 -47 -12 -86q-14 -39 -40 -67q-27 -29 -70 -45q-42 -16 -104 -16h-149v-136h-77v700h77v-136h149q62 0 104 -16q44 -17 70 -44t40 -68q12 -40 12 -86zM475 350q0 27 -8 54q-7 22 -25 44q-17 19 -45 29q-30 11 -69 11h-149v-276h149q39 0 69 11q29 11 45 30 q18 20 25 43q8 27 8 54z" />
<glyph unicode="&#xdf;" d="M342 293q36 -12 69 -35q31 -22 54 -53q21 -30 35 -68q12 -37 12 -79q0 -52 -19 -96q-19 -43 -53 -79q-36 -34 -79 -53q-44 -19 -96 -19v72q34 0 67 14q30 13 55 38q25 26 37 55q13 32 13 68q0 38 -13 68q-12 29 -37 55q-25 25 -55 38q-33 14 -67 14v72l108 139h-172v-444 h-75v577q0 33 6 57q4 22 20 38q13 13 38 21q21 7 59 7h16v-72h-16q-27 0 -37 -10q-11 -11 -11 -35v-67h258v-71z" />
<glyph unicode="&#xe0;" d="M299 458q-45 0 -80 -24q-35 -26 -44 -76h-77q4 46 25 81q20 34 47 54q30 21 62 29q35 8 67 8q38 0 72 -10q38 -11 65 -34q29 -24 47 -62q18 -39 18 -96v-328h-75v53q-26 -32 -66 -47q-41 -16 -95 -16q-33 0 -64 9q-32 9 -54 28q-24 18 -38 47q-15 28 -15 69q0 16 5 41 q4 22 18 43q14 22 34 37q21 17 55 27q43 13 100 19q12 1 35.5 3t44 4t40.5 3v9q0 33 -10 57q-9 21 -28 40q-18 16 -41 24q-24 8 -48 8zM426 253q-92 -6 -135 -13q-52 -8 -77 -21q-30 -17 -37 -33q-8 -19 -8 -41q0 -35 28 -59q27 -24 84 -24q28 0 57 8q27 8 46 24 q19 14 31 39q11 24 11 53v67zM163 657l13 48l267 -73l-13 -48z" />
<glyph unicode="&#xe1;" d="M299 458q-45 0 -80 -24q-35 -26 -44 -76h-77q4 46 25 81q20 34 47 54q30 21 62 29q35 8 67 8q38 0 72 -10q38 -11 65 -34q29 -24 47 -62q18 -39 18 -96v-328h-75v53q-26 -32 -66 -47q-41 -16 -95 -16q-33 0 -64 9q-32 9 -54 28q-24 18 -38 47q-15 28 -15 69q0 16 5 41 q4 22 18 43q14 22 34 37q21 17 55 27q43 13 100 19q12 1 35.5 3t44 4t40.5 3v9q0 33 -10 57q-9 21 -28 40q-18 16 -41 24q-24 8 -48 8zM426 253q-92 -6 -135 -13q-52 -8 -77 -21q-30 -17 -37 -33q-8 -19 -8 -41q0 -35 28 -59q27 -24 84 -24q28 0 57 8q27 8 46 24 q19 14 31 39q11 24 11 53v67zM176 584l-13 48l267 73l13 -48z" />
<glyph unicode="&#xe2;" d="M299 458q-45 0 -80 -24q-35 -26 -44 -76h-77q4 46 25 81q20 34 47 54q30 21 62 29q35 8 67 8q38 0 72 -10q38 -11 65 -34q29 -24 47 -62q18 -39 18 -96v-328h-75v53q-26 -32 -66 -47q-41 -16 -95 -16q-33 0 -64 9q-32 9 -54 28q-24 18 -38 47q-15 28 -15 69q0 16 5 41 q4 22 18 43q14 22 34 37q21 17 55 27q43 13 100 19q12 1 35.5 3t44 4t40.5 3v9q0 33 -10 57q-9 21 -28 40q-18 16 -41 24q-24 8 -48 8zM426 253q-92 -6 -135 -13q-52 -8 -77 -21q-30 -17 -37 -33q-8 -19 -8 -41q0 -35 28 -59q27 -24 84 -24q28 0 57 8q27 8 46 24 q19 14 31 39q11 24 11 53v67zM303 651l-141 -67l-21 44l162 77l162 -77l-21 -44z" />
<glyph unicode="&#xe3;" d="M299 458q-45 0 -80 -24q-35 -26 -44 -76h-77q4 46 25 81q20 34 47 54q30 21 62 29q35 8 67 8q38 0 72 -10q38 -11 65 -34q29 -24 47 -62q18 -39 18 -96v-328h-75v53q-26 -32 -66 -47q-41 -16 -95 -16q-33 0 -64 9q-32 9 -54 28q-24 18 -38 47q-15 28 -15 69q0 16 5 41 q4 22 18 43q14 22 34 37q21 17 55 27q43 13 100 19q12 1 35.5 3t44 4t40.5 3v9q0 33 -10 57q-9 21 -28 40q-18 16 -41 24q-24 8 -48 8zM426 253q-92 -6 -135 -13q-52 -8 -77 -21q-30 -17 -37 -33q-8 -19 -8 -41q0 -35 28 -59q27 -24 84 -24q28 0 57 8q27 8 46 24 q19 14 31 39q11 24 11 53v67zM341 588l-79 57l-107 -57l-23 43l133 71l79 -57l107 57l23 -43z" />
<glyph unicode="&#xe4;" d="M299 458q-45 0 -80 -24q-35 -26 -44 -76h-77q4 46 25 81q20 34 47 54q30 21 62 29q35 8 67 8q38 0 72 -10q38 -11 65 -34q29 -24 47 -62q18 -39 18 -96v-328h-75v53q-26 -32 -66 -47q-41 -16 -95 -16q-33 0 -64 9q-32 9 -54 28q-24 18 -38 47q-15 28 -15 69q0 16 5 41 q4 22 18 43q14 22 34 37q21 17 55 27q43 13 100 19q12 1 35.5 3t44 4t40.5 3v9q0 33 -10 57q-9 21 -28 40q-18 16 -41 24q-24 8 -48 8zM426 253q-92 -6 -135 -13q-52 -8 -77 -21q-30 -17 -37 -33q-8 -19 -8 -41q0 -35 28 -59q27 -24 84 -24q28 0 57 8q27 8 46 24 q19 14 31 39q11 24 11 53v67zM147 683h76v-76h-76v76zM383 683h76v-76h-76v76z" />
<glyph unicode="&#xe5;" d="M185 595q0 24 9 45q9 20 25 36q14 16 36 25q20 9 44 9t45 -9q20 -9 36 -25t25 -36q9 -21 9 -45q0 -23 -9 -43q-9 -21 -24 -36q23 -8 47 -24q24 -19 38 -38q15 -20 26 -54q9 -32 9 -72v-328h-75v53q-26 -32 -66 -47q-41 -16 -95 -16q-33 0 -64 9q-32 9 -54 28 q-24 18 -38 47q-15 28 -15 69q0 16 5 41q4 22 18 43q14 22 34 37q21 17 55 27q43 13 100 19q12 1 35.5 3t44 4t40.5 3v9q0 33 -10 57q-9 21 -28 40q-18 16 -41 24q-24 8 -48 8q-45 0 -80 -24q-35 -26 -44 -76h-77q8 68 40 105q32 36 78 53q-15 19 -22 36q-9 20 -9 43z M426 253q-92 -6 -135 -13q-52 -8 -77 -21q-30 -17 -37 -33q-8 -19 -8 -41q0 -35 28 -59q27 -24 84 -24q28 0 57 8q27 8 46 24q19 14 31 39q11 24 11 53v67zM234 595q0 -27 19 -46t46 -19q28 0 47 19t19 46q0 28 -19 47t-47 19q-27 0 -46 -19t-19 -47z" />
<glyph unicode="&#xe6;" d="M266 385q0 35 -18 54t-52 19t-52 -19t-18 -54v-27h-75v27q0 68 39 107q38 38 106 38q32 0 60 -12q26 -11 47 -38q20 26 48 38q29 12 60 12q67 0 107 -38q38 -40 38 -107v-144h-215v-106q0 -33 18 -53t52 -20t52 20q18 19 18 53v27h75v-27q0 -68 -38 -106 q-39 -39 -107 -39q-31 0 -60 12q-28 12 -48 38q-21 -27 -47 -38q-28 -12 -60 -12q-68 0 -106 39q-39 37 -39 106v30q0 68 39 107q38 38 106 38h70v75zM196 241q-34 0 -52 -21t-18 -55v-30q0 -33 18 -53t52 -20t52 20q18 19 18 53v106h-70zM481 385q0 35 -18 54t-52 19 t-52 -19t-18 -54v-75h140v75z" />
<glyph unicode="&#xe7;" d="M307 530q33 0 68 -9q33 -9 63 -29q27 -20 47 -55q18 -32 23 -84h-76q-8 53 -44 79q-37 26 -81 26q-24 0 -48 -8t-40 -24q-18 -16 -28 -40q-11 -27 -11 -57v-138q0 -31 11 -56q10 -25 28 -41q16 -16 40 -24t48 -8q44 0 81 26q36 26 44 79h76q-5 -52 -23 -84 q-20 -36 -47 -54q-28 -21 -63 -30t-68 -9q-38 0 -72 10q-38 11 -65 34q-29 23 -47 62t-18 96v136q0 57 18 96q18 38 47 62q27 23 65 34q34 10 72 10zM282 -134v84h50v-134h-134v50h84z" />
<glyph unicode="&#xe8;" d="M305 62q46 0 80 25q35 24 44 75h77q-4 -48 -24 -81q-20 -34 -48 -53q-29 -21 -61 -30q-37 -8 -68 -8q-38 0 -72 10q-38 11 -65 34q-29 25 -47 63q-18 37 -18 95v136q0 57 18 96q18 38 47 62q27 23 65 34q34 10 72 10t72 -10q38 -11 65 -34q29 -24 47 -62q18 -39 18 -96 v-87h-329v-50q0 -31 11 -56q10 -25 28 -41q16 -16 40 -24t48 -8zM432 329q0 33 -10 57q-9 21 -28 40q-18 16 -41 24q-24 8 -48 8t-48 -8t-40 -24q-18 -16 -28 -40q-11 -27 -11 -57v-19h254v19zM165 657l13 48l267 -73l-13 -48z" />
<glyph unicode="&#xe9;" d="M305 62q46 0 80 25q35 24 44 75h77q-4 -48 -24 -81q-20 -34 -48 -53q-29 -21 -61 -30q-37 -8 -68 -8q-38 0 -72 10q-38 11 -65 34q-29 25 -47 63q-18 37 -18 95v136q0 57 18 96q18 38 47 62q27 23 65 34q34 10 72 10t72 -10q38 -11 65 -34q29 -24 47 -62q18 -39 18 -96 v-87h-329v-50q0 -31 11 -56q10 -25 28 -41q16 -16 40 -24t48 -8zM432 329q0 33 -10 57q-9 21 -28 40q-18 16 -41 24q-24 8 -48 8t-48 -8t-40 -24q-18 -16 -28 -40q-11 -27 -11 -57v-19h254v19zM178 584l-13 48l267 73l13 -48z" />
<glyph unicode="&#xea;" d="M305 62q46 0 80 25q35 24 44 75h77q-4 -48 -24 -81q-20 -34 -48 -53q-29 -21 -61 -30q-37 -8 -68 -8q-38 0 -72 10q-38 11 -65 34q-29 25 -47 63q-18 37 -18 95v136q0 57 18 96q18 38 47 62q27 23 65 34q34 10 72 10t72 -10q38 -11 65 -34q29 -24 47 -62q18 -39 18 -96 v-87h-329v-50q0 -31 11 -56q10 -25 28 -41q16 -16 40 -24t48 -8zM432 329q0 33 -10 57q-9 21 -28 40q-18 16 -41 24q-24 8 -48 8t-48 -8t-40 -24q-18 -16 -28 -40q-11 -27 -11 -57v-19h254v19zM305 651l-141 -67l-21 44l162 77l162 -77l-21 -44z" />
<glyph unicode="&#xeb;" d="M305 62q46 0 80 25q35 24 44 75h77q-4 -48 -24 -81q-20 -34 -48 -53q-29 -21 -61 -30q-37 -8 -68 -8q-38 0 -72 10q-38 11 -65 34q-29 25 -47 63q-18 37 -18 95v136q0 57 18 96q18 38 47 62q27 23 65 34q34 10 72 10t72 -10q38 -11 65 -34q29 -24 47 -62q18 -39 18 -96 v-87h-329v-50q0 -31 11 -56q10 -25 28 -41q16 -16 40 -24t48 -8zM432 329q0 33 -10 57q-9 21 -28 40q-18 16 -41 24q-24 8 -48 8t-48 -8t-40 -24q-18 -16 -28 -40q-11 -27 -11 -57v-19h254v19zM149 683h76v-76h-76v76zM385 683h76v-76h-76v76z" />
<glyph unicode="&#xec;" d="M138 516h207v-444h182v-72h-439v72h182v372h-132v72zM167 657l13 48l267 -73l-13 -48z" />
<glyph unicode="&#xed;" d="M138 516h207v-444h182v-72h-439v72h182v372h-132v72zM180 584l-13 48l267 73l13 -48z" />
<glyph unicode="&#xee;" d="M138 516h207v-444h182v-72h-439v72h182v372h-132v72zM307 651l-141 -67l-21 44l162 77l162 -77l-21 -44z" />
<glyph unicode="&#xef;" d="M138 516h207v-444h182v-72h-439v72h182v372h-132v72zM151 683h76v-76h-76v76zM387 683h76v-76h-76v76z" />
<glyph unicode="&#xf0;" d="M375 585l96 -131q17 -24 26 -54q9 -32 9 -72v-136q0 -58 -18 -95q-18 -38 -47 -63q-27 -23 -65 -34q-34 -10 -72 -10t-72 10q-38 11 -65 34q-29 25 -47 63q-18 37 -18 95v136q0 57 18 96q18 38 47 62q27 23 65 34q34 10 72 10h11q4 -1 11 -1l-41 56h-126v43h95l-52 72h89 l52 -72h81v-43h-49zM431 329q0 33 -10 57q-9 21 -28 40q-18 16 -41 24q-24 8 -48 8t-48 -8t-40 -24q-18 -16 -28 -40q-11 -27 -11 -57v-138q0 -31 11 -56q10 -25 28 -41q16 -16 40 -24t48 -8t48 8q23 8 41 24q19 19 28 41q10 23 10 56v138z" />
<glyph unicode="&#xf1;" d="M344 588l-79 57l-107 -57l-23 43l133 71l79 -57l107 57l23 -43zM306 530q38 0 72 -10q38 -11 65 -34q29 -24 47 -62q18 -39 18 -96v-328h-75v329q0 33 -10 57q-9 21 -28 40q-18 16 -41 24q-24 8 -48 8t-48 -8t-40 -24q-18 -16 -28 -40q-11 -27 -11 -57v-329h-75v516h75 v-49q19 31 56 48q36 15 71 15z" />
<glyph unicode="&#xf2;" d="M431 329q0 33 -10 57q-9 21 -28 40q-18 16 -41 24q-24 8 -48 8t-48 -8t-40 -24q-18 -16 -28 -40q-11 -27 -11 -57v-138q0 -31 11 -56q10 -25 28 -41q16 -16 40 -24t48 -8t48 8q23 8 41 24q19 19 28 41q10 23 10 56v138zM506 192q0 -58 -18 -95q-18 -38 -47 -63 q-27 -23 -65 -34q-34 -10 -72 -10t-72 10q-38 11 -65 34q-29 25 -47 63q-18 37 -18 95v136q0 57 18 96q18 38 47 62q27 23 65 34q34 10 72 10t72 -10q38 -11 65 -34q29 -24 47 -62q18 -39 18 -96v-136zM164 657l13 48l267 -73l-13 -48z" />
<glyph unicode="&#xf3;" d="M431 329q0 33 -10 57q-9 21 -28 40q-18 16 -41 24q-24 8 -48 8t-48 -8t-40 -24q-18 -16 -28 -40q-11 -27 -11 -57v-138q0 -31 11 -56q10 -25 28 -41q16 -16 40 -24t48 -8t48 8q23 8 41 24q19 19 28 41q10 23 10 56v138zM506 192q0 -58 -18 -95q-18 -38 -47 -63 q-27 -23 -65 -34q-34 -10 -72 -10t-72 10q-38 11 -65 34q-29 25 -47 63q-18 37 -18 95v136q0 57 18 96q18 38 47 62q27 23 65 34q34 10 72 10t72 -10q38 -11 65 -34q29 -24 47 -62q18 -39 18 -96v-136zM177 584l-13 48l267 73l13 -48z" />
<glyph unicode="&#xf4;" d="M431 329q0 33 -10 57q-9 21 -28 40q-18 16 -41 24q-24 8 -48 8t-48 -8t-40 -24q-18 -16 -28 -40q-11 -27 -11 -57v-138q0 -31 11 -56q10 -25 28 -41q16 -16 40 -24t48 -8t48 8q23 8 41 24q19 19 28 41q10 23 10 56v138zM506 192q0 -58 -18 -95q-18 -38 -47 -63 q-27 -23 -65 -34q-34 -10 -72 -10t-72 10q-38 11 -65 34q-29 25 -47 63q-18 37 -18 95v136q0 57 18 96q18 38 47 62q27 23 65 34q34 10 72 10t72 -10q38 -11 65 -34q29 -24 47 -62q18 -39 18 -96v-136zM304 651l-141 -67l-21 44l162 77l162 -77l-21 -44z" />
<glyph unicode="&#xf5;" d="M342 588l-79 57l-107 -57l-23 43l133 71l79 -57l107 57l23 -43zM431 329q0 33 -10 57q-9 21 -28 40q-18 16 -41 24q-24 8 -48 8t-48 -8t-40 -24q-18 -16 -28 -40q-11 -27 -11 -57v-138q0 -31 11 -56q10 -25 28 -41q16 -16 40 -24t48 -8t48 8q23 8 41 24q19 19 28 41 q10 23 10 56v138zM506 192q0 -58 -18 -95q-18 -38 -47 -63q-27 -23 -65 -34q-34 -10 -72 -10t-72 10q-38 11 -65 34q-29 25 -47 63q-18 37 -18 95v136q0 57 18 96q18 38 47 62q27 23 65 34q34 10 72 10t72 -10q38 -11 65 -34q29 -24 47 -62q18 -39 18 -96v-136z" />
<glyph unicode="&#xf6;" d="M431 329q0 33 -10 57q-9 21 -28 40q-18 16 -41 24q-24 8 -48 8t-48 -8t-40 -24q-18 -16 -28 -40q-11 -27 -11 -57v-138q0 -31 11 -56q10 -25 28 -41q16 -16 40 -24t48 -8t48 8q23 8 41 24q19 19 28 41q10 23 10 56v138zM506 192q0 -58 -18 -95q-18 -38 -47 -63 q-27 -23 -65 -34q-34 -10 -72 -10t-72 10q-38 11 -65 34q-29 25 -47 63q-18 37 -18 95v136q0 57 18 96q18 38 47 62q27 23 65 34q34 10 72 10t72 -10q38 -11 65 -34q29 -24 47 -62q18 -39 18 -96v-136zM148 683h76v-76h-76v76zM384 683h76v-76h-76v76z" />
<glyph unicode="&#xf7;" d="M262 479q0 17 13 30q12 12 29 12q16 0 30 -12q12 -13 12 -30t-12 -29q-13 -13 -30 -13t-29 13q-13 12 -13 29zM262 82q0 17 13 30q12 12 29 12q16 0 30 -12q12 -14 12 -30q0 -17 -12 -29q-13 -13 -30 -13t-29 13q-13 12 -13 29zM106 258v45h396v-45h-396z" />
<glyph unicode="&#xf8;" d="M506 192q0 -58 -18 -95q-18 -38 -47 -63q-27 -23 -65 -34q-34 -10 -72 -10q-33 0 -61 7q-34 8 -57 23l-32 -53l-37 23l35 58q-22 24 -36 59q-14 36 -14 85v136q0 57 18 96q18 38 47 62q27 23 65 34q34 10 72 10q32 0 61 -7q33 -8 56 -23l32 53l37 -23l-35 -58 q24 -25 37 -59q14 -36 14 -85v-136zM431 329q0 20 -5 40q-4 16 -13 32l-188 -315q33 -24 79 -24q24 0 48 8q23 8 41 24q19 19 28 41q10 23 10 56v138zM177 191q0 -43 18 -71l187 314q-33 24 -78 24q-24 0 -48 -8t-40 -24q-18 -16 -28 -40q-11 -27 -11 -57v-138z" />
<glyph unicode="&#xf9;" d="M302 -10q-32 0 -67 9q-36 11 -64 33q-29 22 -49 62q-19 37 -19 95v327h75v-322q0 -34 11 -59q10 -23 29 -41q16 -16 39 -24q24 -8 45 -8q22 0 46 8q20 7 40 25q19 19 28 40q10 23 10 56v325h75v-516h-75v53q-18 -29 -55 -47q-35 -16 -69 -16zM163 657l13 48l267 -73 l-13 -48z" />
<glyph unicode="&#xfa;" d="M302 -10q-32 0 -67 9q-36 11 -64 33q-29 22 -49 62q-19 37 -19 95v327h75v-322q0 -34 11 -59q10 -23 29 -41q16 -16 39 -24q24 -8 45 -8q22 0 46 8q20 7 40 25q19 19 28 40q10 23 10 56v325h75v-516h-75v53q-18 -29 -55 -47q-35 -16 -69 -16zM176 584l-13 48l267 73 l13 -48z" />
<glyph unicode="&#xfb;" d="M302 -10q-32 0 -67 9q-36 11 -64 33q-29 22 -49 62q-19 37 -19 95v327h75v-322q0 -34 11 -59q10 -23 29 -41q16 -16 39 -24q24 -8 45 -8q22 0 46 8q20 7 40 25q19 19 28 40q10 23 10 56v325h75v-516h-75v53q-18 -29 -55 -47q-35 -16 -69 -16zM303 651l-141 -67l-21 44 l162 77l162 -77l-21 -44z" />
<glyph unicode="&#xfc;" d="M302 -10q-32 0 -67 9q-36 11 -64 33q-29 22 -49 62q-19 37 -19 95v327h75v-322q0 -34 11 -59q10 -23 29 -41q16 -16 39 -24q24 -8 45 -8q22 0 46 8q20 7 40 25q19 19 28 40q10 23 10 56v325h75v-516h-75v53q-18 -29 -55 -47q-35 -16 -69 -16zM147 683h76v-76h-76v76z M383 683h76v-76h-76v76z" />
<glyph unicode="&#xfd;" d="M298 -131q-11 -30 -38 -41t-76 -12h-45v72h54q24 0 32 8q9 8 13 22l27 74l-189 524h80l148 -419l148 419h80zM177 584l-13 48l267 73l13 -48z" />
<glyph unicode="&#xfe;" d="M308 -10q-36 0 -71 16q-36 15 -56 47v-237h-75v884h75v-233q19 31 56 48q36 15 71 15q38 0 72 -10q38 -11 65 -34q29 -24 47 -62q18 -39 18 -96v-136q0 -58 -18 -95q-18 -38 -47 -63q-27 -23 -65 -34q-34 -10 -72 -10zM435 329q0 33 -10 57q-9 21 -28 40q-18 16 -41 24 q-24 8 -48 8t-48 -8t-40 -24q-18 -16 -28 -40q-11 -27 -11 -57v-138q0 -31 11 -56q10 -25 28 -41q16 -16 40 -24t48 -8t48 8q23 8 41 24q19 19 28 41q10 23 10 56v138z" />
<glyph unicode="&#xff;" d="M298 -131q-11 -30 -38 -41t-76 -12h-45v72h54q24 0 32 8q9 8 13 22l27 74l-189 524h80l148 -419l148 419h80zM148 683h76v-76h-76v76zM384 683h76v-76h-76v76z" />
<glyph unicode="&#x152;" d="M381 76h165v-76h-242q-49 0 -91 17q-44 17 -72 47q-29 29 -46 74t-17 99v226q0 54 17 99q17 44 46 75q31 31 72 47q39 16 91 16h242v-76h-165v-232h95v-76h-95v-240zM155 237q0 -40 12 -70q11 -30 32 -50q18 -20 47 -31q26 -10 58 -10v548q-32 0 -58 -10t-47 -31 q-21 -20 -32 -50q-12 -30 -12 -70v-226z" />
<glyph unicode="&#x153;" d="M197 -10q-69 0 -106 39q-39 37 -39 106v250q0 68 39 107q38 38 106 38q31 0 60 -12q26 -11 47 -38q20 26 48 38t60 12q67 0 107 -38q38 -40 38 -107v-144h-215v-106q0 -33 18 -53t52 -20t52 20q18 19 18 53v27h75v-27q0 -68 -38 -106q-39 -39 -107 -39q-32 0 -60 12 t-48 38q-21 -27 -47 -38q-29 -12 -60 -12zM197 458q-34 0 -52 -19t-18 -54v-250q0 -33 18 -53t52 -20t52 20q18 19 18 53v250q0 35 -18 54t-52 19zM482 385q0 35 -18 54t-52 19t-52 -19t-18 -54v-75h140v75z" />
<glyph unicode="&#x178;" d="M343 0h-77v279l-231 421h84l186 -339l185 339h84l-231 -422v-278zM148 837h76v-76h-76v76zM384 837h76v-76h-76v76z" />
<glyph unicode="&#x2c6;" d="M304 651l-141 -67l-21 44l162 77l162 -77l-21 -44z" />
<glyph unicode="&#x2dc;" d="M342 588l-79 57l-107 -57l-23 43l133 71l79 -57l107 57l23 -43z" />
<glyph unicode="&#x2000;" horiz-adv-x="440" />
<glyph unicode="&#x2001;" horiz-adv-x="880" />
<glyph unicode="&#x2002;" horiz-adv-x="440" />
<glyph unicode="&#x2003;" horiz-adv-x="880" />
<glyph unicode="&#x2004;" horiz-adv-x="293" />
<glyph unicode="&#x2005;" horiz-adv-x="220" />
<glyph unicode="&#x2006;" horiz-adv-x="146" />
<glyph unicode="&#x2007;" horiz-adv-x="146" />
<glyph unicode="&#x2008;" horiz-adv-x="110" />
<glyph unicode="&#x2009;" horiz-adv-x="176" />
<glyph unicode="&#x200a;" horiz-adv-x="48" />
<glyph unicode="&#x2010;" d="M159 258v45h290v-45h-290z" />
<glyph unicode="&#x2011;" d="M159 258v45h290v-45h-290z" />
<glyph unicode="&#x2012;" d="M159 258v45h290v-45h-290z" />
<glyph unicode="&#x2013;" d="M106 258v45h396v-45h-396z" />
<glyph unicode="&#x2014;" d="M74 258v45h459v-45h-459z" />
<glyph unicode="&#x2018;" d="M283 467l-46 19l87 219l46 -19z" />
<glyph unicode="&#x2019;" d="M283 467l-46 19l87 219l46 -19z" />
<glyph unicode="&#x201a;" d="M283 -119l-46 19l87 219l46 -19z" />
<glyph unicode="&#x201c;" d="M395 467l-46 19l87 219l46 -19zM173 467l-46 19l87 219l46 -19z" />
<glyph unicode="&#x201d;" d="M395 467l-46 19l87 219l46 -19zM173 467l-46 19l87 219l46 -19z" />
<glyph unicode="&#x201e;" d="M395 -119l-46 19l87 219l46 -19zM172 -119l-46 19l87 219l46 -19z" />
<glyph unicode="&#x2022;" d="M136 298q0 36 13 66q14 31 36 53q23 23 54 36q29 13 65 13t66 -13q31 -14 53 -36t36 -53q13 -30 13 -66t-13 -65q-13 -31 -36 -54q-22 -22 -53 -36q-30 -13 -66 -13t-65 13q-31 13 -54 36t-36 54q-13 29 -13 65z" />
<glyph unicode="&#x2026;" d="M48 105h105v-105h-105v105zM251 105h105v-105h-105v105zM454 105h105v-105h-105v105z" />
<glyph unicode="&#x202f;" horiz-adv-x="176" />
<glyph unicode="&#x2039;" d="M153 258l210 210l32 -31l-179 -179l179 -179l-32 -31z" />
<glyph unicode="&#x203a;" d="M245 48l-32 31l179 179l-179 179l32 31l210 -210z" />
<glyph unicode="&#x205f;" horiz-adv-x="220" />
<glyph unicode="&#x20ac;" d="M28 275v43h70v65h-70v43h70v47q0 54 17 99q17 44 46 75q31 31 72 47q39 16 91 16q48 0 88 -15q41 -15 70 -43q30 -30 47 -68q17 -42 20 -91h-75q-3 37 -16 63q-14 27 -33 45q-18 16 -46 28q-26 9 -55 9q-32 0 -58 -10q-28 -10 -48 -32q-21 -21 -33 -52q-12 -32 -12 -71 v-47h251v-43h-251v-65h251v-43h-251v-48q0 -41 12 -71q12 -31 33 -52q19 -20 48 -31q28 -11 58 -11q31 0 55 10q27 10 46 27q19 18 33 45q13 26 16 63h75q-3 -49 -20 -91q-17 -38 -47 -68q-29 -28 -70 -43q-40 -15 -88 -15q-53 0 -91 17q-44 17 -72 47q-29 29 -46 74t-17 99 v48h-70z" />
<glyph unicode="&#x2122;" d="M120 636h-101v64h267v-64h-101v-279h-65v279zM323 700h61l72 -171l72 171h61v-343h-64v199l-45 -107h-48l-45 107v-199h-64v343z" />
<glyph unicode="&#x25fc;" horiz-adv-x="515" d="M0 515h515v-515h-515v515z" />
<glyph unicode="&#xfb01;" d="M244 628q-27 0 -37 -10q-11 -11 -11 -35v-67h329v-516h-75v444h-254v-444h-75v444h-73v72h73v61q0 33 6 57q5 22 20 38q13 13 38 21q21 7 59 7h79v-72h-79zM425 700h110v-110h-110v110z" />
<glyph unicode="&#xfb02;" d="M525 700v-700h-75v628h-206q-27 0 -37 -10q-11 -11 -11 -35v-67h127v-72h-127v-444h-75v444h-73v72h73v61q0 33 6 57q5 22 20 38q13 13 38 21q21 7 59 7h281z" />
</font>
</defs>
</svg>
