<?xml version="1.0" standalone="no"?>
<!DOCTYPE svg PUBLIC "-//W3C//DTD SVG 1.1//EN" "http://www.w3.org/Graphics/SVG/1.1/DTD/svg11.dtd" >
<svg xmlns="http://www.w3.org/2000/svg" xmlns:xlink="http://www.w3.org/1999/xlink" version="1.1">
<metadata></metadata>
<defs>
<font id="simplon_normalmedium_italic" horiz-adv-x="615" >
<font-face units-per-em="1000" ascent="800" descent="-200" />
<missing-glyph horiz-adv-x="219" />
<glyph horiz-adv-x="0" />
<glyph horiz-adv-x="0" />
<glyph unicode="&#xd;" horiz-adv-x="0" />
<glyph unicode=" "  horiz-adv-x="219" />
<glyph unicode="&#x09;" horiz-adv-x="219" />
<glyph unicode="&#xa0;" horiz-adv-x="219" />
<glyph unicode="!" horiz-adv-x="292" d="M83 210l104 490h105l-104 -490h-105zM187 134l-29 -134h-134l29 134h134z" />
<glyph unicode="&#x22;" horiz-adv-x="462" d="M143 700h105v-224h-105v224zM353 700h105v-224h-105v224z" />
<glyph unicode="#" horiz-adv-x="700" d="M278 700h100l-48 -193h156l48 193h100l-48 -193h66v-91h-89l-33 -132h90v-91h-112l-48 -193h-100l48 193h-156l-48 -193h-100l48 193h-66v91h88l33 132h-89v91h112zM430 284l33 132h-156l-33 -132h156z" />
<glyph unicode="$" horiz-adv-x="517" d="M183 -3q-36 8 -65 26q-30 18 -51 44q-21 25 -32 57q-11 31 -11 66q0 7 1 14q0 6 1 13h100v-12q0 -38 21 -67t58 -41l45 213l-30 17q-26 14 -48 31q-23 16 -39 38q-17 21 -27 48t-10 61q0 100 59 153q58 52 170 52h10l19 90h43l-20 -95q36 -8 63 -25q26 -17 44 -41t27 -52 t9 -58v-6q0 -3 -1 -9h-101v8q0 28 -17 51q-17 22 -46 32l-44 -208l30 -15q60 -30 96 -71q36 -42 36 -102q0 -50 -14 -90t-42 -69q-29 -29 -72 -44q-43 -16 -102 -16h-9q-4 0 -9 1l-19 -91h-43zM371 192q0 37 -23 58q-24 20 -60 40l-42 -201h9q21 0 42 7q20 7 37 20 q16 13 27 32q10 19 10 44zM198 515q0 -35 22 -58q21 -24 46 -37l7 -4l41 195q-51 -1 -83 -25q-33 -25 -33 -71z" />
<glyph unicode="%" horiz-adv-x="877" d="M265 0h-95l481 700h95zM227 361q23 0 39 13q15 12 21 39q5 25 12 54q6 29 12 55q5 26 9 46q3 19 3 26q0 13 -8 26q-9 13 -40 13q-23 0 -38 -12q-16 -13 -22 -40q-5 -26 -11 -54q-7 -29 -12 -55q-6 -26 -9 -45q-4 -20 -4 -27q0 -6 2 -13q1 -7 6 -13t15 -9q9 -4 25 -4z M222 288q-28 0 -51 9q-23 8 -39 23q-17 14 -26 34q-9 19 -9 41q0 12 5 40q4 27 10 57q6 29 11 54q5 24 7 30q16 66 50 98q33 32 100 32q28 0 51 -8q23 -9 40 -23q16 -15 25 -34q9 -20 9 -42q0 -12 -4 -39q-5 -28 -11 -57q-6 -30 -11 -54q-6 -25 -7 -31q-16 -66 -49 -98 q-34 -32 -101 -32zM639 67q23 0 39 13q15 12 21 39q5 25 12 54q6 29 12 55q5 26 9 46q3 19 3 26q0 13 -8 26q-9 13 -40 13q-23 0 -38 -12q-16 -13 -22 -40q-5 -26 -11 -54q-7 -29 -12 -55q-6 -26 -9 -45q-4 -20 -4 -27q0 -6 2 -13q1 -7 6 -13t15 -9q9 -4 25 -4zM634 -6 q-28 0 -51 9q-23 8 -39 23q-17 14 -26 34q-9 19 -9 41q0 12 5 40q4 27 10 57q6 29 11 54q5 24 7 30q16 66 50 98q33 32 100 32q28 0 51 -8q23 -9 40 -23q16 -15 25 -34q9 -20 9 -42q0 -12 -4 -39q-5 -28 -11 -57q-6 -30 -11 -54q-6 -25 -7 -31q-16 -66 -49 -98 q-34 -32 -101 -32z" />
<glyph unicode="&#x26;" horiz-adv-x="603" d="M423 0h-219q-32 0 -62 11q-31 11 -56 33t-40 55t-15 76q0 68 29 119q28 51 90 77q-24 18 -39 52q-15 33 -15 68q0 107 69 158q68 51 192 51h110l-22 -98h-110q-29 0 -54 -6q-25 -7 -43 -20q-19 -13 -29 -33q-11 -20 -11 -46q0 -19 6 -36q6 -18 18 -31q11 -14 28 -22 q17 -9 39 -9h114l17 81h105l-17 -81h123l-21 -98h-123zM382 301h-118q-26 0 -49 -6q-24 -7 -42 -21t-29 -35t-11 -50q0 -37 26 -64q25 -27 67 -27h113z" />
<glyph unicode="'" horiz-adv-x="252" d="M143 700h105v-224h-105v224z" />
<glyph unicode="(" horiz-adv-x="293" d="M159 577q6 30 17 53q10 23 28 39q17 15 43 23q25 8 61 8h46l-20 -92h-24q-30 0 -42 -12q-13 -13 -19 -41q-26 -123 -45 -212t-32 -151t-21 -101q-9 -39 -13 -61q-5 -23 -6 -33q-2 -10 -2 -13q0 -17 10 -27q10 -9 28 -9h27l-20 -92h-16q-23 0 -45 7q-23 7 -40 21 q-17 15 -27 36q-11 22 -11 52q0 7 1 17q1 11 5 34t12 63t22 105t34 160q20 94 49 226z" />
<glyph unicode=")" horiz-adv-x="293" d="M143 -21q-6 -30 -16 -53q-11 -23 -28 -39q-18 -15 -43 -23q-26 -8 -62 -8h-46l20 92h24q30 0 43 12q12 13 18 41q26 123 45 212t32 151t22 101q8 39 13 62q4 22 6 32q1 9 1 13q0 17 -10 27q-10 9 -28 9h-27l20 92h16q23 0 45 -7t40 -21q17 -15 28 -36q10 -22 10 -52 q0 -7 -1 -17q-1 -11 -5 -34t-12 -63t-22 -105t-34 -159q-20 -95 -49 -227z" />
<glyph unicode="*" horiz-adv-x="505" d="M290 700h91l-26 -124l126 38l11 -90l-126 -37l50 -98l-75 -48l-50 96l-91 -96l-67 58l91 97l-113 38l43 80l110 -38z" />
<glyph unicode="+" horiz-adv-x="558" d="M499 326v-91h-169v-170h-91v170h-170v91h170v169h91v-169h169z" />
<glyph unicode="," horiz-adv-x="292" d="M187 134l-29 -134l-61 -104h-79l61 104h-55l29 134h134z" />
<glyph unicode="-" horiz-adv-x="388" d="M335 235h-290l19 91h290z" />
<glyph unicode="." horiz-adv-x="292" d="M187 134l-29 -134h-134l29 134h134z" />
<glyph unicode="/" horiz-adv-x="365" d="M376 700l-283 -700h-104l283 700h104z" />
<glyph unicode="0" horiz-adv-x="542" d="M214 504q-3 -13 -9 -41t-13 -62q-8 -35 -15 -72q-8 -38 -14 -70q-7 -32 -11 -55t-4 -29q0 -22 9 -38q8 -17 22 -27q14 -11 32 -16q17 -5 35 -5q51 0 80 31t40 76q3 13 9 41t14 63q7 34 15 72q7 37 14 69q6 32 10 55t4 29q0 22 -8 39q-9 16 -23 27q-14 10 -31 15 q-18 5 -36 5q-51 0 -80 -31t-40 -76zM472 199q-10 -48 -27 -86q-17 -39 -45 -66q-28 -28 -69 -42q-41 -15 -99 -15q-43 0 -77 13q-35 13 -59 37q-25 24 -38 57t-13 73q0 9 4 33t10 55q5 31 13 67q7 36 14 70q7 33 13 61t9 45q10 48 27 87q17 38 45 66q28 27 69 42 q41 14 99 14q43 0 78 -13q34 -13 59 -37q24 -24 37 -57t13 -73q0 -10 -4 -33q-4 -24 -9 -55q-6 -31 -13 -67q-8 -36 -15 -69q-7 -34 -13 -62q-6 -29 -9 -45z" />
<glyph unicode="1" horiz-adv-x="359" d="M225 0h-105l119 559l-158 -115l29 141l159 115h105z" />
<glyph unicode="2" horiz-adv-x="519" d="M93 485q7 53 25 95q17 42 47 71q29 29 72 44q42 15 99 15q43 0 78 -13q34 -13 59 -37q24 -24 37 -57t13 -73q0 -70 -33 -124q-33 -55 -98 -111l-229 -197h273l-22 -98h-429l22 98l305 263q52 45 80 81t28 83q0 22 -8 39q-9 16 -23 27q-14 10 -31 15q-18 5 -36 5 q-30 0 -51 -11q-22 -11 -37 -29t-23 -40q-9 -23 -13 -46h-105z" />
<glyph unicode="3" horiz-adv-x="516" d="M132 200q-2 -6 -2 -14q-1 -9 -1 -11q0 -22 9 -38q9 -17 24 -27q14 -11 32 -16t36 -5q56 0 88 35q31 34 31 90q0 40 -26 65q-26 24 -67 24h-58l21 94h58q31 0 56 11q25 10 43 28q18 17 28 40q9 23 9 49q0 22 -8 39q-9 16 -23 27q-14 10 -31 15q-18 5 -36 5q-48 0 -80 -30 q-33 -31 -41 -81h-105q9 48 26 87t46 66q28 27 69 42t99 15q43 0 78 -13q34 -13 59 -37q24 -24 37 -57t13 -73q0 -29 -8 -58q-9 -29 -24 -55q-16 -26 -37 -47t-46 -33q23 -18 38 -50t15 -68q0 -33 -10 -73t-36 -74q-27 -35 -73 -58q-47 -24 -119 -24q-43 0 -78 13t-60 37 t-38 57q-14 33 -14 73q0 5 1 14q0 9 2 16h103z" />
<glyph unicode="4" horiz-adv-x="519" d="M369 0h-105l37 174h-310l20 95l402 431h105l-92 -431h73l-20 -95h-73zM372 507l-222 -238h171z" />
<glyph unicode="5" horiz-adv-x="526" d="M205 420q12 11 38 21t59 10q40 0 74 -13q33 -13 57 -37t38 -57q13 -33 13 -73v-15l-1 -14q-1 -8 -3 -18l-5 -25q-10 -48 -27 -86q-17 -39 -45 -66q-28 -28 -69 -42q-41 -15 -99 -15q-43 0 -77 13q-35 13 -59 37q-25 24 -38 57t-13 73q0 5 1 14q0 8 2 16h103 q-3 -20 -3 -25q0 -22 9 -38q8 -17 22 -27q14 -11 32 -16q17 -5 35 -5q51 0 80 31t40 76q6 26 9 42t3 28q0 22 -8 39q-9 16 -23 27q-14 10 -31 15q-18 5 -36 5q-38 0 -64 -17q-27 -18 -40 -47h-107l88 412h394l-22 -99h-289z" />
<glyph unicode="6" horiz-adv-x="532" d="M193 408q15 14 43 25q27 11 61 11q41 0 75 -13q33 -13 57 -37t37 -57t13 -73q0 -7 -1 -23q-1 -17 -6 -42q-9 -48 -25 -87q-17 -39 -45 -66q-29 -27 -70 -41q-42 -15 -100 -15q-43 0 -77 13q-35 13 -59 37q-25 24 -38 57t-13 73q0 9 4 33t10 55q5 31 13 67q7 36 14 70 q7 33 13 61t9 45q10 48 27 87q17 38 45 66q28 27 69 42q41 14 99 14q43 0 78 -13q34 -13 59 -37q24 -24 37 -57t13 -73q0 -9 -3 -30h-103q3 19 3 25q0 22 -8 39q-9 16 -23 27q-14 10 -31 15q-18 5 -36 5q-51 0 -80 -31t-40 -76q-3 -12 -8 -37q-6 -26 -13 -59zM278 345 q-51 0 -80 -31t-40 -76q-6 -25 -8 -40t-2 -23q0 -22 9 -38q8 -17 22 -27q14 -11 32 -16q17 -5 35 -5q51 0 80 31t40 76q6 25 8 40t2 23q0 22 -8 39q-9 16 -23 27q-14 10 -31 15q-18 5 -36 5z" />
<glyph unicode="7" horiz-adv-x="454" d="M44 0l343 601h-305l22 99h424l-22 -99l-343 -601h-119z" />
<glyph unicode="8" horiz-adv-x="532" d="M469 213q0 -54 -17 -96t-47 -70q-31 -28 -74 -42q-44 -15 -97 -15q-47 0 -83 14q-37 14 -63 39q-26 24 -39 58q-14 34 -14 74q0 73 29 123q29 49 83 75q-42 48 -42 120q0 27 9 65q9 37 34 71q25 33 70 57q44 24 116 24q43 0 79 -13q36 -14 62 -38t41 -58q14 -34 14 -76 q0 -20 -4 -45q-5 -26 -16 -52q-12 -27 -32 -51q-21 -24 -53 -41q21 -24 33 -55q11 -32 11 -68zM138 192q0 -20 7 -39q6 -19 20 -33q13 -14 34 -22q21 -9 50 -9q24 0 45 9t37 25q16 15 26 36q9 21 9 46q0 20 -6 39q-7 18 -20 33q-14 14 -35 23q-21 8 -50 8q-24 0 -45 -9 t-37 -24q-16 -16 -25 -37q-10 -21 -10 -46zM427 509q0 52 -31 77t-76 25q-24 0 -44 -9q-21 -9 -36 -24t-23 -35q-9 -21 -9 -44q0 -52 31 -77t76 -25q24 0 45 9q20 9 35 24t24 36q8 20 8 43z" />
<glyph unicode="9" horiz-adv-x="532" d="M377 292q-15 -14 -42 -25q-28 -11 -62 -11q-41 0 -74 13q-34 13 -58 37t-37 57t-13 73q0 7 1 24q1 16 6 41q9 48 26 87q16 39 45 66q28 27 70 42q41 14 99 14q43 0 78 -13q34 -13 59 -37q24 -24 37 -57t13 -73q0 -10 -4 -33q-4 -24 -9 -55q-6 -31 -13 -67q-8 -36 -15 -69 q-7 -34 -13 -62q-6 -29 -9 -45q-10 -48 -27 -86q-17 -39 -45 -66q-28 -28 -69 -42q-41 -15 -99 -15q-43 0 -77 13q-35 13 -59 37q-25 24 -38 57t-13 73q0 9 3 30h103q-3 -20 -3 -25q0 -22 9 -38q8 -17 22 -27q14 -11 32 -16q17 -5 35 -5q51 0 80 31t40 76q3 12 9 38 q5 25 12 58zM292 355q51 0 80 31t40 76q6 25 8 40t2 23q0 22 -8 39q-9 16 -23 27q-14 10 -31 15q-18 5 -36 5q-51 0 -80 -31t-40 -76q-6 -25 -8 -40t-2 -23q0 -22 9 -38q8 -17 22 -27q14 -11 32 -16q17 -5 35 -5z" />
<glyph unicode=":" horiz-adv-x="292" d="M268 516l-29 -134h-134l29 134h134zM187 134l-29 -134h-134l29 134h134z" />
<glyph unicode=";" horiz-adv-x="292" d="M269 516l-29 -134h-134l29 134h134zM187 134l-29 -134l-61 -104h-79l61 104h-55l29 134h134z" />
<glyph unicode="&#x3c;" horiz-adv-x="558" d="M499 -5l-430 210v108l430 210v-102l-332 -162l332 -162v-102z" />
<glyph unicode="=" horiz-adv-x="558" d="M69 431h430v-91h-430v91zM499 119h-430v91h430v-91z" />
<glyph unicode="&#x3e;" horiz-adv-x="558" d="M69 421v102l430 -210v-108l-430 -210v102l332 162z" />
<glyph unicode="?" horiz-adv-x="516" d="M88 500q9 48 26 87t46 66q28 27 69 42t99 15q43 0 78 -13q34 -13 59 -37q24 -24 37 -57t13 -73q0 -57 -26 -104t-82 -90l-55 -42q-22 -17 -41 -36q-20 -19 -23 -36l-2 -12h-105l4 22q4 17 9 32t15 31q10 15 27 32q16 16 42 36l55 42q12 9 26 21q13 12 25 27t20 33t8 39 q0 22 -8 39q-9 16 -23 27q-14 10 -31 15q-18 5 -36 5q-51 0 -81 -31q-30 -32 -40 -80h-105zM285 134l-29 -134h-134l29 134h134z" />
<glyph unicode="@" horiz-adv-x="916" d="M567 328q-4 51 -33 76q-30 25 -76 25q-39 0 -66 -18q-28 -18 -39 -55h-107q7 51 29 85t53 54q30 19 65 27q34 8 65 8q34 0 72 -9q37 -10 69 -34t53 -65q21 -42 21 -106v-187q0 -23 13 -34q12 -11 29 -11t30 11q12 11 12 34v189q0 89 -29 147t-73 92q-45 33 -97 46 q-53 13 -100 13t-100 -13t-97 -46q-44 -34 -73 -92t-29 -147v-120q0 -89 29 -147t73 -92q44 -33 97 -46t100 -13q46 0 96 12t94 43l50 -83q-56 -37 -119 -52q-64 -14 -121 -14q-42 0 -87 7q-45 8 -89 26t-83 47q-40 30 -70 73q-30 44 -47 104q-18 60 -18 138v114 q0 78 18 138q17 60 47 104q30 43 70 73q39 29 83 47t89 26q45 7 87 7q41 0 87 -7q45 -8 89 -26t84 -47q39 -30 69 -73q30 -44 48 -104q17 -60 17 -138v-189q0 -59 -32 -97q-33 -39 -103 -39q-55 0 -91 17q-37 16 -58 42q-25 -30 -64 -44q-39 -15 -90 -15q-35 0 -67 9t-56 28 q-24 18 -38 47q-15 29 -15 69q0 22 6 45q5 23 18 44t35 39q21 17 53 27q47 14 99 20q52 5 118 10zM431 91q22 0 47 5q24 4 44 17q20 12 33 35q13 22 13 58v29q-69 -5 -120 -11q-51 -7 -80 -24q-10 -6 -17 -17q-8 -11 -8 -31q0 -32 23 -46q23 -15 65 -15z" />
<glyph unicode="A" d="M165 170l-95 -170h-117l393 700h110l96 -700h-103l-23 170h-261zM375 544l-156 -278h194z" />
<glyph unicode="B" horiz-adv-x="616" d="M427 700q41 0 76 -12q34 -12 59 -35q24 -24 38 -57t14 -75q0 -124 -102 -175q26 -21 41 -51t15 -68q0 -48 -15 -89q-15 -42 -46 -72q-32 -31 -81 -48q-49 -18 -118 -18h-289l148 700h260zM211 405h170q25 0 48 9q23 8 41 23q18 14 29 34q11 19 11 42q0 45 -26 65 q-26 19 -80 19h-152zM147 103h180q27 0 52 8q25 7 44 22t30 37t11 51q0 35 -24 58q-25 23 -71 23h-180z" />
<glyph unicode="C" horiz-adv-x="596" d="M496 492q0 59 -38 87t-93 28q-26 0 -51 -7q-25 -8 -46 -25q-22 -17 -38 -43q-17 -27 -25 -64q-17 -77 -27 -123q-11 -47 -17 -74q-6 -28 -8 -41t-2 -22q0 -59 38 -87t93 -28q24 0 48 7t45 22t38 39q16 23 25 56h108q-29 -118 -98 -172q-69 -55 -179 -55q-47 0 -87 15 q-41 14 -71 41q-30 26 -47 64q-17 37 -17 82q0 19 3 40q2 20 8 50t16 75q9 44 24 111q27 125 97 184q69 58 183 58q47 0 88 -14q40 -15 70 -41q30 -27 47 -64q17 -38 17 -83v-10q0 -5 -1 -15h-103v9z" />
<glyph unicode="D" horiz-adv-x="628" d="M304 103q26 0 51 8q25 7 47 24q21 17 38 43q16 26 24 64q16 76 26 120t16 68q5 24 7 34q1 9 1 18q0 59 -38 87t-93 28h-131l-105 -494h157zM167 700h229q47 0 88 -14q40 -15 70 -41q30 -27 47 -64q17 -38 17 -83q0 -20 -2 -37t-7 -43q-5 -27 -14 -68t-24 -108 q-27 -125 -96 -183q-70 -59 -184 -59h-272z" />
<glyph unicode="E" horiz-adv-x="544" d="M517 405l-22 -103h-306l-42 -199h306l-22 -103h-412l148 700h412l-22 -103h-305l-41 -192h306z" />
<glyph unicode="F" horiz-adv-x="534" d="M517 405l-22 -103h-306l-64 -302h-106l148 700h412l-22 -103h-305l-41 -192h306z" />
<glyph unicode="G" horiz-adv-x="603" d="M496 492q0 59 -38 87t-93 28q-26 0 -51 -7q-25 -8 -46 -25q-22 -17 -38 -43q-17 -27 -25 -64q-17 -77 -27 -123q-11 -47 -17 -74q-6 -28 -8 -41t-2 -22q0 -59 38 -87t93 -28q26 0 51 8q25 7 47 24t38 43t24 64l11 52h-144l22 100h251q-6 -28 -14 -64q-8 -37 -19 -88 q-27 -125 -96 -183q-70 -59 -184 -59q-47 0 -87 15q-41 14 -71 41q-30 26 -47 64q-17 37 -17 82q0 19 3 40q2 20 8 50t16 75q9 44 24 111q27 125 97 184q69 58 183 58q47 0 88 -14q40 -15 70 -41q30 -27 47 -64q17 -38 17 -83v-10q0 -5 -1 -12h-103v6z" />
<glyph unicode="H" horiz-adv-x="649" d="M668 700l-148 -700h-107l64 302h-288l-63 -302h-107l148 700h107l-63 -295h288l62 295h107z" />
<glyph unicode="I" horiz-adv-x="255" d="M19 0l148 700h107l-148 -700h-107z" />
<glyph unicode="J" horiz-adv-x="475" d="M101 200q-3 -15 -3 -25q0 -35 22 -58q22 -24 68 -24q48 0 69 23t32 76l108 508h107l-108 -508q-12 -54 -28 -92q-17 -38 -42 -62q-25 -25 -60 -36q-36 -12 -86 -12q-33 0 -66 11q-33 10 -60 31t-43 54q-17 32 -17 76q0 18 3 38h104z" />
<glyph unicode="K" horiz-adv-x="630" d="M19 0l148 700h107l-70 -327l347 327h146l-306 -288l184 -412h-116l-150 336l-141 -133l-43 -203h-106z" />
<glyph unicode="L" horiz-adv-x="496" d="M274 700l-126 -597h306l-23 -103h-412l148 700h107z" />
<glyph unicode="M" horiz-adv-x="735" d="M755 700l-149 -700h-106l101 476l-204 -288h-85l-81 316l-107 -504h-105l148 700h107l100 -387l274 387h107z" />
<glyph unicode="N" horiz-adv-x="649" d="M413 0l-178 515l-110 -515h-106l148 700h107l178 -514l110 514h107l-149 -700h-107z" />
<glyph unicode="O" horiz-adv-x="608" d="M205 468q-17 -77 -27 -123q-11 -47 -17 -74q-6 -28 -8 -41t-2 -22q0 -59 38 -87t93 -28q26 0 51 8q25 7 47 24q21 17 38 43q16 26 24 64q16 76 27 123q10 47 16 75q6 27 9 40q2 13 2 22q0 59 -38 87t-93 28q-26 0 -51 -7q-25 -8 -46 -25q-22 -17 -38 -43q-17 -27 -25 -64 zM549 232q-27 -125 -96 -183q-70 -59 -184 -59q-47 0 -87 15q-41 14 -71 41q-30 26 -47 64q-17 37 -17 82q0 19 3 40q2 20 8 50t16 75q9 44 24 111q27 125 97 184q69 58 183 58q47 0 88 -14q40 -15 70 -41q30 -27 47 -64q17 -38 17 -83q0 -20 -2 -40q-3 -20 -9 -50t-15 -74 q-10 -45 -25 -112z" />
<glyph unicode="P" horiz-adv-x="599" d="M199 347h165q33 0 62 9t50 27q21 17 33 43t12 60q0 20 -6 40q-7 20 -21 37q-14 16 -36 26t-52 10h-153zM19 0l148 700h260q45 0 82 -17q36 -17 62 -44q26 -28 40 -64t14 -75q0 -126 -71 -191q-72 -65 -212 -65h-165l-52 -244h-106z" />
<glyph unicode="Q" horiz-adv-x="619" d="M549 232q-11 -50 -28 -88q-18 -39 -42 -68l44 -57l-79 -64l-46 60q-58 -25 -129 -25q-47 0 -87 15q-41 14 -71 41q-30 26 -47 64q-17 37 -17 82q0 19 3 40q2 20 8 50t16 75q9 44 24 111q27 125 97 184q69 58 183 58q47 0 88 -14q40 -15 70 -41q30 -27 47 -64 q17 -38 17 -83q0 -20 -2 -40q-3 -20 -9 -50t-15 -74q-10 -45 -25 -112zM205 468q-17 -77 -27 -123q-11 -47 -17 -74q-6 -28 -8 -41t-2 -22q0 -59 38 -87t93 -28q13 0 26 2q13 1 25 5l-51 68l79 64l53 -70q9 14 16 32q7 17 12 38q16 76 27 123q10 47 16 75q6 27 9 40 q2 13 2 22q0 59 -38 87t-93 28q-26 0 -51 -7q-25 -8 -46 -25q-22 -17 -38 -43q-17 -27 -25 -64z" />
<glyph unicode="R" horiz-adv-x="609" d="M126 0h-107l148 700h265q48 0 83 -14q35 -15 58 -40t35 -58q11 -34 11 -71q0 -45 -15 -81q-15 -37 -41 -64q-27 -27 -64 -44t-82 -23l114 -305h-110l-113 302h-118zM515 509q0 20 -5 37q-5 16 -17 28q-12 11 -32 17q-21 6 -52 6h-157l-41 -195h168q31 0 57 9q25 9 43 24 q17 15 27 35q9 19 9 39z" />
<glyph unicode="S" horiz-adv-x="555" d="M256 -10q-53 0 -97 15t-75 42q-32 26 -50 63q-18 36 -18 80q0 7 1 14q0 6 1 13h102v-12q0 -54 41 -83q40 -29 105 -29q27 0 52 6q24 5 42 17t29 31q11 18 11 44q0 37 -18 60t-68 40l-102 34q-56 18 -90 64t-34 106q0 103 62 159t182 56q51 0 91 -17t67 -44t42 -60 q14 -34 14 -68v-6q0 -3 -1 -9h-103v8q0 41 -34 67q-35 26 -84 26q-25 0 -48 -5q-24 -6 -42 -17q-19 -11 -30 -29q-12 -18 -12 -43q0 -42 20 -63q19 -21 58 -34l102 -34q64 -21 98 -67q34 -47 34 -107q0 -105 -62 -161q-63 -57 -186 -57z" />
<glyph unicode="T" horiz-adv-x="517" d="M258 0h-107l126 597h-196l22 103h501l-22 -103h-198z" />
<glyph unicode="U" horiz-adv-x="630" d="M161 208q0 -59 38 -87t93 -28q26 0 51 8q25 7 47 24t38 43t24 64l100 468h107l-100 -468q-26 -125 -96 -183q-70 -59 -184 -59q-47 0 -87 15q-41 14 -71 41q-30 26 -47 64q-17 37 -17 82q0 25 11 82q10 57 25 130q15 72 33 151q17 78 32 145h107q-11 -51 -23 -105 t-23 -106q-12 -53 -22 -100q-11 -48 -19 -85q-8 -38 -12 -63q-5 -26 -5 -33z" />
<glyph unicode="V" horiz-adv-x="616" d="M198 0l-96 700h105l73 -541l303 541h119l-394 -700h-110z" />
<glyph unicode="W" horiz-adv-x="743" d="M196 0h-101l20 700h103l-14 -481l191 381h100l17 -388l193 488h112l-278 -700h-101l-20 445z" />
<glyph unicode="X" horiz-adv-x="611" d="M88 0h-132l300 364l-137 336h110l104 -257l210 257h134l-288 -348l144 -352h-110l-111 274z" />
<glyph unicode="Y" horiz-adv-x="594" d="M295 0h-107l57 267l-154 433h107l113 -322l252 322h128l-339 -433z" />
<glyph unicode="Z" horiz-adv-x="585" d="M7 103l466 494h-357l22 103h497l-22 -103l-466 -494h366l-22 -103h-506z" />
<glyph unicode="[" horiz-adv-x="292" d="M353 700l-20 -92h-74l-139 -660h74l-20 -92h-169l179 844h169z" />
<glyph unicode="\" horiz-adv-x="444" d="M331 0l-283 700h104l283 -700h-104z" />
<glyph unicode="]" horiz-adv-x="292" d="M-51 -144l20 92h73l139 660h-74l20 92h169l-179 -844h-168z" />
<glyph unicode="^" horiz-adv-x="624" d="M191 300h-107l203 400h100l203 -400h-107l-146 288z" />
<glyph unicode="_" horiz-adv-x="418" d="M338 -138h-429l18 91h430z" />
<glyph unicode="`" horiz-adv-x="309" d="M315 571h-79l-91 129h130z" />
<glyph unicode="a" horiz-adv-x="545" d="M74 356q12 42 31 75q18 32 46 54t67 34q38 11 90 11q39 0 73 -11t60 -32q25 -22 40 -53q15 -32 15 -72q0 -41 -8 -81q-9 -41 -20 -89l-41 -192h-105l13 59q-18 -27 -56 -48t-89 -21q-81 0 -126 41t-45 106q0 32 7 58q7 25 24 45q16 20 43 35q26 14 66 25q50 13 108 18 q58 4 124 6q2 7 3 14v9q0 38 -25 61q-26 23 -74 23q-41 0 -70 -20q-30 -21 -44 -55h-107zM204 89q22 0 48 5q25 5 48 18q23 12 41 35q17 23 25 59l5 25q-35 -2 -62 -3t-49 -3q-23 -2 -41 -5q-19 -4 -37 -9q-27 -8 -44 -22t-17 -41q0 -31 23 -45t60 -14z" />
<glyph unicode="b" horiz-adv-x="554" d="M189 331q-3 -14 -8 -38q-6 -24 -11 -48q-6 -25 -9 -45q-4 -20 -4 -27q0 -38 26 -61q25 -23 73 -23t80 28q31 27 42 72q3 14 9 38q5 24 11 49q5 24 9 44q3 20 3 27q0 38 -25 61q-26 23 -74 23t-79 -27q-32 -28 -43 -73zM263 -10q-29 0 -51 7t-37 18q-16 11 -26 25 q-10 13 -16 27l-14 -67h-105l149 700h105l-50 -233q16 26 50 45q34 18 76 18q29 0 59 -11t54 -32q24 -22 40 -53q15 -32 15 -72q0 -41 -8 -81q-9 -41 -20 -89q-22 -99 -77 -150q-56 -52 -144 -52z" />
<glyph unicode="c" horiz-adv-x="529" d="M397 344v4q0 38 -25 61q-26 22 -74 22t-79 -27q-32 -28 -43 -73q-3 -14 -8 -38q-6 -24 -11 -48q-6 -25 -9 -45q-4 -20 -4 -27q0 -38 26 -61q25 -23 73 -23q44 0 75 24q30 24 43 63h106q-11 -45 -29 -80q-19 -35 -47 -58q-28 -24 -67 -36q-40 -12 -94 -12q-39 0 -73 11 t-59 33q-26 21 -41 53q-15 31 -15 71q0 41 9 82q8 40 19 88q10 49 29 87q18 38 47 64q28 25 69 38q40 13 96 13q39 0 73 -11t60 -32q25 -22 40 -53q15 -32 15 -72v-18h-102z" />
<glyph unicode="d" horiz-adv-x="553" d="M365 189q3 14 9 38q5 24 11 49q5 24 9 44q3 20 3 27q0 38 -25 61q-26 23 -74 23t-79 -27q-32 -28 -43 -73q-3 -14 -8 -38q-6 -24 -11 -48q-6 -25 -9 -45q-4 -20 -4 -27q0 -38 26 -61q25 -23 73 -23t80 28q31 27 42 72zM291 530q29 0 51 -7q21 -7 37 -18t26 -24 q10 -14 16 -28l52 247h105l-149 -700h-105l12 53q-16 -26 -50 -44q-34 -19 -76 -19q-29 0 -59 11t-54 33q-24 21 -39 53q-16 31 -16 71q0 41 9 82q8 40 19 88q22 99 78 151q55 51 143 51z" />
<glyph unicode="e" horiz-adv-x="539" d="M464 164q-23 -85 -77 -129q-54 -45 -157 -45q-39 0 -73 11t-59 33q-26 21 -41 53q-15 31 -15 71q0 41 9 82q8 40 19 88q10 49 29 87q18 38 47 64q28 25 69 38q40 13 96 13q39 0 73 -11t60 -32q25 -22 40 -53q15 -32 15 -72q0 -34 -6 -67t-15 -71h-326q-8 -38 -8 -51 q0 -38 26 -61q25 -23 73 -23q41 0 71 21q29 20 43 54h107zM392 315q5 25 5 32q0 38 -25 61q-26 23 -74 23q-28 0 -50 -9q-22 -10 -37 -26q-16 -16 -26 -37t-13 -44h220z" />
<glyph unicode="f" horiz-adv-x="335" d="M320 601q-30 0 -41 -11t-17 -40l-7 -34h127l-21 -97h-127l-89 -419h-105l89 419h-73l21 97h73l12 57q13 61 48 94q34 33 108 33h103l-22 -99h-79z" />
<glyph unicode="g" horiz-adv-x="551" d="M101 -14q0 -35 26 -58q25 -23 73 -23t81 27q33 28 43 73l17 78q-16 -26 -50 -44q-34 -19 -76 -19q-29 0 -59 11t-54 33q-24 21 -39 53q-16 31 -16 71q0 20 2 36q1 15 4 30q2 15 6 33q4 17 9 41q22 99 78 151q55 51 143 51q29 0 51 -7q21 -7 37 -18t26 -24q10 -14 16 -28 l13 63h105l-109 -508q-11 -49 -29 -87t-46 -64q-29 -25 -69 -38q-41 -13 -97 -13q-39 0 -73 11t-59 32q-26 22 -41 53q-15 32 -15 72v16h102v-4zM370 219q3 14 8 34l8 38q4 18 7 34q2 15 2 22q0 38 -25 61q-26 23 -74 23t-79 -27q-32 -28 -43 -73q-3 -14 -7 -33 q-5 -20 -9 -38q-4 -19 -6 -34q-3 -16 -3 -23q0 -38 26 -61q25 -23 73 -23t80 28q31 27 42 72z" />
<glyph unicode="h" horiz-adv-x="562" d="M340 530q34 0 66 -11q31 -12 55 -33q24 -22 38 -53q14 -32 14 -71q0 -41 -8 -81q-9 -41 -20 -89l-41 -192h-105l40 189q3 14 9 38q5 24 10 49q5 24 9 44t4 27q0 38 -25 61q-26 23 -74 23t-80 -27q-32 -28 -42 -73l-71 -331h-105l149 700h105l-50 -233q15 24 48 44 q32 19 74 19z" />
<glyph unicode="i" horiz-adv-x="243" d="M140 593l23 107h105l-23 -107h-105zM14 0l110 516h105l-110 -516h-105z" />
<glyph unicode="j" horiz-adv-x="243" d="M140 593l23 107h105l-23 -107h-105zM107 -57q-13 -61 -47 -94q-35 -33 -109 -33h-39l22 99h15q30 0 41 11t17 40l117 550h105z" />
<glyph unicode="k" horiz-adv-x="526" d="M409 516h140l-229 -202l147 -314h-112l-114 244l-86 -76l-36 -168h-105l149 700h105l-81 -380z" />
<glyph unicode="l" horiz-adv-x="272" d="M266 700q-29 -135 -49 -229t-33 -156q-14 -63 -21 -99q-8 -36 -11 -54q-4 -19 -5 -24q-1 -6 -1 -8q0 -31 41 -31h16l-22 -99h-15q-33 0 -56 10q-24 10 -39 26q-15 15 -22 34t-7 37q0 11 2 26q1 15 6 40q4 25 13 65q8 40 21 102t32 150t45 210h105z" />
<glyph unicode="m" horiz-adv-x="867" d="M369 189q3 14 9 38q5 24 10 49q5 24 9 44t4 27q0 37 -25 61q-26 23 -68 23q-45 0 -77 -28q-32 -29 -41 -72l-71 -331h-105l110 516h105l-11 -49q7 13 20 25q13 11 29 20q16 8 34 13t36 5q42 0 76 -18t53 -48q15 18 36 31q21 12 44 20q22 8 45 12q22 3 41 3q41 0 75 -11 q34 -12 59 -33q25 -22 39 -53q13 -32 13 -71q0 -41 -8 -81q-9 -41 -20 -89l-41 -192h-105l40 189q3 14 9 38q5 24 10 49q5 24 9 44t4 27q0 37 -25 61q-26 23 -68 23q-45 0 -77 -28q-32 -29 -41 -72l-71 -331h-105z" />
<glyph unicode="n" horiz-adv-x="562" d="M340 530q34 0 66 -11q31 -12 55 -33q24 -22 38 -53q14 -32 14 -71q0 -41 -8 -81q-9 -41 -20 -89l-41 -192h-105l40 189q3 14 9 38q5 24 10 49q5 24 9 44t4 27q0 38 -25 61q-26 23 -74 23t-80 -27q-32 -28 -42 -73l-71 -331h-105l110 516h105l-11 -49q15 24 48 44 q32 19 74 19z" />
<glyph unicode="o" horiz-adv-x="541" d="M176 331q-3 -14 -8 -38q-6 -24 -11 -48q-6 -25 -9 -45q-4 -20 -4 -27q0 -38 26 -61q25 -23 73 -23t80 28q31 27 42 72q3 14 9 38q5 24 11 49q5 24 9 44q3 20 3 27q0 38 -25 61q-26 23 -74 23t-79 -27q-32 -28 -43 -73zM471 192q-11 -49 -29 -87t-46 -63q-29 -26 -69 -39 q-41 -13 -97 -13q-39 0 -73 11t-59 33q-26 21 -41 53q-15 31 -15 71q0 41 9 82q8 40 19 88q10 49 29 87q18 38 47 64q28 25 69 38q40 13 96 13q39 0 73 -11t60 -32q25 -22 40 -53q15 -32 15 -72q0 -41 -8 -81q-9 -41 -20 -89z" />
<glyph unicode="p" horiz-adv-x="554" d="M189 331q-3 -14 -8 -38q-6 -24 -11 -48q-6 -25 -9 -45q-4 -20 -4 -27q0 -38 26 -61q25 -23 73 -23t80 28q31 27 42 72q3 14 9 38q5 24 11 49q5 24 9 44q3 20 3 27q0 38 -25 61q-26 23 -74 23t-79 -27q-32 -28 -43 -73zM263 -10q-29 0 -51 7t-37 18q-16 11 -26 25 q-10 13 -16 27l-53 -251h-105l149 700h105l-11 -49q16 26 50 45q34 18 76 18q29 0 59 -11t54 -32q24 -22 40 -53q15 -32 15 -72q0 -41 -8 -81q-9 -41 -20 -89q-22 -99 -77 -150q-56 -52 -144 -52z" />
<glyph unicode="q" horiz-adv-x="553" d="M365 189q3 14 9 38q5 24 11 49q5 24 9 44q3 20 3 27q0 38 -25 61q-26 23 -74 23t-79 -27q-32 -28 -43 -73q-3 -14 -8 -38q-6 -24 -11 -48q-6 -25 -9 -45q-4 -20 -4 -27q0 -38 26 -61q25 -23 73 -23t80 28q31 27 42 72zM291 530q29 0 51 -7q21 -7 37 -18t26 -24 q10 -14 16 -28l13 63h105l-150 -700h-105l52 237q-16 -26 -50 -44q-34 -19 -76 -19q-29 0 -59 11t-54 33q-24 21 -39 53q-16 31 -16 71q0 41 9 82q8 40 19 88q22 99 78 151q55 51 143 51z" />
<glyph unicode="r" horiz-adv-x="345" d="M310 423q-48 0 -79 -26q-32 -26 -42 -71l-70 -326h-105l110 516h105l-12 -54q15 24 48 44q32 19 74 19h52l-22 -102h-59z" />
<glyph unicode="s" horiz-adv-x="482" d="M221 -10q-44 0 -82 11t-66 32q-28 20 -43 49q-16 29 -16 66v17h102v-4q0 -18 10 -31q10 -14 26 -23t36 -13q20 -5 41 -5q17 0 34 4q17 3 31 10q13 6 21 17q8 10 8 25q0 21 -13 34q-13 12 -40 20l-100 31q-42 13 -72 45q-31 32 -31 89q0 81 53 124q53 42 147 42 q44 0 79 -12q34 -12 58 -33t37 -49q13 -29 13 -61v-10h-104v4q0 15 -8 27t-20 20q-13 7 -29 11q-17 4 -35 4q-37 0 -62 -14t-25 -40q0 -23 11 -34q10 -11 33 -18l100 -31q53 -17 83 -49q29 -33 29 -81q0 -44 -15 -76q-15 -33 -42 -54q-27 -22 -65 -33t-84 -11z" />
<glyph unicode="t" horiz-adv-x="359" d="M232 419q-21 -100 -33 -156q-12 -57 -18 -85q-6 -29 -7 -37t-1 -11q0 -31 41 -31h78l-22 -99h-77q-33 0 -56 10q-24 10 -39 26q-15 15 -22 34t-7 37q0 13 2 31t8 52q6 33 18 88q11 54 30 141h-73l21 97h73l25 117h105l-25 -117h127l-21 -97h-127z" />
<glyph unicode="u" horiz-adv-x="557" d="M213 -10q-29 0 -58 12q-29 11 -52 33q-24 21 -38 52q-15 31 -15 71q0 41 9 82q8 40 19 88l40 188h105l-39 -185q-3 -14 -8 -38q-6 -24 -11 -48t-9 -44q-4 -21 -4 -28q0 -39 27 -61q26 -23 65 -23q51 0 83 28q31 28 41 72l70 327h105l-110 -516h-105l12 53q-6 -12 -18 -23 q-13 -11 -29 -20q-17 -9 -37 -15q-21 -5 -43 -5z" />
<glyph unicode="v" horiz-adv-x="476" d="M531 516l-295 -516h-104l-77 516h102l50 -370l208 370h116z" />
<glyph unicode="w" horiz-adv-x="688" d="M623 516h113l-245 -516h-105l-14 377l-173 -377h-110l-27 516h103l12 -355l163 355h111l13 -353z" />
<glyph unicode="x" horiz-adv-x="492" d="M86 0h-129l230 265l-114 251h107l74 -169l149 169h128l-226 -257l116 -259h-107l-77 175z" />
<glyph unicode="y" horiz-adv-x="476" d="M159 516l50 -362l204 362h118l-360 -628q-18 -32 -50 -52t-82 -20h-54l22 99h21q18 0 29 4t19 12q8 9 15 21t16 29l22 38l-74 497h104z" />
<glyph unicode="z" horiz-adv-x="450" d="M384 97l-21 -97h-384l21 97l304 322h-231l21 97h371l-21 -97l-304 -322h244z" />
<glyph unicode="{" horiz-adv-x="324" d="M109 202q0 14 -7 22q-8 7 -27 7h-32l19 94h32q25 0 37 13q11 12 16 38l43 201q6 30 17 53q10 23 28 39q17 15 43 23q25 8 61 8h46l-20 -92h-24q-30 0 -42 -12q-13 -13 -19 -41l-42 -201q-5 -23 -15 -44q-11 -21 -33 -32q11 -7 16 -18q4 -11 4 -20q0 -7 -3 -27 q-4 -20 -9 -46q-6 -27 -12 -57q-7 -30 -12 -56q-6 -26 -9 -45q-4 -20 -4 -25q0 -17 10 -27q10 -9 28 -9h27l-20 -92h-16q-23 0 -45 7q-23 7 -40 21q-17 15 -27 36q-11 22 -11 52q0 15 7 50q6 35 14 73q8 37 15 68q6 31 6 39z" />
<glyph unicode="|" horiz-adv-x="243" d="M74 -100v800h95v-800h-95z" />
<glyph unicode="}" horiz-adv-x="324" d="M224 354q0 -14 8 -21q7 -8 26 -8h32l-19 -94h-32q-25 0 -36 -12q-12 -13 -17 -39l-43 -201q-6 -30 -16 -53q-11 -23 -28 -39q-18 -15 -43 -23q-26 -8 -62 -8h-46l20 92h24q30 0 43 12q12 13 18 41l42 201q5 23 16 44q10 21 32 32q-11 7 -15 18q-5 11 -5 20q0 6 4 27 q3 20 9 47q5 26 12 56q6 30 12 56q5 26 9 46q3 19 3 24q0 17 -10 27q-10 9 -28 9h-27l20 92h16q23 0 45 -7t40 -21q17 -15 28 -36q10 -22 10 -52q0 -10 -3 -29q-3 -20 -8 -44t-10 -49q-5 -26 -10 -48q-5 -23 -8 -39t-3 -21z" />
<glyph unicode="~" horiz-adv-x="537" d="M59 276q38 39 71 56t66 17q23 0 44 -7t40 -16t36 -16t32 -7q21 0 39 10q18 9 44 36l58 -64q-38 -39 -71 -56t-66 -17q-23 0 -44 7t-40 16t-36 16t-32 7q-21 0 -39 -9q-18 -10 -44 -37z" />
<glyph unicode="&#xa1;" horiz-adv-x="262" d="M194 306l-104 -490h-105l104 490h105zM90 382l29 134h134l-29 -134h-134z" />
<glyph unicode="&#xa2;" horiz-adv-x="539" d="M403 344v4q0 31 -18 53q-18 21 -52 27l-72 -339q39 4 67 27q27 23 39 60h106q-11 -45 -29 -79q-19 -35 -46 -58q-28 -24 -67 -36q-39 -13 -91 -13l-19 -90h-43l20 93q-32 5 -59 18q-28 13 -48 34t-31 50q-12 28 -12 63q0 41 9 82q8 40 19 88q10 48 28 86q17 37 45 63 q28 25 68 39q40 13 95 14l19 90h43l-20 -93q32 -5 60 -18q27 -13 48 -34q20 -21 32 -49q11 -29 11 -64v-18h-102zM150 173q0 -32 18 -53t51 -28l72 338q-42 -4 -70 -30q-29 -27 -39 -69q-3 -14 -8 -38q-6 -24 -11 -48q-6 -25 -9 -45q-4 -20 -4 -27z" />
<glyph unicode="&#xa3;" horiz-adv-x="602" d="M494 494q2 12 3 20t1 11q0 22 -8 39q-9 16 -23 27q-14 10 -31 15q-18 5 -36 5q-51 0 -80 -31q-30 -31 -40 -76l-25 -120h220l-14 -66h-220l-38 -179q-4 -17 -7 -24q-4 -8 -10 -16h334l-22 -99h-493l21 99h24q26 1 36 13q9 12 14 38l35 168h-63l14 66h63l25 117 q10 48 27 87q17 38 45 66q28 27 69 42q41 14 99 14q43 0 78 -13q34 -13 59 -37q24 -24 37 -57t13 -73q0 -13 -4 -36h-103v0z" />
<glyph unicode="&#xa4;" horiz-adv-x="713" d="M160 174q-27 35 -42 77q-15 41 -15 89q0 47 15 89t42 77l-85 85l46 47l85 -86q35 27 77 43q42 15 90 15q47 0 89 -15t77 -42l85 85l46 -47l-85 -85q27 -35 43 -76q15 -42 15 -90t-15 -90q-16 -42 -43 -77l85 -84l-46 -47l-85 85q-35 -27 -77 -42t-89 -15q-48 0 -90 15 t-77 42l-85 -85l-46 47zM204 340q0 -35 14 -65q13 -31 36 -54t54 -36q30 -14 65 -14t66 14q30 13 53 36t37 54q13 30 13 65t-13 66q-14 30 -37 53t-53 37q-31 13 -66 13t-65 -13q-31 -14 -54 -37t-36 -53q-14 -31 -14 -66z" />
<glyph unicode="&#xa5;" horiz-adv-x="636" d="M712 700l-288 -367h124l-14 -66h-162l-15 -67h163l-14 -66h-163l-28 -134h-105l28 134h-161l14 66h161l15 67h-162l14 66h124l-131 367h107l115 -324l253 324h125z" />
<glyph unicode="&#xa6;" horiz-adv-x="243" d="M169 239v-339h-95v339h95zM169 700v-339h-95v339h95z" />
<glyph unicode="&#xa7;" horiz-adv-x="538" d="M116 -28q0 -36 27 -55q27 -18 68 -18q17 0 34 5q16 5 29 15q12 11 20 26q8 16 8 37q0 24 -10 44q-11 19 -34 28l-93 37q-54 21 -83 58q-29 36 -29 96q0 71 33 114q32 42 86 64q-14 21 -23 48t-9 56q0 85 52 134q51 49 149 49q40 0 73 -12t57 -32q23 -20 37 -47 q13 -28 14 -58v-8q0 -3 -1 -9h-97q0 36 -27 55q-27 18 -68 18q-17 0 -33 -5q-17 -5 -29 -15q-13 -11 -21 -26q-8 -16 -8 -37q0 -24 11 -43q10 -20 33 -29l93 -37q54 -21 83 -57q29 -37 29 -97q0 -71 -32 -114q-33 -43 -88 -64q15 -22 24 -48q9 -27 9 -56q0 -85 -51 -134 q-52 -49 -150 -49q-40 0 -73 12t-56 32q-24 20 -37 47q-14 28 -15 58v12q0 8 2 14h96v-9zM277 354q-22 -1 -44 -6q-23 -6 -41 -18t-29 -31t-11 -46q0 -23 13 -40q13 -18 40 -29l57 -23q22 1 45 7q22 6 40 18t30 31q11 19 11 46q0 23 -13 41q-13 17 -40 28z" />
<glyph unicode="&#xa8;" horiz-adv-x="420" d="M129 582l23 107h105l-23 -107h-105zM322 582l23 107h105l-23 -107h-105z" />
<glyph unicode="&#xa9;" horiz-adv-x="798" d="M58 350q0 75 29 141q28 65 77 114q48 48 114 77q65 28 140 28t141 -28q65 -29 114 -77q48 -49 77 -114q28 -66 28 -141t-28 -140q-29 -66 -77 -114q-49 -49 -114 -77q-66 -29 -141 -29t-140 29q-66 28 -114 77q-49 48 -77 114q-29 65 -29 140zM153 350q0 -55 21 -103 q20 -49 56 -85t85 -57q48 -21 103 -21t104 21q48 21 84 57t57 85q20 48 20 103t-20 104q-21 48 -57 84t-84 57q-49 21 -104 21t-103 -21q-49 -21 -85 -57t-56 -84q-21 -49 -21 -104zM418 153q-75 0 -112 41q-38 40 -38 106v100q0 65 38 106q37 41 112 41q74 0 112 -39 q37 -39 39 -102h-86q-2 25 -19 41q-17 15 -46 15q-31 0 -48 -17t-17 -45v-100q0 -28 17 -45q17 -18 48 -18q29 0 46 15t19 41h86q-2 -63 -39 -101q-38 -39 -112 -39z" />
<glyph unicode="&#xaa;" horiz-adv-x="331" d="M198 465q32 0 51 19q18 18 23 39l1 5l-30 -2q-16 -1 -30 -2q-14 -2 -24 -3q-11 -2 -15 -5q-9 -5 -12 -11t-3 -15q0 -5 7 -15q6 -10 32 -10zM177 395q-22 0 -40 7t-31 19t-20 28q-8 15 -8 32q0 35 18 59q17 24 40 33q34 13 70 17t81 6q0 3 -2 10q-2 6 -7 13t-14 12 q-10 5 -26 5q-34 0 -51 -30h-85q17 51 49 77q32 25 92 25q59 0 92 -34t33 -87q0 -3 -1 -11t-2 -17q-2 -9 -4 -17q-2 -9 -3 -14l-27 -127h-86l7 29q-13 -18 -30 -26q-18 -9 -45 -9z" />
<glyph unicode="&#xab;" horiz-adv-x="486" d="M59 320l205 151l-29 -135l-100 -74l68 -74l-24 -113l-139 151zM263 320l205 151l-29 -135l-100 -74l68 -74l-24 -113l-139 151z" />
<glyph unicode="&#xac;" horiz-adv-x="558" d="M499 65h-91v170h-339v91h430v-261z" />
<glyph unicode="&#xad;" horiz-adv-x="388" d="M335 235h-290l19 91h290z" />
<glyph unicode="&#xae;" horiz-adv-x="798" d="M58 350q0 75 29 141q28 65 77 114q48 48 114 77q65 28 140 28t141 -28q65 -29 114 -77q48 -49 77 -114q28 -66 28 -141t-28 -140q-29 -66 -77 -114q-49 -49 -114 -77q-66 -29 -141 -29t-140 29q-66 28 -114 77q-49 48 -77 114q-29 65 -29 140zM153 350q0 -55 21 -103 q20 -49 56 -85t85 -57q48 -21 103 -21t104 21q48 21 84 57t57 85q20 48 20 103t-20 104q-21 48 -57 84t-84 57q-49 21 -104 21t-103 -21q-49 -21 -85 -57t-56 -84q-21 -49 -21 -104zM398 310h-33v-152h-85v383h170q60 0 92 -30q32 -31 32 -85q0 -43 -21 -71q-21 -29 -59 -40 l92 -157h-99zM453 393q17 0 27 8q9 8 9 23q0 17 -9 25q-10 8 -27 8h-88v-64h88z" />
<glyph unicode="&#xaf;" horiz-adv-x="438" d="M450 593h-322l19 85h322z" />
<glyph unicode="&#xb0;" horiz-adv-x="402" d="M101 549q0 32 13 61q12 28 33 49t50 34q28 12 60 12t61 -12q28 -13 49 -34t34 -49q12 -29 12 -61t-12 -60q-13 -29 -34 -50t-49 -33q-29 -13 -61 -13t-60 13q-29 12 -50 33t-33 50q-13 28 -13 60zM183 549q0 -31 22 -53q21 -22 52 -22t53 22q21 22 21 53t-21 53 q-22 22 -53 22t-52 -22q-22 -22 -22 -53z" />
<glyph unicode="&#xb1;" horiz-adv-x="558" d="M69 385h170v131h91v-131h169v-91h-169v-131h-91v131h-170v91zM499 0h-430v91h430v-91z" />
<glyph unicode="&#xb2;" horiz-adv-x="317" d="M252 624q17 14 33 34q15 19 15 43q0 13 -8 26q-9 13 -40 13t-45 -19t-17 -43h-84q15 66 48 101q33 34 102 34q28 0 51 -8q23 -9 40 -23q16 -15 26 -34q9 -20 9 -42q0 -48 -23 -84q-23 -37 -59 -65l-106 -83h144l-14 -73h-276l15 73z" />
<glyph unicode="&#xb3;" horiz-adv-x="323" d="M202 395q-60 0 -92 31q-33 31 -33 76q0 3 1 8v7h82v-5q-1 -3 -1 -5q0 -6 2 -13q1 -7 6 -13t15 -9q9 -4 24 -4q14 0 26 6q11 6 19 15q8 8 13 18q4 10 4 19q0 17 -12 29q-12 11 -35 11h-34l16 74h33q29 0 49 16q19 16 19 45q0 13 -8 26q-9 13 -40 13q-48 0 -60 -49h-84 q17 62 51 92q33 30 97 30q28 0 51 -8q23 -9 40 -23q16 -15 26 -34q9 -20 9 -42q0 -43 -19 -70q-20 -28 -51 -40q14 -11 21 -28q7 -18 7 -38q0 -38 -12 -64t-31 -41q-20 -16 -45 -23q-26 -7 -54 -7z" />
<glyph unicode="&#xb4;" horiz-adv-x="309" d="M224 571h-84l67 129h135z" />
<glyph unicode="&#xb5;" horiz-adv-x="562" d="M234 -10q-38 0 -65 18q-28 18 -38 49l-51 -241h-104l148 700h105l-40 -185q-3 -14 -8 -38q-6 -24 -11 -48t-9 -44q-4 -21 -4 -28q0 -39 27 -61q26 -23 65 -23q51 0 83 28q31 28 41 72l70 327h105l-110 -516h-105l12 53q-12 -23 -39 -43t-72 -20z" />
<glyph unicode="&#xb6;" d="M235 300q-36 0 -65 15q-30 14 -51 38t-33 56t-12 67q0 49 18 90t51 71q32 30 77 47q45 16 100 16h310l-167 -787h-95l147 693h-110l-147 -693h-95l82 387h-10z" />
<glyph unicode="&#xb7;" horiz-adv-x="302" d="M240 357l-29 -134h-134l29 134h134z" />
<glyph unicode="&#xb8;" horiz-adv-x="271" d="M115 0l-38 -158h-113l65 158h86z" />
<glyph unicode="&#xb9;" horiz-adv-x="220" d="M96 632l23 107l91 68h85l-85 -406h-85l63 298z" />
<glyph unicode="&#xba;" horiz-adv-x="327" d="M213 468q48 0 59 54q4 18 9 40q4 22 4 30q0 17 -10 31q-10 13 -37 13q-47 0 -59 -55q-5 -17 -9 -39t-4 -30q0 -17 10 -30q10 -14 37 -14zM208 395q-59 0 -92 35q-33 34 -33 87q0 3 1 11t3 17q1 9 3 18q1 8 3 13q16 66 49 99t101 33q59 0 92 -34t33 -87q0 -3 -1 -11 t-2 -17q-2 -9 -4 -17q-2 -9 -3 -14q-16 -66 -49 -99q-33 -34 -101 -34z" />
<glyph unicode="&#xbb;" horiz-adv-x="486" d="M225 226l-205 -151l29 135l100 74l-68 74l24 113l139 -151zM429 226l-205 -151l29 135l100 74l-68 74l24 113l139 -151z" />
<glyph unicode="&#xbc;" horiz-adv-x="730" d="M114 525l23 107l91 68h85l-85 -406h-85l63 298zM183 0h-95l481 700h95zM366 88l15 72l225 246h85l-53 -246h42l-15 -72h-41l-19 -88h-85l19 88h-173zM576 258l-90 -98h67z" />
<glyph unicode="&#xbd;" horiz-adv-x="776" d="M114 525l23 107l91 68h85l-85 -406h-85l63 298zM183 0h-95l481 700h95zM601 223q17 14 33 34q15 19 15 43q0 13 -8 26q-9 13 -40 13t-45 -19t-17 -43h-84q15 66 48 101q33 34 102 34q28 0 51 -8q23 -9 40 -23q16 -15 26 -34q9 -20 9 -42q0 -48 -23 -84q-23 -37 -59 -65 l-106 -83h144l-14 -73h-276l15 73z" />
<glyph unicode="&#xbe;" horiz-adv-x="794" d="M200 288q-60 0 -92 31q-33 31 -33 76q0 3 1 8v7h82v-5q-1 -3 -1 -5q0 -6 2 -13q1 -7 6 -13t15 -9q9 -4 24 -4q14 0 26 6q11 6 19 15q8 8 13 18q4 10 4 19q0 17 -12 29q-12 11 -35 11h-34l16 74h33q29 0 49 16q19 16 19 45q0 13 -8 26q-9 13 -40 13q-48 0 -60 -49h-84 q17 62 51 92q33 30 97 30q28 0 51 -8q23 -9 40 -23q16 -15 26 -34q9 -20 9 -42q0 -43 -19 -70q-20 -28 -51 -40q14 -11 21 -28q7 -18 7 -38q0 -38 -12 -64t-31 -41q-20 -16 -45 -23q-26 -7 -54 -7zM247 0h-95l481 700h95zM430 88l15 72l225 246h85l-53 -246h42l-15 -72h-41 l-19 -88h-85l19 88h-173zM640 258l-90 -98h67z" />
<glyph unicode="&#xbf;" horiz-adv-x="501" d="M419 16q-9 -48 -26 -87t-45 -66q-29 -27 -70 -42t-99 -15q-43 0 -77 13q-35 13 -59 37q-25 24 -38 57t-13 73q0 57 26 104t82 90l55 42q22 17 42 36q19 19 22 36l2 12h105l-4 -22q-4 -17 -9 -32t-15 -30q-10 -16 -26 -32q-17 -17 -43 -37l-55 -42q-12 -9 -25 -21 q-14 -12 -26 -27t-20 -33t-8 -39q0 -22 9 -39q8 -16 22 -27q14 -10 32 -15q17 -5 35 -5q51 0 81 31q30 32 40 80h105zM222 382l29 134h134l-29 -134h-134z" />
<glyph unicode="&#xc0;" d="M165 170l-95 -170h-117l393 700h110l96 -700h-103l-23 170h-261zM375 544l-156 -278h194zM477 745h-86l-105 109h132z" />
<glyph unicode="&#xc1;" d="M165 170l-95 -170h-117l393 700h110l96 -700h-103l-23 170h-261zM375 544l-156 -278h194zM428 745h-91l82 109h137z" />
<glyph unicode="&#xc2;" d="M165 170l-95 -170h-117l393 700h110l96 -700h-103l-23 170h-261zM375 544l-156 -278h194zM376 745h-140l155 109h84l109 -109h-120l-36 36z" />
<glyph unicode="&#xc3;" d="M165 170l-95 -170h-117l393 700h110l96 -700h-103l-23 170h-261zM375 544l-156 -278h194zM362 859q13 0 26 -1q12 -1 26 -7l38 -16l10 -4q5 -2 10 -2q20 0 30 28h91q-6 -38 -19 -60q-14 -23 -30 -35q-17 -13 -33 -17q-17 -4 -29 -4q-13 0 -25 1q-13 1 -27 7l-38 16l-10 4 q-5 2 -10 2q-20 0 -30 -28h-91q6 37 20 60q13 23 30 36q16 12 33 16q16 4 28 4z" />
<glyph unicode="&#xc4;" d="M165 170l-95 -170h-117l393 700h110l96 -700h-103l-23 170h-261zM375 544l-156 -278h194zM261 746l23 107h107l-23 -107h-107zM452 746l23 107h107l-23 -107h-107z" />
<glyph unicode="&#xc5;" d="M165 170l-95 -170h-117l393 700h110l96 -700h-103l-23 170h-261zM375 544l-156 -278h194zM348 799q0 31 22 53q21 22 52 22t53 -22t22 -53t-22 -52q-22 -22 -53 -22t-52 22q-22 21 -22 52zM401 799q0 -9 6 -15t15 -6t15 6t6 15t-6 15t-15 6t-15 -6t-6 -15z" />
<glyph unicode="&#xc6;" horiz-adv-x="858" d="M455 575l-207 -309h141zM369 170h-186l-114 -170h-123l470 700h477l-22 -103h-305l-41 -192h306l-22 -103h-306l-42 -199h306l-22 -103h-412z" />
<glyph unicode="&#xc7;" horiz-adv-x="596" d="M496 492q0 59 -38 87t-93 28q-26 0 -51 -7q-25 -8 -46 -25q-22 -17 -38 -43q-17 -27 -25 -64q-17 -77 -27 -123q-11 -47 -17 -74q-6 -28 -8 -41t-2 -22q0 -59 38 -87t93 -28q24 0 48 7t45 22t38 39q16 23 25 56h108q-29 -118 -98 -172q-69 -55 -179 -55q-47 0 -87 15 q-41 14 -71 41q-30 26 -47 64q-17 37 -17 82q0 19 3 40q2 20 8 50t16 75q9 44 24 111q27 125 97 184q69 58 183 58q47 0 88 -14q40 -15 70 -41q30 -27 47 -64q17 -38 17 -83v-10q0 -5 -1 -15h-103v9zM315 0l-38 -158h-115l60 158h93z" />
<glyph unicode="&#xc8;" horiz-adv-x="544" d="M517 405l-22 -103h-306l-42 -199h306l-22 -103h-412l148 700h412l-22 -103h-305l-41 -192h306zM432 745h-86l-105 109h132z" />
<glyph unicode="&#xc9;" horiz-adv-x="544" d="M517 405l-22 -103h-306l-42 -199h306l-22 -103h-412l148 700h412l-22 -103h-305l-41 -192h306zM400 745h-91l82 109h137z" />
<glyph unicode="&#xca;" horiz-adv-x="544" d="M517 405l-22 -103h-306l-42 -199h306l-22 -103h-412l148 700h412l-22 -103h-305l-41 -192h306zM348 745h-140l155 109h84l109 -109h-120l-36 36z" />
<glyph unicode="&#xcb;" horiz-adv-x="544" d="M517 405l-22 -103h-306l-42 -199h306l-22 -103h-412l148 700h412l-22 -103h-305l-41 -192h306zM233 746l23 107h107l-23 -107h-107zM424 746l23 107h107l-23 -107h-107z" />
<glyph unicode="&#xcc;" horiz-adv-x="255" d="M19 0l148 700h107l-148 -700h-107zM279 745h-86l-105 109h132z" />
<glyph unicode="&#xcd;" horiz-adv-x="255" d="M19 0l148 700h107l-148 -700h-107zM248 745h-91l82 109h137z" />
<glyph unicode="&#xce;" horiz-adv-x="255" d="M19 0l148 700h107l-148 -700h-107zM196 745h-140l155 109h84l109 -109h-120l-36 36z" />
<glyph unicode="&#xcf;" horiz-adv-x="255" d="M19 0l148 700h107l-148 -700h-107zM81 746l23 107h107l-23 -107h-107zM272 746l23 107h107l-23 -107h-107z" />
<glyph unicode="&#xd0;" horiz-adv-x="639" d="M96 315h-69l15 71h69l67 314h229q47 0 88 -14q40 -15 70 -41q30 -27 47 -64q17 -38 17 -83q0 -20 -2 -37t-7 -43q-5 -27 -14 -68t-24 -108q-27 -125 -96 -183q-70 -59 -184 -59h-272zM315 103q26 0 51 8q25 7 47 24q21 17 38 43q16 26 24 64q16 76 26 120t16 68 q5 24 7 34q1 9 1 18q0 59 -38 87t-93 28h-131l-45 -211h145l-15 -71h-145l-45 -212h157z" />
<glyph unicode="&#xd1;" horiz-adv-x="649" d="M413 0l-178 515l-110 -515h-106l148 700h107l178 -514l110 514h107l-149 -700h-107zM379 859q13 0 26 -1q12 -1 26 -7l38 -16l10 -4q5 -2 10 -2q20 0 30 28h91q-6 -38 -19 -60q-14 -23 -30 -35q-17 -13 -33 -17q-17 -4 -29 -4q-13 0 -25 1q-13 1 -27 7l-38 16l-10 4 q-5 2 -10 2q-20 0 -30 -28h-91q6 37 20 60q13 23 30 36q16 12 33 16q16 4 28 4z" />
<glyph unicode="&#xd2;" horiz-adv-x="608" d="M205 468q-17 -77 -27 -123q-11 -47 -17 -74q-6 -28 -8 -41t-2 -22q0 -59 38 -87t93 -28q26 0 51 8q25 7 47 24q21 17 38 43q16 26 24 64q16 76 27 123q10 47 16 75q6 27 9 40q2 13 2 22q0 59 -38 87t-93 28q-26 0 -51 -7q-25 -8 -46 -25q-22 -17 -38 -43q-17 -27 -25 -64 zM549 232q-27 -125 -96 -183q-70 -59 -184 -59q-47 0 -87 15q-41 14 -71 41q-30 26 -47 64q-17 37 -17 82q0 19 3 40q2 20 8 50t16 75q9 44 24 111q27 125 97 184q69 58 183 58q47 0 88 -14q40 -15 70 -41q30 -27 47 -64q17 -38 17 -83q0 -20 -2 -40q-3 -20 -9 -50t-15 -74 q-10 -45 -25 -112zM457 745h-86l-105 109h132z" />
<glyph unicode="&#xd3;" horiz-adv-x="608" d="M205 468q-17 -77 -27 -123q-11 -47 -17 -74q-6 -28 -8 -41t-2 -22q0 -59 38 -87t93 -28q26 0 51 8q25 7 47 24q21 17 38 43q16 26 24 64q16 76 27 123q10 47 16 75q6 27 9 40q2 13 2 22q0 59 -38 87t-93 28q-26 0 -51 -7q-25 -8 -46 -25q-22 -17 -38 -43q-17 -27 -25 -64 zM549 232q-27 -125 -96 -183q-70 -59 -184 -59q-47 0 -87 15q-41 14 -71 41q-30 26 -47 64q-17 37 -17 82q0 19 3 40q2 20 8 50t16 75q9 44 24 111q27 125 97 184q69 58 183 58q47 0 88 -14q40 -15 70 -41q30 -27 47 -64q17 -38 17 -83q0 -20 -2 -40q-3 -20 -9 -50t-15 -74 q-10 -45 -25 -112zM426 745h-91l82 109h137z" />
<glyph unicode="&#xd4;" horiz-adv-x="608" d="M205 468q-17 -77 -27 -123q-11 -47 -17 -74q-6 -28 -8 -41t-2 -22q0 -59 38 -87t93 -28q26 0 51 8q25 7 47 24q21 17 38 43q16 26 24 64q16 76 27 123q10 47 16 75q6 27 9 40q2 13 2 22q0 59 -38 87t-93 28q-26 0 -51 -7q-25 -8 -46 -25q-22 -17 -38 -43q-17 -27 -25 -64 zM549 232q-27 -125 -96 -183q-70 -59 -184 -59q-47 0 -87 15q-41 14 -71 41q-30 26 -47 64q-17 37 -17 82q0 19 3 40q2 20 8 50t16 75q9 44 24 111q27 125 97 184q69 58 183 58q47 0 88 -14q40 -15 70 -41q30 -27 47 -64q17 -38 17 -83q0 -20 -2 -40q-3 -20 -9 -50t-15 -74 q-10 -45 -25 -112zM375 745h-140l155 109h84l109 -109h-120l-36 36z" />
<glyph unicode="&#xd5;" horiz-adv-x="608" d="M205 468q-17 -77 -27 -123q-11 -47 -17 -74q-6 -28 -8 -41t-2 -22q0 -59 38 -87t93 -28q26 0 51 8q25 7 47 24q21 17 38 43q16 26 24 64q16 76 27 123q10 47 16 75q6 27 9 40q2 13 2 22q0 59 -38 87t-93 28q-26 0 -51 -7q-25 -8 -46 -25q-22 -17 -38 -43q-17 -27 -25 -64 zM549 232q-27 -125 -96 -183q-70 -59 -184 -59q-47 0 -87 15q-41 14 -71 41q-30 26 -47 64q-17 37 -17 82q0 19 3 40q2 20 8 50t16 75q9 44 24 111q27 125 97 184q69 58 183 58q47 0 88 -14q40 -15 70 -41q30 -27 47 -64q17 -38 17 -83q0 -20 -2 -40q-3 -20 -9 -50t-15 -74 q-10 -45 -25 -112zM359 859q13 0 26 -1q12 -1 26 -7l38 -16l10 -4q5 -2 10 -2q20 0 30 28h91q-6 -38 -19 -60q-14 -23 -30 -35q-17 -13 -33 -17q-17 -4 -29 -4q-13 0 -25 1q-13 1 -27 7l-38 16l-10 4q-5 2 -10 2q-20 0 -30 -28h-91q6 37 20 60q13 23 30 36q16 12 33 16 q16 4 28 4z" />
<glyph unicode="&#xd6;" horiz-adv-x="608" d="M205 468q-17 -77 -27 -123q-11 -47 -17 -74q-6 -28 -8 -41t-2 -22q0 -59 38 -87t93 -28q26 0 51 8q25 7 47 24q21 17 38 43q16 26 24 64q16 76 27 123q10 47 16 75q6 27 9 40q2 13 2 22q0 59 -38 87t-93 28q-26 0 -51 -7q-25 -8 -46 -25q-22 -17 -38 -43q-17 -27 -25 -64 zM549 232q-27 -125 -96 -183q-70 -59 -184 -59q-47 0 -87 15q-41 14 -71 41q-30 26 -47 64q-17 37 -17 82q0 19 3 40q2 20 8 50t16 75q9 44 24 111q27 125 97 184q69 58 183 58q47 0 88 -14q40 -15 70 -41q30 -27 47 -64q17 -38 17 -83q0 -20 -2 -40q-3 -20 -9 -50t-15 -74 q-10 -45 -25 -112zM259 746l23 107h107l-23 -107h-107zM450 746l23 107h107l-23 -107h-107z" />
<glyph unicode="&#xd7;" horiz-adv-x="558" d="M66 435l64 65l154 -155l154 155l64 -65l-154 -154l154 -154l-64 -65l-154 154l-154 -154l-64 65l153 154z" />
<glyph unicode="&#xd8;" horiz-adv-x="614" d="M552 232q-27 -125 -96 -183q-70 -59 -184 -59q-46 0 -85 14q-40 13 -69 38l-58 -70l-57 43l69 84q-22 42 -22 93q0 19 3 40q2 20 8 50t16 75q9 44 24 111q27 125 97 184q69 58 183 58q45 0 84 -13q39 -14 69 -39l58 71l57 -44l-69 -83q23 -43 23 -94q0 -20 -2 -40 q-3 -20 -9 -50t-15 -74q-10 -45 -25 -112zM499 492q0 7 -1 11l-311 -378q18 -17 44 -24q25 -8 54 -8q26 0 51 8q25 7 47 24q21 17 38 43q16 26 24 64q16 76 27 123q10 47 16 75q6 27 9 40q2 13 2 22zM208 468q-17 -77 -27 -123q-11 -47 -17 -74q-6 -28 -8 -41t-2 -22v-10 l311 377q-18 17 -43 25q-25 7 -54 7q-26 0 -51 -7q-25 -8 -46 -25q-22 -17 -38 -43q-17 -27 -25 -64z" />
<glyph unicode="&#xd9;" horiz-adv-x="630" d="M161 208q0 -59 38 -87t93 -28q26 0 51 8q25 7 47 24t38 43t24 64l100 468h107l-100 -468q-26 -125 -96 -183q-70 -59 -184 -59q-47 0 -87 15q-41 14 -71 41q-30 26 -47 64q-17 37 -17 82q0 25 11 82q10 57 25 130q15 72 33 151q17 78 32 145h107q-11 -51 -23 -105 t-23 -106q-12 -53 -22 -100q-11 -48 -19 -85q-8 -38 -12 -63q-5 -26 -5 -33zM467 745h-86l-105 109h132z" />
<glyph unicode="&#xda;" horiz-adv-x="630" d="M161 208q0 -59 38 -87t93 -28q26 0 51 8q25 7 47 24t38 43t24 64l100 468h107l-100 -468q-26 -125 -96 -183q-70 -59 -184 -59q-47 0 -87 15q-41 14 -71 41q-30 26 -47 64q-17 37 -17 82q0 25 11 82q10 57 25 130q15 72 33 151q17 78 32 145h107q-11 -51 -23 -105 t-23 -106q-12 -53 -22 -100q-11 -48 -19 -85q-8 -38 -12 -63q-5 -26 -5 -33zM435 745h-91l82 109h137z" />
<glyph unicode="&#xdb;" horiz-adv-x="630" d="M161 208q0 -59 38 -87t93 -28q26 0 51 8q25 7 47 24t38 43t24 64l100 468h107l-100 -468q-26 -125 -96 -183q-70 -59 -184 -59q-47 0 -87 15q-41 14 -71 41q-30 26 -47 64q-17 37 -17 82q0 25 11 82q10 57 25 130q15 72 33 151q17 78 32 145h107q-11 -51 -23 -105 t-23 -106q-12 -53 -22 -100q-11 -48 -19 -85q-8 -38 -12 -63q-5 -26 -5 -33zM383 745h-140l155 109h84l109 -109h-120l-36 36z" />
<glyph unicode="&#xdc;" horiz-adv-x="630" d="M161 208q0 -59 38 -87t93 -28q26 0 51 8q25 7 47 24t38 43t24 64l100 468h107l-100 -468q-26 -125 -96 -183q-70 -59 -184 -59q-47 0 -87 15q-41 14 -71 41q-30 26 -47 64q-17 37 -17 82q0 25 11 82q10 57 25 130q15 72 33 151q17 78 32 145h107q-11 -51 -23 -105 t-23 -106q-12 -53 -22 -100q-11 -48 -19 -85q-8 -38 -12 -63q-5 -26 -5 -33zM268 746l23 107h107l-23 -107h-107zM459 746l23 107h107l-23 -107h-107z" />
<glyph unicode="&#xdd;" horiz-adv-x="594" d="M295 0h-107l57 267l-154 433h107l113 -322l252 322h128l-339 -433zM418 745h-91l82 109h137z" />
<glyph unicode="&#xde;" horiz-adv-x="589" d="M173 225h165q33 0 62 9t50 27q21 17 33 43t12 60q0 20 -6 40q-7 20 -21 37q-14 16 -36 26t-52 10h-153zM19 0l148 700h107l-26 -122h153q45 0 82 -17q36 -17 62 -44q26 -28 40 -64t14 -75q0 -126 -71 -191q-72 -65 -212 -65h-165l-26 -122h-106z" />
<glyph unicode="&#xdf;" horiz-adv-x="541" d="M123 515q11 52 28 90q17 37 44 60q26 23 62 34t85 11q32 0 62 -9q30 -10 53 -29q23 -20 37 -49q13 -30 13 -69q0 -45 -17 -94q-18 -50 -57 -85q26 -26 42 -57q16 -32 16 -76q0 -58 -15 -104q-16 -47 -48 -80q-33 -33 -82 -50q-49 -18 -116 -18q-25 0 -50 5l23 105 q9 -5 21 -8t28 -3q62 0 100 39q37 39 37 101q0 19 -6 37q-7 17 -19 31q-13 13 -32 22q-20 8 -46 8h-36l21 95h22q25 0 46 10q20 10 35 27t23 40q8 22 8 47q0 29 -20 47q-21 18 -54 18q-45 0 -69 -26q-25 -26 -34 -70l-110 -515h-104z" />
<glyph unicode="&#xe0;" horiz-adv-x="545" d="M74 356q12 42 31 75q18 32 46 54t67 34q38 11 90 11q39 0 73 -11t60 -32q25 -22 40 -53q15 -32 15 -72q0 -41 -8 -81q-9 -41 -20 -89l-41 -192h-105l13 59q-18 -27 -56 -48t-89 -21q-81 0 -126 41t-45 106q0 32 7 58q7 25 24 45q16 20 43 35q26 14 66 25q50 13 108 18 q58 4 124 6q2 7 3 14v9q0 38 -25 61q-26 23 -74 23q-41 0 -70 -20q-30 -21 -44 -55h-107zM204 89q22 0 48 5q25 5 48 18q23 12 41 35q17 23 25 59l5 25q-35 -2 -62 -3t-49 -3q-23 -2 -41 -5q-19 -4 -37 -9q-27 -8 -44 -22t-17 -41q0 -31 23 -45t60 -14zM383 571h-79l-91 129 h130z" />
<glyph unicode="&#xe1;" horiz-adv-x="545" d="M74 356q12 42 31 75q18 32 46 54t67 34q38 11 90 11q39 0 73 -11t60 -32q25 -22 40 -53q15 -32 15 -72q0 -41 -8 -81q-9 -41 -20 -89l-41 -192h-105l13 59q-18 -27 -56 -48t-89 -21q-81 0 -126 41t-45 106q0 32 7 58q7 25 24 45q16 20 43 35q26 14 66 25q50 13 108 18 q58 4 124 6q2 7 3 14v9q0 38 -25 61q-26 23 -74 23q-41 0 -70 -20q-30 -21 -44 -55h-107zM204 89q22 0 48 5q25 5 48 18q23 12 41 35q17 23 25 59l5 25q-35 -2 -62 -3t-49 -3q-23 -2 -41 -5q-19 -4 -37 -9q-27 -8 -44 -22t-17 -41q0 -31 23 -45t60 -14zM348 571h-84l67 129 h135z" />
<glyph unicode="&#xe2;" horiz-adv-x="545" d="M74 356q12 42 31 75q18 32 46 54t67 34q38 11 90 11q39 0 73 -11t60 -32q25 -22 40 -53q15 -32 15 -72q0 -41 -8 -81q-9 -41 -20 -89l-41 -192h-105l13 59q-18 -27 -56 -48t-89 -21q-81 0 -126 41t-45 106q0 32 7 58q7 25 24 45q16 20 43 35q26 14 66 25q50 13 108 18 q58 4 124 6q2 7 3 14v9q0 38 -25 61q-26 23 -74 23q-41 0 -70 -20q-30 -21 -44 -55h-107zM204 89q22 0 48 5q25 5 48 18q23 12 41 35q17 23 25 59l5 25q-35 -2 -62 -3t-49 -3q-23 -2 -41 -5q-19 -4 -37 -9q-27 -8 -44 -22t-17 -41q0 -31 23 -45t60 -14zM409 571l-45 56 l-69 -56h-128l159 129h84l105 -129h-106z" />
<glyph unicode="&#xe3;" horiz-adv-x="545" d="M74 356q12 42 31 75q18 32 46 54t67 34q38 11 90 11q39 0 73 -11t60 -32q25 -22 40 -53q15 -32 15 -72q0 -41 -8 -81q-9 -41 -20 -89l-41 -192h-105l13 59q-18 -27 -56 -48t-89 -21q-81 0 -126 41t-45 106q0 32 7 58q7 25 24 45q16 20 43 35q26 14 66 25q50 13 108 18 q58 4 124 6q2 7 3 14v9q0 38 -25 61q-26 23 -74 23q-41 0 -70 -20q-30 -21 -44 -55h-107zM204 89q22 0 48 5q25 5 48 18q23 12 41 35q17 23 25 59l5 25q-35 -2 -62 -3t-49 -3q-23 -2 -41 -5q-19 -4 -37 -9q-27 -8 -44 -22t-17 -41q0 -31 23 -45t60 -14zM183 579q6 37 20 60 q13 23 30 36q16 12 33 16q16 4 28 4q13 0 26 -1q12 -2 26 -8l38 -16q5 -2 12 -4q7 -3 15 -3q9 0 17 7q7 6 13 23h84q-6 -38 -19 -60q-14 -23 -30 -35q-17 -13 -33 -17q-17 -4 -29 -4q-13 0 -25 2q-13 1 -27 7l-38 16q-5 2 -12 5q-7 2 -15 2q-9 0 -16 -6q-8 -7 -14 -24h-84z " />
<glyph unicode="&#xe4;" horiz-adv-x="545" d="M74 356q12 42 31 75q18 32 46 54t67 34q38 11 90 11q39 0 73 -11t60 -32q25 -22 40 -53q15 -32 15 -72q0 -41 -8 -81q-9 -41 -20 -89l-41 -192h-105l13 59q-18 -27 -56 -48t-89 -21q-81 0 -126 41t-45 106q0 32 7 58q7 25 24 45q16 20 43 35q26 14 66 25q50 13 108 18 q58 4 124 6q2 7 3 14v9q0 38 -25 61q-26 23 -74 23q-41 0 -70 -20q-30 -21 -44 -55h-107zM204 89q22 0 48 5q25 5 48 18q23 12 41 35q17 23 25 59l5 25q-35 -2 -62 -3t-49 -3q-23 -2 -41 -5q-19 -4 -37 -9q-27 -8 -44 -22t-17 -41q0 -31 23 -45t60 -14zM194 582l23 107h105 l-23 -107h-105zM387 582l23 107h105l-23 -107h-105z" />
<glyph unicode="&#xe5;" horiz-adv-x="545" d="M74 356q12 42 31 75q18 32 46 54t67 34q38 11 90 11q39 0 73 -11t60 -32q25 -22 40 -53q15 -32 15 -72q0 -41 -8 -81q-9 -41 -20 -89l-41 -192h-105l13 59q-18 -27 -56 -48t-89 -21q-81 0 -126 41t-45 106q0 32 7 58q7 25 24 45q16 20 43 35q26 14 66 25q50 13 108 18 q58 4 124 6q2 7 3 14v9q0 38 -25 61q-26 23 -74 23q-41 0 -70 -20q-30 -21 -44 -55h-107zM204 89q22 0 48 5q25 5 48 18q23 12 41 35q17 23 25 59l5 25q-35 -2 -62 -3t-49 -3q-23 -2 -41 -5q-19 -4 -37 -9q-27 -8 -44 -22t-17 -41q0 -31 23 -45t60 -14zM280 635q0 31 22 53 q21 22 52 22t53 -22t22 -53t-22 -52q-22 -22 -53 -22t-52 22q-22 21 -22 52zM331 635q0 -10 7 -16q6 -7 16 -7t17 7q6 6 6 16t-6 17q-7 6 -17 6t-16 -6q-7 -7 -7 -17z" />
<glyph unicode="&#xe6;" horiz-adv-x="861" d="M308 530q56 0 94 -20q38 -21 58 -49q28 31 71 50q42 19 102 19q39 0 73 -11t60 -32q25 -22 40 -53q15 -32 15 -72q0 -34 -6 -67t-15 -71h-326q-8 -38 -8 -51q0 -38 26 -61q25 -23 73 -23q41 0 71 21q29 20 43 54h107q-23 -85 -77 -129q-54 -45 -157 -45q-57 0 -102 24 q-46 24 -69 69q-7 -11 -23 -26q-16 -16 -40 -31t-56 -25q-32 -11 -72 -11q-81 0 -126 41t-45 106q0 32 7 58q7 25 24 45q16 20 43 35q26 14 66 25q50 13 108 18q58 4 124 6q2 7 3 14v9q0 38 -25 61q-26 23 -74 23q-41 0 -70 -20q-30 -21 -44 -55h-107q12 42 31 75 q18 32 46 54t67 34q38 11 90 11zM204 89q22 0 48 5q25 5 48 18q23 12 41 35q17 23 25 59l5 25q-35 -2 -62 -3t-49 -3q-23 -2 -41 -5q-19 -4 -37 -9q-27 -8 -44 -22t-17 -41q0 -31 23 -45t60 -14zM714 315q5 25 5 32q0 38 -25 61q-26 23 -74 23q-28 0 -50 -9q-22 -10 -37 -26 q-16 -16 -26 -37t-13 -44h220z" />
<glyph unicode="&#xe7;" horiz-adv-x="529" d="M397 344v4q0 38 -25 61q-26 22 -74 22t-79 -27q-32 -28 -43 -73q-3 -14 -8 -38q-6 -24 -11 -48q-6 -25 -9 -45q-4 -20 -4 -27q0 -38 26 -61q25 -23 73 -23q44 0 75 24q30 24 43 63h106q-11 -45 -29 -80q-19 -35 -47 -58q-28 -24 -67 -36q-40 -12 -94 -12q-39 0 -73 11 t-59 33q-26 21 -41 53q-15 31 -15 71q0 41 9 82q8 40 19 88q10 49 29 87q18 38 47 64q28 25 69 38q40 13 96 13q39 0 73 -11t60 -32q25 -22 40 -53q15 -32 15 -72v-18h-102zM275 0l-38 -158h-113l65 158h86z" />
<glyph unicode="&#xe8;" horiz-adv-x="539" d="M464 164q-23 -85 -77 -129q-54 -45 -157 -45q-39 0 -73 11t-59 33q-26 21 -41 53q-15 31 -15 71q0 41 9 82q8 40 19 88q10 49 29 87q18 38 47 64q28 25 69 38q40 13 96 13q39 0 73 -11t60 -32q25 -22 40 -53q15 -32 15 -72q0 -34 -6 -67t-15 -71h-326q-8 -38 -8 -51 q0 -38 26 -61q25 -23 73 -23q41 0 71 21q29 20 43 54h107zM392 315q5 25 5 32q0 38 -25 61q-26 23 -74 23q-28 0 -50 -9q-22 -10 -37 -26q-16 -16 -26 -37t-13 -44h220zM389 571h-79l-91 129h130z" />
<glyph unicode="&#xe9;" horiz-adv-x="539" d="M464 164q-23 -85 -77 -129q-54 -45 -157 -45q-39 0 -73 11t-59 33q-26 21 -41 53q-15 31 -15 71q0 41 9 82q8 40 19 88q10 49 29 87q18 38 47 64q28 25 69 38q40 13 96 13q39 0 73 -11t60 -32q25 -22 40 -53q15 -32 15 -72q0 -34 -6 -67t-15 -71h-326q-8 -38 -8 -51 q0 -38 26 -61q25 -23 73 -23q41 0 71 21q29 20 43 54h107zM392 315q5 25 5 32q0 38 -25 61q-26 23 -74 23q-28 0 -50 -9q-22 -10 -37 -26q-16 -16 -26 -37t-13 -44h220zM355 571h-84l67 129h135z" />
<glyph unicode="&#xea;" horiz-adv-x="539" d="M464 164q-23 -85 -77 -129q-54 -45 -157 -45q-39 0 -73 11t-59 33q-26 21 -41 53q-15 31 -15 71q0 41 9 82q8 40 19 88q10 49 29 87q18 38 47 64q28 25 69 38q40 13 96 13q39 0 73 -11t60 -32q25 -22 40 -53q15 -32 15 -72q0 -34 -6 -67t-15 -71h-326q-8 -38 -8 -51 q0 -38 26 -61q25 -23 73 -23q41 0 71 21q29 20 43 54h107zM392 315q5 25 5 32q0 38 -25 61q-26 23 -74 23q-28 0 -50 -9q-22 -10 -37 -26q-16 -16 -26 -37t-13 -44h220zM405 571l-45 56l-69 -56h-128l159 129h84l105 -129h-106z" />
<glyph unicode="&#xeb;" horiz-adv-x="539" d="M464 164q-23 -85 -77 -129q-54 -45 -157 -45q-39 0 -73 11t-59 33q-26 21 -41 53q-15 31 -15 71q0 41 9 82q8 40 19 88q10 49 29 87q18 38 47 64q28 25 69 38q40 13 96 13q39 0 73 -11t60 -32q25 -22 40 -53q15 -32 15 -72q0 -34 -6 -67t-15 -71h-326q-8 -38 -8 -51 q0 -38 26 -61q25 -23 73 -23q41 0 71 21q29 20 43 54h107zM392 315q5 25 5 32q0 38 -25 61q-26 23 -74 23q-28 0 -50 -9q-22 -10 -37 -26q-16 -16 -26 -37t-13 -44h220zM189 582l23 107h105l-23 -107h-105zM382 582l23 107h105l-23 -107h-105z" />
<glyph unicode="&#xec;" horiz-adv-x="243" d="M15 0l109 516h105l-109 -516h-105zM240 571h-79l-91 129h130z" />
<glyph unicode="&#xed;" horiz-adv-x="243" d="M15 0l109 516h105l-109 -516h-105zM205 571h-84l67 129h135z" />
<glyph unicode="&#xee;" horiz-adv-x="243" d="M15 0l109 516h105l-109 -516h-105zM257 571l-45 56l-69 -56h-128l159 129h84l105 -129h-106z" />
<glyph unicode="&#xef;" horiz-adv-x="243" d="M15 0l109 516h105l-109 -516h-105zM42 582l23 107h105l-23 -107h-105zM235 582l23 107h105l-23 -107h-105z" />
<glyph unicode="&#xf0;" horiz-adv-x="541" d="M471 192q-11 -49 -29 -87t-46 -63q-29 -26 -69 -39q-41 -13 -97 -13q-39 0 -73 11t-59 33q-26 21 -41 53q-15 31 -15 71q0 41 9 82q8 40 19 88q10 49 29 87q18 38 47 64q28 25 69 38q40 13 96 13h9l-24 45h-136l14 66h88l-30 59h115l30 -59h99l-14 -66h-51l70 -135 q18 -35 18 -78q0 -41 -8 -81q-9 -41 -20 -89zM176 331q-3 -14 -8 -38q-6 -24 -11 -48q-6 -25 -9 -45q-4 -20 -4 -27q0 -38 26 -61q25 -23 73 -23t80 28q31 27 42 72q3 14 9 38q5 24 11 49q5 24 9 44q3 20 3 27q0 38 -25 61q-26 23 -74 23t-79 -27q-32 -28 -43 -73z" />
<glyph unicode="&#xf1;" horiz-adv-x="562" d="M340 530q34 0 66 -11q31 -12 55 -33q24 -22 38 -53q14 -32 14 -71q0 -41 -8 -81q-9 -41 -20 -89l-41 -192h-105l40 189q3 14 9 38q5 24 10 49q5 24 9 44t4 27q0 38 -25 61q-26 23 -74 23t-80 -27q-32 -28 -42 -73l-71 -331h-105l110 516h105l-11 -49q15 24 48 44 q32 19 74 19zM194 579q6 37 20 60q13 23 30 36q16 12 33 16q16 4 28 4q13 0 26 -1q12 -2 26 -8l38 -16q5 -2 12 -4q7 -3 15 -3q9 0 17 7q7 6 13 23h84q-6 -38 -19 -60q-14 -23 -30 -35q-17 -13 -33 -17q-17 -4 -29 -4q-13 0 -25 2q-13 1 -27 7l-38 16q-5 2 -12 5q-7 2 -15 2 q-9 0 -16 -6q-8 -7 -14 -24h-84z" />
<glyph unicode="&#xf2;" horiz-adv-x="541" d="M176 331q-3 -14 -8 -38q-6 -24 -11 -48q-6 -25 -9 -45q-4 -20 -4 -27q0 -38 26 -61q25 -23 73 -23t80 28q31 27 42 72q3 14 9 38q5 24 11 49q5 24 9 44q3 20 3 27q0 38 -25 61q-26 23 -74 23t-79 -27q-32 -28 -43 -73zM471 192q-11 -49 -29 -87t-46 -63q-29 -26 -69 -39 q-41 -13 -97 -13q-39 0 -73 11t-59 33q-26 21 -41 53q-15 31 -15 71q0 41 9 82q8 40 19 88q10 49 29 87q18 38 47 64q28 25 69 38q40 13 96 13q39 0 73 -11t60 -32q25 -22 40 -53q15 -32 15 -72q0 -41 -8 -81q-9 -41 -20 -89zM389 571h-79l-91 129h130z" />
<glyph unicode="&#xf3;" horiz-adv-x="541" d="M176 331q-3 -14 -8 -38q-6 -24 -11 -48q-6 -25 -9 -45q-4 -20 -4 -27q0 -38 26 -61q25 -23 73 -23t80 28q31 27 42 72q3 14 9 38q5 24 11 49q5 24 9 44q3 20 3 27q0 38 -25 61q-26 23 -74 23t-79 -27q-32 -28 -43 -73zM471 192q-11 -49 -29 -87t-46 -63q-29 -26 -69 -39 q-41 -13 -97 -13q-39 0 -73 11t-59 33q-26 21 -41 53q-15 31 -15 71q0 41 9 82q8 40 19 88q10 49 29 87q18 38 47 64q28 25 69 38q40 13 96 13q39 0 73 -11t60 -32q25 -22 40 -53q15 -32 15 -72q0 -41 -8 -81q-9 -41 -20 -89zM354 571h-84l67 129h135z" />
<glyph unicode="&#xf4;" horiz-adv-x="541" d="M176 331q-3 -14 -8 -38q-6 -24 -11 -48q-6 -25 -9 -45q-4 -20 -4 -27q0 -38 26 -61q25 -23 73 -23t80 28q31 27 42 72q3 14 9 38q5 24 11 49q5 24 9 44q3 20 3 27q0 38 -25 61q-26 23 -74 23t-79 -27q-32 -28 -43 -73zM471 192q-11 -49 -29 -87t-46 -63q-29 -26 -69 -39 q-41 -13 -97 -13q-39 0 -73 11t-59 33q-26 21 -41 53q-15 31 -15 71q0 41 9 82q8 40 19 88q10 49 29 87q18 38 47 64q28 25 69 38q40 13 96 13q39 0 73 -11t60 -32q25 -22 40 -53q15 -32 15 -72q0 -41 -8 -81q-9 -41 -20 -89zM405 571l-45 56l-69 -56h-128l159 129h84 l105 -129h-106z" />
<glyph unicode="&#xf5;" horiz-adv-x="541" d="M176 331q-3 -14 -8 -38q-6 -24 -11 -48q-6 -25 -9 -45q-4 -20 -4 -27q0 -38 26 -61q25 -23 73 -23t80 28q31 27 42 72q3 14 9 38q5 24 11 49q5 24 9 44q3 20 3 27q0 38 -25 61q-26 23 -74 23t-79 -27q-32 -28 -43 -73zM471 192q-11 -49 -29 -87t-46 -63q-29 -26 -69 -39 q-41 -13 -97 -13q-39 0 -73 11t-59 33q-26 21 -41 53q-15 31 -15 71q0 41 9 82q8 40 19 88q10 49 29 87q18 38 47 64q28 25 69 38q40 13 96 13q39 0 73 -11t60 -32q25 -22 40 -53q15 -32 15 -72q0 -41 -8 -81q-9 -41 -20 -89zM179 579q6 37 20 60q13 23 30 36q16 12 33 16 q16 4 28 4q13 0 26 -1q12 -2 26 -8l38 -16q5 -2 12 -4q7 -3 15 -3q9 0 17 7q7 6 13 23h84q-6 -38 -19 -60q-14 -23 -30 -35q-17 -13 -33 -17q-17 -4 -29 -4q-13 0 -25 2q-13 1 -27 7l-38 16q-5 2 -12 5q-7 2 -15 2q-9 0 -16 -6q-8 -7 -14 -24h-84z" />
<glyph unicode="&#xf6;" horiz-adv-x="541" d="M176 331q-3 -14 -8 -38q-6 -24 -11 -48q-6 -25 -9 -45q-4 -20 -4 -27q0 -38 26 -61q25 -23 73 -23t80 28q31 27 42 72q3 14 9 38q5 24 11 49q5 24 9 44q3 20 3 27q0 38 -25 61q-26 23 -74 23t-79 -27q-32 -28 -43 -73zM471 192q-11 -49 -29 -87t-46 -63q-29 -26 -69 -39 q-41 -13 -97 -13q-39 0 -73 11t-59 33q-26 21 -41 53q-15 31 -15 71q0 41 9 82q8 40 19 88q10 49 29 87q18 38 47 64q28 25 69 38q40 13 96 13q39 0 73 -11t60 -32q25 -22 40 -53q15 -32 15 -72q0 -41 -8 -81q-9 -41 -20 -89zM189 582l23 107h105l-23 -107h-105zM382 582 l23 107h105l-23 -107h-105z" />
<glyph unicode="&#xf7;" horiz-adv-x="558" d="M217 454q0 28 20 48q19 19 47 19t48 -19q19 -20 19 -48t-19 -47q-20 -20 -48 -20t-47 20q-20 19 -20 47zM217 107q0 28 20 48q19 19 47 19t48 -19q19 -20 19 -48t-19 -47q-20 -20 -48 -20t-47 20q-20 19 -20 47zM499 235h-430v91h430v-91z" />
<glyph unicode="&#xf8;" horiz-adv-x="547" d="M474 192q-11 -49 -29 -87t-46 -63q-29 -26 -69 -39q-41 -13 -97 -13q-37 0 -69 9q-33 10 -59 30l-49 -53l-50 42l57 62q-18 33 -18 78q0 41 9 82q8 40 19 88q10 49 29 87q18 38 47 64q28 25 69 38q40 13 96 13q76 0 127 -40l50 54l50 -42l-57 -62q8 -17 13 -36 q5 -20 5 -42q0 -41 -8 -81q-9 -41 -20 -89zM179 331q-3 -14 -8 -38q-6 -24 -11 -48q-6 -25 -9 -45q-4 -20 -4 -27v-2l222 241q-25 19 -68 19q-48 0 -79 -27q-32 -28 -43 -73zM368 189q3 14 9 38q5 24 11 49q5 24 9 44q3 20 3 27v2l-223 -241q25 -19 69 -19q48 0 80 28 q31 27 42 72z" />
<glyph unicode="&#xf9;" horiz-adv-x="557" d="M213 -10q-29 0 -58 12q-29 11 -52 33q-24 21 -38 52q-15 31 -15 71q0 41 9 82q8 40 19 88l40 188h105l-39 -185q-3 -14 -8 -38q-6 -24 -11 -48t-9 -44q-4 -21 -4 -28q0 -39 27 -61q26 -23 65 -23q51 0 83 28q31 28 41 72l70 327h105l-110 -516h-105l12 53q-6 -12 -18 -23 q-13 -11 -29 -20q-17 -9 -37 -15q-21 -5 -43 -5zM394 571h-79l-91 129h130z" />
<glyph unicode="&#xfa;" horiz-adv-x="557" d="M213 -10q-29 0 -58 12q-29 11 -52 33q-24 21 -38 52q-15 31 -15 71q0 41 9 82q8 40 19 88l40 188h105l-39 -185q-3 -14 -8 -38q-6 -24 -11 -48t-9 -44q-4 -21 -4 -28q0 -39 27 -61q26 -23 65 -23q51 0 83 28q31 28 41 72l70 327h105l-110 -516h-105l12 53q-6 -12 -18 -23 q-13 -11 -29 -20q-17 -9 -37 -15q-21 -5 -43 -5zM359 571h-84l67 129h135z" />
<glyph unicode="&#xfb;" horiz-adv-x="557" d="M213 -10q-29 0 -58 12q-29 11 -52 33q-24 21 -38 52q-15 31 -15 71q0 41 9 82q8 40 19 88l40 188h105l-39 -185q-3 -14 -8 -38q-6 -24 -11 -48t-9 -44q-4 -21 -4 -28q0 -39 27 -61q26 -23 65 -23q51 0 83 28q31 28 41 72l70 327h105l-110 -516h-105l12 53q-6 -12 -18 -23 q-13 -11 -29 -20q-17 -9 -37 -15q-21 -5 -43 -5zM410 571l-45 56l-69 -56h-128l159 129h84l105 -129h-106z" />
<glyph unicode="&#xfc;" horiz-adv-x="557" d="M213 -10q-29 0 -58 12q-29 11 -52 33q-24 21 -38 52q-15 31 -15 71q0 41 9 82q8 40 19 88l40 188h105l-39 -185q-3 -14 -8 -38q-6 -24 -11 -48t-9 -44q-4 -21 -4 -28q0 -39 27 -61q26 -23 65 -23q51 0 83 28q31 28 41 72l70 327h105l-110 -516h-105l12 53q-6 -12 -18 -23 q-13 -11 -29 -20q-17 -9 -37 -15q-21 -5 -43 -5zM195 582l23 107h105l-23 -107h-105zM388 582l23 107h105l-23 -107h-105z" />
<glyph unicode="&#xfd;" horiz-adv-x="476" d="M159 516l50 -362l204 362h118l-360 -628q-18 -32 -50 -52t-82 -20h-54l22 99h21q18 0 29 4t19 12q8 9 15 21t16 29l22 38l-74 497h104zM322 571h-84l67 129h135z" />
<glyph unicode="&#xfe;" horiz-adv-x="554" d="M189 331q-3 -14 -8 -38q-6 -24 -11 -48q-6 -25 -9 -45q-4 -20 -4 -27q0 -38 26 -61q25 -23 73 -23t80 28q31 27 42 72q3 14 9 38q5 24 11 49q5 24 9 44q3 20 3 27q0 38 -25 61q-26 23 -74 23t-79 -27q-32 -28 -43 -73zM263 -10q-29 0 -51 7t-37 18q-16 11 -26 25 q-10 13 -16 27l-53 -251h-105l188 884h105l-50 -233q16 26 50 45q34 18 76 18q29 0 59 -11t54 -32q24 -22 40 -53q15 -32 15 -72q0 -41 -8 -81q-9 -41 -20 -89q-22 -99 -77 -150q-56 -52 -144 -52z" />
<glyph unicode="&#xff;" horiz-adv-x="476" d="M159 516l50 -362l204 362h118l-360 -628q-18 -32 -50 -52t-82 -20h-54l22 99h21q18 0 29 4t19 12q8 9 15 21t16 29l22 38l-74 497h104zM158 582l23 107h105l-23 -107h-105zM351 582l23 107h105l-23 -107h-105z" />
<glyph unicode="&#x152;" horiz-adv-x="918" d="M400 36q-20 -21 -57 -33q-38 -13 -74 -13q-47 0 -87 15q-41 14 -71 41q-30 26 -47 64q-17 37 -17 82q0 19 3 40q2 20 8 50t16 75q9 44 24 111q27 125 97 184q69 58 183 58q52 0 92 -20q39 -20 59 -49l12 59h412l-22 -103h-305l-41 -192h306l-22 -103h-306l-42 -199h306 l-22 -103h-412zM205 468q-17 -77 -27 -123q-11 -47 -17 -74q-6 -28 -8 -41t-2 -22q0 -59 38 -87t93 -28q26 0 51 8q25 7 47 24q21 17 38 43q16 26 24 64q16 76 27 123q10 47 16 75q6 27 9 40q2 13 2 22q0 59 -38 87t-93 28q-26 0 -51 -7q-25 -8 -46 -25q-22 -17 -38 -43 q-17 -27 -25 -64z" />
<glyph unicode="&#x153;" horiz-adv-x="865" d="M556 -10q-56 0 -94 21q-39 20 -59 48q-28 -31 -70 -50q-43 -19 -103 -19q-39 0 -73 11t-59 33q-26 21 -41 53q-15 31 -15 71q0 41 9 82q8 40 19 88q10 49 29 87q18 38 47 64q28 25 69 38q40 13 96 13t95 -20q38 -21 58 -49q28 31 71 50q42 19 102 19q39 0 73 -11t60 -32 q25 -22 40 -53q15 -32 15 -72q0 -34 -6 -67t-15 -71h-326q-8 -38 -8 -51q0 -38 26 -61q25 -23 73 -23q41 0 71 21q29 20 43 54h107q-23 -85 -77 -129q-54 -45 -157 -45zM176 331q-3 -14 -8 -38q-6 -24 -11 -48q-6 -25 -9 -45q-4 -20 -4 -27q0 -38 26 -61q25 -23 73 -23 t80 28q31 27 42 72q3 14 9 38q5 24 11 49q5 24 9 44q3 20 3 27q0 38 -25 61q-26 23 -74 23t-79 -27q-32 -28 -43 -73zM718 315q5 25 5 32q0 38 -25 61q-26 23 -74 23q-28 0 -50 -9q-22 -10 -37 -26q-16 -16 -26 -37t-13 -44h220z" />
<glyph unicode="&#x178;" horiz-adv-x="594" d="M295 0h-107l57 267l-154 433h107l113 -322l252 322h128l-339 -433zM251 746l23 107h107l-23 -107h-107zM442 746l23 107h107l-23 -107h-107z" />
<glyph unicode="&#x2c6;" horiz-adv-x="452" d="M360 571l-45 56l-69 -56h-128l159 129h84l105 -129h-106z" />
<glyph unicode="&#x2dc;" horiz-adv-x="452" d="M135 579q6 37 20 60q13 23 30 36q16 12 33 16q16 4 28 4q13 0 26 -1q12 -2 26 -8l38 -16q5 -2 12 -4q7 -3 15 -3q9 0 17 7q7 6 13 23h84q-6 -38 -19 -60q-14 -23 -30 -35q-17 -13 -33 -17q-17 -4 -29 -4q-13 0 -25 2q-13 1 -27 7l-38 16q-5 2 -12 5q-7 2 -15 2 q-9 0 -16 -6q-8 -7 -14 -24h-84z" />
<glyph unicode="&#x2000;" horiz-adv-x="437" />
<glyph unicode="&#x2001;" horiz-adv-x="874" />
<glyph unicode="&#x2002;" horiz-adv-x="437" />
<glyph unicode="&#x2003;" horiz-adv-x="874" />
<glyph unicode="&#x2004;" horiz-adv-x="291" />
<glyph unicode="&#x2005;" horiz-adv-x="218" />
<glyph unicode="&#x2006;" horiz-adv-x="145" />
<glyph unicode="&#x2007;" horiz-adv-x="145" />
<glyph unicode="&#x2008;" horiz-adv-x="109" />
<glyph unicode="&#x2009;" horiz-adv-x="174" />
<glyph unicode="&#x200a;" horiz-adv-x="48" />
<glyph unicode="&#x2010;" horiz-adv-x="388" d="M335 235h-290l19 91h290z" />
<glyph unicode="&#x2011;" horiz-adv-x="388" d="M335 235h-290l19 91h290z" />
<glyph unicode="&#x2012;" horiz-adv-x="388" d="M335 235h-290l19 91h290z" />
<glyph unicode="&#x2013;" horiz-adv-x="528" d="M475 235h-430l19 91h430z" />
<glyph unicode="&#x2014;" horiz-adv-x="833" d="M780 235h-735l19 91h735z" />
<glyph unicode="&#x2018;" horiz-adv-x="258" d="M106 462l29 134l61 104h79l-62 -104h56l-29 -134h-134z" />
<glyph unicode="&#x2019;" horiz-adv-x="258" d="M291 700l-29 -134l-61 -104h-79l61 104h-55l29 134h134z" />
<glyph unicode="&#x201a;" horiz-adv-x="258" d="M170 134l-29 -134l-61 -104h-79l61 104h-55l29 134h134z" />
<glyph unicode="&#x201c;" horiz-adv-x="459" d="M106 462l29 134l61 104h79l-62 -104h56l-29 -134h-134zM307 462l29 134l61 104h79l-62 -104h56l-29 -134h-134z" />
<glyph unicode="&#x201d;" horiz-adv-x="459" d="M291 700l-29 -134l-61 -104h-79l61 104h-55l29 134h134zM492 700l-29 -134l-61 -104h-79l61 104h-55l29 134h134z" />
<glyph unicode="&#x201e;" horiz-adv-x="459" d="M170 134l-29 -134l-61 -104h-79l61 104h-55l29 134h134zM371 134l-29 -134l-61 -104h-79l61 104h-55l29 134h134z" />
<glyph unicode="&#x2022;" horiz-adv-x="800" d="M251 298q0 35 13 66q13 30 36 53t54 36q30 13 65 13t66 -13q30 -13 53 -36t36 -53q13 -31 13 -66t-13 -65q-13 -31 -36 -54t-53 -36q-31 -13 -66 -13t-65 13q-31 13 -54 36t-36 54q-13 30 -13 65z" />
<glyph unicode="&#x2026;" horiz-adv-x="835" d="M458 134l-29 -134h-134l29 134h134zM736 134l-29 -134h-134l29 134h134zM181 134l-29 -134h-134l29 134h134z" />
<glyph unicode="&#x202f;" horiz-adv-x="174" />
<glyph unicode="&#x2039;" horiz-adv-x="282" d="M59 320l205 151l-29 -135l-100 -74l68 -74l-24 -113l-139 151z" />
<glyph unicode="&#x203a;" horiz-adv-x="282" d="M225 226l-205 -151l29 135l100 74l-68 74l24 113l139 -151z" />
<glyph unicode="&#x205f;" horiz-adv-x="218" />
<glyph unicode="&#x20ac;" horiz-adv-x="599" d="M74 318h59q3 14 6 30t8 35h-79l31 66h63l2 10q0 4 2 9q27 125 97 184q69 58 183 58q55 0 101 -20t76 -55l-80 -70q-16 22 -44 34t-57 12q-63 0 -109 -35q-46 -36 -63 -113l-3 -14h260l-31 -66h-243l-15 -65h227l-31 -66h-210q-5 -25 -6 -33q-1 -9 -1 -18q0 -28 11 -49 t29 -35t41 -21t47 -7q59 0 110 42l61 -86q-68 -55 -179 -55q-47 0 -87 15q-41 14 -71 41q-30 26 -47 64q-17 37 -17 82q0 14 1 28t4 32h-77z" />
<glyph unicode="&#x2122;" horiz-adv-x="753" d="M67 619v81h311v-81h-113v-325h-85v325h-113zM500 700l98 -204l98 204h83v-406h-82v248l-66 -139h-65l-66 139v-248h-82v406h82z" />
<glyph unicode="&#x25fc;" horiz-adv-x="515" d="M0 515h515v-515h-515v515z" />
<glyph unicode="&#xfb01;" horiz-adv-x="578" d="M320 601q-30 0 -41 -11t-17 -40l-7 -34h127l-21 -97h-127l-89 -419h-105l89 419h-73l21 97h73l12 57q13 61 48 94q34 33 108 33h103l-22 -99h-79zM475 593l23 107h105l-23 -107h-105zM349 0l110 516h105l-110 -516h-105z" />
<glyph unicode="&#xfb02;" horiz-adv-x="607" d="M320 601q-30 0 -41 -11t-17 -40l-7 -34h127l-21 -97h-127l-89 -419h-105l89 419h-73l21 97h73l12 57q13 61 48 94q34 33 108 33h103l-22 -99h-79zM601 700q-29 -135 -49 -229t-33 -156q-14 -63 -21 -99q-8 -36 -11 -54q-4 -19 -5 -24q-1 -6 -1 -8q0 -31 41 -31h16 l-22 -99h-15q-33 0 -56 10q-24 10 -39 26q-15 15 -22 34t-7 37q0 11 2 26q1 15 6 40q4 25 13 65q8 40 21 102t32 150t45 210h105z" />
<glyph unicode="&#xfb03;" horiz-adv-x="913" d="M320 601q-30 0 -41 -11t-17 -40l-7 -34h127l-21 -97h-127l-89 -419h-105l89 419h-73l21 97h73l12 57q13 61 48 94q34 33 108 33h103l-22 -99h-79zM655 601q-30 0 -41 -11t-17 -40l-7 -34h127l-21 -97h-127l-89 -419h-105l89 419h-73l21 97h73l12 57q13 61 48 94 q34 33 108 33h103l-22 -99h-79zM810 593l23 107h105l-23 -107h-105zM684 0l110 516h105l-110 -516h-105z" />
<glyph unicode="&#xfb04;" horiz-adv-x="942" d="M320 601q-30 0 -41 -11t-17 -40l-7 -34h127l-21 -97h-127l-89 -419h-105l89 419h-73l21 97h73l12 57q13 61 48 94q34 33 108 33h103l-22 -99h-79zM655 601q-30 0 -41 -11t-17 -40l-7 -34h127l-21 -97h-127l-89 -419h-105l89 419h-73l21 97h73l12 57q13 61 48 94 q34 33 108 33h103l-22 -99h-79zM936 700q-29 -135 -49 -229t-33 -156q-14 -63 -21 -99q-8 -36 -11 -54q-4 -19 -5 -24q-1 -6 -1 -8q0 -31 41 -31h16l-22 -99h-15q-33 0 -56 10q-24 10 -39 26q-15 15 -22 34t-7 37q0 11 2 26q1 15 6 40q4 25 13 65q8 40 21 102t32 150t45 210 h105z" />
</font>
</defs>
</svg>
