<?xml version="1.0" encoding="UTF-8"?>
<svg width="485px" height="392px" viewBox="0 0 485 392" version="1.1" xmlns="http://www.w3.org/2000/svg" xmlns:xlink="http://www.w3.org/1999/xlink">
    <!-- Generator: Sketch 43.1 (39012) - http://www.bohemiancoding.com/sketch -->
    <title>HIVE-Logo-Green</title>
    <desc>Created with Sketch.</desc>
    <defs></defs>
    <g id="Symbols" stroke="none" stroke-width="1" fill="none" fill-rule="evenodd">
        <g id="HIVE-Logo-Green" fill-rule="nonzero" fill="#57FFC8">
            <path d="M199.271739,52.92 L291,0 L387.849379,55.9353846 L387.849379,161.926154 L336.78882,191.476923 C336.487578,191.627692 336.487578,191.627692 336.186335,191.929231 C335.734472,192.230769 335.43323,192.683077 335.131988,192.984615 C334.830745,193.436923 334.529503,194.04 334.378882,194.793846 C334.228261,195.396923 334.228261,196 334.228261,196.753846 C334.228261,197.206154 334.378882,197.809231 334.680124,198.261538 C334.830745,198.713846 335.131988,199.166154 335.43323,199.618462 C335.734472,200.070769 336.186335,200.372308 336.638199,200.673846 C337.090062,200.975385 337.541925,201.126154 337.993789,201.276923 C339.048137,201.578462 340.102484,201.578462 341.006211,201.276923 C341.307453,201.126154 341.458075,201.126154 341.759317,200.975385 C341.909938,200.975385 342.060559,200.824615 342.060559,200.824615 L393.121118,171.273846 L484.849379,224.193846 L484.849379,336.215385 L387.849379,392 L296.121118,339.08 L296.121118,224.043077 L296.121118,224.043077 C296.121118,223.741538 296.121118,223.289231 295.970497,222.987692 C295.970497,222.836923 295.970497,222.686154 295.819876,222.535385 L295.819876,222.535385 L295.819876,222.535385 L295.819876,222.535385 L295.819876,222.535385 C295.819876,222.535385 295.819876,222.535385 295.819876,222.384615 L295.819876,222.384615 L295.819876,222.384615 L295.819876,222.384615 L295.819876,222.384615 L295.819876,222.384615 L295.819876,222.384615 L295.819876,222.384615 L295.819876,222.384615 L295.819876,222.384615 L295.819876,222.384615 C295.819876,222.233846 295.669255,222.083077 295.669255,221.932308 L295.669255,221.932308 L295.669255,221.932308 L295.669255,221.932308 L295.669255,221.932308 L295.669255,221.932308 L295.669255,221.932308 L295.669255,221.932308 L295.669255,221.932308 L295.669255,221.932308 L295.669255,221.932308 L295.669255,221.932308 L295.669255,221.932308 L295.669255,221.932308 L295.669255,221.932308 L295.669255,221.932308 L295.669255,221.932308 L295.669255,221.932308 L295.669255,221.932308 L295.669255,221.932308 L295.669255,221.932308 L295.669255,221.932308 L295.669255,221.932308 L295.669255,221.932308 L295.669255,221.932308 L295.669255,221.932308 L295.669255,221.932308 L295.669255,221.932308 L295.669255,221.932308 C295.669255,221.932308 295.669255,221.781538 295.518634,221.781538 L295.368012,221.630769 L295.368012,221.630769 L295.368012,221.630769 L295.368012,221.630769 L295.368012,221.630769 L295.368012,221.630769 L295.368012,221.630769 L295.368012,221.630769 L295.368012,221.630769 L295.368012,221.630769 L295.368012,221.630769 L295.368012,221.630769 L295.368012,221.630769 L295.368012,221.630769 L295.368012,221.630769 L295.368012,221.630769 L295.368012,221.630769 C295.217391,221.48 295.06677,221.178462 294.916149,221.027692 L294.916149,221.027692 L294.916149,221.027692 L294.916149,221.027692 L294.916149,221.027692 L294.916149,221.027692 L294.916149,221.027692 L294.916149,221.027692 L294.916149,221.027692 L294.916149,221.027692 L294.916149,221.027692 L294.916149,221.027692 L294.916149,221.027692 L294.916149,221.027692 L294.916149,221.027692 L294.916149,221.027692 L294.916149,221.027692 L294.916149,221.027692 L294.916149,221.027692 L294.916149,221.027692 L294.916149,221.027692 L294.916149,221.027692 L294.916149,221.027692 L294.916149,221.027692 L294.916149,221.027692 L294.916149,221.027692 L294.916149,221.027692 L294.916149,221.027692 C294.916149,221.027692 294.916149,221.027692 294.765528,220.876923 C294.464286,220.575385 294.313665,220.575385 294.012422,220.424615 L199.723602,165.996923 L199.723602,52.92 L199.271739,52.92 Z M188.878882,52.92 L188.878882,164.941538 L142.939441,191.476923 C142.638199,191.627692 142.638199,191.627692 142.336957,191.778462 L140.981366,193.135385 C140.680124,193.738462 140.378882,194.341538 140.228261,194.944615 C140.07764,195.396923 140.07764,196 140.07764,196.452308 C140.07764,196.904615 140.228261,197.507692 140.529503,197.96 C140.680124,198.412308 140.981366,198.864615 141.43323,199.316923 C141.885093,199.92 142.487578,200.372308 143.240683,200.673846 C143.843168,200.975385 144.445652,201.126154 145.048137,201.126154 C145.801242,201.126154 146.554348,201.126154 147.156832,200.824615 C147.307453,200.824615 147.608696,200.673846 147.759317,200.523077 C147.909938,200.523077 147.909938,200.372308 148.060559,200.372308 L193.849379,173.836923 L285.57764,226.756923 L285.57764,338.778462 L194,392 L97.1506211,336.064615 L97.1506211,224.043077 L0.301242236,168.107692 L0.301242236,56.0861538 L97.1506211,0 L188.878882,52.92 Z M178.486025,250.88 L166.586957,250.88 L187.673913,310.132308 L198.669255,310.132308 L219.756211,250.88 L207.857143,250.88 L193.096273,292.190769 L178.486025,250.88 Z M406.375776,249.523077 L370.377329,249.523077 L370.377329,308.775385 L406.375776,308.775385 L406.375776,297.467692 L381.673913,297.467692 L381.673913,284.350769 L406.375776,284.350769 L406.375776,273.043077 L381.673913,273.043077 L381.673913,260.830769 L406.375776,260.830769 L406.375776,249.523077 Z M296.874224,80.6615385 L285.57764,80.6615385 L285.57764,139.913846 L296.874224,139.913846 L296.874224,80.6615385 Z M85.1009317,80.6615385 L72.9006211,80.6615385 L72.9006211,139.913846 L85.1009317,139.913846 L85.1009317,115.64 L108.748447,115.64 L108.748447,139.913846 L120.948758,139.913846 L120.948758,80.6615385 L108.748447,80.6615385 L108.748447,104.332308 L85.1009317,104.332308 L85.1009317,80.6615385 Z" id="Shape"></path>
        </g>
    </g>
</svg>